<?xml version="1.0" standalone="no"?>
<!DOCTYPE svg PUBLIC "-//W3C//DTD SVG 1.1//EN" "http://www.w3.org/Graphics/SVG/1.1/DTD/svg11.dtd" >
<svg xmlns="http://www.w3.org/2000/svg" xmlns:xlink="http://www.w3.org/1999/xlink" version="1.1">
<metadata>
Created by FontForge 20170731 at Sat Jun  3 14:58:17 2023
 By Aleksey,,,
Copyright (c) 2008 by Optimo. All rights reserved.
</metadata>
<defs>
<font id="Theinhardt-Rg" horiz-adv-x="1583" >
  <font-face 
    font-family="Theinhardt"
    font-weight="400"
    font-stretch="normal"
    units-per-em="2048"
    panose-1="2 11 5 3 2 2 2 2 2 4"
    ascent="1393"
    descent="-655"
    x-height="975"
    cap-height="1393"
    bbox="-119 -612 2572 1882"
    underline-thickness="102"
    underline-position="-307"
    unicode-range="U+0020-FB02"
  />
<missing-glyph horiz-adv-x="1024" 
d="M922 111h-820v809h820v-809zM795 807h-566v-584h566v584z" />
    <glyph glyph-name="IJ" unicode="IJ" horiz-adv-x="1253" 
d="M340 1393v-1393h-180v1393h180zM926 1393h180v-1059q0 -143 -49 -219q-87 -140 -334 -140q-92 0 -170 19v164q81 -25 152 -25q106 0 163 47q39 32 48.5 87t9.5 173v953z" />
    <glyph glyph-name="ij" unicode="ij" horiz-adv-x="937" 
d="M322 975v-975h-170v975h170zM322 1393v-217h-170v217h170zM451 -408v142q24 -4 59 -4q73 0 94 37q17 28 17 100v1108h170v-1143q0 -78 -15 -121q-23 -66 -78.5 -95.5t-154.5 -29.5q-51 0 -92 6zM791 1393v-217h-170v217h170z" />
    <glyph glyph-name="napostrophe" unicode="&#x22;n" horiz-adv-x="1112" 
d="M971 610v-610h-170v567q0 153 -54.5 217t-166.5 64q-119 0 -188.5 -82.5t-69.5 -202.5v-563h-170v975h170v-146q42 74 120.5 121t192.5 47q193 0 274 -125q62 -95 62 -262zM29 1620h194v-90q0 -170 -18 -236q-38 -132 -176 -143v94q47 6 67 41q10 18 13.5 26.5t6.5 28
t3 52.5h-90v227z" />
    <glyph glyph-name="fi" unicode="fi" horiz-adv-x="1077" 
d="M926 975v-975h-170v975h170zM926 1393v-217h-170v217h170zM584 975v-129h-207v-846h-170v846h-199v129h199v196q0 119 59.5 177.5t188.5 58.5q69 0 129 -12v-138q-56 7 -80 7q-82 0 -107 -37q-20 -31 -20 -101v-151h207z" />
    <glyph glyph-name="fl" unicode="fl" horiz-adv-x="1077" 
d="M926 1393v-1393h-170v1393h170zM584 975v-129h-207v-846h-170v846h-199v129h199v196q0 119 59.5 177.5t188.5 58.5q69 0 129 -12v-138q-56 7 -80 7q-82 0 -107 -37q-20 -31 -20 -101v-151h207z" />
    <glyph glyph-name=".notdef" horiz-adv-x="1024" 
d="M922 111h-820v809h820v-809zM795 807h-566v-584h566v584z" />
    <glyph glyph-name=".null" horiz-adv-x="0" 
 />
    <glyph glyph-name="nonmarkingreturn" horiz-adv-x="682" 
 />
    <glyph glyph-name="space" unicode=" " horiz-adv-x="552" 
 />
    <glyph glyph-name="exclam" unicode="!" horiz-adv-x="477" 
d="M324 698l-25 -344h-119l-26 344v695h170v-695zM147 256h183v-256h-183v256z" />
    <glyph glyph-name="quotedbl" unicode="&#x22;" horiz-adv-x="714" 
d="M588 1243l-43 -424h-94l-39 424v150h176v-150zM303 1243l-43 -424h-94l-39 424v150h176v-150z" />
    <glyph glyph-name="numbersign" unicode="#" horiz-adv-x="1208" 
d="M1194 977v-156h-320l-51 -305h330v-154h-354l-58 -362h-155l57 362h-205l-57 -362h-156l58 362h-277v154h301l51 305h-309l-2 156h334l68 414h155l-67 -414h204l68 414h156l-68 -414h297zM514 821l-51 -305h205l51 305h-205z" />
    <glyph glyph-name="dollar" unicode="$" horiz-adv-x="1208" 
d="M1067 1169l-131 -108q-102 140 -266 170v-447l39 -8q74 -19 128 -38t107.5 -50t87 -69.5t54 -94.5t20.5 -127q0 -169 -120.5 -273.5t-315.5 -123.5v-188h-158v188q-159 17 -278.5 89.5t-186.5 182.5l146 103q42 -79 124.5 -137.5t194.5 -77.5v489l-35 10
q-70 18 -116.5 33.5t-99.5 44t-84 63.5t-52 89.5t-21 124.5q0 109 55.5 193t146.5 130t206 56v200h158v-204q255 -35 397 -220zM924 387q0 89 -62.5 138.5t-191.5 84.5v-452q115 13 184.5 71.5t69.5 157.5zM283 1030q0 -87 51.5 -131t177.5 -76v414q-104 -11 -166.5 -65.5
t-62.5 -141.5z" />
    <glyph glyph-name="percent" unicode="%" horiz-adv-x="1873" 
d="M729 948q0 -115 -33.5 -210t-109 -157.5t-183.5 -62.5q-84 0 -148 36.5t-100.5 98.5t-54.5 136.5t-18 158.5q0 88 16.5 165.5t52 146t101.5 109t156 40.5q75 0 133 -28.5t92.5 -73.5t57 -107.5t30.5 -123.5t8 -128zM580 946q0 155 -43.5 246.5t-130.5 91.5
q-85 0 -127.5 -90t-42.5 -231q0 -87 15.5 -156t55 -115.5t99.5 -46.5q47 0 82 24t54.5 67t28.5 95t9 115zM1366 1393l-723 -1393h-154l725 1393h152zM1782 410q0 -115 -33.5 -210t-109 -157.5t-183.5 -62.5q-84 0 -148 36.5t-100.5 98.5t-54.5 136.5t-18 158.5q0 69 9.5 132
t33 124t59.5 105.5t93.5 71.5t129.5 27q75 0 133 -28.5t93 -73.5t57.5 -107.5t30.5 -123t8 -127.5zM1632 408q0 155 -43.5 246t-130.5 91q-85 0 -127.5 -90t-42.5 -231q0 -87 15.5 -156t55 -115.5t99.5 -46.5q47 0 82 24t54.5 67.5t28.5 95.5t9 115z" />
    <glyph glyph-name="ampersand" unicode="&#x26;" horiz-adv-x="1247" 
d="M1044 0l-149 174q-153 -199 -412 -199q-185 0 -305.5 106.5t-120.5 289.5q0 80 24 145t72.5 115t101.5 86.5t130 75.5l-23 30q-69 90 -90 130q-41 79 -41 165q0 120 91 209.5t243 89.5q157 0 242.5 -82t85.5 -205q0 -225 -262 -374l250 -301q43 141 59 241l156 -39
q-27 -181 -107 -340l279 -317h-224zM799 295l-322 385q-56 -31 -93.5 -56.5t-76 -62.5t-57.5 -83t-19 -101q0 -116 79.5 -183t191.5 -67q94 0 171.5 45t125.5 123zM498 920l39 -50q186 102 186 242q0 73 -45.5 116.5t-112.5 43.5q-71 0 -115 -42.5t-44 -113.5
q0 -37 15.5 -76t32 -62t44.5 -58z" />
    <glyph glyph-name="quotesingle" unicode="'" horiz-adv-x="430" 
d="M303 1243l-43 -424h-94l-39 424v150h176v-150z" />
    <glyph glyph-name="parenleft" unicode="(" horiz-adv-x="536" 
d="M520 -309l-141 -27q-132 206 -196 415.5t-64 446.5q0 235 67 462t195 421l141 -20q-119 -196 -180 -416t-61 -441q0 -212 65.5 -436t173.5 -405z" />
    <glyph glyph-name="parenright" unicode=")" horiz-adv-x="536" 
d="M154 -336l-142 27q108 181 174 405t66 436q0 220 -61.5 440.5t-180.5 416.5l142 20q128 -194 195 -421t67 -462q0 -237 -64 -446.5t-196 -415.5z" />
    <glyph glyph-name="asterisk" unicode="*" horiz-adv-x="763" 
d="M455 1393l-2 -265l249 84l46 -139l-252 -80l157 -211l-118 -86l-154 213l-152 -213l-118 86l155 211l-250 80l45 139l248 -84v265h146z" />
    <glyph glyph-name="plus" unicode="+" 
d="M870 530v-530h-157v530h-523v156h523v528h157v-528h521v-156h-521z" />
    <glyph glyph-name="comma" unicode="," horiz-adv-x="395" 
d="M102 236h195v-154q0 -170 -18 -236q-38 -132 -177 -143v94q48 6 68 41q23 42 23 133v29h-91v236z" />
    <glyph glyph-name="hyphen" unicode="-" horiz-adv-x="692" 
d="M82 645h528v-178h-528v178z" />
    <glyph glyph-name="period" unicode="." horiz-adv-x="391" 
d="M98 236h195v-236h-195v236z" />
    <glyph glyph-name="slash" unicode="/" horiz-adv-x="925" 
d="M748 1393h165l-733 -1393h-168z" />
    <glyph glyph-name="zero" unicode="0" horiz-adv-x="1208" 
d="M604 1268q-116 0 -195 -76.5t-114 -202t-35 -291.5q0 -96 10 -176.5t34.5 -155t62.5 -126t98.5 -82.5t138.5 -31q344 0 344 571q0 166 -35 291.5t-114 202t-195 76.5zM604 -25q-116 0 -208 40t-151.5 107t-98.5 161t-55.5 195t-16.5 216q0 120 19.5 226t61 198t103 158
t150 103.5t196.5 37.5t196.5 -37.5t150 -103t103.5 -157.5t61.5 -198t19.5 -227q0 -114 -16.5 -215.5t-56.5 -195t-99.5 -161t-151.5 -107.5t-207 -40z" />
    <glyph glyph-name="one" unicode="1" horiz-adv-x="1208" 
d="M768 1393v-1393h-174v958h-367v138h45q158 0 238 59q100 73 106 238h152z" />
    <glyph glyph-name="two" unicode="2" horiz-adv-x="1208" 
d="M365 788l-195 17q-10 23 -20.5 77t-10.5 107q0 86 31.5 163.5t89.5 136.5t146 93.5t194 34.5q117 0 206.5 -35.5t142.5 -98.5t79.5 -143t26.5 -175q0 -91 -28.5 -178t-73.5 -158t-111 -140.5t-130.5 -122t-142.5 -106.5q-60 -40 -168 -106h664v-154h-915v145
q88 55 221 156.5t252 204.5q57 50 97.5 94t77.5 100t56.5 120.5t19.5 135.5q0 145 -78.5 226.5t-205.5 81.5q-131 0 -201 -76.5t-70 -196.5q0 -105 46 -203z" />
    <glyph glyph-name="three" unicode="3" horiz-adv-x="1208" 
d="M289 1004l-156 49q3 43 19.5 90t53 96.5t87 88.5t127.5 64t168 25q214 0 327 -100t113 -262q0 -116 -57 -196t-148 -118q104 -38 174 -126t70 -220q0 -187 -134 -303.5t-362 -116.5q-214 0 -337 112t-134 304l166 53q9 -159 93 -238t214 -79q144 0 227 74t83 200
q0 167 -148 226q-81 32 -225 32h-127v144h115q145 0 231 39q117 52 117 198q0 104 -70 166t-196 62q-131 0 -203.5 -75t-87.5 -189z" />
    <glyph glyph-name="four" unicode="4" horiz-adv-x="1208" 
d="M887 344v-344h-174v344h-633v131l647 918h160v-893h233v-156h-233zM274 500h439v444q0 93 8 203q-92 -153 -129 -205z" />
    <glyph glyph-name="five" unicode="5" horiz-adv-x="1208" 
d="M109 315l172 64q29 -122 109.5 -187t195.5 -65q131 0 221 91t90 263q0 152 -87.5 235t-209.5 83q-112 0 -191.5 -61.5t-111.5 -178.5l-152 49l72 785h787l-11 -160h-622l-41 -387q123 106 295 106q202 0 328 -127.5t126 -347.5q0 -221 -134 -361.5t-363 -140.5
q-183 0 -306.5 89.5t-166.5 250.5z" />
    <glyph glyph-name="six" unicode="6" horiz-adv-x="1208" 
d="M1065 1063l-162 -41q-7 29 -16 55.5t-30.5 63.5t-49 63t-72.5 45t-100 19q-153 0 -237 -127.5t-93 -362.5q53 66 143.5 108t204.5 42q201 0 323 -128t122 -323q0 -100 -31 -190t-89 -160t-148.5 -111t-202.5 -41q-243 0 -374.5 175.5t-131.5 535.5q0 346 135 538.5
t385 192.5q84 0 154 -23t116 -59.5t80 -84.5t51 -94t23 -93zM920 467q0 145 -81.5 226t-211.5 81q-95 0 -184 -49t-138 -131q5 -213 90 -340t232 -127q131 0 212 93t81 247z" />
    <glyph glyph-name="seven" unicode="7" horiz-adv-x="1208" 
d="M1114 1393v-133q-203 -306 -320.5 -609t-146.5 -651h-192q33 331 148.5 632t314.5 603h-601v-268h-165v426h962z" />
    <glyph glyph-name="eight" unicode="8" horiz-adv-x="1208" 
d="M602 1417q215 0 335 -104t120 -266q0 -102 -57 -184.5t-142 -121.5q240 -115 240 -348q0 -84 -30 -158t-88.5 -133t-155.5 -93t-222 -34t-222 34t-155 93t-87 132.5t-29 158.5q0 242 239 350q-89 37 -145 116.5t-56 187.5q0 162 120 266t335 104zM602 127q149 0 230 77.5
t81 190.5q0 122 -83.5 196.5t-227.5 74.5q-143 0 -226 -74.5t-83 -196.5q0 -113 80.5 -190.5t228.5 -77.5zM602 811q130 0 205.5 65.5t75.5 163.5q0 101 -78 164.5t-203 63.5q-126 0 -203 -63t-77 -165q0 -98 74.5 -163.5t205.5 -65.5z" />
    <glyph glyph-name="nine" unicode="9" horiz-adv-x="1208" 
d="M135 330l162 43q7 -29 16 -55.5t30.5 -63.5t49 -63t72.5 -45t100 -19q153 0 237 126t93 361q-53 -66 -143.5 -107.5t-204.5 -41.5q-134 0 -236 59.5t-155.5 161.5t-53.5 229q0 100 31 190t89 160t148.5 111t202.5 41q243 0 374.5 -175t131.5 -535q0 -346 -135 -539
t-385 -193q-84 0 -154 23.5t-116 59.5t-80 84.5t-51 94.5t-23 93zM281 928q0 -145 81 -226t211 -81q95 0 184 49t138 131q-5 213 -90 340t-232 127q-131 0 -211.5 -93t-80.5 -247z" />
    <glyph glyph-name="colon" unicode=":" horiz-adv-x="399" 
d="M102 236h195v-236h-195v236zM102 975h195v-236h-195v236z" />
    <glyph glyph-name="semicolon" unicode=";" horiz-adv-x="399" 
d="M102 975h195v-236h-195v236zM102 236h195v-154q0 -170 -18 -236q-38 -132 -177 -143v94q48 6 68 41q23 42 23 133v29h-91v236z" />
    <glyph glyph-name="less" unicode="&#x3c;" 
d="M1481 137v-184l-1389 653v164l1389 649v-178l-1172 -551z" />
    <glyph glyph-name="equal" unicode="=" 
d="M1481 338h-1377v156h1377v-156zM1481 694h-1377v156h1377v-156z" />
    <glyph glyph-name="greater" unicode="&#x3e;" 
d="M102 -47v184l1172 553l-1172 551v178l1389 -649v-164z" />
    <glyph glyph-name="question" unicode="?" horiz-adv-x="956" 
d="M258 829l-186 27q-33 59 -33 170q0 163 118.5 273t309.5 110q200 0 310 -103t110 -262q0 -90 -31 -168t-71 -127t-105 -110l-53 -49q-60 -54 -83.5 -96.5t-23.5 -120.5v-64h-182v78q0 95 29 156t120 143l76 68q142 125 142 268q0 102 -64.5 168.5t-179.5 66.5
q-113 0 -179.5 -68.5t-66.5 -170.5q0 -45 10.5 -92.5t21.5 -71.5zM336 227h184v-227h-184v227z" />
    <glyph glyph-name="at" unicode="@" horiz-adv-x="1693" 
d="M1264 315q78 0 131 114t53 294q0 113 -37.5 214t-106.5 179.5t-177.5 125t-241.5 46.5q-178 0 -321.5 -83.5t-226.5 -237t-83 -349.5q0 -300 178 -485.5t469 -185.5q175 0 321 72.5t255 207.5l82 -108q-118 -144 -288 -223.5t-374 -79.5q-187 0 -338 59t-250.5 165
t-153 253.5t-53.5 324.5q0 174 60.5 324t165.5 253.5t249.5 162.5t307.5 59t298 -54.5t223 -149t136.5 -219t48.5 -265.5q0 -291 -125 -432q-94 -107 -229 -107q-68 0 -115 27t-61 72q-78 -103 -258 -103q-133 0 -215 71t-82 198q0 66 22 112.5t67.5 75.5t96 45t125.5 29
l164 28q42 8 56 17t14 31v18q0 69 -38.5 106t-142.5 37q-101 0 -149.5 -47.5t-48.5 -128.5l-142 19q1 142 98.5 216t252.5 74q153 0 235 -61t82 -215v-403q0 -48 15.5 -70.5t50.5 -22.5zM1051 512v127q-26 -9 -109 -25l-94 -18q-32 -6 -53.5 -11t-48 -16t-42.5 -24.5
t-27 -36t-11 -51.5q0 -68 48 -104t124 -36q93 0 153 47t60 148z" />
    <glyph glyph-name="A" unicode="A" horiz-adv-x="1200" 
d="M334 401l-139 -401h-189l498 1393h201l489 -1393h-195l-139 401h-526zM809 557l-158 459q-40 106 -53 164h-2q-25 -86 -53 -166l-156 -457h422z" />
    <glyph glyph-name="B" unicode="B" horiz-adv-x="1296" 
d="M340 643v-481h371q159 0 215 24q61 28 98 87t37 133q0 125 -103 194q-46 28 -102 35.5t-145 7.5h-371zM1014 1014q0 66 -30.5 115t-82.5 73q-67 27 -209 27h-352v-430h352q132 0 207 28q54 25 84.5 73t30.5 114zM719 0h-559v1393h545q114 0 182 -12.5t123 -39.5
q182 -92 182 -311q0 -110 -57.5 -186.5t-153.5 -106.5q119 -36 188.5 -125.5t69.5 -216.5q0 -116 -49 -201t-141 -133q-58 -32 -131 -46.5t-199 -14.5z" />
    <glyph glyph-name="C" unicode="C" horiz-adv-x="1335" 
d="M1110 399l164 -82q-76 -162 -218 -252t-331 -90q-138 0 -255 49t-201 140t-131.5 227.5t-47.5 304.5q0 211 76.5 374t221.5 255t337 92q182 0 320 -83.5t217 -233.5l-154 -105q-54 128 -152 196.5t-231 68.5q-206 0 -326 -153t-120 -411q0 -257 120 -410t326 -153
q133 0 231.5 69t153.5 197z" />
    <glyph glyph-name="D" unicode="D" horiz-adv-x="1359" 
d="M492 0h-332v1393h340q200 0 307 -17t199 -84q116 -86 187 -242t71 -348q0 -172 -53.5 -315.5t-151.5 -241.5q-37 -36 -73.5 -61t-82.5 -41t-81 -25t-98.5 -13t-104 -4.5t-127.5 -0.5zM340 1231v-1071h192q81 0 120.5 1.5t95 9t95.5 26t77 49.5q73 60 118 179.5t45 268.5
q0 135 -45.5 257t-124.5 192q-68 57 -152 72.5t-255 15.5h-166z" />
    <glyph glyph-name="E" unicode="E" horiz-adv-x="1212" 
d="M1130 162v-162h-970v1393h932v-162h-752v-434h682v-162h-682v-473h790z" />
    <glyph glyph-name="F" unicode="F" horiz-adv-x="1130" 
d="M340 0h-180v1393h919v-160h-739v-434h668v-160h-668v-639z" />
    <glyph glyph-name="G" unicode="G" horiz-adv-x="1452" 
d="M723 131q107 0 198 38t136 103q38 56 56.5 125.5t19.5 173.5h-480v162h647v-733h-170v178q-56 -86 -161 -144.5t-250 -58.5q-138 0 -254 49t-199 140t-129.5 227.5t-46.5 304.5q0 211 76.5 374.5t221 255t335.5 91.5q185 0 323 -83.5t214 -233.5l-152 -103
q-55 126 -153.5 194.5t-231.5 68.5q-205 0 -326 -153.5t-121 -410.5q0 -256 121 -410.5t326 -154.5z" />
    <glyph glyph-name="H" unicode="H" horiz-adv-x="1413" 
d="M1253 1393v-1393h-180v641h-733v-641h-180v1393h180v-590h733v590h180z" />
    <glyph glyph-name="I" unicode="I" horiz-adv-x="499" 
d="M340 1393v-1393h-180v1393h180z" />
    <glyph glyph-name="J" unicode="J" horiz-adv-x="753" 
d="M426 1393h180v-1059q0 -143 -49 -219q-87 -140 -334 -140q-92 0 -170 19v164q81 -25 152 -25q107 0 164 47q39 32 48 86t9 174v953z" />
    <glyph glyph-name="K" unicode="K" horiz-adv-x="1306" 
d="M731 838l586 -838h-227l-492 713l-258 -267v-446h-180v1393h180v-723l700 723h242z" />
    <glyph glyph-name="L" unicode="L" horiz-adv-x="1081" 
d="M1030 162v-162h-870v1393h182v-1231h688z" />
    <glyph glyph-name="M" unicode="M" horiz-adv-x="1593" 
d="M887 0h-170l-316 952q-12 35 -29 93t-28 99l-10 40h-2q2 -168 2 -291v-893h-174v1393h258l317 -947q20 -56 44.5 -133t25.5 -80q26 109 61 216l305 944h263v-1393h-174v909v295h-3q-38 -155 -65 -235z" />
    <glyph glyph-name="N" unicode="N" horiz-adv-x="1435" 
d="M338 1393l655 -936q78 -110 105 -158h2q-4 102 -4 225v869h180v-1393h-178l-652 938q-81 115 -108 168h-2q4 -90 4 -172v-934h-180v1393h178z" />
    <glyph glyph-name="O" unicode="O" horiz-adv-x="1443" 
d="M90 696q0 211 76.5 374.5t221 255t335.5 91.5q287 0 459 -200t172 -521q0 -212 -75.5 -374.5t-219.5 -254.5t-336 -92q-191 0 -335.5 91.5t-221 255t-76.5 374.5zM279 696q0 -257 119 -409t325 -152q204 0 323 152.5t119 408.5q0 257 -118 409t-324 152t-325 -151.5
t-119 -409.5z" />
    <glyph glyph-name="P" unicode="P" horiz-adv-x="1239" 
d="M342 594v-594h-182v1393h518q183 0 283 -41q110 -49 171.5 -139.5t61.5 -219.5q0 -111 -47.5 -195.5t-132.5 -135.5q-70 -41 -150 -54.5t-209 -13.5h-313zM342 1233v-479h334q123 0 196 24q138 52 138 215t-138 215q-77 25 -196 25h-334z" />
    <glyph glyph-name="Q" unicode="Q" horiz-adv-x="1443" 
d="M90 696q0 211 76.5 374.5t221 255t335.5 91.5q287 0 459 -200t172 -521q0 -288 -135 -477l145 -149l-131 -127l-139 147q-155 -115 -371 -115q-191 0 -335.5 91.5t-221 255t-76.5 374.5zM279 696q0 -257 119 -409t325 -152q204 0 323 152.5t119 408.5q0 257 -118 409
t-324 152t-325 -151.5t-119 -409.5z" />
    <glyph glyph-name="R" unicode="R" horiz-adv-x="1269" 
d="M340 596v-596h-180v1393h524q179 0 287 -41q107 -43 167 -136t60 -223q0 -162 -96.5 -262.5t-255.5 -126.5l393 -604h-225l-381 596h-293zM340 756h313q159 0 240 35q119 56 119 204q0 72 -32 125.5t-91 79.5q-84 33 -238 33h-311v-477z" />
    <glyph glyph-name="S" unicode="S" horiz-adv-x="1193" 
d="M1077 1184l-133 -113q-131 186 -375 186q-130 0 -211.5 -57.5t-81.5 -159.5q0 -90 55.5 -135.5t190.5 -79.5l189 -47q76 -20 131 -39.5t109.5 -51.5t88.5 -71t55 -97t21 -130q0 -128 -69.5 -223t-187 -143t-267.5 -48q-189 0 -333.5 78t-221.5 207l147 105
q53 -99 162 -163.5t256 -64.5q146 0 237 62.5t91 179.5q0 96 -69 147t-216 88l-170 43q-71 19 -118.5 35t-102 45.5t-86 65.5t-53 92.5t-21.5 128.5q0 123 66.5 213.5t173.5 135t237 44.5q179 0 305.5 -67t200.5 -166z" />
    <glyph glyph-name="T" unicode="T" horiz-adv-x="1069" 
d="M16 1231v162h1037v-162h-428v-1231h-181v1231h-428z" />
    <glyph glyph-name="U" unicode="U" horiz-adv-x="1351" 
d="M676 -27q-325 0 -455 220q-40 68 -55.5 148.5t-15.5 231.5v820h180v-818q0 -72 2 -115t14 -99t35 -93q38 -64 115.5 -99.5t179.5 -35.5t179.5 35.5t115.5 99.5q23 37 35 93t14 99t2 115v818h180v-820q0 -150 -16 -230.5t-56 -149.5q-130 -220 -454 -220z" />
    <glyph glyph-name="V" unicode="V" horiz-adv-x="1169" 
d="M190 1393l340 -994q28 -71 52 -149h2q19 68 51 149l350 994h184l-501 -1393h-181l-487 1393h190z" />
    <glyph glyph-name="W" unicode="W" horiz-adv-x="1753" 
d="M1333 627l211 766h185l-400 -1393h-145l-246 842q-21 74 -55 211q-4 -15 -58 -215l-241 -838h-144l-415 1393h194l219 -770q16 -54 33 -117.5t31 -118.5t16 -61q77 291 80 301l213 766h139l226 -770q61 -206 79 -291q51 199 78 295z" />
    <glyph glyph-name="X" unicode="X" horiz-adv-x="1263" 
d="M748 750l522 -750h-219l-416 604l-430 -604h-211l532 739l-467 654h228l352 -510l352 510h223z" />
    <glyph glyph-name="Y" unicode="Y" horiz-adv-x="1173" 
d="M664 569v-569h-181v569l-503 824h206l398 -652l407 652h203z" />
    <glyph glyph-name="Z" unicode="Z" horiz-adv-x="1107" 
d="M1081 162v-162h-1044v133l807 1098h-772v162h989v-142l-797 -1089h817z" />
    <glyph glyph-name="bracketleft" unicode="[" horiz-adv-x="575" 
d="M530 -193v-133h-387v1719h387v-133h-223v-1453h223z" />
    <glyph glyph-name="backslash" unicode="\" horiz-adv-x="925" 
d="M12 1393h166l735 -1393h-168z" />
    <glyph glyph-name="bracketright" unicode="]" horiz-adv-x="575" 
d="M45 -324v134h223v1450h-223v133h387v-1717h-387z" />
    <glyph glyph-name="asciicircum" unicode="^" 
d="M874 1393l355 -731h-193l-243 528l-244 -528h-197l367 731h155z" />
    <glyph glyph-name="underscore" unicode="_" horiz-adv-x="1060" 
d="M1069 -168v-156h-1077v156h1077z" />
    <glyph glyph-name="grave" unicode="`" horiz-adv-x="874" 
d="M211 1393h217l141 -263h-149z" />
    <glyph glyph-name="a" unicode="a" horiz-adv-x="1028" 
d="M965 104v-118q-45 -9 -97 -9q-85 0 -121.5 33.5t-41.5 98.5h-3q-83 -136 -294 -136q-155 0 -246.5 75t-91.5 218q0 109 59 174q46 52 123.5 81t196.5 50l163 27q49 8 65.5 19t16.5 40v29q0 85 -43.5 127.5t-163.5 42.5q-231 0 -231 -205l-162 19q-1 80 30.5 143t87 102
t127.5 59.5t155 20.5q88 0 151 -14t113 -47.5t75 -95t25 -150.5v-495q0 -50 19.5 -69.5t64.5 -19.5h23zM694 313v179q-16 -6 -217 -48q-47 -10 -72.5 -16t-60.5 -19.5t-53 -29.5t-31.5 -42t-13.5 -61q0 -81 56 -125.5t147 -44.5q106 0 175.5 50.5t69.5 156.5z" />
    <glyph glyph-name="b" unicode="b" horiz-adv-x="1150" 
d="M641 -25q-123 0 -204 52t-115 116v-143h-170v1393h170v-562q33 63 113.5 114.5t199.5 51.5q189 0 309.5 -136.5t120.5 -375.5q0 -236 -117.5 -373t-306.5 -137zM305 489q0 -179 84.5 -274.5t218.5 -95.5q132 0 207.5 98t75.5 272q0 175 -78 272t-209 97
q-132 0 -215.5 -95.5t-83.5 -273.5z" />
    <glyph glyph-name="c" unicode="c" horiz-adv-x="1009" 
d="M831 293l134 -68q-60 -122 -167 -186t-249 -64q-216 0 -339.5 137t-123.5 371q0 233 128.5 373.5t334.5 140.5q150 0 253.5 -68.5t153.5 -195.5l-141 -74q-70 197 -266 197q-132 0 -210.5 -99t-78.5 -272q0 -171 80.5 -269.5t208.5 -98.5q203 0 282 176z" />
    <glyph glyph-name="d" unicode="d" horiz-adv-x="1150" 
d="M510 -25q-189 0 -306.5 137t-117.5 373q0 239 120.5 375.5t309.5 136.5q119 0 199.5 -51.5t113.5 -114.5v562h170v-1393h-170v143q-34 -64 -115 -116t-204 -52zM846 489q0 178 -83.5 273.5t-215.5 95.5q-131 0 -209 -97t-78 -272q0 -174 75.5 -272t207.5 -98
q134 0 218.5 95.5t84.5 274.5z" />
    <glyph glyph-name="e" unicode="e" horiz-adv-x="1073" 
d="M858 289l123 -88q-15 -23 -33.5 -46t-57.5 -57.5t-83.5 -60t-112.5 -44t-143 -18.5q-212 0 -338.5 137.5t-126.5 379.5q0 223 130.5 364t332.5 141q142 0 242.5 -68t148 -182t47.5 -262v-36h-729q2 -62 20.5 -118.5t54.5 -104t96.5 -75.5t137.5 -28q189 0 291 166z
M549 860q-114 0 -193 -75t-92 -201h547q-11 130 -79 203t-183 73z" />
    <glyph glyph-name="f" unicode="f" horiz-adv-x="604" 
d="M584 975v-129h-207v-846h-170v846h-199v129h199v196q0 119 59.5 177.5t188.5 58.5q69 0 129 -12v-138q-56 7 -80 7q-82 0 -107 -37q-20 -31 -20 -101v-151h207z" />
    <glyph glyph-name="g" unicode="g" horiz-adv-x="1146" 
d="M117 -68l159 27q35 -225 269 -225q87 0 143.5 20t87 64.5t42 103t11.5 148.5l2 98q-36 -76 -119.5 -123t-193.5 -47q-195 0 -313.5 133t-118.5 363q0 228 121.5 365.5t310.5 137.5q105 0 187.5 -47.5t123.5 -118.5v144h170v-916q0 -168 -43 -266q-46 -106 -146.5 -152.5
t-266.5 -46.5q-379 0 -426 338zM846 494q0 177 -82.5 269.5t-216.5 92.5q-131 0 -209 -97.5t-78 -262.5q0 -164 75 -258.5t208 -94.5q136 0 219.5 88t83.5 263z" />
    <glyph glyph-name="h" unicode="h" horiz-adv-x="1112" 
d="M971 610v-610h-170v567q0 153 -54.5 217t-166.5 64q-119 0 -188.5 -82.5t-69.5 -202.5v-563h-170v1393h170v-564q42 74 120.5 121t192.5 47q193 0 274 -125q62 -95 62 -262z" />
    <glyph glyph-name="i" unicode="i" horiz-adv-x="473" 
d="M322 975v-975h-170v975h170zM322 1393v-217h-170v217h170z" />
    <glyph glyph-name="j" unicode="j" horiz-adv-x="464" 
d="M-23 -408v142q24 -4 60 -4q73 0 94 37q16 27 16 100v1108h170v-1143q0 -80 -14 -121q-23 -66 -78.5 -95.5t-154.5 -29.5q-52 0 -93 6zM317 1393v-217h-170v217h170z" />
    <glyph glyph-name="k" unicode="k" horiz-adv-x="985" 
d="M580 594l436 -594h-213l-346 479l-135 -133v-346h-170v1393h170v-852l444 434h213z" />
    <glyph glyph-name="l" unicode="l" horiz-adv-x="473" 
d="M322 1393v-1393h-170v1393h170z" />
    <glyph glyph-name="m" unicode="m" horiz-adv-x="1662" 
d="M752 0v555q0 113 -23 180q-43 115 -174 115q-98 0 -165.5 -82t-67.5 -201v-567h-170v975h170v-146q33 72 114.5 120t177.5 48q218 0 279 -184q39 77 124.5 130.5t199.5 53.5q104 0 177.5 -49.5t104.5 -150.5q23 -77 23 -179v-618h-170v555q0 113 -23 180
q-43 115 -174 115q-98 0 -165.5 -82t-67.5 -201v-567h-170z" />
    <glyph glyph-name="n" unicode="n" horiz-adv-x="1112" 
d="M971 610v-610h-170v567q0 153 -54.5 217t-166.5 64q-119 0 -188.5 -82.5t-69.5 -202.5v-563h-170v975h170v-146q42 74 120.5 121t192.5 47q193 0 274 -125q62 -95 62 -262z" />
    <glyph glyph-name="o" unicode="o" horiz-adv-x="1101" 
d="M86 483q0 233 129 373.5t336 140.5t336 -140.5t129 -373.5q0 -232 -127.5 -370t-337.5 -138t-337.5 138t-127.5 370zM260 485q0 -172 80 -270t211 -98t211 98.5t80 269.5q0 175 -79 274t-212 99t-212 -100t-79 -273z" />
    <glyph glyph-name="p" unicode="p" horiz-adv-x="1150" 
d="M641 -25q-123 0 -204 52t-115 116v-532h-170v1364h170v-144q33 63 113.5 114.5t199.5 51.5q189 0 309.5 -136.5t120.5 -375.5q0 -236 -117.5 -373t-306.5 -137zM305 489q0 -179 84.5 -274.5t218.5 -95.5q132 0 207.5 98t75.5 272q0 175 -78 272t-209 97
q-132 0 -215.5 -95.5t-83.5 -273.5z" />
    <glyph glyph-name="q" unicode="q" horiz-adv-x="1150" 
d="M510 -25q-189 0 -306.5 137t-117.5 373q0 239 120.5 375.5t309.5 136.5q119 0 199.5 -51.5t113.5 -114.5v144h170v-1364h-170v532q-34 -64 -115 -116t-204 -52zM846 489q0 178 -83.5 273.5t-215.5 95.5q-131 0 -209 -97t-78 -272q0 -174 75.5 -272t207.5 -98
q134 0 218.5 95.5t84.5 274.5z" />
    <glyph glyph-name="r" unicode="r" horiz-adv-x="684" 
d="M672 993v-162q-35 7 -64 7q-88 0 -155 -48.5t-99 -122t-32 -157.5v-510h-170v975h170v-184q17 85 104.5 146.5t189.5 61.5q35 0 56 -6z" />
    <glyph glyph-name="s" unicode="s" horiz-adv-x="940" 
d="M827 844l-110 -111q-110 123 -271 123q-85 0 -138.5 -35t-53.5 -98q0 -64 49 -93t170 -55l113 -22q132 -28 206 -89t74 -179q0 -145 -113.5 -227.5t-293.5 -82.5q-131 0 -242.5 55.5t-175.5 137.5l111 115q59 -76 140 -121t177 -45q102 0 162.5 40.5t60.5 112.5
q0 63 -41.5 89t-128.5 42l-133 27q-68 13 -119.5 32.5t-96 50.5t-68 79t-23.5 110q0 75 32.5 134t87 93.5t119 52t134.5 17.5q125 0 221.5 -45t150.5 -108z" />
    <glyph glyph-name="t" unicode="t" horiz-adv-x="593" 
d="M-10 846v129h188v352l170 37v-389h215v-129h-215v-604q0 -69 14 -92q17 -33 89 -33q46 0 112 12v-133q-86 -21 -170 -21q-164 0 -203 103q-12 34 -12 94v674h-188z" />
    <glyph glyph-name="u" unicode="u" horiz-adv-x="1101" 
d="M143 420v555h170v-561q0 -135 33 -197q47 -92 189 -92q118 0 182.5 83t64.5 208v559h170v-975h-170v143q-95 -168 -311 -168q-160 0 -244 93q-48 55 -66 126.5t-18 225.5z" />
    <glyph glyph-name="v" unicode="v" horiz-adv-x="888" 
d="M877 975l-355 -975h-162l-348 975h178l203 -592q26 -70 56 -172h2q36 118 57 178l201 586h168z" />
    <glyph glyph-name="w" unicode="w" horiz-adv-x="1476" 
d="M825 975l160 -535q42 -131 62 -209h2q36 135 63 215l170 529h176l-338 -975h-153l-170 555q-38 116 -54 182h-2q-18 -75 -53 -184l-176 -553h-160l-334 975h181l178 -535q32 -91 63 -209h2q26 101 62 211l174 533h147z" />
    <glyph glyph-name="x" unicode="x" horiz-adv-x="903" 
d="M553 516l334 -516h-205l-233 391l-246 -391h-187l340 506l-313 469h207l213 -342l215 342h188z" />
    <glyph glyph-name="y" unicode="y" horiz-adv-x="874" 
d="M866 975l-428 -1174q-43 -120 -112.5 -163.5t-182.5 -43.5q-51 0 -123 13v137q68 -10 111 -10q84 0 123 39q31 31 53 98l43 125l-338 979h181l190 -590l53 -170h2q29 96 60 182l198 578h170z" />
    <glyph glyph-name="z" unicode="z" horiz-adv-x="849" 
d="M813 141v-141h-768v135l549 699h-522v141h735v-131l-561 -703h567z" />
    <glyph glyph-name="braceleft" unicode="{" horiz-adv-x="489" 
d="M41 481v121q23 7 40 14.5t30 19.5t21.5 21.5t14.5 28t9 31t4.5 39t1.5 43v51.5v250q0 164 58 228.5t204 64.5h35v-127q-80 0 -106.5 -34t-26.5 -136v-240q0 -76 -4.5 -122t-18.5 -87.5t-42 -65.5t-73 -38v-2q45 -14 73 -38t42 -66t18.5 -88t4.5 -122v-254
q0 -102 26.5 -136t106.5 -34v-127h-35q-146 0 -204 64.5t-58 228.5v264v51.5t-1.5 43t-4.5 39t-9 31t-14.5 28t-21.5 21.5t-30 19.5t-40 14.5z" />
    <glyph glyph-name="bar" unicode="|" horiz-adv-x="456" 
d="M309 1393v-1717h-162v1717h162z" />
    <glyph glyph-name="braceright" unicode="}" horiz-adv-x="489" 
d="M449 602v-121q-23 -7 -40 -14.5t-30 -19.5t-21.5 -21.5t-14.5 -28t-9 -31t-4.5 -39t-1.5 -43v-51.5v-264q0 -164 -58 -228.5t-204 -64.5h-35v127q80 0 106.5 34t26.5 136v254q0 151 25.5 219.5t111.5 94.5v2q-86 26 -111.5 94t-25.5 219v240q0 102 -26.5 136t-106.5 34
v127h35q146 0 204 -64.5t58 -228.5v-250v-51.5t1.5 -43t4.5 -39t9 -31t14.5 -28t21.5 -21.5t30 -19.5t40 -14.5z" />
    <glyph glyph-name="asciitilde" unicode="~" 
d="M1176 756l81 -140q-65 -81 -132 -127.5t-150 -46.5q-54 0 -106.5 18.5t-131.5 61.5q-106 58 -176 58q-47 0 -82.5 -30.5t-99.5 -113.5l-86 133q16 24 28.5 42t40 47t54 48t66 33.5t81.5 14.5q41 0 87.5 -12.5t76 -25.5t84.5 -40q5 -2 26 -12.5l27 -13.5t23.5 -11
t26 -10.5t22 -7t24 -6t21.5 -1.5q28 0 56 12.5t55 37.5t43.5 43.5t40.5 48.5z" />
    <glyph glyph-name="uni00A0" unicode="&#xa0;" horiz-adv-x="552" 
 />
    <glyph glyph-name="exclamdown" unicode="&#xa1;" horiz-adv-x="477" 
d="M299 621l25 -345v-694h-170v694l26 345h119zM330 719h-183v256h183v-256z" />
    <glyph glyph-name="cent" unicode="&#xa2;" horiz-adv-x="1208" 
d="M1038 733l-143 -86q-53 167 -190 201v-725q141 27 206 186l136 -84q-52 -105 -139.5 -167.5t-202.5 -77.5v-211h-148v213q-184 23 -286.5 155.5t-102.5 345.5q0 210 106 346.5t283 161.5v197h148v-195q244 -30 333 -260zM342 485q0 -145 58 -238t157 -120v719
q-101 -27 -158 -120.5t-57 -240.5z" />
    <glyph glyph-name="sterling" unicode="&#xa3;" horiz-adv-x="1208" 
d="M762 616h-293q0 -25 2 -79.5t2 -75.5q0 -110 -21 -186t-85 -117q35 2 219 2h436v-160h-938v150q84 5 129.5 33t66.5 92.5t21 183.5q0 49 -6 157h-211v160h201q-6 177 -6 197q0 93 20 169t63.5 138.5t120 97.5t181.5 35q86 0 154.5 -23.5t111.5 -60.5t71.5 -87t40 -100
t11.5 -102l-166 -45q-3 267 -225 267q-110 0 -163 -76t-53 -205q0 -18 11 -205h305v-160z" />
    <glyph glyph-name="currency" unicode="&#xa4;" horiz-adv-x="1091" 
d="M143 580q0 126 66 227q-24 25 -69.5 69t-57.5 56l117 117l125 -127q92 63 223 63q136 0 225 -63l123 122l115 -114l-121 -123q63 -101 63 -227q0 -134 -61 -228l119 -119l-115 -114l-121 123q-97 -66 -227 -66q-137 0 -228 64l-122 -123l-115 114l125 125
q-64 100 -64 224zM289 580q0 -108 76 -187.5t182 -79.5q109 0 184.5 79t75.5 188q0 110 -74.5 189t-185.5 79q-107 0 -182.5 -78.5t-75.5 -189.5z" />
    <glyph glyph-name="yen" unicode="&#xa5;" horiz-adv-x="1208" 
d="M129 596v149h297l-377 646h201l360 -641l340 641h205l-375 -646h295v-149h-381v-127h381v-150h-381v-319h-182v319h-383v150h383v127h-383z" />
    <glyph glyph-name="brokenbar" unicode="&#xa6;" horiz-adv-x="462" 
d="M315 1391v-662h-168v662h168zM315 274v-661h-168v661h168z" />
    <glyph glyph-name="section" unicode="&#xa7;" horiz-adv-x="1015" 
d="M879 131q0 -146 -114 -229.5t-292 -83.5q-136 0 -246.5 54.5t-173.5 137.5l111 115q128 -166 319 -166q98 0 160 40t62 112q0 16 -4 30.5t-13 27.5t-18 24t-25.5 22t-27.5 18.5t-32 18t-32 15.5t-34.5 15.5t-31.5 14.5l-102 47q-48 20 -79 35.5t-67.5 37t-59 44.5
t-43 52.5t-29.5 67.5t-9 83q0 94 57 163.5t128 94.5q-24 17 -39.5 30.5t-39 41t-36 64.5t-12.5 81q0 91 55 156.5t136.5 95.5t176.5 30q125 0 223 -45t152 -108l-111 -111q-110 123 -270 123q-82 0 -136 -34.5t-54 -92.5q0 -33 12.5 -57.5t39.5 -43.5t56.5 -33.5t74.5 -33.5
q3 -1 4 -1.5t3.5 -1.5t4 -1.5t3.5 -1.5l119 -49q57 -24 98.5 -49t80 -61t59 -84.5t20.5 -108.5q0 -183 -164 -277q27 -17 46 -33t43.5 -42.5t37.5 -63.5t13 -80zM465 489l131 -61q137 44 137 172q0 69 -52 117t-153 88l-102 39q-71 -15 -112.5 -59t-41.5 -103
q0 -35 12.5 -62t41 -50.5t58 -40t81.5 -40.5z" />
    <glyph glyph-name="dieresis" unicode="&#xa8;" horiz-adv-x="993" 
d="M225 1151v221h174v-221h-174zM594 1151v221h174v-221h-174z" />
    <glyph glyph-name="copyright" unicode="&#xa9;" horiz-adv-x="1597" 
d="M1122 889l-123 -74q-60 174 -200 174q-101 0 -159 -70t-58 -204q0 -133 59.5 -205t157.5 -72q140 0 207 158l116 -76q-47 -99 -131 -155t-192 -56q-165 0 -264 107.5t-99 296.5t99.5 297t263.5 108q114 0 197.5 -60t125.5 -169zM1495 715q0 -195 -90.5 -355.5t-250 -253
t-353.5 -92.5q-195 0 -355.5 92.5t-252 253t-91.5 355.5q0 145 54 274.5t146.5 223t222.5 148t276 54.5q194 0 353.5 -92.5t250 -253t90.5 -354.5zM1348 715q0 152 -71 281t-197.5 205.5t-278.5 76.5q-153 0 -280.5 -76.5t-199 -205.5t-71.5 -281t71.5 -281.5t199 -206.5
t280.5 -77q152 0 278.5 77t197.5 206.5t71 281.5z" />
    <glyph glyph-name="ordfeminine" unicode="&#xaa;" horiz-adv-x="645" 
d="M612 844v-88q-28 -4 -65 -4q-98 0 -113 69q-59 -73 -186 -73q-101 0 -162 52t-61 148q0 49 16 83t50 55t70.5 32.5t94.5 22.5l123 22q20 4 27 6t13.5 9.5t6.5 21.5v10q0 50 -28 78.5t-101 28.5q-145 0 -145 -133l-111 14q0 104 72.5 160.5t189.5 56.5q119 0 178.5 -44.5
t59.5 -160.5v-315q0 -29 11 -40t38 -11h22zM426 989v90q-12 -3 -74 -14l-69 -14q-26 -5 -40 -9t-34.5 -12t-31.5 -18t-19 -26.5t-8 -37.5q0 -50 33.5 -75t90.5 -25q65 0 108.5 33.5t43.5 107.5z" />
    <glyph glyph-name="guillemotleft" unicode="&#xab;" horiz-adv-x="958" 
d="M825 270l-309 248v213l309 258v-196l-200 -158l200 -174v-191zM412 270l-310 248v213l310 258v-196l-201 -158l201 -174v-191z" />
    <glyph glyph-name="logicalnot" unicode="&#xac;" 
d="M1221 930v-565h-154v430h-780v135h934z" />
    <glyph glyph-name="uni00AD" unicode="&#xad;" horiz-adv-x="692" 
d="M82 645h528v-178h-528v178z" />
    <glyph glyph-name="registered" unicode="&#xae;" horiz-adv-x="1597" 
d="M1495 715q0 -195 -90.5 -355.5t-250 -253t-353.5 -92.5q-195 0 -355.5 92.5t-252 253t-91.5 355.5q0 145 54 274.5t146.5 223t222.5 148t276 54.5q194 0 353.5 -92.5t250 -253t90.5 -354.5zM1348 715q0 152 -71 281t-197.5 205.5t-278.5 76.5q-153 0 -280.5 -76.5
t-199 -205.5t-71.5 -281t71.5 -281.5t199 -206.5t280.5 -77q152 0 278.5 77t197.5 206.5t71 281.5zM623 641v-332h-138v811h332q109 0 168 -26q60 -26 99.5 -79.5t39.5 -133.5q0 -88 -55 -150.5t-141 -81.5l237 -340h-170l-229 332h-143zM623 768h178q96 0 125 14
q57 26 57 99q0 77 -57 100q-29 14 -125 14h-178v-227z" />
    <glyph glyph-name="macron" unicode="&#xaf;" horiz-adv-x="964" 
d="M205 1192v137h555v-137h-555z" />
    <glyph glyph-name="degree" unicode="&#xb0;" horiz-adv-x="755" 
d="M74 1118q0 126 88 212.5t217 86.5t216 -86.5t87 -212.5t-87 -213.5t-216 -87.5t-217 87.5t-88 213.5zM225 1118q0 -65 45 -110t109 -45t108.5 45t44.5 110t-44.5 110.5t-108.5 45.5t-109 -45.5t-45 -110.5z" />
    <glyph glyph-name="plusminus" unicode="&#xb1;" 
d="M870 639v-428h-157v428h-523v156h523v426h157v-426h521v-156h-521zM1391 0h-1201v156h1201v-156z" />
    <glyph glyph-name="twosuperior" unicode="&#xb2;" horiz-adv-x="737" 
d="M238 1004l-150 12q-29 54 -29 121q0 112 82.5 193t216.5 81q142 0 218.5 -80t76.5 -205q0 -46 -12.5 -90.5t-30 -80t-49.5 -73.5t-58 -63.5t-70 -59.5t-71 -52.5t-73 -49.5v-4l198 4h5h157v-120h-577v112q54 32 135 92t151 121q70 63 109 122.5t39 135.5q0 80 -42 123
t-112 43t-109.5 -43t-39.5 -104q0 -64 35 -135z" />
    <glyph glyph-name="threesuperior" unicode="&#xb3;" horiz-adv-x="737" 
d="M51 795l144 32q3 -95 47.5 -137.5t115.5 -42.5q77 0 121.5 38t44.5 108q0 137 -196 137h-62v121h51q42 0 72.5 4.5t58 17t42 37t14.5 61.5q0 57 -36.5 89t-107.5 32q-74 0 -112 -42.5t-43 -110.5l-129 30q0 27 10 58.5t33 64.5t56 60t83.5 44t110.5 17q129 0 203.5 -60.5
t74.5 -158.5q0 -72 -35 -121t-86 -72q59 -26 100.5 -79t41.5 -134q0 -119 -85 -192.5t-229 -73.5q-134 0 -214.5 74t-88.5 199z" />
    <glyph glyph-name="acute" unicode="&#xb4;" horiz-adv-x="915" 
d="M492 1393h217l-209 -263h-150z" />
    <glyph glyph-name="uni00B5" unicode="&#xb5;" horiz-adv-x="1114" 
d="M500 -25q-55 0 -105 19t-67 39v-422h-176v1364h172v-561q0 -137 32 -197q47 -92 189 -92q118 0 183 83t65 208v559h170v-975h-170v143q-43 -76 -117 -122t-176 -46z" />
    <glyph glyph-name="paragraph" unicode="&#xb6;" horiz-adv-x="1474" 
d="M629 -262v844h-19q-137 0 -213.5 22t-136.5 70q-137 110 -137 313t137 313q60 48 136.5 70.5t213.5 22.5h701v-133h-162v-1522h-145v1522h-228v-1522h-147z" />
    <glyph glyph-name="periodcentered" unicode="&#xb7;" horiz-adv-x="350" 
d="M78 772h194v-233h-194v233z" />
    <glyph glyph-name="cedilla" unicode="&#xb8;" horiz-adv-x="735" 
d="M205 -117l96 131h113l-60 -84h6q74 0 122 -38.5t48 -110.5q0 -88 -58.5 -132t-143.5 -44q-56 0 -111 20l25 78q30 -12 71 -12q42 0 69.5 18t27.5 55q0 36 -25.5 54t-62.5 18q-46 0 -76 -18z" />
    <glyph glyph-name="onesuperior" unicode="&#xb9;" horiz-adv-x="737" 
d="M459 1393v-856h-142v573h-208v113h49q89 0 127 32q48 38 51 138h123z" />
    <glyph glyph-name="ordmasculine" unicode="&#xba;" horiz-adv-x="714" 
d="M63 1104q0 152 80.5 243t214.5 91t213.5 -91t79.5 -243q0 -155 -79 -244.5t-214 -89.5q-136 0 -215.5 89.5t-79.5 244.5zM186 1104q0 -105 48.5 -166t123.5 -61q74 0 122 61.5t48 165.5t-47 165.5t-123 61.5t-124 -62t-48 -165z" />
    <glyph glyph-name="guillemotright" unicode="&#xbb;" horiz-adv-x="958" 
d="M442 518l-309 -248v191l201 174l-201 158v196l309 -258v-213zM856 518l-309 -248v191l201 174l-201 158v196l309 -258v-213z" />
    <glyph glyph-name="onequarter" unicode="&#xbc;" horiz-adv-x="1593" 
d="M416 1393v-856h-142v573h-208v113h49q89 0 127 32q48 38 51 138h123zM1341 217v-217h-139v217h-387v94l395 553h131v-526h158v-121h-158zM977 338h225v151q0 75 8 191h-2q-12 -30 -43 -78l-82 -123q-22 -34 -48.5 -69t-42.5 -54zM1186 1393l-723 -1393h-154l725 1393h152
z" />
    <glyph glyph-name="onehalf" unicode="&#xbd;" horiz-adv-x="1685" 
d="M1143 467l-150 12q-28 52 -28 121q0 112 82.5 193t216.5 81q142 0 218.5 -80t76.5 -204q0 -46 -12.5 -90.5t-30 -80t-50 -73.5t-58.5 -63.5t-70 -59.5t-70.5 -52.5t-73.5 -49.5v-4l198 4h5h157v-121h-577v113q55 32 136 92t151 121q70 63 108.5 122.5t38.5 135.5
q0 80 -42 123t-112 43t-109.5 -43.5t-39.5 -104.5q0 -64 35 -135zM416 1393v-856h-142v573h-208v113h49q89 0 127 32q48 38 51 138h123zM1184 1393l-723 -1393h-154l725 1393h152z" />
    <glyph glyph-name="threequarters" unicode="&#xbe;" horiz-adv-x="1794" 
d="M82 795l143 32q3 -95 48 -137.5t116 -42.5q77 0 121.5 38t44.5 108q0 137 -197 137h-61v121h51q42 0 72.5 4.5t58 17t42 37t14.5 61.5q0 57 -36.5 89t-107.5 32q-74 0 -112 -42.5t-43 -110.5l-130 30q0 27 10 58.5t33 64.5t56 60t83.5 44t110.5 17q129 0 204 -60.5
t75 -158.5q0 -72 -35 -121t-86 -72q59 -26 100 -79t41 -134q0 -120 -85 -193t-228 -73q-134 0 -214.5 74t-88.5 199zM1386 1393l-722 -1393h-154l725 1393h151zM1542 217v-217h-139v217h-387v94l395 553h131v-526h158v-121h-158zM1178 338h225v151q0 75 8 191h-2
q-12 -30 -43 -78l-82 -123q-22 -34 -48.5 -69t-41.5 -54z" />
    <glyph glyph-name="questiondown" unicode="&#xbf;" horiz-adv-x="935" 
d="M668 147l186 -26q33 -59 33 -170q0 -163 -118.5 -273t-309.5 -110q-200 0 -310 102.5t-110 261.5q0 68 15.5 127.5t47 109.5t64 87t80.5 82l53 49q60 54 83.5 96.5t23.5 120.5v64h182v-78q0 -95 -29.5 -155.5t-120.5 -143.5l-76 -68q-141 -124 -141 -268
q0 -102 64.5 -169t179.5 -67q113 0 179.5 69t66.5 171q0 45 -10.5 92t-21.5 71zM590 750h-184v227h184v-227z" />
    <glyph glyph-name="Agrave" unicode="&#xc0;" horiz-adv-x="1200" 
d="M750 1524h-175l-290 297h250zM334 401l-139 -401h-189l498 1393h201l489 -1393h-195l-139 401h-526zM809 557l-158 459q-40 106 -53 164h-2q-25 -86 -53 -166l-156 -457h422z" />
    <glyph glyph-name="Aacute" unicode="&#xc1;" horiz-adv-x="1200" 
d="M662 1524h-175l215 297h250zM334 401l-139 -401h-189l498 1393h201l489 -1393h-195l-139 401h-526zM809 557l-158 459q-40 106 -53 164h-2q-25 -86 -53 -166l-156 -457h422z" />
    <glyph glyph-name="Acircumflex" unicode="&#xc2;" horiz-adv-x="1200" 
d="M602 1694l-123 -170h-174l219 299h158l217 -299h-170zM334 401l-139 -401h-189l498 1393h201l489 -1393h-195l-139 401h-526zM809 557l-158 459q-40 106 -53 164h-2q-25 -86 -53 -166l-156 -457h422z" />
    <glyph glyph-name="Atilde" unicode="&#xc3;" horiz-adv-x="1200" 
d="M821 1786l135 -35q-16 -37 -27.5 -59.5t-32 -54t-41 -49t-50.5 -31t-64 -13.5q-63 0 -159 51q-5 2 -29 16t-41.5 20.5t-34.5 6.5q-29 0 -48.5 -31t-25.5 -65l-137 29q79 209 219 209q64 0 138 -43q6 -3 22 -12t24.5 -13.5t21.5 -10.5t24 -8.5t22 -2.5q53 0 84 96z
M334 401l-139 -401h-189l498 1393h201l489 -1393h-195l-139 401h-526zM809 557l-158 459q-40 106 -53 164h-2q-25 -86 -53 -166l-156 -457h422z" />
    <glyph glyph-name="Adieresis" unicode="&#xc4;" horiz-adv-x="1200" 
d="M336 1538v221h174v-221h-174zM705 1538v221h174v-221h-174zM334 401l-139 -401h-189l498 1393h201l489 -1393h-195l-139 401h-526zM809 557l-158 459q-40 106 -53 164h-2q-25 -86 -53 -166l-156 -457h422z" />
    <glyph glyph-name="Aring" unicode="&#xc5;" horiz-adv-x="1200" 
d="M395 1651q0 84 59 142t144 58t144 -58t59 -142q0 -85 -59 -143t-144 -58t-144 58t-59 143zM516 1651q0 -33 23.5 -56.5t56.5 -23.5t56.5 23.5t23.5 56.5t-23.5 56.5t-56.5 23.5t-56.5 -23.5t-23.5 -56.5zM334 401l-139 -401h-189l498 1393h201l489 -1393h-195l-139 401
h-526zM809 557l-158 459q-40 106 -53 164h-2q-25 -86 -53 -166l-156 -457h422z" />
    <glyph glyph-name="AE" unicode="&#xc6;" horiz-adv-x="1898" 
d="M1817 0h-973v371h-502l-215 -371h-209l830 1393h1028v-160h-752v-434h682v-162h-682v-475h793v-162zM844 532v435q0 204 4 282h-4q-13 -21 -48 -87.5t-48 -88.5l-316 -541h412z" />
    <glyph glyph-name="Ccedilla" unicode="&#xc7;" horiz-adv-x="1335" 
d="M1110 399l164 -82q-73 -153 -203.5 -242t-304.5 -98l-27 -47h6q74 0 122 -38.5t48 -110.5q0 -88 -58.5 -132t-143.5 -44q-56 0 -111 20l25 78q30 -12 71 -12q42 0 69.5 18t27.5 55q0 36 -25.5 54t-62.5 18q-46 0 -76 -18l-41 65l69 97q-256 22 -412.5 211.5t-156.5 504.5
q0 211 76.5 374t221.5 255t337 92q182 0 320 -83.5t217 -233.5l-154 -105q-54 128 -152 196.5t-231 68.5q-206 0 -326 -153t-120 -411q0 -257 120 -410t326 -153q133 0 231.5 69t153.5 197z" />
    <glyph glyph-name="Egrave" unicode="&#xc8;" horiz-adv-x="1212" 
d="M774 1524h-174l-291 297h250zM1130 162v-162h-970v1393h932v-162h-752v-434h682v-162h-682v-473h790z" />
    <glyph glyph-name="Eacute" unicode="&#xc9;" horiz-adv-x="1212" 
d="M662 1524h-175l215 297h250zM1130 162v-162h-970v1393h932v-162h-752v-434h682v-162h-682v-473h790z" />
    <glyph glyph-name="Ecircumflex" unicode="&#xca;" horiz-adv-x="1212" 
d="M635 1694l-123 -170h-174l219 299h158l217 -299h-170zM1130 162v-162h-970v1393h932v-162h-752v-434h682v-162h-682v-473h790z" />
    <glyph glyph-name="Edieresis" unicode="&#xcb;" horiz-adv-x="1212" 
d="M356 1538v221h174v-221h-174zM725 1538v221h174v-221h-174zM1130 162v-162h-970v1393h932v-162h-752v-434h682v-162h-682v-473h790z" />
    <glyph glyph-name="Igrave" unicode="&#xcc;" horiz-adv-x="499" 
d="M340 1393v-1393h-180v1393h180zM346 1524h-174l-291 297h250z" />
    <glyph glyph-name="Iacute" unicode="&#xcd;" horiz-adv-x="499" 
d="M340 1393v-1393h-180v1393h180zM330 1524h-174l215 297h250z" />
    <glyph glyph-name="Icircumflex" unicode="&#xce;" horiz-adv-x="499" 
d="M340 1393v-1393h-180v1393h180zM250 1694l-123 -170h-174l219 299h158l217 -299h-170z" />
    <glyph glyph-name="Idieresis" unicode="&#xcf;" horiz-adv-x="499" 
d="M340 1393v-1393h-180v1393h180zM-20 1538v221h174v-221h-174zM348 1538v221h174v-221h-174z" />
    <glyph glyph-name="Eth" unicode="&#xd0;" horiz-adv-x="1359" 
d="M492 0h-332v659h-129v158h129v574h340q200 0 307 -17t199 -84q116 -86 187 -242t71 -348q0 -171 -53.5 -314t-151.5 -241q-37 -36 -73.5 -61t-82.5 -41t-81 -25t-98.5 -13t-104 -4.5t-127.5 -0.5zM340 1229v-412h455v-158h-455v-499h192q81 0 120.5 1.5t95 9t95.5 26
t77 49.5q73 61 118 179t45 267q0 135 -45.5 257t-124.5 192q-68 57 -152 72.5t-255 15.5h-166z" />
    <glyph glyph-name="Ntilde" unicode="&#xd1;" horiz-adv-x="1435" 
d="M944 1786l135 -35q-16 -37 -27.5 -59.5t-32 -54t-41 -49t-50.5 -31t-64 -13.5q-63 0 -159 51q-5 2 -29 16t-41.5 20.5t-34.5 6.5q-29 0 -48.5 -31t-25.5 -65l-137 29q79 209 219 209q63 0 137 -43q5 -3 22 -12.5t25 -13.5t21.5 -10t24.5 -8.5t22 -2.5q53 0 84 96z
M338 1393l655 -936q78 -110 105 -158h2q-4 102 -4 225v869h180v-1393h-178l-652 938q-81 115 -108 168h-2q4 -90 4 -172v-934h-180v1393h178z" />
    <glyph glyph-name="Ograve" unicode="&#xd2;" horiz-adv-x="1443" 
d="M872 1524h-174l-290 297h249zM90 696q0 211 76.5 374.5t221 255t335.5 91.5q287 0 459 -200t172 -521q0 -212 -75.5 -374.5t-219.5 -254.5t-336 -92q-191 0 -335.5 91.5t-221 255t-76.5 374.5zM279 696q0 -257 119 -409t325 -152q204 0 323 152.5t119 408.5
q0 257 -118 409t-324 152t-325 -151.5t-119 -409.5z" />
    <glyph glyph-name="Oacute" unicode="&#xd3;" horiz-adv-x="1443" 
d="M748 1524h-175l215 297h250zM90 696q0 211 76.5 374.5t221 255t335.5 91.5q287 0 459 -200t172 -521q0 -212 -75.5 -374.5t-219.5 -254.5t-336 -92q-191 0 -335.5 91.5t-221 255t-76.5 374.5zM279 696q0 -257 119 -409t325 -152q204 0 323 152.5t119 408.5
q0 257 -118 409t-324 152t-325 -151.5t-119 -409.5z" />
    <glyph glyph-name="Ocircumflex" unicode="&#xd4;" horiz-adv-x="1443" 
d="M727 1694l-123 -170h-174l219 299h158l217 -299h-170zM90 696q0 211 76.5 374.5t221 255t335.5 91.5q287 0 459 -200t172 -521q0 -212 -75.5 -374.5t-219.5 -254.5t-336 -92q-191 0 -335.5 91.5t-221 255t-76.5 374.5zM279 696q0 -257 119 -409t325 -152q204 0 323 152.5
t119 408.5q0 257 -118 409t-324 152t-325 -151.5t-119 -409.5z" />
    <glyph glyph-name="Otilde" unicode="&#xd5;" horiz-adv-x="1411" 
d="M90 676q0 312 168 506t449 194q186 0 326 -89t214 -247.5t74 -363.5q0 -206 -73.5 -364t-213.5 -247.5t-327 -89.5q-281 0 -449 194.5t-168 506.5zM276 676q0 -249 115.5 -396t315.5 -147q198 0 313 147t115 396t-114 396t-314 147t-315.5 -146.5t-115.5 -396.5z
M928 1786l135 -35q-16 -37 -27.5 -59.5t-32 -54t-41 -49t-50.5 -31t-64 -13.5q-64 0 -160 51q-6 3 -29 16t-40.5 20t-34.5 7q-29 0 -48.5 -31t-25.5 -65l-137 29q79 209 219 209q63 0 137 -43q5 -3 22 -12.5t25 -13.5t21.5 -10t24.5 -8.5t22 -2.5q53 0 84 96z" />
    <glyph glyph-name="Odieresis" unicode="&#xd6;" horiz-adv-x="1443" 
d="M457 1538v221h174v-221h-174zM825 1538v221h174v-221h-174zM90 696q0 211 76.5 374.5t221 255t335.5 91.5q287 0 459 -200t172 -521q0 -212 -75.5 -374.5t-219.5 -254.5t-336 -92q-191 0 -335.5 91.5t-221 255t-76.5 374.5zM279 696q0 -257 119 -409t325 -152
q204 0 323 152.5t119 408.5q0 257 -118 409t-324 152t-325 -151.5t-119 -409.5z" />
    <glyph glyph-name="multiply" unicode="&#xd7;" 
d="M1243 39l-452 450l-453 -452l-113 113l453 452l-451 453l111 110l450 -452l455 454l113 -112l-455 -455l453 -450z" />
    <glyph glyph-name="Oslash" unicode="&#xd8;" horiz-adv-x="1443" 
d="M90 696q0 211 76.5 374.5t221 255t335.5 91.5q233 0 397 -139l164 184l119 -102l-178 -199q129 -189 129 -465q0 -212 -75.5 -374.5t-219.5 -254.5t-336 -92q-255 0 -420 156l-145 -164l-117 103l164 182q-115 185 -115 444zM1165 696q0 191 -65 324l-680 -760
q116 -125 303 -125q204 0 323 152.5t119 408.5zM279 696q0 -174 55 -299l672 754q-112 106 -283 106q-206 0 -325 -151.5t-119 -409.5z" />
    <glyph glyph-name="Ugrave" unicode="&#xd9;" horiz-adv-x="1351" 
d="M827 1524h-174l-291 297h250zM676 -27q-325 0 -455 220q-40 68 -55.5 148.5t-15.5 231.5v820h180v-818q0 -72 2 -115t14 -99t35 -93q38 -64 115.5 -99.5t179.5 -35.5t179.5 35.5t115.5 99.5q23 37 35 93t14 99t2 115v818h180v-820q0 -150 -16 -230.5t-56 -149.5
q-130 -220 -454 -220z" />
    <glyph glyph-name="Uacute" unicode="&#xda;" horiz-adv-x="1351" 
d="M707 1524h-175l216 297h249zM676 -27q-325 0 -455 220q-40 68 -55.5 148.5t-15.5 231.5v820h180v-818q0 -72 2 -115t14 -99t35 -93q38 -64 115.5 -99.5t179.5 -35.5t179.5 35.5t115.5 99.5q23 37 35 93t14 99t2 115v818h180v-820q0 -150 -16 -230.5t-56 -149.5
q-130 -220 -454 -220z" />
    <glyph glyph-name="Ucircumflex" unicode="&#xdb;" horiz-adv-x="1351" 
d="M680 1694l-123 -170h-174l219 299h158l217 -299h-170zM676 -27q-325 0 -455 220q-40 68 -55.5 148.5t-15.5 231.5v820h180v-818q0 -72 2 -115t14 -99t35 -93q38 -64 115.5 -99.5t179.5 -35.5t179.5 35.5t115.5 99.5q23 37 35 93t14 99t2 115v818h180v-820
q0 -150 -16 -230.5t-56 -149.5q-130 -220 -454 -220z" />
    <glyph glyph-name="Udieresis" unicode="&#xdc;" horiz-adv-x="1331" 
d="M410 1538v221h174v-221h-174zM778 1538v221h174v-221h-174zM676 -27q-325 0 -455 220q-40 68 -55.5 148.5t-15.5 231.5v820h180v-818q0 -72 2 -115t14 -99t35 -93q38 -64 115.5 -99.5t179.5 -35.5t179.5 35.5t115.5 99.5q23 37 35 93t14 99t2 115v818h180v-820
q0 -150 -16 -230.5t-56 -149.5q-130 -220 -454 -220z" />
    <glyph glyph-name="Yacute" unicode="&#xdd;" horiz-adv-x="1173" 
d="M633 1524h-174l215 297h250zM664 569v-569h-181v569l-503 824h206l398 -652l407 652h203z" />
    <glyph glyph-name="Thorn" unicode="&#xde;" horiz-adv-x="1204" 
d="M340 389v-389h-180v1393h180v-226h332q178 0 274 -41q108 -47 168 -135t60 -213q0 -108 -46.5 -190t-130.5 -133q-67 -40 -144.5 -53t-203.5 -13h-309zM340 1010v-463h326q120 0 190 24q135 49 135 207t-135 207q-73 25 -190 25h-326z" />
    <glyph glyph-name="germandbls" unicode="&#xdf;" horiz-adv-x="999" 
d="M305 924v-924h-170v932q0 135 10 202t35 115q86 168 320 168q177 0 265.5 -87.5t88.5 -231.5q0 -99 -37.5 -164.5t-99.5 -97.5q39 -17 68.5 -42.5t58 -70t44 -118.5t15.5 -173q0 -236 -77 -340t-228 -104q-127 0 -182 71q-58 73 -58 248v68h125v-39q0 -98 17 -150
q12 -31 32.5 -48t59.5 -17q80 0 110.5 74.5t30.5 238.5q0 103 -16.5 168t-59.5 100q-56 43 -204 43h-47v136h32q112 0 160 20q82 36 82 182q0 89 -46.5 142t-131.5 53q-63 0 -108 -28t-64 -76q-25 -70 -25 -250z" />
    <glyph glyph-name="agrave" unicode="&#xe0;" horiz-adv-x="1028" 
d="M281 1393h217l141 -263h-150zM965 104v-118q-45 -9 -97 -9q-85 0 -121.5 33.5t-41.5 98.5h-3q-83 -136 -294 -136q-155 0 -246.5 75t-91.5 218q0 109 59 174q46 52 123.5 81t196.5 50l163 27q49 8 65.5 19t16.5 40v29q0 85 -43.5 127.5t-163.5 42.5q-231 0 -231 -205
l-162 19q-1 80 30.5 143t87 102t127.5 59.5t155 20.5q88 0 151 -14t113 -47.5t75 -95t25 -150.5v-495q0 -50 19.5 -69.5t64.5 -19.5h23zM694 313v179q-16 -6 -217 -48q-47 -10 -72.5 -16t-60.5 -19.5t-53 -29.5t-31.5 -42t-13.5 -61q0 -81 56 -125.5t147 -44.5
q106 0 175.5 50.5t69.5 156.5z" />
    <glyph glyph-name="aacute" unicode="&#xe1;" horiz-adv-x="1028" 
d="M526 1393h217l-208 -263h-150zM965 104v-118q-45 -9 -97 -9q-85 0 -121.5 33.5t-41.5 98.5h-3q-83 -136 -294 -136q-155 0 -246.5 75t-91.5 218q0 109 59 174q46 52 123.5 81t196.5 50l163 27q49 8 65.5 19t16.5 40v29q0 85 -43.5 127.5t-163.5 42.5q-231 0 -231 -205
l-162 19q-1 80 30.5 143t87 102t127.5 59.5t155 20.5q88 0 151 -14t113 -47.5t75 -95t25 -150.5v-495q0 -50 19.5 -69.5t64.5 -19.5h23zM694 313v179q-16 -6 -217 -48q-47 -10 -72.5 -16t-60.5 -19.5t-53 -29.5t-31.5 -42t-13.5 -61q0 -81 56 -125.5t147 -44.5
q106 0 175.5 50.5t69.5 156.5z" />
    <glyph glyph-name="acircumflex" unicode="&#xe2;" horiz-adv-x="1028" 
d="M494 1266l-123 -136h-158l201 263h161l203 -263h-153zM965 104v-118q-45 -9 -97 -9q-85 0 -121.5 33.5t-41.5 98.5h-3q-83 -136 -294 -136q-155 0 -246.5 75t-91.5 218q0 109 59 174q46 52 123.5 81t196.5 50l163 27q49 8 65.5 19t16.5 40v29q0 85 -43.5 127.5
t-163.5 42.5q-231 0 -231 -205l-162 19q-1 80 30.5 143t87 102t127.5 59.5t155 20.5q88 0 151 -14t113 -47.5t75 -95t25 -150.5v-495q0 -50 19.5 -69.5t64.5 -19.5h23zM694 313v179q-16 -6 -217 -48q-47 -10 -72.5 -16t-60.5 -19.5t-53 -29.5t-31.5 -42t-13.5 -61
q0 -81 56 -125.5t147 -44.5q106 0 175.5 50.5t69.5 156.5z" />
    <glyph glyph-name="atilde" unicode="&#xe3;" horiz-adv-x="1028" 
d="M719 1395l135 -35q-16 -37 -27.5 -59.5t-32 -54t-41 -49t-50.5 -31t-64 -13.5q-64 0 -160 51q-6 3 -29 16t-40.5 20t-34.5 7q-29 0 -48.5 -31t-25.5 -65l-137 29q79 209 219 209q63 0 137 -43q4 -2 27 -15t32 -17.5t26 -10t30 -5.5q52 0 84 97zM965 104v-118
q-45 -9 -97 -9q-85 0 -121.5 33.5t-41.5 98.5h-3q-83 -136 -294 -136q-155 0 -246.5 75t-91.5 218q0 109 59 174q46 52 123.5 81t196.5 50l163 27q49 8 65.5 19t16.5 40v29q0 85 -43.5 127.5t-163.5 42.5q-231 0 -231 -205l-162 19q-1 80 30.5 143t87 102t127.5 59.5
t155 20.5q88 0 151 -14t113 -47.5t75 -95t25 -150.5v-495q0 -50 19.5 -69.5t64.5 -19.5h23zM694 313v179q-16 -6 -217 -48q-47 -10 -72.5 -16t-60.5 -19.5t-53 -29.5t-31.5 -42t-13.5 -61q0 -81 56 -125.5t147 -44.5q106 0 175.5 50.5t69.5 156.5z" />
    <glyph glyph-name="adieresis" unicode="&#xe4;" horiz-adv-x="1028" 
d="M242 1151v221h174v-221h-174zM610 1151v221h174v-221h-174zM965 104v-118q-45 -9 -97 -9q-85 0 -121.5 33.5t-41.5 98.5h-3q-83 -136 -294 -136q-155 0 -246.5 75t-91.5 218q0 109 59 174q46 52 123.5 81t196.5 50l163 27q49 8 65.5 19t16.5 40v29q0 85 -43.5 127.5
t-163.5 42.5q-231 0 -231 -205l-162 19q-1 80 30.5 143t87 102t127.5 59.5t155 20.5q88 0 151 -14t113 -47.5t75 -95t25 -150.5v-495q0 -50 19.5 -69.5t64.5 -19.5h23zM694 313v179q-16 -6 -217 -48q-47 -10 -72.5 -16t-60.5 -19.5t-53 -29.5t-31.5 -42t-13.5 -61
q0 -81 56 -125.5t147 -44.5q106 0 175.5 50.5t69.5 156.5z" />
    <glyph glyph-name="aring" unicode="&#xe5;" horiz-adv-x="1028" 
d="M291 1249q0 85 59 143t144 58t143.5 -58t58.5 -143t-58.5 -142.5t-143.5 -57.5t-144 58t-59 142zM412 1249q0 -33 23.5 -56.5t56.5 -23.5q32 0 55.5 23.5t23.5 56.5t-23.5 56.5t-55.5 23.5q-33 0 -56.5 -23.5t-23.5 -56.5zM965 104v-118q-45 -9 -97 -9q-85 0 -121.5 33.5
t-41.5 98.5h-3q-83 -136 -294 -136q-155 0 -246.5 75t-91.5 218q0 109 59 174q46 52 123.5 81t196.5 50l163 27q49 8 65.5 19t16.5 40v29q0 85 -43.5 127.5t-163.5 42.5q-231 0 -231 -205l-162 19q-1 80 30.5 143t87 102t127.5 59.5t155 20.5q88 0 151 -14t113 -47.5t75 -95
t25 -150.5v-495q0 -50 19.5 -69.5t64.5 -19.5h23zM694 313v179q-16 -6 -217 -48q-47 -10 -72.5 -16t-60.5 -19.5t-53 -29.5t-31.5 -42t-13.5 -61q0 -81 56 -125.5t147 -44.5q106 0 175.5 50.5t69.5 156.5z" />
    <glyph glyph-name="ae" unicode="&#xe6;" horiz-adv-x="1658" 
d="M1137 -25q-234 0 -363 164q-18 -26 -42.5 -49.5t-67 -52.5t-107 -46.5t-141.5 -17.5q-156 0 -251 77.5t-95 221.5q0 73 27.5 125.5t83 86t117.5 53t151 34.5l163 27q49 8 65.5 19t16.5 40v29q0 85 -43.5 127.5t-163.5 42.5q-233 0 -233 -205l-158 19q-1 80 30 143
t86.5 102t127 59.5t154.5 20.5q244 0 319 -127v2q130 127 322 127q142 0 242.5 -68.5t148 -182.5t47.5 -263v-34h-729q2 -61 19.5 -116.5t52.5 -103.5t95 -77t138 -29q191 0 297 172l123 -92q-16 -24 -34.5 -47t-58 -58t-84 -60.5t-112.5 -44t-143 -18.5zM694 313v179
q-16 -6 -217 -48q-47 -10 -72.5 -16t-60.5 -19.5t-53 -29.5t-31.5 -42t-13.5 -61q0 -81 56 -125.5t147 -44.5q106 0 175.5 50.5t69.5 156.5zM1135 860q-114 0 -193 -75t-92 -201h547q-11 130 -79 203t-183 73z" />
    <glyph glyph-name="ccedilla" unicode="&#xe7;" horiz-adv-x="1009" 
d="M831 293l134 -68q-55 -114 -151.5 -177t-225.5 -71l-29 -47h6q74 0 122 -38.5t48 -110.5q0 -88 -59 -132t-144 -44q-55 0 -110 20l24 78q30 -12 72 -12t69 18t27 55q0 36 -25.5 54t-62.5 18q-45 0 -75 -18l-41 65l73 97q-187 20 -292 153t-105 350q0 233 128.5 373.5
t334.5 140.5q150 0 253.5 -68.5t153.5 -195.5l-141 -74q-70 197 -266 197q-132 0 -210.5 -99t-78.5 -272q0 -171 80.5 -269.5t208.5 -98.5q203 0 282 176z" />
    <glyph glyph-name="egrave" unicode="&#xe8;" horiz-adv-x="1073" 
d="M307 1393h217l142 -263h-150zM858 289l123 -88q-15 -23 -33.5 -46t-57.5 -57.5t-83.5 -60t-112.5 -44t-143 -18.5q-212 0 -338.5 137.5t-126.5 379.5q0 223 130.5 364t332.5 141q142 0 242.5 -68t148 -182t47.5 -262v-36h-729q2 -62 20.5 -118.5t54.5 -104t96.5 -75.5
t137.5 -28q189 0 291 166zM549 860q-114 0 -193 -75t-92 -201h547q-11 130 -79 203t-183 73z" />
    <glyph glyph-name="eacute" unicode="&#xe9;" horiz-adv-x="1073" 
d="M588 1393h217l-209 -263h-150zM858 289l123 -88q-15 -23 -33.5 -46t-57.5 -57.5t-83.5 -60t-112.5 -44t-143 -18.5q-212 0 -338.5 137.5t-126.5 379.5q0 223 130.5 364t332.5 141q142 0 242.5 -68t148 -182t47.5 -262v-36h-729q2 -62 20.5 -118.5t54.5 -104t96.5 -75.5
t137.5 -28q189 0 291 166zM549 860q-114 0 -193 -75t-92 -201h547q-11 130 -79 203t-183 73z" />
    <glyph glyph-name="ecircumflex" unicode="&#xea;" horiz-adv-x="1073" 
d="M555 1266l-123 -136h-158l201 263h162l203 -263h-154zM858 289l123 -88q-15 -23 -33.5 -46t-57.5 -57.5t-83.5 -60t-112.5 -44t-143 -18.5q-212 0 -338.5 137.5t-126.5 379.5q0 223 130.5 364t332.5 141q142 0 242.5 -68t148 -182t47.5 -262v-36h-729q2 -62 20.5 -118.5
t54.5 -104t96.5 -75.5t137.5 -28q189 0 291 166zM549 860q-114 0 -193 -75t-92 -201h547q-11 130 -79 203t-183 73z" />
    <glyph glyph-name="edieresis" unicode="&#xeb;" horiz-adv-x="1073" 
d="M287 1151v221h174v-221h-174zM655 1151v221h174v-221h-174zM858 289l123 -88q-15 -23 -33.5 -46t-57.5 -57.5t-83.5 -60t-112.5 -44t-143 -18.5q-212 0 -338.5 137.5t-126.5 379.5q0 223 130.5 364t332.5 141q142 0 242.5 -68t148 -182t47.5 -262v-36h-729
q2 -62 20.5 -118.5t54.5 -104t96.5 -75.5t137.5 -28q189 0 291 166zM549 860q-114 0 -193 -75t-92 -201h547q-11 130 -79 203t-183 73z" />
    <glyph glyph-name="igrave" unicode="&#xec;" horiz-adv-x="473" 
d="M322 975v-975h-170v975h170zM-33 1393h217l142 -263h-150z" />
    <glyph glyph-name="iacute" unicode="&#xed;" horiz-adv-x="473" 
d="M322 975v-975h-170v975h170zM297 1393h217l-209 -263h-149z" />
    <glyph glyph-name="icircumflex" unicode="&#xee;" horiz-adv-x="473" 
d="M322 975v-975h-170v975h170zM236 1266l-123 -136h-158l201 263h161l203 -263h-153z" />
    <glyph glyph-name="idieresis" unicode="&#xef;" horiz-adv-x="473" 
d="M322 975v-975h-170v975h170zM-37 1151v221h174v-221h-174zM332 1151v221h174v-221h-174z" />
    <glyph glyph-name="eth" unicode="&#xf0;" horiz-adv-x="1081" 
d="M256 494q0 -170 77 -269.5t204 -99.5q128 0 205 99t77 270q0 172 -75.5 264t-206.5 92t-206 -92.5t-75 -263.5zM444 1403l131 76q112 -122 166 -193l211 70l43 -117l-182 -57q178 -299 178 -656q0 -118 -27 -216t-80.5 -174t-142 -118.5t-204.5 -42.5
q-206 0 -328.5 140.5t-122.5 376.5q0 233 123.5 368t325.5 135q53 0 116.5 -18.5t112.5 -50.5q-53 145 -96 209q-34 -11 -148.5 -49t-171.5 -56l-43 119l289 90q-61 80 -150 164z" />
    <glyph glyph-name="ntilde" unicode="&#xf1;" horiz-adv-x="1112" 
d="M795 1395l135 -35q-16 -37 -27.5 -59.5t-32 -54t-41 -49t-50.5 -31t-64 -13.5q-64 0 -160 51q-6 3 -29 16t-40.5 20t-34.5 7q-29 0 -48.5 -31t-25.5 -65l-137 29q79 209 219 209q63 0 137 -43q4 -2 27 -15t32 -17.5t26 -10t30 -5.5q52 0 84 97zM971 610v-610h-170v567
q0 153 -54.5 217t-166.5 64q-119 0 -188.5 -82.5t-69.5 -202.5v-563h-170v975h170v-146q42 74 120.5 121t192.5 47q193 0 274 -125q62 -95 62 -262z" />
    <glyph glyph-name="ograve" unicode="&#xf2;" horiz-adv-x="1101" 
d="M86 483q0 233 129 373.5t336 140.5t336 -140.5t129 -373.5q0 -232 -127.5 -370t-337.5 -138t-337.5 138t-127.5 370zM260 485q0 -172 80 -270t211 -98t211 98.5t80 269.5q0 175 -79 274t-212 99t-212 -100t-79 -273zM324 1393h217l141 -263h-150z" />
    <glyph glyph-name="oacute" unicode="&#xf3;" horiz-adv-x="1101" 
d="M86 483q0 233 129 373.5t336 140.5t336 -140.5t129 -373.5q0 -232 -127.5 -370t-337.5 -138t-337.5 138t-127.5 370zM260 485q0 -172 80 -270t211 -98t211 98.5t80 269.5q0 175 -79 274t-212 99t-212 -100t-79 -273zM586 1393h217l-209 -263h-150z" />
    <glyph glyph-name="ocircumflex" unicode="&#xf4;" horiz-adv-x="1101" 
d="M86 483q0 233 129 373.5t336 140.5t336 -140.5t129 -373.5q0 -232 -127.5 -370t-337.5 -138t-337.5 138t-127.5 370zM260 485q0 -172 80 -270t211 -98t211 98.5t80 269.5q0 175 -79 274t-212 99t-212 -100t-79 -273zM553 1266l-123 -136h-158l201 263h162l203 -263h-154z
" />
    <glyph glyph-name="otilde" unicode="&#xf5;" horiz-adv-x="1101" 
d="M86 483q0 233 129 373.5t336 140.5t336 -140.5t129 -373.5q0 -232 -127.5 -370t-337.5 -138t-337.5 138t-127.5 370zM260 485q0 -172 80 -270t211 -98t211 98.5t80 269.5q0 175 -79 274t-212 99t-212 -100t-79 -273zM768 1395l135 -35q-16 -37 -27.5 -59.5t-32 -54
t-41 -49t-50.5 -31t-64 -13.5q-64 0 -160 51q-6 3 -29 16t-40.5 20t-34.5 7q-29 0 -48.5 -31t-25.5 -65l-137 29q79 209 219 209q63 0 137 -43q4 -2 27 -15t32 -17.5t26 -10t30 -5.5q52 0 84 97z" />
    <glyph glyph-name="odieresis" unicode="&#xf6;" horiz-adv-x="1101" 
d="M86 483q0 233 129 373.5t336 140.5t336 -140.5t129 -373.5q0 -232 -127.5 -370t-337.5 -138t-337.5 138t-127.5 370zM260 485q0 -172 80 -270t211 -98t211 98.5t80 269.5q0 175 -79 274t-212 99t-212 -100t-79 -273zM283 1151v221h174v-221h-174zM651 1151v221h174v-221
h-174z" />
    <glyph glyph-name="divide" unicode="&#xf7;" 
d="M1481 410h-1379v155h1379v-155zM694 223h195v-223h-195v223zM694 975h195v-223h-195v223z" />
    <glyph glyph-name="oslash" unicode="&#xf8;" horiz-adv-x="1101" 
d="M1018 969l-109 -142q107 -135 107 -344q0 -232 -127.5 -370t-337.5 -138q-139 0 -248 64l-94 -125l-123 98l100 131q-100 137 -100 340q0 233 129 373.5t336 140.5q138 0 244 -65l98 127zM297 287l408 526q-67 45 -154 45q-133 0 -212 -100t-79 -273q0 -120 37 -198z
M803 690l-406 -528q67 -45 154 -45q131 0 211 98.5t80 269.5q0 119 -39 205z" />
    <glyph glyph-name="ugrave" unicode="&#xf9;" horiz-adv-x="1101" 
d="M143 420v555h170v-561q0 -135 33 -197q47 -92 189 -92q118 0 182.5 83t64.5 208v559h170v-975h-170v143q-95 -168 -311 -168q-160 0 -244 93q-48 55 -66 126.5t-18 225.5zM317 1393h218l141 -263h-150z" />
    <glyph glyph-name="uacute" unicode="&#xfa;" horiz-adv-x="1101" 
d="M143 420v555h170v-561q0 -135 33 -197q47 -92 189 -92q118 0 182.5 83t64.5 208v559h170v-975h-170v143q-95 -168 -311 -168q-160 0 -244 93q-48 55 -66 126.5t-18 225.5zM582 1393h217l-209 -263h-150z" />
    <glyph glyph-name="ucircumflex" unicode="&#xfb;" horiz-adv-x="1101" 
d="M143 420v555h170v-561q0 -135 33 -197q47 -92 189 -92q118 0 182.5 83t64.5 208v559h170v-975h-170v143q-95 -168 -311 -168q-160 0 -244 93q-48 55 -66 126.5t-18 225.5zM549 1266l-123 -136h-158l201 263h162l203 -263h-154z" />
    <glyph glyph-name="udieresis" unicode="&#xfc;" horiz-adv-x="1101" 
d="M143 420v555h170v-561q0 -135 33 -197q47 -92 189 -92q118 0 182.5 83t64.5 208v559h170v-975h-170v143q-95 -168 -311 -168q-160 0 -244 93q-48 55 -66 126.5t-18 225.5zM283 1151v221h174v-221h-174zM651 1151v221h174v-221h-174z" />
    <glyph glyph-name="yacute" unicode="&#xfd;" horiz-adv-x="874" 
d="M485 1393h217l-208 -263h-150zM866 975l-428 -1174q-43 -120 -112.5 -163.5t-182.5 -43.5q-51 0 -123 13v137q68 -10 111 -10q84 0 123 39q31 31 53 98l43 125l-338 979h181l190 -590l53 -170h2q29 96 60 182l198 578h170z" />
    <glyph glyph-name="thorn" unicode="&#xfe;" horiz-adv-x="1103" 
d="M639 -25q-109 0 -192.5 46t-124.5 122v-532h-170v1782h170v-562q42 70 126 118t193 48q191 0 310.5 -135.5t119.5 -376.5q0 -235 -120 -372.5t-312 -137.5zM315 487q0 -175 83.5 -272.5t215.5 -97.5t207.5 98t75.5 272q0 175 -78 272t-209 97q-130 0 -212.5 -97
t-82.5 -272z" />
    <glyph glyph-name="ydieresis" unicode="&#xff;" horiz-adv-x="874" 
d="M176 1151v221h174v-221h-174zM545 1151v221h174v-221h-174zM866 975l-428 -1174q-43 -120 -112.5 -163.5t-182.5 -43.5q-51 0 -123 13v137q68 -10 111 -10q84 0 123 39q31 31 53 98l43 125l-338 979h181l190 -590l53 -170h2q29 96 60 182l198 578h170z" />
    <glyph glyph-name="Amacron" unicode="&#x100;" horiz-adv-x="1200" 
d="M334 401l-139 -401h-189l498 1393h201l489 -1393h-195l-139 401h-526zM809 557l-158 459q-40 106 -53 164h-2q-25 -86 -53 -166l-156 -457h422zM322 1579v137h555v-137h-555z" />
    <glyph glyph-name="amacron" unicode="&#x101;" horiz-adv-x="1028" 
d="M965 104v-118q-45 -9 -97 -9q-85 0 -121.5 33.5t-41.5 98.5h-3q-83 -136 -294 -136q-155 0 -246.5 75t-91.5 218q0 109 59 174q46 52 123.5 81t196.5 50l163 27q49 8 65.5 19t16.5 40v29q0 85 -43.5 127.5t-163.5 42.5q-231 0 -231 -205l-162 19q-1 80 30.5 143t87 102
t127.5 59.5t155 20.5q88 0 151 -14t113 -47.5t75 -95t25 -150.5v-495q0 -50 19.5 -69.5t64.5 -19.5h23zM694 313v179q-16 -6 -217 -48q-47 -10 -72.5 -16t-60.5 -19.5t-53 -29.5t-31.5 -42t-13.5 -61q0 -81 56 -125.5t147 -44.5q106 0 175.5 50.5t69.5 156.5zM209 1192v137
h555v-137h-555z" />
    <glyph glyph-name="Abreve" unicode="&#x102;" horiz-adv-x="1200" 
d="M334 401l-139 -401h-189l498 1393h201l489 -1393h-195l-139 401h-526zM809 557l-158 459q-40 106 -53 164h-2q-25 -86 -53 -166l-156 -457h422zM598 1661q59 0 98 34.5t52 98.5h143q-19 -129 -95.5 -199.5t-197.5 -70.5q-122 0 -199 70.5t-94 199.5h141q15 -64 54 -98.5
t98 -34.5z" />
    <glyph glyph-name="abreve" unicode="&#x103;" horiz-adv-x="1028" 
d="M965 104v-118q-45 -9 -97 -9q-85 0 -121.5 33.5t-41.5 98.5h-3q-83 -136 -294 -136q-155 0 -246.5 75t-91.5 218q0 109 59 174q46 52 123.5 81t196.5 50l163 27q49 8 65.5 19t16.5 40v29q0 85 -43.5 127.5t-163.5 42.5q-231 0 -231 -205l-162 19q-1 80 30.5 143t87 102
t127.5 59.5t155 20.5q88 0 151 -14t113 -47.5t75 -95t25 -150.5v-495q0 -50 19.5 -69.5t64.5 -19.5h23zM694 313v179q-16 -6 -217 -48q-47 -10 -72.5 -16t-60.5 -19.5t-53 -29.5t-31.5 -42t-13.5 -61q0 -81 56 -125.5t147 -44.5q106 0 175.5 50.5t69.5 156.5zM492 1260
q59 0 97.5 34.5t51.5 98.5h143q-19 -129 -95 -200t-197 -71q-122 0 -199 71t-94 200h141q15 -64 54 -98.5t98 -34.5z" />
    <glyph glyph-name="Aogonek" unicode="&#x104;" horiz-adv-x="1200" 
d="M334 399l-139 -399h-189l498 1391h201l489 -1391q-37 -21 -71.5 -45t-72 -56.5t-60.5 -69t-23 -69.5q0 -39 23 -58t59 -19q29 0 59 12l53 -121q-61 -27 -125 -27q-93 0 -154 51t-61 150q0 139 178 252l-139 399h-526zM809 555l-158 459q-40 106 -53 164h-2
q-25 -86 -53 -166l-156 -457h422z" />
    <glyph glyph-name="aogonek" unicode="&#x105;" horiz-adv-x="1028" 
d="M856 -305l53 -121q-62 -27 -125 -27q-93 0 -154 51t-61 150q0 138 185 256q-46 32 -49 105h-3q-83 -136 -294 -136q-155 0 -246.5 75t-91.5 218q0 109 59 174q46 52 123.5 81t196.5 50l163 27q49 8 65.5 19t16.5 40v29q0 85 -43.5 127.5t-163.5 42.5q-231 0 -231 -205
l-162 19q-1 80 30.5 143t87 102t127.5 59.5t155 20.5q88 0 151 -14t113 -47.5t75 -95t25 -150.5v-495q0 -50 19.5 -69.5t64.5 -19.5h23v-118q-42 -6 -60 -6q-190 -123 -190 -220q0 -39 23 -58t59 -19q29 0 59 12zM694 313v179q-16 -6 -217 -48q-47 -10 -72.5 -16
t-60.5 -19.5t-53 -29.5t-31.5 -42t-13.5 -61q0 -81 56 -125.5t147 -44.5q106 0 175.5 50.5t69.5 156.5z" />
    <glyph glyph-name="Cacute" unicode="&#x106;" horiz-adv-x="1335" 
d="M748 1524h-175l215 297h250zM1110 399l164 -82q-76 -162 -218 -252t-331 -90q-138 0 -255 49t-201 140t-131.5 227.5t-47.5 304.5q0 211 76.5 374t221.5 255t337 92q182 0 320 -83.5t217 -233.5l-154 -105q-54 128 -152 196.5t-231 68.5q-206 0 -326 -153t-120 -411
q0 -257 120 -410t326 -153q133 0 231.5 69t153.5 197z" />
    <glyph glyph-name="cacute" unicode="&#x107;" horiz-adv-x="1009" 
d="M586 1393h217l-209 -263h-150zM831 293l134 -68q-60 -122 -167 -186t-249 -64q-216 0 -339.5 137t-123.5 371q0 233 128.5 373.5t334.5 140.5q150 0 253.5 -68.5t153.5 -195.5l-141 -74q-70 197 -266 197q-132 0 -210.5 -99t-78.5 -272q0 -171 80.5 -269.5t208.5 -98.5
q203 0 282 176z" />
    <glyph glyph-name="Ccircumflex" unicode="&#x108;" horiz-adv-x="1335" 
d="M727 1694l-123 -170h-174l219 299h158l217 -299h-170zM1110 399l164 -82q-76 -162 -218 -252t-331 -90q-138 0 -255 49t-201 140t-131.5 227.5t-47.5 304.5q0 211 76.5 374t221.5 255t337 92q182 0 320 -83.5t217 -233.5l-154 -105q-54 128 -152 196.5t-231 68.5
q-206 0 -326 -153t-120 -411q0 -257 120 -410t326 -153q133 0 231.5 69t153.5 197z" />
    <glyph glyph-name="ccircumflex" unicode="&#x109;" horiz-adv-x="1009" 
d="M553 1266l-123 -136h-158l201 263h162l203 -263h-154zM831 293l134 -68q-60 -122 -167 -186t-249 -64q-216 0 -339.5 137t-123.5 371q0 233 128.5 373.5t334.5 140.5q150 0 253.5 -68.5t153.5 -195.5l-141 -74q-70 197 -266 197q-132 0 -210.5 -99t-78.5 -272
q0 -171 80.5 -269.5t208.5 -98.5q203 0 282 176z" />
    <glyph glyph-name="Cdotaccent" unicode="&#x10a;" horiz-adv-x="1335" 
d="M1110 399l164 -82q-76 -162 -218 -252t-331 -90q-138 0 -255 49t-201 140t-131.5 227.5t-47.5 304.5q0 211 76.5 374t221.5 255t337 92q182 0 320 -83.5t217 -233.5l-154 -105q-54 128 -152 196.5t-231 68.5q-206 0 -326 -153t-120 -411q0 -257 120 -410t326 -153
q133 0 231.5 69t153.5 197zM629 1559v221h184v-221h-184z" />
    <glyph glyph-name="cdotaccent" unicode="&#x10b;" horiz-adv-x="1009" 
d="M831 293l134 -68q-60 -122 -167 -186t-249 -64q-216 0 -339.5 137t-123.5 371q0 233 128.5 373.5t334.5 140.5q150 0 253.5 -68.5t153.5 -195.5l-141 -74q-70 197 -266 197q-132 0 -210.5 -99t-78.5 -272q0 -171 80.5 -269.5t208.5 -98.5q203 0 282 176zM459 1171v222
h184v-222h-184z" />
    <glyph glyph-name="Ccaron" unicode="&#x10c;" horiz-adv-x="1335" 
d="M602 1823l123 -170l127 170h170l-217 -299h-158l-219 299h174zM1110 399l164 -82q-76 -162 -218 -252t-331 -90q-138 0 -255 49t-201 140t-131.5 227.5t-47.5 304.5q0 211 76.5 374t221.5 255t337 92q182 0 320 -83.5t217 -233.5l-154 -105q-54 128 -152 196.5t-231 68.5
q-206 0 -326 -153t-120 -411q0 -257 120 -410t326 -153q133 0 231.5 69t153.5 197z" />
    <glyph glyph-name="ccaron" unicode="&#x10d;" horiz-adv-x="1009" 
d="M428 1393l123 -136l131 136h154l-203 -263h-162l-201 263h158zM831 293l134 -68q-60 -122 -167 -186t-249 -64q-216 0 -339.5 137t-123.5 371q0 233 128.5 373.5t334.5 140.5q150 0 253.5 -68.5t153.5 -195.5l-141 -74q-70 197 -266 197q-132 0 -210.5 -99t-78.5 -272
q0 -171 80.5 -269.5t208.5 -98.5q203 0 282 176z" />
    <glyph glyph-name="Dcaron" unicode="&#x10e;" horiz-adv-x="1359" 
d="M502 1823l123 -170l127 170h170l-217 -299h-158l-219 299h174zM492 0h-332v1393h340q200 0 307 -17t199 -84q116 -86 187 -242t71 -348q0 -172 -53.5 -315.5t-151.5 -241.5q-37 -36 -73.5 -61t-82.5 -41t-81 -25t-98.5 -13t-104 -4.5t-127.5 -0.5zM340 1231v-1071h192
q81 0 120.5 1.5t95 9t95.5 26t77 49.5q73 60 118 179.5t45 268.5q0 135 -45.5 257t-124.5 192q-68 57 -152 72.5t-255 15.5h-166z" />
    <glyph glyph-name="dcaron" unicode="&#x10f;" horiz-adv-x="1329" 
d="M1225 1130h-125l59 263h193zM510 -25q-189 0 -306.5 137t-117.5 373q0 239 120.5 375.5t309.5 136.5q119 0 199.5 -51.5t113.5 -114.5v562h170v-1393h-170v143q-34 -64 -115 -116t-204 -52zM846 489q0 178 -83.5 273.5t-215.5 95.5q-131 0 -209 -97t-78 -272
q0 -174 75.5 -272t207.5 -98q134 0 218.5 95.5t84.5 274.5z" />
    <glyph glyph-name="Dcroat" unicode="&#x110;" horiz-adv-x="1359" 
d="M492 0h-332v659h-129v158h129v574h340q200 0 307 -17t199 -84q116 -86 187 -242t71 -348q0 -171 -53.5 -314t-151.5 -241q-37 -36 -73.5 -61t-82.5 -41t-81 -25t-98.5 -13t-104 -4.5t-127.5 -0.5zM340 1229v-412h455v-158h-455v-499h192q81 0 120.5 1.5t95 9t95.5 26
t77 49.5q73 61 118 179t45 267q0 135 -45.5 257t-124.5 192q-68 57 -152 72.5t-255 15.5h-166z" />
    <glyph glyph-name="dcroat" unicode="&#x111;" horiz-adv-x="1150" 
d="M498 1257h331v136h170v-136h172v-127h-172v-1130h-170v143q-34 -64 -115 -116t-204 -52q-189 0 -306.5 137t-117.5 373q0 239 120.5 375.5t309.5 136.5q119 0 199.5 -51.5t113.5 -114.5v299h-331v127zM846 489q0 178 -83.5 273.5t-215.5 95.5q-131 0 -209 -97t-78 -272
q0 -174 75.5 -272t207.5 -98q134 0 218.5 95.5t84.5 274.5z" />
    <glyph glyph-name="Emacron" unicode="&#x112;" horiz-adv-x="1212" 
d="M1130 162v-162h-970v1393h932v-162h-752v-434h682v-162h-682v-473h790zM350 1579v137h555v-137h-555z" />
    <glyph glyph-name="emacron" unicode="&#x113;" horiz-adv-x="1073" 
d="M858 289l123 -88q-15 -23 -33.5 -46t-57.5 -57.5t-83.5 -60t-112.5 -44t-143 -18.5q-212 0 -338.5 137.5t-126.5 379.5q0 223 130.5 364t332.5 141q142 0 242.5 -68t148 -182t47.5 -262v-36h-729q2 -62 20.5 -118.5t54.5 -104t96.5 -75.5t137.5 -28q189 0 291 166z
M549 860q-114 0 -193 -75t-92 -201h547q-11 130 -79 203t-183 73zM270 1192v137h555v-137h-555z" />
    <glyph glyph-name="Ebreve" unicode="&#x114;" horiz-adv-x="1212" 
d="M1130 162v-162h-970v1393h932v-162h-752v-434h682v-162h-682v-473h790zM643 1661q59 0 98 34.5t52 98.5h143q-19 -129 -95.5 -199.5t-197.5 -70.5q-122 0 -199 70.5t-94 199.5h142q15 -65 54 -99t97 -34z" />
    <glyph glyph-name="ebreve" unicode="&#x115;" horiz-adv-x="1073" 
d="M858 289l123 -88q-15 -23 -33.5 -46t-57.5 -57.5t-83.5 -60t-112.5 -44t-143 -18.5q-212 0 -338.5 137.5t-126.5 379.5q0 223 130.5 364t332.5 141q142 0 242.5 -68t148 -182t47.5 -262v-36h-729q2 -62 20.5 -118.5t54.5 -104t96.5 -75.5t137.5 -28q189 0 291 166z
M549 860q-114 0 -193 -75t-92 -201h547q-11 130 -79 203t-183 73zM551 1260q59 0 97.5 34.5t51.5 98.5h144q-19 -129 -95.5 -200t-197.5 -71q-122 0 -199 71t-94 200h141q15 -64 54 -98.5t98 -34.5z" />
    <glyph glyph-name="Edotaccent" unicode="&#x116;" horiz-adv-x="1212" 
d="M1130 162v-162h-970v1393h932v-162h-752v-434h682v-162h-682v-473h790zM553 1559v221h184v-221h-184z" />
    <glyph glyph-name="edotaccent" unicode="&#x117;" horiz-adv-x="1073" 
d="M858 289l123 -88q-15 -23 -33.5 -46t-57.5 -57.5t-83.5 -60t-112.5 -44t-143 -18.5q-212 0 -338.5 137.5t-126.5 379.5q0 223 130.5 364t332.5 141q142 0 242.5 -68t148 -182t47.5 -262v-36h-729q2 -62 20.5 -118.5t54.5 -104t96.5 -75.5t137.5 -28q189 0 291 166z
M549 860q-114 0 -193 -75t-92 -201h547q-11 130 -79 203t-183 73zM459 1171v222h184v-222h-184z" />
    <glyph glyph-name="Eogonek" unicode="&#x118;" horiz-adv-x="1212" 
d="M1130 162v-162h-67q-36 -21 -70 -45t-71.5 -56.5t-60.5 -69t-23 -69.5q0 -39 23 -58t59 -19q29 0 59 12l53 -121q-62 -27 -125 -27q-93 0 -154 51t-61 150q0 139 178 252h-710v1393h932v-162h-752v-434h682v-162h-682v-473h790z" />
    <glyph glyph-name="eogonek" unicode="&#x119;" horiz-adv-x="1073" 
d="M633 -305l53 -121q-61 -27 -125 -27q-93 0 -154 51t-61 150q0 125 146 232q-187 17 -296.5 152.5t-109.5 359.5q0 223 130.5 364t332.5 141q142 0 242.5 -68t148 -182t47.5 -262v-36h-729q2 -62 20.5 -118.5t54.5 -104t96.5 -75.5t137.5 -28q189 0 291 166l123 -88
q-95 -148 -264 -201q-36 -21 -70 -45t-71.5 -56.5t-60.5 -69t-23 -69.5q0 -39 22.5 -58t58.5 -19q30 0 60 12zM549 860q-114 0 -193 -75t-92 -201h547q-11 130 -79 203t-183 73z" />
    <glyph glyph-name="Ecaron" unicode="&#x11a;" horiz-adv-x="1212" 
d="M524 1823l123 -170l127 170h170l-217 -299h-158l-219 299h174zM1130 162v-162h-970v1393h932v-162h-752v-434h682v-162h-682v-473h790z" />
    <glyph glyph-name="ecaron" unicode="&#x11b;" horiz-adv-x="1073" 
d="M428 1393l123 -136l131 136h154l-203 -263h-162l-201 263h158zM858 289l123 -88q-15 -23 -33.5 -46t-57.5 -57.5t-83.5 -60t-112.5 -44t-143 -18.5q-212 0 -338.5 137.5t-126.5 379.5q0 223 130.5 364t332.5 141q142 0 242.5 -68t148 -182t47.5 -262v-36h-729
q2 -62 20.5 -118.5t54.5 -104t96.5 -75.5t137.5 -28q189 0 291 166zM549 860q-114 0 -193 -75t-92 -201h547q-11 130 -79 203t-183 73z" />
    <glyph glyph-name="Gcircumflex" unicode="&#x11c;" horiz-adv-x="1452" 
d="M727 1694l-123 -170h-174l219 299h158l217 -299h-170zM723 131q107 0 198 38t136 103q38 56 56.5 125.5t19.5 173.5h-480v162h647v-733h-170v178q-56 -86 -161 -144.5t-250 -58.5q-138 0 -254 49t-199 140t-129.5 227.5t-46.5 304.5q0 211 76.5 374.5t221 255t335.5 91.5
q185 0 323 -83.5t214 -233.5l-152 -103q-55 126 -153.5 194.5t-231.5 68.5q-205 0 -326 -153.5t-121 -410.5q0 -256 121 -410.5t326 -154.5z" />
    <glyph glyph-name="gcircumflex" unicode="&#x11d;" horiz-adv-x="1146" 
d="M276 -41l-159 -27q47 -338 426 -338q166 0 266.5 46.5t146.5 152.5q43 98 43 266v916h-170v-144q-41 71 -123.5 118.5t-187.5 47.5q-189 0 -310.5 -137.5t-121.5 -365.5q0 -230 118.5 -363t313.5 -133q110 0 193.5 47t119.5 123q-2 -61 -2 -98q0 -90 -11.5 -148.5
t-42 -103t-87 -64.5t-143.5 -20q-234 0 -269 225zM846 494q0 -175 -83.5 -263t-219.5 -88q-133 0 -208 94.5t-75 258.5q0 165 78 262.5t209 97.5q134 0 216.5 -92.5t82.5 -269.5zM573 1266l-122 -136h-158l201 263h161l203 -263h-153z" />
    <glyph glyph-name="Gbreve" unicode="&#x11e;" horiz-adv-x="1452" 
d="M723 131q107 0 198 38t136 103q38 56 56.5 125.5t19.5 173.5h-480v162h647v-733h-170v178q-56 -86 -161 -144.5t-250 -58.5q-138 0 -254 49t-199 140t-129.5 227.5t-46.5 304.5q0 211 76.5 374.5t221 255t335.5 91.5q185 0 323 -83.5t214 -233.5l-152 -103
q-55 126 -153.5 194.5t-231.5 68.5q-205 0 -326 -153.5t-121 -410.5q0 -256 121 -410.5t326 -154.5zM725 1661q59 0 97.5 34.5t51.5 98.5h144q-19 -129 -95.5 -199.5t-197.5 -70.5q-122 0 -199 70.5t-94 199.5h141q15 -64 54 -98.5t98 -34.5z" />
    <glyph glyph-name="gbreve" unicode="&#x11f;" horiz-adv-x="1146" 
d="M276 -41l-159 -27q47 -338 426 -338q166 0 266.5 46.5t146.5 152.5q43 98 43 266v916h-170v-144q-41 71 -123.5 118.5t-187.5 47.5q-189 0 -310.5 -137.5t-121.5 -365.5q0 -230 118.5 -363t313.5 -133q110 0 193.5 47t119.5 123q-2 -61 -2 -98q0 -90 -11.5 -148.5
t-42 -103t-87 -64.5t-143.5 -20q-234 0 -269 225zM846 494q0 -175 -83.5 -263t-219.5 -88q-133 0 -208 94.5t-75 258.5q0 165 78 262.5t209 97.5q134 0 216.5 -92.5t82.5 -269.5zM571 1268q59 0 98 34.5t52 98.5h143q-19 -129 -95.5 -200t-197.5 -71q-122 0 -198.5 71
t-93.5 200h141q15 -65 54 -99t97 -34z" />
    <glyph glyph-name="Gdotaccent" unicode="&#x120;" horiz-adv-x="1452" 
d="M723 131q107 0 198 38t136 103q38 56 56.5 125.5t19.5 173.5h-480v162h647v-733h-170v178q-56 -86 -161 -144.5t-250 -58.5q-138 0 -254 49t-199 140t-129.5 227.5t-46.5 304.5q0 211 76.5 374.5t221 255t335.5 91.5q185 0 323 -83.5t214 -233.5l-152 -103
q-55 126 -153.5 194.5t-231.5 68.5q-205 0 -326 -153.5t-121 -410.5q0 -256 121 -410.5t326 -154.5zM633 1559v221h184v-221h-184z" />
    <glyph glyph-name="gdotaccent" unicode="&#x121;" horiz-adv-x="1146" 
d="M117 -68l159 27q35 -225 269 -225q87 0 143.5 20t87 64.5t42 103t11.5 148.5l2 98q-36 -76 -119.5 -123t-193.5 -47q-195 0 -313.5 133t-118.5 363q0 228 121.5 365.5t310.5 137.5q105 0 187.5 -47.5t123.5 -118.5v144h170v-916q0 -168 -43 -266q-46 -106 -146.5 -152.5
t-266.5 -46.5q-379 0 -426 338zM846 494q0 177 -82.5 269.5t-216.5 92.5q-131 0 -209 -97.5t-78 -262.5q0 -164 75 -258.5t208 -94.5q136 0 219.5 88t83.5 263zM473 1171v222h184v-222h-184z" />
    <glyph glyph-name="Gcommaaccent" unicode="&#x122;" horiz-adv-x="1452" 
d="M723 131q107 0 198 38t136 103q38 56 56.5 125.5t19.5 173.5h-480v162h647v-733h-170v178q-56 -86 -161 -144.5t-250 -58.5q-138 0 -254 49t-199 140t-129.5 227.5t-46.5 304.5q0 211 76.5 374.5t221 255t335.5 91.5q185 0 323 -83.5t214 -233.5l-152 -103
q-55 126 -153.5 194.5t-231.5 68.5q-205 0 -326 -153.5t-121 -410.5q0 -256 121 -410.5t326 -154.5zM631 -143h194v-90q0 -170 -18 -236q-38 -132 -176 -143v94q47 6 67 41q10 19 13.5 26.5t6.5 27t3 52.5h-90v228z" />
    <glyph glyph-name="gcommaaccent" unicode="&#x123;" horiz-adv-x="1146" 
d="M276 -41l-159 -27q47 -338 426 -338q166 0 266.5 46.5t146.5 152.5q43 98 43 266v916h-170v-144q-41 71 -123.5 118.5t-187.5 47.5q-189 0 -310.5 -137.5t-121.5 -365.5q0 -230 118.5 -363t313.5 -133q110 0 193.5 47t119.5 123q-2 -61 -2 -98q0 -90 -11.5 -148.5
t-42 -103t-87 -64.5t-143.5 -20q-234 0 -269 225zM846 494q0 -175 -83.5 -263t-219.5 -88q-133 0 -208 94.5t-75 258.5q0 165 78 262.5t209 97.5q134 0 216.5 -92.5t82.5 -269.5zM670 1165h-195v90q0 166 19 236q38 132 176 143v-94q-48 -6 -68 -41q-10 -18 -13.5 -26.5
t-6 -27.5t-2.5 -52h90v-228z" />
    <glyph glyph-name="Hcircumflex" unicode="&#x124;" horiz-adv-x="1413" 
d="M707 1694l-123 -170h-174l219 299h157l218 -299h-170zM1253 1393v-1393h-180v641h-733v-641h-180v1393h180v-590h733v590h180z" />
    <glyph glyph-name="hcircumflex" unicode="&#x125;" horiz-adv-x="1112" 
d="M559 1659l-123 -135h-157l200 262h162l203 -262h-154zM971 610v-610h-170v567q0 153 -54.5 217t-166.5 64q-119 0 -188.5 -82.5t-69.5 -202.5v-563h-170v1393h170v-564q42 74 120.5 121t192.5 47q193 0 274 -125q62 -95 62 -262z" />
    <glyph glyph-name="Hbar" unicode="&#x126;" horiz-adv-x="1413" 
d="M1253 1393v-1393h-180v641h-733v-641h-180v1393h180v-312h733v312h180zM340 803h733v145h-733v-145z" />
    <glyph glyph-name="hbar" unicode="&#x127;" horiz-adv-x="1112" 
d="M-20 1130v127h172v136h170v-136h333v-127h-333v-299q42 74 120.5 121t192.5 47q193 0 274 -125q62 -95 62 -262v-612h-170v569q0 153 -54.5 217t-166.5 64q-119 0 -188.5 -82.5t-69.5 -202.5v-565h-170v1130h-172z" />
    <glyph glyph-name="Itilde" unicode="&#x128;" horiz-adv-x="499" 
d="M459 1786l135 -35q-16 -37 -27.5 -59.5t-32 -54t-41 -49t-50.5 -31t-64 -13.5q-64 0 -160 51q-6 3 -29 16t-40.5 20t-34.5 7q-29 0 -48.5 -31t-25.5 -65l-137 29q79 209 219 209q63 0 137 -43q5 -3 22 -12.5t25 -13.5t21.5 -10t24.5 -8.5t22 -2.5q53 0 84 96zM340 1393
v-1393h-180v1393h180z" />
    <glyph glyph-name="itilde" unicode="&#x129;" horiz-adv-x="473" 
d="M322 975v-975h-170v975h170zM446 1395l136 -35q-16 -37 -27.5 -59.5t-32 -54t-41 -49t-50.5 -31t-64 -13.5q-64 0 -160 51q-5 2 -29 16t-41.5 20.5t-34.5 6.5q-29 0 -48 -31t-25 -65l-138 29q79 209 220 209q63 0 137 -43q5 -3 27 -15t31.5 -17t26 -10.5t29.5 -5.5
q52 0 84 97z" />
    <glyph glyph-name="Imacron" unicode="&#x12a;" horiz-adv-x="499" 
d="M340 1393v-1393h-180v1393h180zM-27 1579v137h555v-137h-555z" />
    <glyph glyph-name="imacron" unicode="&#x12b;" horiz-adv-x="473" 
d="M322 975v-975h-170v975h170zM-41 1192v137h555v-137h-555z" />
    <glyph glyph-name="Ibreve" unicode="&#x12c;" horiz-adv-x="499" 
d="M340 1393v-1393h-180v1393h180zM250 1661q59 0 97.5 34.5t51.5 98.5h144q-19 -129 -95.5 -199.5t-197.5 -70.5q-122 0 -199 70.5t-94 199.5h141q15 -64 54 -98.5t98 -34.5z" />
    <glyph glyph-name="ibreve" unicode="&#x12d;" horiz-adv-x="473" 
d="M322 975v-975h-170v975h170zM238 1260q59 0 97.5 34.5t51.5 98.5h143q-19 -129 -95 -200t-197 -71q-122 0 -199 71t-94 200h141q15 -64 54 -98.5t98 -34.5z" />
    <glyph glyph-name="Iogonek" unicode="&#x12e;" horiz-adv-x="499" 
d="M256 -305l53 -121q-62 -27 -125 -27q-93 0 -154 51t-61 150q0 43 18.5 83t53 73.5t59 52.5t60.5 43v1393h180v-1393q-32 -18 -65.5 -41t-72 -56t-63 -71t-24.5 -72q0 -39 23 -58t59 -19q29 0 59 12z" />
    <glyph glyph-name="iogonek" unicode="&#x12f;" horiz-adv-x="473" 
d="M250 -305l53 -121q-62 -27 -125 -27q-93 0 -154 51t-61 150q0 44 17 83t48 71t59 53.5t65 44.5v975h170v-975q-34 -20 -66 -43.5t-68 -55.5t-57.5 -69t-21.5 -72q0 -39 22.5 -58t58.5 -19q30 0 60 12zM322 1393v-217h-170v217h170z" />
    <glyph glyph-name="Idotaccent" unicode="&#x130;" horiz-adv-x="499" 
d="M340 1393v-1393h-180v1393h180zM158 1559v221h184v-221h-184z" />
    <glyph glyph-name="dotlessi" unicode="&#x131;" horiz-adv-x="473" 
d="M322 975v-975h-170v975h170z" />
    <glyph glyph-name="Jcircumflex" unicode="&#x134;" horiz-adv-x="753" 
d="M498 1694l-123 -170h-174l219 299h158l217 -299h-170zM426 1393h180v-1059q0 -143 -49 -219q-87 -140 -334 -140q-92 0 -170 19v164q81 -25 152 -25q107 0 164 47q39 32 48 86t9 174v953z" />
    <glyph glyph-name="jcircumflex" unicode="&#x135;" horiz-adv-x="464" 
d="M-23 -408v142q24 -4 60 -4q73 0 94 37q16 27 16 100v1108h170v-1143q0 -80 -14 -121q-23 -66 -78.5 -95.5t-154.5 -29.5q-52 0 -93 6zM223 1266l-123 -136h-157l200 263h162l203 -263h-154z" />
    <glyph glyph-name="Kcommaaccent" unicode="&#x136;" horiz-adv-x="1306" 
d="M731 838l586 -838h-227l-492 713l-258 -267v-446h-180v1393h180v-723l700 723h242zM584 -143h194v-90q0 -170 -18 -236q-38 -132 -176 -143v94q47 6 67 41q10 19 13.5 26.5t6.5 27t3 52.5h-90v228z" />
    <glyph glyph-name="kcommaaccent" unicode="&#x137;" horiz-adv-x="985" 
d="M580 594l436 -594h-213l-346 479l-135 -133v-346h-170v1393h170v-852l444 434h213zM451 -143h194v-90q0 -170 -18 -236q-38 -132 -176 -143v94q47 6 67 41q10 19 13.5 26.5t6.5 27t3 52.5h-90v228z" />
    <glyph glyph-name="kgreenlandic" unicode="&#x138;" horiz-adv-x="1024" 
d="M664 676l-84 -82l436 -594h-213l-346 479l-135 -133v-346h-170v973h170v-432l243 241q111 110 187 153.5t188 43.5h16v-145h-16q-73 0 -132.5 -37.5t-143.5 -120.5z" />
    <glyph glyph-name="Lacute" unicode="&#x139;" horiz-adv-x="1081" 
d="M330 1524h-174l215 297h250zM1030 162v-162h-870v1393h182v-1231h688z" />
    <glyph glyph-name="lacute" unicode="&#x13a;" horiz-adv-x="473" 
d="M324 1524h-174l215 297h249zM322 1393v-1393h-170v1393h170z" />
    <glyph glyph-name="Lcommaaccent" unicode="&#x13b;" horiz-adv-x="1081" 
d="M1030 162v-162h-870v1393h182v-1231h688zM487 -143h195v-90q0 -170 -18 -236q-38 -132 -177 -143v94q48 6 68 41q10 19 13.5 26.5t6.5 27t3 52.5h-91v228z" />
    <glyph glyph-name="lcommaaccent" unicode="&#x13c;" horiz-adv-x="473" 
d="M322 1393v-1393h-170v1393h170zM141 -143h195v-90q0 -166 -19 -236q-38 -132 -176 -143v94q48 6 68 41q10 18 13.5 26.5t6 27.5t2.5 52h-90v228z" />
    <glyph glyph-name="Lcaron" unicode="&#x13d;" horiz-adv-x="1081" 
d="M631 1130h-125l59 263h193zM1030 162v-162h-870v1393h182v-1231h688z" />
    <glyph glyph-name="lcaron" unicode="&#x13e;" horiz-adv-x="573" 
d="M545 1130h-125l59 263h193zM322 1393v-1393h-170v1393h170z" />
    <glyph glyph-name="Ldot" unicode="&#x13f;" horiz-adv-x="1081" 
d="M1030 162v-162h-870v1393h182v-1231h688zM580 975h194v-234h-194v234z" />
    <glyph glyph-name="ldot" unicode="&#x140;" horiz-adv-x="614" 
d="M319 1393v-1393h-169v1393h169zM436 975h195v-234h-195v234z" />
    <glyph glyph-name="Lslash" unicode="&#x141;" horiz-adv-x="1081" 
d="M1030 162v-162h-870v492l-174 -111v174l174 111v727h182v-609l379 244v-174l-379 -244v-448h688z" />
    <glyph glyph-name="lslash" unicode="&#x142;" horiz-adv-x="473" 
d="M322 1393v-504l135 88v-170l-135 -88v-719h-170v608l-127 -82v170l127 82v615h170z" />
    <glyph glyph-name="Nacute" unicode="&#x143;" horiz-adv-x="1435" 
d="M745 1524h-174l215 297h250zM338 1393l655 -936q78 -110 105 -158h2q-4 102 -4 225v869h180v-1393h-178l-652 938q-81 115 -108 168h-2q4 -90 4 -172v-934h-180v1393h178z" />
    <glyph glyph-name="nacute" unicode="&#x144;" horiz-adv-x="1112" 
d="M971 610v-610h-170v567q0 153 -54.5 217t-166.5 64q-119 0 -188.5 -82.5t-69.5 -202.5v-563h-170v975h170v-146q42 74 120.5 121t192.5 47q193 0 274 -125q62 -95 62 -262zM602 1393h217l-209 -263h-149z" />
    <glyph glyph-name="Ncommaaccent" unicode="&#x145;" horiz-adv-x="1435" 
d="M338 1393l655 -936q78 -110 105 -158h2q-4 102 -4 225v869h180v-1393h-178l-652 938q-81 115 -108 168h-2q4 -90 4 -172v-934h-180v1393h178zM618 -143h195v-90q0 -170 -18 -236q-38 -132 -177 -143v94q48 6 68 41q10 19 13.5 26.5t6.5 27t3 52.5h-91v228z" />
    <glyph glyph-name="ncommaaccent" unicode="&#x146;" horiz-adv-x="1112" 
d="M971 610v-610h-170v567q0 153 -54.5 217t-166.5 64q-119 0 -188.5 -82.5t-69.5 -202.5v-563h-170v975h170v-146q42 74 120.5 121t192.5 47q193 0 274 -125q62 -95 62 -262zM469 -143h195v-90q0 -166 -19 -236q-38 -132 -176 -143v94q48 6 68 41q10 18 13.5 26.5t6 27.5
t2.5 52h-90v228z" />
    <glyph glyph-name="Ncaron" unicode="&#x147;" horiz-adv-x="1435" 
d="M338 1393l655 -936q78 -110 105 -158h2q-4 102 -4 225v869h180v-1393h-178l-652 938q-81 115 -108 168h-2q4 -90 4 -172v-934h-180v1393h178zM606 1810l123 -135l131 135h154l-203 -262h-162l-200 262h157z" />
    <glyph glyph-name="ncaron" unicode="&#x148;" horiz-adv-x="1112" 
d="M971 610v-610h-170v567q0 153 -54.5 217t-166.5 64q-119 0 -188.5 -82.5t-69.5 -202.5v-563h-170v975h170v-146q42 74 120.5 121t192.5 47q193 0 274 -125q62 -95 62 -262zM444 1393l123 -136l131 136h154l-203 -263h-162l-200 263h157z" />
    <glyph glyph-name="Eng" unicode="&#x14a;" horiz-adv-x="1435" 
d="M338 1393l655 -936q78 -110 105 -158h2q-4 102 -4 225v869h180v-1440q0 -143 -49 -219q-87 -140 -334 -140q-92 0 -170 19v164q81 -25 151 -25q107 0 164 47q33 29 44.5 75.5t13.5 127.5l-650 936q-81 115 -108 168h-2q4 -90 4 -172v-934h-180v1393h178z" />
    <glyph glyph-name="eng" unicode="&#x14b;" horiz-adv-x="1112" 
d="M971 612v-780q0 -78 -15 -121q-23 -66 -78.5 -95.5t-154.5 -29.5q-51 0 -92 6v142q24 -4 59 -4q73 0 94 37q17 28 17 100v702q0 153 -54.5 217t-166.5 64q-119 0 -188.5 -82.5t-69.5 -202.5v-565h-170v975h170v-144q42 74 120.5 121t192.5 47q193 0 274 -125
q62 -95 62 -262z" />
    <glyph glyph-name="Omacron" unicode="&#x14c;" horiz-adv-x="1443" 
d="M90 696q0 211 76.5 374.5t221 255t335.5 91.5q287 0 459 -200t172 -521q0 -212 -75.5 -374.5t-219.5 -254.5t-336 -92q-191 0 -335.5 91.5t-221 255t-76.5 374.5zM279 696q0 -257 119 -409t325 -152q204 0 323 152.5t119 408.5q0 257 -118 409t-324 152t-325 -151.5
t-119 -409.5zM444 1579v137h555v-137h-555z" />
    <glyph glyph-name="omacron" unicode="&#x14d;" horiz-adv-x="1101" 
d="M86 483q0 233 129 373.5t336 140.5t336 -140.5t129 -373.5q0 -232 -127.5 -370t-337.5 -138t-337.5 138t-127.5 370zM260 485q0 -172 80 -270t211 -98t211 98.5t80 269.5q0 175 -79 274t-212 99t-212 -100t-79 -273zM272 1192v137h555v-137h-555z" />
    <glyph glyph-name="Obreve" unicode="&#x14e;" horiz-adv-x="1443" 
d="M90 696q0 211 76.5 374.5t221 255t335.5 91.5q287 0 459 -200t172 -521q0 -212 -75.5 -374.5t-219.5 -254.5t-336 -92q-191 0 -335.5 91.5t-221 255t-76.5 374.5zM279 696q0 -257 119 -409t325 -152q204 0 323 152.5t119 408.5q0 257 -118 409t-324 152t-325 -151.5
t-119 -409.5zM721 1661q59 0 97.5 34.5t51.5 98.5h144q-19 -129 -95.5 -199.5t-197.5 -70.5q-122 0 -199 70.5t-94 199.5h141q15 -64 54 -98.5t98 -34.5z" />
    <glyph glyph-name="obreve" unicode="&#x14f;" horiz-adv-x="1101" 
d="M86 483q0 233 129 373.5t336 140.5t336 -140.5t129 -373.5q0 -232 -127.5 -370t-337.5 -138t-337.5 138t-127.5 370zM260 485q0 -172 80 -270t211 -98t211 98.5t80 269.5q0 175 -79 274t-212 99t-212 -100t-79 -273zM551 1260q59 0 97.5 34.5t51.5 98.5h144
q-19 -129 -95.5 -200t-197.5 -71q-122 0 -199 71t-94 200h141q15 -64 54 -98.5t98 -34.5z" />
    <glyph glyph-name="Ohungarumlaut" unicode="&#x150;" horiz-adv-x="1443" 
d="M592 1524h-174l215 297h250zM965 1524h-174l215 297h249zM90 696q0 211 76.5 374.5t221 255t335.5 91.5q287 0 459 -200t172 -521q0 -212 -75.5 -374.5t-219.5 -254.5t-336 -92q-191 0 -335.5 91.5t-221 255t-76.5 374.5zM279 696q0 -257 119 -409t325 -152
q204 0 323 152.5t119 408.5q0 257 -118 409t-324 152t-325 -151.5t-119 -409.5z" />
    <glyph glyph-name="ohungarumlaut" unicode="&#x151;" horiz-adv-x="1101" 
d="M86 483q0 233 129 373.5t336 140.5t336 -140.5t129 -373.5q0 -232 -127.5 -370t-337.5 -138t-337.5 138t-127.5 370zM260 485q0 -172 80 -270t211 -98t211 98.5t80 269.5q0 175 -79 274t-212 99t-212 -100t-79 -273zM778 1114h-174l215 279h250zM406 1114h-175l215 279
h250z" />
    <glyph glyph-name="OE" unicode="&#x152;" horiz-adv-x="2015" 
d="M969 150v1085q-81 16 -183 16q-238 0 -374 -141t-136 -418q0 -109 26 -200.5t72.5 -157.5t110.5 -112t140.5 -68.5t162.5 -22.5q114 0 181 19zM1933 0h-913q-136 -25 -234 -25q-324 0 -510 185.5t-186 531.5q0 337 186.5 530t511.5 193q98 0 232 -24h874v-162h-743v-428
h674v-162h-674v-477h782v-162z" />
    <glyph glyph-name="oe" unicode="&#x153;" horiz-adv-x="1814" 
d="M1599 289l123 -88q-15 -23 -33.5 -46t-57.5 -57.5t-83.5 -60t-112.5 -44t-143 -18.5q-245 0 -370 179q-62 -86 -157 -132.5t-214 -46.5q-210 0 -337.5 138t-127.5 370q0 233 129 373.5t336 140.5q117 0 213 -48.5t158 -137.5q62 89 157 137.5t211 48.5q142 0 243 -68
t148.5 -182t47.5 -262v-36h-730q2 -62 20.5 -118.5t54.5 -104t97 -75.5t138 -28q188 0 290 166zM260 485q0 -172 80 -270t211 -98t211 98.5t80 269.5q0 175 -79 274t-212 99t-212 -100t-79 -273zM1290 860q-114 0 -192.5 -75t-91.5 -201h546q-11 130 -79 203t-183 73z" />
    <glyph glyph-name="Racute" unicode="&#x154;" horiz-adv-x="1269" 
d="M659 1524h-174l215 297h250zM340 596v-596h-180v1393h524q179 0 287 -41q107 -43 167 -136t60 -223q0 -162 -96.5 -262.5t-255.5 -126.5l393 -604h-225l-381 596h-293zM340 756h313q159 0 240 35q119 56 119 204q0 72 -32 125.5t-91 79.5q-84 33 -238 33h-311v-477z" />
    <glyph glyph-name="racute" unicode="&#x155;" horiz-adv-x="684" 
d="M672 993v-162q-35 7 -64 7q-88 0 -155 -48.5t-99 -122t-32 -157.5v-510h-170v975h170v-184q17 85 104.5 146.5t189.5 61.5q35 0 56 -6zM313 1393h217l-208 -263h-150z" />
    <glyph glyph-name="Rcommaaccent" unicode="&#x156;" horiz-adv-x="1269" 
d="M340 596v-596h-180v1393h524q179 0 287 -41q107 -43 167 -136t60 -223q0 -162 -96.5 -262.5t-255.5 -126.5l393 -604h-225l-381 596h-293zM340 756h313q159 0 240 35q119 56 119 204q0 72 -32 125.5t-91 79.5q-84 33 -238 33h-311v-477zM555 -143h195v-90
q0 -166 -19 -236q-38 -132 -176 -143v94q48 6 68 41q10 18 13.5 26.5t6 27.5t2.5 52h-90v228z" />
    <glyph glyph-name="rcommaaccent" unicode="&#x157;" horiz-adv-x="684" 
d="M672 993v-162q-35 7 -64 7q-88 0 -155 -48.5t-99 -122t-32 -157.5v-510h-170v975h170v-184q17 85 104.5 146.5t189.5 61.5q35 0 56 -6zM141 -143h195v-90q0 -166 -19 -236q-38 -132 -176 -143v94q48 6 68 41q10 18 13.5 26.5t6 27.5t2.5 52h-90v228z" />
    <glyph glyph-name="Rcaron" unicode="&#x158;" horiz-adv-x="1269" 
d="M526 1823l123 -170l127 170h170l-217 -299h-158l-219 299h174zM340 596v-596h-180v1393h524q179 0 287 -41q107 -43 167 -136t60 -223q0 -162 -96.5 -262.5t-255.5 -126.5l393 -604h-225l-381 596h-293zM340 756h313q159 0 240 35q119 56 119 204q0 72 -32 125.5
t-91 79.5q-84 33 -238 33h-311v-477z" />
    <glyph glyph-name="rcaron" unicode="&#x159;" horiz-adv-x="684" 
d="M672 831v162q-21 6 -56 6q-102 0 -189.5 -61.5t-104.5 -146.5v184h-170v-975h170v510q0 84 32 157.5t99 122t155 48.5q29 0 64 -7zM270 1393l123 -136l131 136h154l-203 -263h-162l-200 263h157z" />
    <glyph glyph-name="Sacute" unicode="&#x15a;" horiz-adv-x="1193" 
d="M614 1524h-174l215 297h250zM1077 1184l-133 -113q-131 186 -375 186q-130 0 -211.5 -57.5t-81.5 -159.5q0 -90 55.5 -135.5t190.5 -79.5l189 -47q76 -20 131 -39.5t109.5 -51.5t88.5 -71t55 -97t21 -130q0 -128 -69.5 -223t-187 -143t-267.5 -48q-189 0 -333.5 78
t-221.5 207l147 105q53 -99 162 -163.5t256 -64.5q146 0 237 62.5t91 179.5q0 96 -69 147t-216 88l-170 43q-71 19 -118.5 35t-102 45.5t-86 65.5t-53 92.5t-21.5 128.5q0 123 66.5 213.5t173.5 135t237 44.5q179 0 305.5 -67t200.5 -166z" />
    <glyph glyph-name="sacute" unicode="&#x15b;" horiz-adv-x="940" 
d="M827 844l-110 -111q-110 123 -271 123q-85 0 -138.5 -35t-53.5 -98q0 -64 49 -93t170 -55l113 -22q132 -28 206 -89t74 -179q0 -145 -113.5 -227.5t-293.5 -82.5q-131 0 -242.5 55.5t-175.5 137.5l111 115q59 -76 140 -121t177 -45q102 0 162.5 40.5t60.5 112.5
q0 63 -41.5 89t-128.5 42l-133 27q-68 13 -119.5 32.5t-96 50.5t-68 79t-23.5 110q0 75 32.5 134t87 93.5t119 52t134.5 17.5q125 0 221.5 -45t150.5 -108zM492 1393h217l-209 -263h-150z" />
    <glyph glyph-name="Scircumflex" unicode="&#x15c;" horiz-adv-x="1193" 
d="M588 1694l-123 -170h-174l219 299h158l217 -299h-170zM1077 1184l-133 -113q-131 186 -375 186q-130 0 -211.5 -57.5t-81.5 -159.5q0 -90 55.5 -135.5t190.5 -79.5l189 -47q76 -20 131 -39.5t109.5 -51.5t88.5 -71t55 -97t21 -130q0 -128 -69.5 -223t-187 -143
t-267.5 -48q-189 0 -333.5 78t-221.5 207l147 105q53 -99 162 -163.5t256 -64.5q146 0 237 62.5t91 179.5q0 96 -69 147t-216 88l-170 43q-71 19 -118.5 35t-102 45.5t-86 65.5t-53 92.5t-21.5 128.5q0 123 66.5 213.5t173.5 135t237 44.5q179 0 305.5 -67t200.5 -166z" />
    <glyph glyph-name="scircumflex" unicode="&#x15d;" horiz-adv-x="940" 
d="M827 844l-110 -111q-110 123 -271 123q-85 0 -138.5 -35t-53.5 -98q0 -64 49 -93t170 -55l113 -22q132 -28 206 -89t74 -179q0 -145 -113.5 -227.5t-293.5 -82.5q-131 0 -242.5 55.5t-175.5 137.5l111 115q59 -76 140 -121t177 -45q102 0 162.5 40.5t60.5 112.5
q0 63 -41.5 89t-128.5 42l-133 27q-68 13 -119.5 32.5t-96 50.5t-68 79t-23.5 110q0 75 32.5 134t87 93.5t119 52t134.5 17.5q125 0 221.5 -45t150.5 -108zM459 1266l-123 -136h-158l201 263h162l202 -263h-153z" />
    <glyph glyph-name="Scedilla" unicode="&#x15e;" horiz-adv-x="1193" 
d="M453 -117l69 97q-165 13 -291 88.5t-194 191.5l147 105q53 -99 162 -163.5t256 -64.5q146 0 237 62.5t91 179.5q0 96 -69 147t-216 88l-170 43q-71 19 -118.5 35t-102 45.5t-86 65.5t-53 92.5t-21.5 128.5q0 123 66.5 213.5t173.5 135t237 44.5q179 0 305.5 -67
t200.5 -166l-133 -113q-131 186 -375 186q-130 0 -211.5 -57.5t-81.5 -159.5q0 -90 55.5 -135.5t190.5 -79.5l189 -47q76 -20 131 -39.5t109.5 -51.5t88.5 -71t55 -97t21 -130q0 -182 -134.5 -291.5t-346.5 -120.5l-33 -47h6q74 0 122 -38.5t48 -110.5q0 -88 -59 -132
t-144 -44q-55 0 -110 20l24 78q30 -12 72 -12t69 18t27 55q0 36 -25.5 54t-62.5 18q-45 0 -75 -18z" />
    <glyph glyph-name="scedilla" unicode="&#x15f;" horiz-adv-x="940" 
d="M340 -117l70 94q-117 10 -215 63.5t-154 127.5l111 115q59 -76 140 -121t177 -45q102 0 162.5 40.5t60.5 112.5q0 63 -41.5 89t-128.5 42l-133 27q-68 13 -119.5 32.5t-96 50.5t-68 79t-23.5 110q0 75 32.5 134t87 93.5t119 52t134.5 17.5q125 0 221.5 -45t150.5 -108
l-110 -111q-110 123 -271 123q-85 0 -138.5 -35t-53.5 -98q0 -64 49 -93t170 -55l113 -22q132 -28 206 -89t74 -179q0 -132 -94.5 -211.5t-249.5 -93.5l-33 -50h7q74 0 122 -38.5t48 -110.5q0 -88 -59 -132t-144 -44q-56 0 -111 20l25 78q30 -12 72 -12t69 18t27 55
q0 36 -25.5 54t-62.5 18q-46 0 -76 -18z" />
    <glyph glyph-name="Scaron" unicode="&#x160;" horiz-adv-x="1193" 
d="M457 1823l123 -170l127 170h170l-218 -299h-157l-219 299h174zM1077 1184l-133 -113q-131 186 -375 186q-130 0 -211.5 -57.5t-81.5 -159.5q0 -90 55.5 -135.5t190.5 -79.5l189 -47q76 -20 131 -39.5t109.5 -51.5t88.5 -71t55 -97t21 -130q0 -128 -69.5 -223t-187 -143
t-267.5 -48q-189 0 -333.5 78t-221.5 207l147 105q53 -99 162 -163.5t256 -64.5q146 0 237 62.5t91 179.5q0 96 -69 147t-216 88l-170 43q-71 19 -118.5 35t-102 45.5t-86 65.5t-53 92.5t-21.5 128.5q0 123 66.5 213.5t173.5 135t237 44.5q179 0 305.5 -67t200.5 -166z" />
    <glyph glyph-name="scaron" unicode="&#x161;" horiz-adv-x="940" 
d="M340 1393l123 -136l131 136h154l-203 -263h-162l-201 263h158zM827 844l-110 -111q-110 123 -271 123q-85 0 -138.5 -35t-53.5 -98q0 -64 49 -93t170 -55l113 -22q132 -28 206 -89t74 -179q0 -145 -113.5 -227.5t-293.5 -82.5q-131 0 -242.5 55.5t-175.5 137.5l111 115
q59 -76 140 -121t177 -45q102 0 162.5 40.5t60.5 112.5q0 63 -41.5 89t-128.5 42l-133 27q-68 13 -119.5 32.5t-96 50.5t-68 79t-23.5 110q0 75 32.5 134t87 93.5t119 52t134.5 17.5q125 0 221.5 -45t150.5 -108z" />
    <glyph glyph-name="Tcommaaccent" unicode="&#x162;" horiz-adv-x="1069" 
d="M16 1231v162h1037v-162h-428v-1231h-181v1231h-428zM438 -143h195v-90q0 -166 -19 -236q-38 -132 -176 -143v94q48 6 68 41q10 18 13.5 26.5t6 27.5t2.5 52h-90v228z" />
    <glyph glyph-name="tcommaaccent" unicode="&#x163;" horiz-adv-x="593" 
d="M-10 846v129h188v352l170 37v-389h215v-129h-215v-604q0 -69 14 -92q17 -33 89 -33q46 0 112 12v-133q-86 -21 -170 -21q-164 0 -203 103q-12 34 -12 94v674h-188zM211 -143h195v-90q0 -166 -19 -236q-38 -132 -176 -143v94q48 6 68 41q10 18 13.5 26.5t6 27.5t2.5 52
h-90v228z" />
    <glyph glyph-name="Tcaron" unicode="&#x164;" horiz-adv-x="1069" 
d="M414 1823l123 -170l127 170h170l-218 -299h-157l-219 299h174zM16 1231v162h1037v-162h-428v-1231h-181v1231h-428z" />
    <glyph glyph-name="tcaron" unicode="&#x165;" horiz-adv-x="593" 
d="M610 1130h-125l60 263h192zM-10 846v129h188v352l170 37v-389h215v-129h-215v-604q0 -69 14 -92q17 -33 89 -33q46 0 112 12v-133q-86 -21 -170 -21q-164 0 -203 103q-12 34 -12 94v674h-188z" />
    <glyph glyph-name="Tbar" unicode="&#x166;" horiz-adv-x="1069" 
d="M16 1231v162h1037v-162h-428v-295h276v-133h-276v-803h-181v803h-276v133h276v295h-428z" />
    <glyph glyph-name="tbar" unicode="&#x167;" horiz-adv-x="593" 
d="M-20 510v127h198v209h-188v129h188v352l170 37v-389h215v-129h-215v-209h225v-127h-225v-268q0 -69 14 -92q17 -33 89 -33q46 0 112 12v-133q-86 -21 -170 -21q-164 0 -203 103q-12 34 -12 94v338h-198z" />
    <glyph glyph-name="Utilde" unicode="&#x168;" horiz-adv-x="1351" 
d="M899 1786l135 -35q-16 -37 -27.5 -59.5t-32 -54t-41 -49t-50.5 -31t-64 -13.5q-64 0 -160 51q-6 3 -29 16t-40.5 20t-34.5 7q-29 0 -48.5 -31t-25.5 -65l-137 29q79 209 219 209q63 0 137 -43q5 -3 22 -12.5t25 -13.5t21.5 -10t24.5 -8.5t22 -2.5q53 0 84 96zM676 -27
q-325 0 -455 220q-40 68 -55.5 148.5t-15.5 231.5v820h180v-818q0 -72 2 -115t14 -99t35 -93q38 -64 115.5 -99.5t179.5 -35.5t179.5 35.5t115.5 99.5q23 37 35 93t14 99t2 115v818h180v-820q0 -150 -16 -230.5t-56 -149.5q-130 -220 -454 -220z" />
    <glyph glyph-name="utilde" unicode="&#x169;" horiz-adv-x="1101" 
d="M143 420v555h170v-561q0 -135 33 -197q47 -92 189 -92q118 0 182.5 83t64.5 208v559h170v-975h-170v143q-95 -168 -311 -168q-160 0 -244 93q-48 55 -66 126.5t-18 225.5zM760 1395l135 -35q-16 -37 -27.5 -59.5t-32 -54t-41 -49t-50.5 -31t-64 -13.5q-64 0 -160 51
q-6 3 -29 16t-40.5 20t-34.5 7q-29 0 -48.5 -31t-25.5 -65l-137 29q79 209 219 209q63 0 137 -43q4 -2 27 -15t32 -17.5t26 -10t30 -5.5q52 0 84 97z" />
    <glyph glyph-name="Umacron" unicode="&#x16a;" horiz-adv-x="1351" 
d="M676 -27q-325 0 -455 220q-40 68 -55.5 148.5t-15.5 231.5v820h180v-818q0 -72 2 -115t14 -99t35 -93q38 -64 115.5 -99.5t179.5 -35.5t179.5 35.5t115.5 99.5q23 37 35 93t14 99t2 115v818h180v-820q0 -150 -16 -230.5t-56 -149.5q-130 -220 -454 -220zM397 1579v137
h555v-137h-555z" />
    <glyph glyph-name="umacron" unicode="&#x16b;" horiz-adv-x="1101" 
d="M143 420v555h170v-561q0 -135 33 -197q47 -92 189 -92q118 0 182.5 83t64.5 208v559h170v-975h-170v143q-95 -168 -311 -168q-160 0 -244 93q-48 55 -66 126.5t-18 225.5zM272 1192v137h555v-137h-555z" />
    <glyph glyph-name="Ubreve" unicode="&#x16c;" horiz-adv-x="1351" 
d="M676 -27q-325 0 -455 220q-40 68 -55.5 148.5t-15.5 231.5v820h180v-818q0 -72 2 -115t14 -99t35 -93q38 -64 115.5 -99.5t179.5 -35.5t179.5 35.5t115.5 99.5q23 37 35 93t14 99t2 115v818h180v-820q0 -150 -16 -230.5t-56 -149.5q-130 -220 -454 -220zM676 1663
q59 0 97.5 34.5t51.5 98.5h144q-19 -129 -95.5 -199.5t-197.5 -70.5q-122 0 -199 70.5t-94 199.5h141q15 -64 54 -98.5t98 -34.5z" />
    <glyph glyph-name="ubreve" unicode="&#x16d;" horiz-adv-x="1101" 
d="M143 420v555h170v-561q0 -135 33 -197q47 -92 189 -92q118 0 182.5 83t64.5 208v559h170v-975h-170v143q-95 -168 -311 -168q-160 0 -244 93q-48 55 -66 126.5t-18 225.5zM551 1260q59 0 97.5 34.5t51.5 98.5h144q-19 -129 -95.5 -200t-197.5 -71q-122 0 -199 71t-94 200
h141q15 -64 54 -98.5t98 -34.5z" />
    <glyph glyph-name="Uring" unicode="&#x16e;" horiz-adv-x="1351" 
d="M475 1651q0 84 59 142t144 58t144 -58t59 -142q0 -85 -59 -143t-144 -58t-144 58t-59 143zM596 1651q0 -33 23.5 -56.5t56.5 -23.5t56.5 23.5t23.5 56.5t-23.5 56.5t-56.5 23.5t-56.5 -23.5t-23.5 -56.5zM676 -27q-325 0 -455 220q-40 68 -55.5 148.5t-15.5 231.5v820
h180v-818q0 -72 2 -115t14 -99t35 -93q38 -64 115.5 -99.5t179.5 -35.5t179.5 35.5t115.5 99.5q23 37 35 93t14 99t2 115v818h180v-820q0 -150 -16 -230.5t-56 -149.5q-130 -220 -454 -220z" />
    <glyph glyph-name="uring" unicode="&#x16f;" horiz-adv-x="1101" 
d="M143 420v555h170v-561q0 -135 33 -197q47 -92 189 -92q118 0 182.5 83t64.5 208v559h170v-975h-170v143q-95 -168 -311 -168q-160 0 -244 93q-48 55 -66 126.5t-18 225.5zM348 1249q0 85 59 143t144 58t144 -58t59 -143q0 -84 -59 -142t-144 -58t-144 58t-59 142z
M469 1249q0 -33 23.5 -56.5t56.5 -23.5t56.5 23.5t23.5 56.5t-23.5 56.5t-56.5 23.5t-56.5 -23.5t-23.5 -56.5z" />
    <glyph glyph-name="Uhungarumlaut" unicode="&#x170;" horiz-adv-x="1351" 
d="M555 1524h-174l215 297h250zM928 1524h-174l215 297h250zM676 -27q-325 0 -455 220q-40 68 -55.5 148.5t-15.5 231.5v820h180v-818q0 -72 2 -115t14 -99t35 -93q38 -64 115.5 -99.5t179.5 -35.5t179.5 35.5t115.5 99.5q23 37 35 93t14 99t2 115v818h180v-820
q0 -150 -16 -230.5t-56 -149.5q-130 -220 -454 -220z" />
    <glyph glyph-name="uhungarumlaut" unicode="&#x171;" horiz-adv-x="1101" 
d="M143 420v555h170v-561q0 -135 33 -197q47 -92 189 -92q118 0 182.5 83t64.5 208v559h170v-975h-170v143q-95 -168 -311 -168q-160 0 -244 93q-48 55 -66 126.5t-18 225.5zM768 1133h-174l215 278h250zM395 1133h-174l215 278h250z" />
    <glyph glyph-name="Uogonek" unicode="&#x172;" horiz-adv-x="1351" 
d="M748 -305l53 -121q-61 -27 -125 -27q-93 0 -154 51t-61 150q0 124 143 229q-269 22 -383 216q-40 68 -55.5 148.5t-15.5 231.5v820h180v-818q0 -72 2 -115t14 -99t35 -93q38 -64 115.5 -99.5t179.5 -35.5t179.5 35.5t115.5 99.5q23 37 35 93t14 99t2 115v818h180v-820
q0 -150 -16 -230.5t-56 -149.5q-105 -174 -325 -209q-80 -50 -139.5 -109t-59.5 -115q0 -39 23 -58t59 -19q30 0 60 12z" />
    <glyph glyph-name="uogonek" unicode="&#x173;" horiz-adv-x="1101" 
d="M866 -305l54 -121q-62 -27 -125 -27q-93 0 -154 51t-61 150q0 149 202 252v143q-95 -168 -311 -168q-160 0 -244 93q-48 55 -66 126.5t-18 225.5v555h170v-561q0 -135 33 -197q47 -92 189 -92q118 0 182.5 83t64.5 208v559h170v-975q-34 -19 -67.5 -41.5t-72.5 -55
t-63 -70.5t-24 -73q0 -39 23 -58t59 -19q29 0 59 12z" />
    <glyph glyph-name="Wcircumflex" unicode="&#x174;" horiz-adv-x="1753" 
d="M885 1694l-123 -170h-174l219 299h158l217 -299h-170zM1544 1393l-211 -766l-78 -295q-18 85 -79 291l-226 770h-139l-213 -766q-3 -10 -80 -301q-2 6 -16 61t-31 118.5t-33 117.5l-219 770h-194l415 -1393h144l241 838q54 200 58 215q34 -137 55 -211l246 -842h145
l400 1393h-185z" />
    <glyph glyph-name="wcircumflex" unicode="&#x175;" horiz-adv-x="1476" 
d="M825 975l160 -535q42 -131 62 -209h2q36 135 63 215l170 529h176l-338 -975h-153l-170 555q-38 116 -54 182h-2q-18 -75 -53 -184l-176 -553h-160l-334 975h181l178 -535q32 -91 63 -209h2q26 101 62 211l174 533h147zM750 1266l-123 -136h-158l201 263h161l203 -263
h-153z" />
    <glyph glyph-name="Ycircumflex" unicode="&#x176;" horiz-adv-x="1173" 
d="M582 1694l-123 -170h-174l219 299h158l217 -299h-170zM664 569v-569h-181v569l-503 824h206l398 -652l407 652h203z" />
    <glyph glyph-name="ycircumflex" unicode="&#x177;" horiz-adv-x="874" 
d="M866 975l-428 -1174q-43 -120 -112.5 -163.5t-182.5 -43.5q-51 0 -123 13v137q68 -10 111 -10q84 0 123 39q31 31 53 98l43 125l-338 979h181l190 -590l53 -170h2q29 96 60 182l198 578h170zM436 1266l-123 -136h-157l200 263h162l203 -263h-154z" />
    <glyph glyph-name="Ydieresis" unicode="&#x178;" horiz-adv-x="1173" 
d="M330 1538v221h174v-221h-174zM698 1538v221h174v-221h-174zM664 569v-569h-181v569l-503 824h206l398 -652l407 652h203z" />
    <glyph glyph-name="Zacute" unicode="&#x179;" horiz-adv-x="1107" 
d="M584 1524h-174l215 297h249zM1081 162v-162h-1044v133l807 1098h-772v162h989v-142l-797 -1089h817z" />
    <glyph glyph-name="zacute" unicode="&#x17a;" horiz-adv-x="849" 
d="M813 141v-141h-768v135l549 699h-522v141h735v-131l-561 -703h567zM469 1393h217l-209 -263h-149z" />
    <glyph glyph-name="Zdotaccent" unicode="&#x17b;" horiz-adv-x="1107" 
d="M1081 162v-162h-1044v133l807 1098h-772v162h989v-142l-797 -1089h817zM481 1561v221h185v-221h-185z" />
    <glyph glyph-name="zdotaccent" unicode="&#x17c;" horiz-adv-x="849" 
d="M813 141v-141h-768v135l549 699h-522v141h735v-131l-561 -703h567zM358 1171v222h185v-222h-185z" />
    <glyph glyph-name="Zcaron" unicode="&#x17d;" horiz-adv-x="1107" 
d="M438 1823l123 -170l127 170h170l-217 -299h-158l-219 299h174zM1081 162v-162h-1044v133l807 1098h-772v162h989v-142l-797 -1089h817z" />
    <glyph glyph-name="zcaron" unicode="&#x17e;" horiz-adv-x="849" 
d="M813 141v-141h-768v135l549 699h-522v141h735v-131l-561 -703h567zM322 1393l122 -136l131 136h154l-203 -263h-161l-201 263h158z" />
    <glyph glyph-name="florin" unicode="&#x192;" horiz-adv-x="1208" 
d="M16 -383l56 147q94 -20 145 -20q65 0 87.5 34t37.5 124l162 919h-221l26 154h217l31 188q23 135 86 194.5t176 59.5q93 0 217 -39l-39 -147q-129 24 -159 24q-59 0 -80 -31t-35 -110l-25 -139h230l-25 -154h-227l-170 -962q-26 -139 -91 -206t-190 -67q-88 0 -209 31z
" />
    <glyph glyph-name="Aringacute" unicode="&#x1fa;" horiz-adv-x="1200" 
d="M475 1563q0 54 36.5 89.5t90.5 35.5t89.5 -35.5t35.5 -89.5t-35.5 -89.5t-89.5 -35.5t-90.5 35.5t-36.5 89.5zM555 1563q0 -20 13 -32.5t32 -12.5t32 12.5t13 32.5q0 19 -13 32t-32 13t-32 -13t-13 -32zM643 1718h-174l176 164h258zM334 399l-139 -399h-189l498 1391h201
l489 -1391h-195l-139 399h-526zM809 555l-158 459q-40 106 -53 164h-2q-25 -86 -53 -166l-156 -457h422z" />
    <glyph glyph-name="aringacute" unicode="&#x1fb;" horiz-adv-x="1028" 
d="M535 1503h-175l177 164h258zM291 1249q0 85 59 143t144 58t143.5 -58t58.5 -143t-58.5 -142.5t-143.5 -57.5t-144 58t-59 142zM412 1249q0 -33 23.5 -56.5t56.5 -23.5q32 0 55.5 23.5t23.5 56.5t-23.5 56.5t-55.5 23.5q-33 0 -56.5 -23.5t-23.5 -56.5zM965 104v-118
q-45 -9 -97 -9q-85 0 -121.5 33.5t-41.5 98.5h-3q-83 -136 -294 -136q-155 0 -246.5 75t-91.5 218q0 109 59 174q46 52 123.5 81t196.5 50l163 27q49 8 65.5 19t16.5 40v29q0 85 -43.5 127.5t-163.5 42.5q-231 0 -231 -205l-162 19q-1 80 30.5 143t87 102t127.5 59.5
t155 20.5q88 0 151 -14t113 -47.5t75 -95t25 -150.5v-495q0 -50 19.5 -69.5t64.5 -19.5h23zM694 313v179q-16 -6 -217 -48q-47 -10 -72.5 -16t-60.5 -19.5t-53 -29.5t-31.5 -42t-13.5 -61q0 -81 56 -125.5t147 -44.5q106 0 175.5 50.5t69.5 156.5z" />
    <glyph glyph-name="AEacute" unicode="&#x1fc;" horiz-adv-x="1898" 
d="M993 1524h-174l215 297h250zM1817 0h-973v371h-502l-215 -371h-209l830 1393h1028v-160h-752v-434h682v-162h-682v-475h793v-162zM844 532v435q0 204 4 282h-4q-13 -21 -48 -87.5t-48 -88.5l-316 -541h412z" />
    <glyph glyph-name="aeacute" unicode="&#x1fd;" horiz-adv-x="1658" 
d="M1137 -25q-234 0 -363 164q-18 -26 -42.5 -49.5t-67 -52.5t-107 -46.5t-141.5 -17.5q-156 0 -251 77.5t-95 221.5q0 73 27.5 125.5t83 86t117.5 53t151 34.5l163 27q49 8 65.5 19t16.5 40v29q0 85 -43.5 127.5t-163.5 42.5q-233 0 -233 -205l-158 19q-1 80 30 143
t86.5 102t127 59.5t154.5 20.5q244 0 319 -127v2q130 127 322 127q142 0 242.5 -68.5t148 -182.5t47.5 -263v-34h-729q2 -61 19.5 -116.5t52.5 -103.5t95 -77t138 -29q191 0 297 172l123 -92q-16 -24 -34.5 -47t-58 -58t-84 -60.5t-112.5 -44t-143 -18.5zM694 313v179
q-16 -6 -217 -48q-47 -10 -72.5 -16t-60.5 -19.5t-53 -29.5t-31.5 -42t-13.5 -61q0 -81 56 -125.5t147 -44.5q106 0 175.5 50.5t69.5 156.5zM1135 860q-114 0 -193 -75t-92 -201h547q-11 130 -79 203t-183 73zM860 1393h217l-209 -263h-149z" />
    <glyph glyph-name="Oslashacute" unicode="&#x1fe;" horiz-adv-x="1443" 
d="M748 1524h-175l215 297h250zM90 696q0 211 76.5 374.5t221 255t335.5 91.5q233 0 397 -139l164 184l119 -102l-178 -199q129 -189 129 -465q0 -212 -75.5 -374.5t-219.5 -254.5t-336 -92q-255 0 -420 156l-145 -164l-117 103l164 182q-115 185 -115 444zM1165 696
q0 191 -65 324l-680 -760q116 -125 303 -125q204 0 323 152.5t119 408.5zM279 696q0 -174 55 -299l672 754q-112 106 -283 106q-206 0 -325 -151.5t-119 -409.5z" />
    <glyph glyph-name="oslashacute" unicode="&#x1ff;" horiz-adv-x="1101" 
d="M1018 969l-109 -142q107 -135 107 -344q0 -232 -127.5 -370t-337.5 -138q-139 0 -248 64l-94 -125l-123 98l100 131q-100 137 -100 340q0 233 129 373.5t336 140.5q138 0 244 -65l98 127zM297 287l408 526q-67 45 -154 45q-133 0 -212 -100t-79 -273q0 -120 37 -198z
M803 690l-406 -528q67 -45 154 -45q131 0 211 98.5t80 269.5q0 119 -39 205zM586 1393h217l-209 -263h-150z" />
    <glyph glyph-name="Scommaaccent" unicode="&#x218;" horiz-adv-x="1193" 
d="M1077 1184l-133 -113q-131 186 -375 186q-130 0 -211.5 -57.5t-81.5 -159.5q0 -90 55.5 -135.5t190.5 -79.5l189 -47q76 -20 131 -39.5t109.5 -51.5t88.5 -71t55 -97t21 -130q0 -128 -69.5 -223t-187 -143t-267.5 -48q-189 0 -333.5 78t-221.5 207l147 105
q53 -99 162 -163.5t256 -64.5q146 0 237 62.5t91 179.5q0 96 -69 147t-216 88l-170 43q-71 19 -118.5 35t-102 45.5t-86 65.5t-53 92.5t-21.5 128.5q0 123 66.5 213.5t173.5 135t237 44.5q179 0 305.5 -67t200.5 -166zM504 -143h194v-90q0 -170 -18 -236q-38 -132 -176 -143
v94q47 6 67 41q10 19 13.5 26.5t6.5 27t3 52.5h-90v228z" />
    <glyph glyph-name="scommaaccent" unicode="&#x219;" horiz-adv-x="940" 
d="M827 844l-110 -111q-110 123 -271 123q-85 0 -138.5 -35t-53.5 -98q0 -64 49 -93t170 -55l113 -22q132 -28 206 -89t74 -179q0 -145 -113.5 -227.5t-293.5 -82.5q-131 0 -242.5 55.5t-175.5 137.5l111 115q59 -76 140 -121t177 -45q102 0 162.5 40.5t60.5 112.5
q0 63 -41.5 89t-128.5 42l-133 27q-68 13 -119.5 32.5t-96 50.5t-68 79t-23.5 110q0 75 32.5 134t87 93.5t119 52t134.5 17.5q125 0 221.5 -45t150.5 -108zM389 -143h195v-90q0 -166 -19 -236q-38 -132 -176 -143v94q48 6 68 41q10 18 13.5 26.5t6 27.5t2.5 52h-90v228z" />
    <glyph glyph-name="uni021A" unicode="&#x21a;" horiz-adv-x="1069" 
d="M16 1231v162h1037v-162h-428v-1231h-181v1231h-428zM438 -143h195v-90q0 -166 -19 -236q-38 -132 -176 -143v94q48 6 68 41q10 18 13.5 26.5t6 27.5t2.5 52h-90v228z" />
    <glyph glyph-name="uni021B" unicode="&#x21b;" horiz-adv-x="593" 
d="M-10 846v129h188v352l170 37v-389h215v-129h-215v-604q0 -69 14 -92q17 -33 89 -33q46 0 112 12v-133q-86 -21 -170 -21q-164 0 -203 103q-12 34 -12 94v674h-188zM211 -143h195v-90q0 -166 -19 -236q-38 -132 -176 -143v94q48 6 68 41q10 18 13.5 26.5t6 27.5t2.5 52
h-90v228z" />
    <glyph glyph-name="circumflex" unicode="&#x2c6;" horiz-adv-x="1038" 
d="M516 1266l-123 -136h-157l200 263h162l203 -263h-154z" />
    <glyph glyph-name="caron" unicode="&#x2c7;" horiz-adv-x="1038" 
d="M393 1393l123 -136l131 136h154l-203 -263h-162l-200 263h157z" />
    <glyph glyph-name="breve" unicode="&#x2d8;" horiz-adv-x="995" 
d="M498 1260q59 0 97.5 34.5t51.5 98.5h144q-19 -129 -95.5 -200t-197.5 -71q-122 0 -199 71t-94 200h141q15 -64 54 -98.5t98 -34.5z" />
    <glyph glyph-name="dotaccent" unicode="&#x2d9;" horiz-adv-x="471" 
d="M143 1171v222h185v-222h-185z" />
    <glyph glyph-name="ring" unicode="&#x2da;" horiz-adv-x="815" 
d="M205 1249q0 85 59 143t144 58t143.5 -58t58.5 -143t-58.5 -142.5t-143.5 -57.5t-144 58t-59 142zM326 1249q0 -33 23.5 -56.5t56.5 -23.5q32 0 55.5 23.5t23.5 56.5t-23.5 56.5t-55.5 23.5q-33 0 -56.5 -23.5t-23.5 -56.5z" />
    <glyph glyph-name="ogonek" unicode="&#x2db;" horiz-adv-x="804" 
d="M492 -305l53 -121q-62 -27 -125 -27q-93 0 -154 51t-61 150q0 46 18.5 88t52.5 75.5t63 56t67 46.5h194q-250 -146 -250 -254q0 -39 23 -58t59 -19q30 0 60 12z" />
    <glyph glyph-name="tilde" unicode="&#x2dc;" horiz-adv-x="1099" 
d="M760 1395l135 -35q-16 -37 -27.5 -59.5t-32 -54t-41 -49t-50.5 -31t-64 -13.5q-64 0 -160 51q-6 3 -29 16t-40.5 20t-34.5 7q-29 0 -48.5 -31t-25.5 -65l-137 29q79 209 219 209q63 0 137 -43q4 -2 27 -15t32 -17.5t26 -10t30 -5.5q52 0 84 97z" />
    <glyph glyph-name="hungarumlaut" unicode="&#x2dd;" horiz-adv-x="1247" 
d="M731 1114h-174l215 279h250zM358 1114h-174l215 279h250z" />
    <glyph glyph-name="Delta" unicode="&#x394;" 
d="M174 0l541 1393h149l541 -1393h-1231zM788 1163l-389 -1018h783z" />
    <glyph glyph-name="Omega" unicode="&#x3a9;" horiz-adv-x="1531" 
d="M764 1413q155 0 280.5 -50t206.5 -137.5t124.5 -204t43.5 -251.5q0 -203 -74.5 -350.5t-222.5 -261.5h310v-158h-537v154q348 202 348 604q0 224 -129 364t-354 140q-224 0 -349.5 -139.5t-125.5 -364.5q0 -402 348 -604v-154h-537v158h310q-148 114 -222.5 261.5
t-74.5 350.5q0 135 43.5 251.5t124.5 204t206.5 137.5t280.5 50z" />
    <glyph glyph-name="mu" unicode="&#x3bc;" horiz-adv-x="1114" 
d="M500 -25q-55 0 -105 19t-67 39v-422h-176v1364h172v-561q0 -137 32 -197q47 -92 189 -92q118 0 183 83t65 208v559h170v-975h-170v143q-43 -76 -117 -122t-176 -46z" />
    <glyph glyph-name="pi" unicode="&#x3c0;" horiz-adv-x="1216" 
d="M780 840h-411v-840h-170v840h-189v135h1155v-135h-215v-592q0 -67 15 -92q17 -33 79 -33q68 0 121 22v-145q-77 -25 -170 -25q-163 0 -202 103q-13 37 -13 94v668z" />
    <glyph glyph-name="Wgrave" unicode="&#x1e80;" horiz-adv-x="1753" 
d="M977 1524h-174l-291 297h250zM1544 1393l-211 -766l-78 -295q-18 85 -79 291l-226 770h-139l-213 -766q-3 -10 -80 -301q-2 6 -16 61t-31 118.5t-33 117.5l-219 770h-194l415 -1393h144l241 838q54 200 58 215q34 -137 55 -211l246 -842h145l400 1393h-185z" />
    <glyph glyph-name="wgrave" unicode="&#x1e81;" horiz-adv-x="1476" 
d="M481 1393h217l142 -263h-150zM825 975l160 -535q42 -131 62 -209h2q36 135 63 215l170 529h176l-338 -975h-153l-170 555q-38 116 -54 182h-2q-18 -75 -53 -184l-176 -553h-160l-334 975h181l178 -535q32 -91 63 -209h2q26 101 62 211l174 533h147z" />
    <glyph glyph-name="Wacute" unicode="&#x1e82;" horiz-adv-x="1753" 
d="M961 1524h-175l215 297h250zM1333 627l211 766h185l-400 -1393h-145l-246 842q-21 74 -55 211q-4 -15 -58 -215l-241 -838h-144l-415 1393h194l219 -770q16 -54 33 -117.5t31 -118.5t16 -61q77 291 80 301l213 766h139l226 -770q61 -206 79 -291q51 199 78 295z" />
    <glyph glyph-name="wacute" unicode="&#x1e83;" horiz-adv-x="1476" 
d="M825 975l160 -535q42 -131 62 -209h2q36 135 63 215l170 529h176l-338 -975h-153l-170 555q-38 116 -54 182h-2q-18 -75 -53 -184l-176 -553h-160l-334 975h181l178 -535q32 -91 63 -209h2q26 101 62 211l174 533h147zM811 1393h217l-209 -263h-149z" />
    <glyph glyph-name="Wdieresis" unicode="&#x1e84;" horiz-adv-x="1753" 
d="M1333 627l211 766h185l-400 -1393h-145l-246 842q-21 74 -55 211q-4 -15 -58 -215l-241 -838h-144l-415 1393h194l219 -770q16 -54 33 -117.5t31 -118.5t16 -61q77 291 80 301l213 766h139l226 -770q61 -206 79 -291q51 199 78 295zM604 1538v221h174v-221h-174z
M973 1538v221h174v-221h-174z" />
    <glyph glyph-name="wdieresis" unicode="&#x1e85;" horiz-adv-x="1476" 
d="M825 975l160 -535q42 -131 62 -209h2q36 135 63 215l170 529h176l-338 -975h-153l-170 555q-38 116 -54 182h-2q-18 -75 -53 -184l-176 -553h-160l-334 975h181l178 -535q32 -91 63 -209h2q26 101 62 211l174 533h147zM467 1151v221h174v-221h-174zM836 1151v221h174
v-221h-174z" />
    <glyph glyph-name="Ygrave" unicode="&#x1ef2;" horiz-adv-x="1173" 
d="M702 1524h-174l-290 297h249zM664 569v-569h-181v569l-503 824h206l398 -652l407 652h203z" />
    <glyph glyph-name="ygrave" unicode="&#x1ef3;" horiz-adv-x="874" 
d="M866 975l-428 -1174q-43 -120 -112.5 -163.5t-182.5 -43.5q-51 0 -123 13v137q68 -10 111 -10q84 0 123 39q31 31 53 98l43 125l-338 979h181l190 -590l53 -170h2q29 96 60 182l198 578h170zM213 1393h217l141 -263h-149z" />
    <glyph glyph-name="endash" unicode="&#x2013;" horiz-adv-x="1284" 
d="M1161 479h-1038v156h1038v-156z" />
    <glyph glyph-name="emdash" unicode="&#x2014;" horiz-adv-x="1554" 
d="M1493 479h-1432v156h1432v-156z" />
    <glyph glyph-name="quoteleft" unicode="&#x2018;" horiz-adv-x="348" 
d="M272 885h-194v153q0 170 18 236q38 132 176 143v-94q-47 -6 -67 -41q-23 -42 -23 -133v-29h90v-235z" />
    <glyph glyph-name="quoteright" unicode="&#x2019;" horiz-adv-x="348" 
d="M78 1393h194v-154q0 -169 -18 -235q-38 -133 -176 -144v94q47 6 67 41q23 42 23 133v29h-90v236z" />
    <glyph glyph-name="quotesinglbase" unicode="&#x201a;" horiz-adv-x="632" 
d="M78 236h194v-154q0 -170 -18 -236q-38 -132 -176 -143v94q47 6 67 41q23 42 23 133v29h-90v236zM371 236h194v-154q0 -170 -18 -236q-38 -132 -176 -143v94q47 6 67 41q23 42 23 133v29h-90v236z" />
    <glyph glyph-name="quotedblleft" unicode="&#x201c;" horiz-adv-x="641" 
d="M565 885h-194v153q0 170 18 236q38 132 176 143v-94q-47 -6 -67 -41q-23 -42 -23 -133v-29h90v-235zM272 885h-194v153q0 170 18 236q38 132 176 143v-94q-47 -6 -67 -41q-23 -42 -23 -133v-29h90v-235z" />
    <glyph glyph-name="quotedblright" unicode="&#x201d;" horiz-adv-x="641" 
d="M78 1393h194v-154q0 -169 -18 -235q-38 -133 -176 -144v94q47 6 67 41q23 42 23 133v29h-90v236zM371 1393h194v-154q0 -169 -18 -235q-38 -133 -176 -144v94q47 6 67 41q23 42 23 133v29h-90v236z" />
    <glyph glyph-name="quotedblbase" unicode="&#x201e;" horiz-adv-x="339" 
d="M78 236h194v-154q0 -170 -18 -236q-38 -132 -176 -143v94q47 6 67 41q23 42 23 133v29h-90v236z" />
    <glyph glyph-name="dagger" unicode="&#x2020;" horiz-adv-x="1028" 
d="M926 887h-330v-887h-166v887h-328v153h328v353h166v-353h330v-153z" />
    <glyph glyph-name="daggerdbl" unicode="&#x2021;" horiz-adv-x="1028" 
d="M430 506v381h-328v153h328v353h166v-353h330v-153h-330v-381h330v-154h-330v-352h-166v352h-328v154h328z" />
    <glyph glyph-name="bullet" unicode="&#x2022;" horiz-adv-x="737" 
d="M82 702q0 120 83.5 203.5t203.5 83.5t203 -83.5t83 -203.5t-83 -203t-203 -83t-203.5 83t-83.5 203z" />
    <glyph glyph-name="ellipsis" unicode="&#x2026;" horiz-adv-x="2023" 
d="M227 233h195v-233h-195v233zM913 233h195v-233h-195v233zM1599 233h195v-233h-195v233z" />
    <glyph glyph-name="perthousand" unicode="&#x2030;" horiz-adv-x="2654" 
d="M729 948q0 -115 -33.5 -210t-109 -157.5t-183.5 -62.5q-84 0 -148 36.5t-100.5 98.5t-54.5 136.5t-18 158.5q0 88 16.5 165.5t52 146t101.5 109t156 40.5q75 0 133 -28.5t92.5 -73.5t57 -107.5t30.5 -123.5t8 -128zM580 946q0 155 -43.5 246.5t-130.5 91.5
q-85 0 -127.5 -90t-42.5 -231q0 -87 15.5 -156t55 -115.5t99.5 -46.5q47 0 82 24t54.5 67t28.5 95t9 115zM1366 1393l-723 -1393h-154l725 1393h152zM1782 410q0 -115 -33.5 -210t-109 -157.5t-183.5 -62.5q-84 0 -148 36.5t-100.5 98.5t-54.5 136.5t-18 158.5q0 69 9.5 132
t33 124t59.5 105.5t93.5 71.5t129.5 27q75 0 133 -28.5t93 -73.5t57.5 -107.5t30.5 -123t8 -127.5zM1632 408q0 155 -43.5 246t-130.5 91q-85 0 -127.5 -90t-42.5 -231q0 -87 15.5 -156t55 -115.5t99.5 -46.5q47 0 82 24t54.5 67.5t28.5 95.5t9 115zM2572 410
q0 -85 -19.5 -160.5t-58 -137t-102.5 -97t-145 -35.5q-84 0 -148 36.5t-101 98.5t-55 136.5t-18 158.5q0 69 9.5 132t33.5 124t60 105.5t93.5 71.5t129.5 27q75 0 133 -28.5t92.5 -73.5t57 -107.5t30.5 -123t8 -127.5zM2423 408q0 155 -43.5 246t-130.5 91q-85 0 -127.5 -90
t-42.5 -231q0 -87 15.5 -156t55 -115.5t99.5 -46.5q47 0 82 24t54.5 67.5t28.5 95.5t9 115z" />
    <glyph glyph-name="guilsinglleft" unicode="&#x2039;" horiz-adv-x="544" 
d="M412 270l-310 248v213l310 258v-196l-193 -158l193 -174v-191z" />
    <glyph glyph-name="guilsinglright" unicode="&#x203a;" horiz-adv-x="544" 
d="M442 518l-309 -248v191l193 174l-193 158v196l309 -258v-213z" />
    <glyph glyph-name="fraction" unicode="&#x2044;" horiz-adv-x="999" 
d="M918 1393h184l-1018 -1393h-186z" />
    <glyph glyph-name="Euro" unicode="&#x20ac;" horiz-adv-x="1208" 
d="M971 377l143 -70q-104 -332 -436 -332q-112 0 -201 39.5t-146 108.5t-91.5 151t-49.5 179h-157l51 145h90q-2 14 -2 94q0 54 2 66h-141l51 145h104q36 236 159 375t331 139q322 0 434 -332l-141 -84q-77 269 -293 269q-130 0 -208.5 -99.5t-102.5 -267.5h501l-49 -145
h-467q-2 -16 -2 -76q0 -72 2 -84h430l-49 -145h-364q53 -328 309 -328q221 0 293 252z" />
    <glyph glyph-name="trademark" unicode="&#x2122;" horiz-adv-x="1761" 
d="M20 1251v142h695v-142h-273v-772h-149v772h-273zM1489 477h145v916h-194l-137 -441q-17 -50 -78 -274h-4q-37 144 -80 274l-150 441h-190v-916h145v457q0 54 -3 114t-6 93l-3 33h4q23 -122 63 -234l160 -463h121l150 465q27 89 63 248h4q-10 -98 -10 -258v-455z" />
    <glyph glyph-name="uni2126" unicode="&#x2126;" horiz-adv-x="1531" 
d="M764 1413q155 0 280.5 -50t206.5 -137.5t124.5 -204t43.5 -251.5q0 -203 -74.5 -350.5t-222.5 -261.5h310v-158h-537v154q348 202 348 604q0 224 -129 364t-354 140q-224 0 -349.5 -139.5t-125.5 -364.5q0 -402 348 -604v-154h-537v158h310q-148 114 -222.5 261.5
t-74.5 350.5q0 135 43.5 251.5t124.5 204t206.5 137.5t280.5 50z" />
    <glyph glyph-name="arrowleft" unicode="&#x2190;" horiz-adv-x="1662" 
d="M1581 557v-141h-1202l426 -416h-217l-486 487l486 488h217l-428 -418h1204z" />
    <glyph glyph-name="arrowup" unicode="&#x2191;" horiz-adv-x="1220" 
d="M123 805v188l487 486l488 -486v-188l-402 399v-1204h-170v1206z" />
    <glyph glyph-name="arrowright" unicode="&#x2192;" horiz-adv-x="1662" 
d="M879 975h217l485 -488l-485 -487h-217l424 416h-1201v141h1203z" />
    <glyph glyph-name="arrowdown" unicode="&#x2193;" horiz-adv-x="1220" 
d="M123 465v188l403 -401v1206h170v-1204l402 399v-188l-488 -485z" />
    <glyph glyph-name="uni2196" unicode="&#x2196;" horiz-adv-x="1296" 
d="M1255 94l-114 -114l-838 841v-577l-143 133v688h688l133 -133h-567z" />
    <glyph glyph-name="uni2197" unicode="&#x2197;" horiz-adv-x="1296" 
d="M315 932l134 133h688v-688l-144 -133v577l-837 -841l-115 114l842 838h-568z" />
    <glyph glyph-name="uni2198" unicode="&#x2198;" horiz-adv-x="1296" 
d="M449 61l-134 134h568l-842 837l115 115l837 -842v578l144 -133v-689h-688z" />
    <glyph glyph-name="uni2199" unicode="&#x2199;" horiz-adv-x="1296" 
d="M1141 1147l114 -115l-841 -837h567l-133 -134h-688v689l143 133v-578z" />
    <glyph glyph-name="uni21A4" unicode="&#x21a4;" horiz-adv-x="1712" 
d="M1561 0h-170v416h-1033l426 -416h-217l-485 487l485 488h217l-428 -418h1035v418h170v-975z" />
    <glyph glyph-name="uni21A5" unicode="&#x21a5;" horiz-adv-x="1220" 
d="M123 805v188l487 486l488 -486v-188l-402 399v-1063h402v-141h-975v141h403v1065z" />
    <glyph glyph-name="uni21A6" unicode="&#x21a6;" horiz-adv-x="1712" 
d="M928 975h217l485 -488l-485 -487h-217l424 416h-1030v-416h-170v975h170v-418h1032z" />
    <glyph glyph-name="uni21A7" unicode="&#x21a7;" horiz-adv-x="1220" 
d="M123 465v188l403 -401v1065h-403v141h975v-141h-402v-1063l402 399v-188l-488 -485z" />
    <glyph glyph-name="uni21B0" unicode="&#x21b0;" horiz-adv-x="1712" 
d="M1561 559v-559h-170v418h-1035l428 -418h-217l-485 487l485 488h217l-426 -416h1203z" />
    <glyph glyph-name="uni21B1" unicode="&#x21b1;" horiz-adv-x="1712" 
d="M1145 0h-217l426 418h-1032v-418h-170v559h1200l-424 416h217l485 -488z" />
    <glyph glyph-name="uni21B2" unicode="&#x21b2;" horiz-adv-x="1712" 
d="M1561 975v-559h-1203l426 -416h-217l-485 487l485 488h217l-428 -418h1035v418h170z" />
    <glyph glyph-name="uni21B3" unicode="&#x21b3;" horiz-adv-x="1712" 
d="M928 975h217l485 -488l-485 -487h-217l424 416h-1200v559h170v-418h1032z" />
    <glyph glyph-name="uni21B4" unicode="&#x21b4;" horiz-adv-x="1220" 
d="M123 1458h573v-1204l402 399v-188l-488 -485l-487 485v188l403 -401v1065h-403v141z" />
    <glyph glyph-name="carriagereturn" unicode="&#x21b5;" horiz-adv-x="1712" 
d="M1561 975v-559h-1203l426 -416h-217l-485 487l485 488h217l-428 -418h1035v418h170z" />
    <glyph glyph-name="partialdiff" unicode="&#x2202;" horiz-adv-x="1116" 
d="M532 127q95 0 164.5 62.5t105 163t42.5 231.5q-37 75 -121 134.5t-188 59.5q-120 0 -202.5 -82.5t-82.5 -234.5q0 -151 80.5 -242.5t201.5 -91.5zM383 1227l-57 149q93 37 192 37q252 0 380 -189t128 -538q0 -360 -130.5 -535.5t-363.5 -175.5q-122 0 -213.5 42
t-143 113.5t-76.5 156t-25 180.5q0 113 35 202.5t96.5 146.5t141 86.5t171.5 29.5q97 0 182 -37.5t144 -97.5q-14 228 -90.5 341t-231.5 113q-72 0 -139 -24z" />
    <glyph glyph-name="uni2206" unicode="&#x2206;" 
d="M174 0l541 1393h149l541 -1393h-1231zM788 1163l-389 -1018h783z" />
    <glyph glyph-name="product" unicode="&#x220f;" horiz-adv-x="1601" 
d="M1214 1225h-827v-1612h-180v1612h-207v168h1602v-168h-207v-1612h-181v1612z" />
    <glyph glyph-name="summation" unicode="&#x2211;" horiz-adv-x="1292" 
d="M72 -260l520 754l-518 761v138h1124v-166h-897l492 -727l-502 -723h905v-166h-1124v129z" />
    <glyph glyph-name="minus" unicode="&#x2212;" 
d="M1481 504h-1379v155h1379v-155z" />
    <glyph glyph-name="uni2219" unicode="&#x2219;" horiz-adv-x="350" 
d="M78 772h194v-233h-194v233z" />
    <glyph glyph-name="radical" unicode="&#x221a;" 
d="M1094 1393h151l-371 -1399h-169l-291 870h-193v125h326l170 -528l74 -238h2q36 152 59 240z" />
    <glyph glyph-name="infinity" unicode="&#x221e;" horiz-adv-x="1886" 
d="M1784 715q0 -69 -21.5 -130t-63.5 -109.5t-109.5 -76.5t-153.5 -28q-57 0 -116.5 16.5t-105.5 38.5t-103 61t-90.5 65.5t-86.5 70.5q-14 -11 -73 -55.5t-82.5 -61t-77 -50.5t-89 -48.5t-84.5 -27.5t-94 -13q-87 0 -153 28t-104 76t-56.5 106t-18.5 125q0 155 89.5 248.5
t252.5 93.5q49 0 100 -13.5t90.5 -30.5t100.5 -56t96.5 -64.5t112.5 -82.5q18 13 73.5 54.5t80.5 59.5t76.5 49t88 45.5t86.5 26.5t99 12q163 0 249.5 -94.5t86.5 -234.5zM1622 707q0 91 -51 140.5t-137 49.5q-41 0 -88.5 -16t-102.5 -49.5t-88.5 -56.5t-91.5 -66
q76 -55 123.5 -87.5t126 -69t133.5 -36.5q83 0 129.5 54t46.5 137zM446 516q44 0 92 16.5t102.5 50t87.5 57t87 65.5q-255 192 -373 192q-83 0 -131.5 -53t-48.5 -135q0 -91 49 -142t135 -51z" />
    <glyph glyph-name="uni2224" unicode="&#x2224;" horiz-adv-x="350" 
d="M78 772h194v-233h-194v233z" />
    <glyph glyph-name="logicaland" unicode="&#x2227;" horiz-adv-x="350" 
d="M78 772h194v-233h-194v233z" />
    <glyph glyph-name="integral" unicode="&#x222b;" horiz-adv-x="925" 
d="M-96 -383l55 147q94 -20 145 -20q65 0 87.5 34t37.5 124l217 1261q23 135 86.5 194.5t176.5 59.5q93 0 217 -39l-39 -147q-129 24 -160 24q-59 0 -80 -31t-35 -110l-219 -1255q-24 -139 -89 -206t-191 -67q-88 0 -209 31z" />
    <glyph glyph-name="approxequal" unicode="&#x2248;" 
d="M1198 932l82 -137q-65 -81 -132.5 -127.5t-150.5 -46.5q-54 0 -106 18t-131 61q-106 58 -176 58q-47 0 -83.5 -30.5t-99.5 -113.5l-86 131q120 185 271 185q41 0 87.5 -12.5t76 -25.5t84.5 -40q3 -2 20 -10t21.5 -10t19 -9t20 -9t18 -7.5t19.5 -7t17 -4t18.5 -3.5
t16.5 -1q28 0 56 12.5t54.5 37t43 43t40.5 48.5zM1198 510l82 -137q-65 -81 -132.5 -127.5t-150.5 -46.5q-54 0 -105.5 18.5t-131.5 61.5q-104 57 -176 57q-47 0 -83.5 -30.5t-99.5 -112.5l-86 131q119 184 271 184q41 0 87.5 -12.5t76 -25.5t84.5 -40q3 -2 20 -10t21.5 -10
t19 -9t20 -9t18 -7.5t19.5 -7t17 -4t18.5 -3.5t16.5 -1q28 0 56 12.5t54.5 37t43 43t40.5 48.5z" />
    <glyph glyph-name="notequal" unicode="&#x2260;" 
d="M1481 852v-160h-592l-105 -198h697v-158h-781l-176 -336h-170l176 336h-428v158h512l105 198h-617v160h701l194 367h168l-192 -367h508z" />
    <glyph glyph-name="lessequal" unicode="&#x2264;" 
d="M1442 0h-1311v156h1311v-156zM1442 385v-184l-1311 526v164l1311 526v-178l-1094 -428z" />
    <glyph glyph-name="greaterequal" unicode="&#x2265;" 
d="M1450 0h-1311v156h1311v-156zM139 201v184l1094 426l-1094 428v178l1311 -526v-164z" />
    <glyph glyph-name="dotmath" unicode="&#x22c5;" horiz-adv-x="350" 
d="M78 772h194v-233h-194v233z" />
    <glyph glyph-name="lozenge" unicode="&#x25ca;" 
d="M727 1399h121l414 -705l-414 -696h-121l-416 696zM786 205l285 489l-285 496l-284 -496z" />
    <glyph glyph-name="uni2B0F" unicode="&#x2b0f;" horiz-adv-x="1220" 
d="M123 805v188l487 486l488 -486v-188l-402 399v-1204h-573v141h403v1065z" />
    <glyph glyph-name="uni2B10" unicode="&#x2b10;" horiz-adv-x="1220" 
d="M524 1458h574v-141h-404v-1065l404 401v-188l-488 -485l-487 485v188l401 -399v1204z" />
    <glyph glyph-name="uni2B11" unicode="&#x2b11;" horiz-adv-x="1220" 
d="M1098 993v-188l-404 401v-1065h404v-141h-574v1204l-401 -399v188l487 486z" />
    <glyph glyph-name="apple" unicode="&#xf8ff;" horiz-adv-x="1024" 
d="M922 111h-820v809h820v-809zM795 807h-566v-584h566v584z" />
    <glyph glyph-name="arrowleft.salt" horiz-adv-x="1908" 
d="M1806 776v-162h-1446l625 -614h-227l-697 696l697 697h227l-627 -617h1448z" />
    <glyph glyph-name="arrowup.salt" horiz-adv-x="1638" 
d="M123 653v219l696 697l697 -697v-219l-607 617v-1446h-180v1446z" />
    <glyph glyph-name="arrowright.salt" horiz-adv-x="1908" 
d="M924 1393h227l696 -697l-696 -696h-227l622 614h-1444v162h1446z" />
    <glyph glyph-name="arrowdown.salt" horiz-adv-x="1638" 
d="M123 500v219l606 -617v1446h180v-1446l607 617v-219l-697 -697z" />
    <glyph glyph-name="uni2196.salt" horiz-adv-x="1505" 
d="M1454 152l-119 -121l-1036 1032l8 -870l-164 155v985h985l154 -155l-862 8z" />
    <glyph glyph-name="uni2197.salt" horiz-adv-x="1505" 
d="M223 1178l154 155h985v-985l-164 -155l6 870l-1034 -1032l-119 121l1032 1034z" />
    <glyph glyph-name="uni2198.salt" horiz-adv-x="1505" 
d="M377 61l-154 156l860 -8l-1032 1034l119 121l1034 -1032l-6 870l164 -155v-986h-985z" />
    <glyph glyph-name="uni2199.salt" horiz-adv-x="1505" 
d="M1335 1364l119 -121l-1034 -1034l862 8l-154 -156h-985v986l164 155l-8 -870z" />
    <glyph glyph-name="uni21A4.salt" horiz-adv-x="1966" 
d="M1806 0h-180v614h-1266l625 -614h-227l-697 696l697 697h227l-627 -617h1268v617h180v-1393z" />
    <glyph glyph-name="uni21A5.salt" horiz-adv-x="1638" 
d="M123 653v219l696 697l697 -697v-219l-607 617v-1284h607v-162h-1393v162h606v1284z" />
    <glyph glyph-name="uni21A6.salt" horiz-adv-x="1966" 
d="M981 1393h227l697 -697l-697 -696h-227l623 614h-1264v-614h-180v1393h180v-617h1266z" />
    <glyph glyph-name="uni21A7.salt" horiz-adv-x="1638" 
d="M123 500v219l606 -617v1284h-606v162h1393v-162h-607v-1284l607 617v-219l-697 -697z" />
    <glyph glyph-name="uni21B0.salt" horiz-adv-x="1966" 
d="M1806 778v-778h-180v616h-1268l627 -616h-227l-697 696l697 697h227l-625 -615h1446z" />
    <glyph glyph-name="uni21B1.salt" horiz-adv-x="1966" 
d="M1208 0h-227l625 616h-1266v-616h-180v778h1444l-623 615h227l697 -697z" />
    <glyph glyph-name="uni21B2.salt" horiz-adv-x="1966" 
d="M1806 1393v-779h-1446l625 -614h-227l-697 696l697 697h227l-627 -617h1268v617h180z" />
    <glyph glyph-name="uni21B3.salt" horiz-adv-x="1966" 
d="M981 1393h227l697 -697l-697 -696h-227l623 614h-1444v779h180v-617h1266z" />
    <glyph glyph-name="uni21B4.salt" horiz-adv-x="1638" 
d="M123 1548h786v-1446l607 617v-219l-697 -697l-696 697v219l606 -617v1284h-606v162z" />
    <glyph glyph-name="carriagereturn.salt" horiz-adv-x="1966" 
d="M1806 1393v-779h-1446l625 -614h-227l-697 696l697 697h227l-627 -617h1268v617h180z" />
    <glyph glyph-name="uni2B0F.salt" horiz-adv-x="1638" 
d="M123 653v219l696 697l697 -697v-219l-607 617v-1446h-786v162h606v1284z" />
    <glyph glyph-name="uni2B11.salt" horiz-adv-x="1638" 
d="M1516 872v-219l-607 617v-1284h607v-162h-787v1446l-606 -617v219l696 697z" />
    <glyph glyph-name="uni2B10.salt" horiz-adv-x="1638" 
d="M729 1548h787v-162h-607v-1284l607 617v-219l-697 -697l-696 697v219l606 -617v1446z" />
    <glyph glyph-name="caron.alt" horiz-adv-x="348" 
d="M211 1130h-125l59 263h193z" />
    <glyph glyph-name="commaaccent" horiz-adv-x="348" 
d="M76 -143h194v-90q0 -170 -18 -236q-38 -132 -176 -143v94q47 6 67 41q10 19 13.5 26.5t6.5 27t3 52.5h-90v228z" />
    <glyph glyph-name="commaturn" horiz-adv-x="348" 
d="M272 1165h-194v90q0 170 18 236q38 132 176 143v-94q-47 -6 -67 -41q-10 -19 -13.5 -26.5t-6.5 -27t-3 -52.5h90v-228z" />
    <glyph glyph-name="zero.tlfslash" horiz-adv-x="1208" 
d="M604 -25q-116 0 -208 39.5t-151.5 106.5t-98.5 160.5t-55.5 194.5t-16.5 216q0 151 31.5 279.5t94.5 229.5t166.5 158.5t237.5 57.5q108 0 196.5 -37.5t150 -103.5t103.5 -158t61.5 -198.5t19.5 -227.5q0 -114 -16.5 -215t-56.5 -194.5t-99.5 -160.5t-151.5 -107
t-207 -40zM604 1268q-88 0 -155 -43.5t-107.5 -122t-61 -181t-20.5 -225.5q0 -236 62 -377l487 863q-83 86 -205 86zM604 127q344 0 344 569q0 184 -43 314l-475 -832q70 -51 174 -51z" />
    <glyph glyph-name="zero.plfslash" horiz-adv-x="1265" 
d="M633 -25q-116 0 -208 39.5t-151.5 106.5t-99 160.5t-56 194.5t-16.5 216q0 120 19.5 226.5t61.5 198.5t103.5 158t150 104t196.5 38q134 0 237.5 -57t166.5 -158t94.5 -229.5t31.5 -280.5q0 -114 -16.5 -215t-56 -194.5t-99 -160.5t-151.5 -107t-207 -40zM633 1268
q-88 0 -155 -43.5t-107.5 -122t-61 -181t-20.5 -225.5q0 -239 61 -377l488 863q-83 86 -205 86zM633 127q344 0 344 569q0 184 -43 314l-475 -832q70 -51 174 -51z" />
    <glyph glyph-name="zero.plf" horiz-adv-x="1265" 
d="M633 1268q-116 0 -195 -76.5t-114 -202t-35 -291.5q0 -96 10 -176.5t34.5 -155t62.5 -126t98.5 -82.5t138.5 -31q344 0 344 571q0 166 -35 291.5t-114 202t-195 76.5zM633 -25q-116 0 -208 40t-151.5 107t-99 160.5t-56 195t-16.5 216.5q0 120 19.5 226.5t61.5 198
t103.5 157.5t150 103.5t196.5 37.5q134 0 237.5 -57t166.5 -157t94.5 -228.5t31.5 -280.5q0 -114 -16.5 -215.5t-56 -195t-99 -161t-151.5 -107.5t-207 -40z" />
    <glyph glyph-name="one.plf" horiz-adv-x="755" 
d="M561 1393v-1393h-174v958h-367v138h46q157 0 237 59q101 73 107 238h151z" />
    <glyph glyph-name="two.plf" horiz-adv-x="1099" 
d="M317 788l-194 17q-10 23 -20.5 77t-10.5 107q0 86 31.5 163.5t89.5 136.5t146 93.5t194 34.5q117 0 206.5 -35.5t142.5 -98.5t79.5 -143t26.5 -175q0 -91 -28.5 -178t-73.5 -158t-111 -140.5t-130.5 -122t-142.5 -106.5q-60 -40 -168 -106h664v-154h-916v145
q88 55 221 156.5t252 204.5q57 50 97.5 94t78 100t57 120.5t19.5 135.5q0 145 -78.5 226.5t-205.5 81.5q-131 0 -201 -76.5t-70 -196.5q0 -107 45 -203z" />
    <glyph glyph-name="three.plf" horiz-adv-x="1089" 
d="M240 1004l-156 49q3 43 19.5 90t53 96.5t87 88.5t127.5 64t168 25q214 0 327 -100t113 -262q0 -116 -57 -196t-148 -118q104 -38 174 -126t70 -220q0 -187 -134 -303.5t-362 -116.5q-214 0 -337 112t-134 304l166 53q9 -159 93 -238t214 -79q144 0 227 74t83 200
q0 167 -148 226q-81 32 -225 32h-127v144h115q145 0 231 39q117 52 117 198q0 103 -70 165.5t-197 62.5q-131 0 -203 -74.5t-87 -189.5z" />
    <glyph glyph-name="four.plf" horiz-adv-x="1112" 
d="M848 344v-344h-174v344h-633v131l647 918h160v-893h233v-156h-233zM236 500h438v444q0 93 8 203q-92 -153 -129 -205z" />
    <glyph glyph-name="five.plf" horiz-adv-x="1124" 
d="M72 315l172 64q29 -122 109.5 -187t195.5 -65q131 0 221 91t90 263q0 152 -87.5 235t-209.5 83q-112 0 -191.5 -61.5t-111.5 -178.5l-151 49l71 785h787l-11 -160h-622l-41 -387q123 106 295 106q202 0 328 -127.5t126 -347.5q0 -221 -134 -361.5t-363 -140.5
q-183 0 -306.5 89.5t-166.5 250.5z" />
    <glyph glyph-name="six.plf" horiz-adv-x="1150" 
d="M1047 1063l-162 -41q-7 29 -16.5 55.5t-30.5 63.5t-48.5 63t-73 45t-100.5 19q-153 0 -236.5 -127.5t-92.5 -362.5q53 66 143.5 108t204.5 42q201 0 322.5 -128t121.5 -323q0 -100 -31 -190t-89 -160t-148.5 -111t-202.5 -41q-243 0 -374.5 175.5t-131.5 535.5
q0 345 135.5 538t385.5 193q84 0 154 -23t116 -59.5t80 -84.5t51 -94t23 -93zM901 467q0 145 -81.5 226t-211.5 81q-95 0 -183.5 -49t-137.5 -131q5 -213 89.5 -340t231.5 -127q131 0 212 93t81 247z" />
    <glyph glyph-name="seven.plf" horiz-adv-x="983" 
d="M1014 1393v-133q-203 -306 -320.5 -609t-146.5 -651h-193q33 331 148.5 632t314.5 603h-600v-268h-166v426h963z" />
    <glyph glyph-name="eight.plf" horiz-adv-x="1132" 
d="M565 1417q215 0 335 -104t120 -266q0 -102 -57 -184.5t-142 -121.5q240 -115 240 -348q0 -84 -30 -158t-88.5 -133t-155.5 -93t-222 -34t-222 34t-155 93t-87 132.5t-29 158.5q0 242 239 350q-89 37 -144.5 116.5t-55.5 187.5q0 163 119.5 266.5t334.5 103.5zM565 127
q149 0 230.5 77.5t81.5 190.5q0 122 -84 196.5t-228 74.5q-143 0 -226 -74.5t-83 -196.5q0 -113 80.5 -190.5t228.5 -77.5zM565 811q130 0 205.5 65.5t75.5 163.5q0 101 -78 164.5t-203 63.5q-126 0 -203 -63t-77 -165q0 -98 74.5 -163.5t205.5 -65.5z" />
    <glyph glyph-name="nine.plf" horiz-adv-x="1150" 
d="M104 330l162 43q7 -29 16.5 -55.5t30.5 -63.5t48.5 -63t73 -45t100.5 -19q153 0 236.5 126t92.5 361q-53 -66 -143.5 -107.5t-204.5 -41.5q-201 0 -322.5 127.5t-121.5 322.5q0 100 31 190t89 160t148.5 111t202.5 41q243 0 374.5 -175t131.5 -535q0 -346 -135.5 -539
t-385.5 -193q-84 0 -154 23.5t-116 59.5t-80 84.5t-51 94.5t-23 93zM250 928q0 -145 81.5 -226t211.5 -81q95 0 183.5 49t137.5 131q-5 213 -89.5 340t-231.5 127q-131 0 -212 -93t-81 -247z" />
    <glyph glyph-name="at.case" horiz-adv-x="1693" 
d="M1264 397q78 0 131 114t53 294q0 113 -37.5 214t-106.5 179.5t-177.5 125t-241.5 46.5q-178 0 -321.5 -83.5t-226.5 -237t-83 -349.5q0 -300 178 -485.5t469 -185.5q175 0 321 72.5t255 207.5l82 -108q-118 -144 -288 -223.5t-374 -79.5q-187 0 -338 59t-250.5 165
t-153 253.5t-53.5 324.5q0 174 60.5 324t165.5 253.5t249.5 162.5t307.5 59t298 -54.5t223 -149t136.5 -219t48.5 -265.5q0 -291 -125 -432q-94 -107 -229 -107q-68 0 -115 27t-61 72q-78 -103 -258 -103q-133 0 -215 71t-82 198q0 66 22 112.5t67.5 75.5t96 45t125.5 29
l164 28q42 8 56 16.5t14 30.5v19q0 69 -38.5 106t-142.5 37q-101 0 -149.5 -47.5t-48.5 -128.5l-142 19q1 142 98.5 216t252.5 74q153 0 235 -61t82 -215v-404q0 -48 15.5 -70t50.5 -22zM1051 594v127q-26 -9 -109 -25l-94 -18q-32 -6 -53.5 -11t-48 -16t-42.5 -24.5
t-27 -36t-11 -51.5q0 -68 48 -104t124 -36q93 0 153 47t60 148z" />
    <glyph glyph-name="bar.case" horiz-adv-x="456" 
d="M309 1556v-1716h-162v1716h162z" />
    <glyph glyph-name="plus.case" 
d="M870 612v-530h-157v530h-523v156h523v528h157v-528h521v-156h-521z" />
    <glyph glyph-name="minus.case" 
d="M1481 606h-1379v156h1379v-156z" />
    <glyph glyph-name="plusminus.case" 
d="M870 721v-428h-157v428h-523v156h523v426h157v-426h521v-156h-521zM1391 82h-1201v156h1201v-156z" />
    <glyph glyph-name="multiply.case" 
d="M1243 162l-452 450l-453 -452l-113 112l453 453l-451 453l111 110l450 -452l455 454l113 -112l-455 -455l453 -451z" />
    <glyph glyph-name="divide.case" 
d="M1481 614h-1379v156h1379v-156zM694 428h195v-223h-195v223zM694 1180h195v-224h-195v224z" />
    <glyph glyph-name="equal.case" 
d="M1481 440h-1377v156h1377v-156zM1481 797h-1377v155h1377v-155z" />
    <glyph glyph-name="notequal.case" 
d="M1481 954v-159h-592l-105 -199h697v-158h-781l-176 -336h-170l176 336h-428v158h512l105 199h-617v159h701l194 367h168l-192 -367h508z" />
    <glyph glyph-name="approxequal.case" 
d="M1198 1034l82 -137q-65 -81 -132.5 -127.5t-150.5 -46.5q-54 0 -105.5 18.5t-131.5 61.5q-104 57 -176 57q-47 0 -83.5 -30.5t-99.5 -112.5l-86 131q119 184 271 184q41 0 87.5 -12.5t76 -25.5t84.5 -40q3 -2 20 -10t21.5 -10t19 -9t20 -9t18 -7.5t19.5 -7t17 -4
t18.5 -3.5t16.5 -1q28 0 56 12.5t54.5 37t43 43t40.5 48.5zM1198 612l82 -137q-65 -81 -132.5 -127.5t-150.5 -46.5q-54 0 -105.5 18.5t-131.5 61.5q-104 57 -176 57q-47 0 -83.5 -30.5t-99.5 -112.5l-86 131q119 184 271 184q41 0 87.5 -12.5t76 -25.5t84.5 -40
q3 -2 20 -10t21.5 -10t19 -9t20 -9t18 -7.5t19.5 -7t17 -4t18.5 -3.5t16.5 -1q28 0 56 12.5t54.5 37t43 43t40.5 48.5z" />
    <glyph glyph-name="logicalnot.case" 
d="M1221 971v-565h-154v430h-780v135h934z" />
    <glyph glyph-name="parenleft.case" horiz-adv-x="536" 
d="M520 -166l-141 -27q-132 206 -196 416t-64 447q0 235 67 461.5t195 420.5l141 -20q-119 -196 -180 -415.5t-61 -440.5q0 -212 65.5 -436.5t173.5 -405.5z" />
    <glyph glyph-name="parenright.case" horiz-adv-x="536" 
d="M154 -193l-142 27q108 181 174 405.5t66 436.5q0 220 -61.5 440t-180.5 416l142 20q128 -194 195 -420.5t67 -461.5q0 -237 -64 -447t-196 -416z" />
    <glyph glyph-name="hyphen.case" horiz-adv-x="692" 
d="M82 768h528v-178h-528v178z" />
    <glyph glyph-name="bracketleft.case" horiz-adv-x="575" 
d="M530 -49v-133h-387v1718h387v-133h-223v-1452h223z" />
    <glyph glyph-name="bracketright.case" horiz-adv-x="575" 
d="M45 -180v133h223v1450h-223v133h387v-1716h-387z" />
    <glyph glyph-name="braceleft.case" horiz-adv-x="489" 
d="M41 625v120q23 7 40 14.5t30 19.5t21.5 21.5t14.5 28t9 31t4.5 39t1.5 43v51.5v250q0 164 58 228.5t204 64.5h35v-127q-80 0 -106.5 -34t-26.5 -136v-240q0 -76 -4.5 -122t-18.5 -87.5t-42 -65.5t-73 -38v-2q45 -14 73 -38t42 -65.5t18.5 -87.5t4.5 -122v-254
q0 -102 26.5 -136t106.5 -34v-127h-35q-146 0 -204 64.5t-58 228.5v264v51.5t-1.5 43t-4.5 39t-9 31t-14.5 28t-21.5 21.5t-30 19.5t-40 14.5z" />
    <glyph glyph-name="braceright.case" horiz-adv-x="489" 
d="M449 745v-120q-23 -7 -40 -14.5t-30 -19.5t-21.5 -21.5t-14.5 -28t-9 -31t-4.5 -39t-1.5 -43v-51.5v-264q0 -164 -58 -228.5t-204 -64.5h-35v127q80 0 106.5 34t26.5 136v254q0 151 25.5 219t111.5 94v2q-86 26 -111.5 94t-25.5 219v240q0 102 -26.5 136t-106.5 34v127
h35q146 0 204 -64.5t58 -228.5v-250v-51.5t1.5 -43t4.5 -39t9 -31t14.5 -28t21.5 -21.5t30 -19.5t40 -14.5z" />
    <glyph glyph-name="guillemotleft.case" horiz-adv-x="958" 
d="M825 332l-309 248v213l309 258v-197l-200 -158l200 -174v-190zM412 332l-310 248v213l310 258v-197l-201 -158l201 -174v-190z" />
    <glyph glyph-name="uni00AD.case" horiz-adv-x="692" 
d="M82 768h528v-178h-528v178z" />
    <glyph glyph-name="guillemotright.case" horiz-adv-x="958" 
d="M442 580l-309 -248v190l201 174l-201 158v197l309 -258v-213zM856 580l-309 -248v190l201 174l-201 158v197l309 -258v-213z" />
    <glyph glyph-name="endash.case" horiz-adv-x="1284" 
d="M1161 602h-1038v156h1038v-156z" />
    <glyph glyph-name="emdash.case" horiz-adv-x="1554" 
d="M1493 602h-1432v156h1432v-156z" />
    <glyph glyph-name="guilsinglleft.case" horiz-adv-x="544" 
d="M412 332l-310 248v213l310 258v-197l-193 -158l193 -174v-190z" />
    <glyph glyph-name="guilsinglright.case" horiz-adv-x="544" 
d="M442 580l-309 -248v190l193 174l-193 158v197l309 -258v-213z" />
    <glyph glyph-name="brokenbar.case" horiz-adv-x="462" 
d="M315 1554v-661h-168v661h168zM315 438v-661h-168v661h168z" />
    </font>
</defs>
</svg>
