<?xml version="1.0" standalone="no"?>
<!DOCTYPE svg PUBLIC "-//W3C//DTD SVG 1.1//EN" "http://www.w3.org/Graphics/SVG/1.1/DTD/svg11.dtd" >
<svg xmlns="http://www.w3.org/2000/svg" xmlns:xlink="http://www.w3.org/1999/xlink" version="1.1">
<metadata>
Created by FontForge 20201107 at Thu Mar 13 03:58:44 2025
 By 
Copyright (c) 2020 Monotype Imaging Inc. All rights reserved.
</metadata>
<defs>
<font id="FuturaNowText-Rg" horiz-adv-x="0" >
  <font-face 
    font-family="Futura Now Text"
    font-weight="400"
    font-stretch="normal"
    units-per-em="2048"
    panose-1="2 11 5 6 3 5 1 2 3 3"
    ascent="1638"
    descent="-410"
    x-height="954"
    cap-height="1544"
    bbox="-954 -598 2552 2413"
    underline-thickness="102"
    underline-position="-204"
    unicode-range="U+000D-FEFF"
  />
<missing-glyph horiz-adv-x="1368" 
d="M1284 0h-1102v1544h1102v-1544zM289 1436v-1330h889v1330h-889z" />
    <glyph glyph-name="f_f" unicode="ff" horiz-adv-x="1239" 
d="M1143 1546q-172 0 -172 -260v-332h250v-153h-250v-801h-164v801h-426v-801h-164v801h-176v153h176v328q0 194 104 299t275 105q178 0 268 -125q75 139 248 139q78 0 139 -21v-155q-52 22 -108 22zM381 954h426v342q0 118 -57 175t-154 57q-99 0 -157 -60.5t-58 -185.5
v-328z" />
    <glyph glyph-name="f_f_i" unicode="ffi" horiz-adv-x="1740" 
d="M1186 1700q169 0 272 -104.5t103 -295.5v-69h-164v69q0 122 -58 182t-155 60t-155 -60t-58 -182v-346h239v-153h-239v-801h-164v801h-426v-801h-164v801h-176v153h176v328q0 194 104 299t275 105q190 0 276 -142q47 77 128.5 116.5t185.5 39.5zM381 954h426v342
q0 118 -57 175t-154 57q-99 0 -157 -60.5t-58 -185.5v-328zM1561 0h-164v954h164v-954z" />
    <glyph glyph-name="f_f_l" unicode="ffl" horiz-adv-x="1740" 
d="M1186 1700q169 0 272 -104.5t103 -295.5v-1300h-164v1300q0 122 -58 182t-155 60t-155 -60t-58 -182v-346h239v-153h-239v-801h-164v801h-426v-801h-164v801h-176v153h176v328q0 194 104 299t275 105q190 0 276 -142q47 77 128.5 116.5t185.5 39.5zM381 954h426v342
q0 118 -57 175t-154 57q-99 0 -157 -60.5t-58 -185.5v-328z" />
    <glyph glyph-name="f_i" unicode="fi" horiz-adv-x="1150" 
d="M381 0h-164v801h-176v153h176v334q0 197 104 304.5t275 107.5q169 0 272 -107.5t103 -304.5v-69h-164v69q0 128 -57 191t-154 63q-99 0 -157 -63t-58 -191v-334h240v-153h-240v-801zM971 0h-164v954h164v-954z" />
    <glyph glyph-name="f_l" unicode="fl" horiz-adv-x="1150" 
d="M381 0h-164v801h-176v153h176v334q0 197 104 304.5t275 107.5q169 0 272 -107.5t103 -304.5v-1288h-164v1288q0 128 -57 191t-154 63q-99 0 -157 -63t-58 -191v-334h240v-153h-240v-801z" />
    <glyph glyph-name=".notdef" horiz-adv-x="1368" 
d="M1284 0h-1102v1544h1102v-1544zM289 1436v-1330h889v1330h-889z" />
    <glyph glyph-name=".null" 
 />
    <glyph glyph-name="nonmarkingreturn" horiz-adv-x="682" 
 />
    <glyph glyph-name="NULL" 
 />
    <glyph glyph-name="NULL" 
 />
    <glyph glyph-name="CR" unicode="&#xd;" horiz-adv-x="614" 
 />
    <glyph glyph-name="space" unicode=" " horiz-adv-x="614" 
 />
    <glyph glyph-name="exclam" unicode="!" horiz-adv-x="600" 
d="M381 371h-164v1173h164v-1173zM299 -23q-46 0 -77.5 31.5t-31.5 77.5t31.5 78.5t77.5 32.5t78.5 -32.5t32.5 -78.5t-32.5 -77.5t-78.5 -31.5z" />
    <glyph glyph-name="quotedbl" unicode="&#x22;" horiz-adv-x="874" 
d="M326 940h-125l-31 604h186zM674 940h-125l-31 604h187z" />
    <glyph glyph-name="quotedbl" unicode="&#x2033;" horiz-adv-x="874" 
d="M326 940h-125l-31 604h186zM674 940h-125l-31 604h187z" />
    <glyph glyph-name="numbersign" unicode="#" horiz-adv-x="1255" 
d="M352 0h-135l70 483h-234v127h250l53 353h-231v131h246l63 450h133l-63 -450h340l65 450h129l-61 -450h231v-131h-247l-52 -353h228v-129h-244l-68 -481h-131l68 481h-344zM487 963l-51 -353h340l51 353h-340z" />
    <glyph glyph-name="dollar" unicode="$" horiz-adv-x="1222" 
d="M1081 410q0 -170 -111.5 -283t-281.5 -131v-238h-129v238q-162 17 -274.5 107t-165.5 231l149 63q41 -102 116 -165t175 -80v626q-128 61 -202.5 114.5t-118 130t-43.5 177.5q0 138 102 235.5t262 114.5v226h129v-228q225 -29 344 -229l-133 -82q-84 135 -211 160v-496
q1 0 2 -1t2 -1q204 -93 296.5 -205.5t92.5 -283.5zM360 1198q0 -72 45 -124.5t154 -110.5v436q-90 -15 -144.5 -69.5t-54.5 -131.5zM688 717v-567q105 17 167.5 88.5t62.5 171.5q0 102 -50 169.5t-180 137.5z" />
    <glyph glyph-name="percent" unicode="%" horiz-adv-x="1777" 
d="M461 844q-151 0 -257 105.5t-106 256.5q0 147 109 252t256 105q150 0 257 -106.5t107 -252.5q0 -148 -107 -254t-259 -106zM1495 1425l-1161 -1364l-74 64l1159 1362zM463 967q96 0 166.5 69.5t70.5 167.5q0 97 -70 166.5t-167 69.5t-166.5 -69t-69.5 -167t69.5 -167.5
t166.5 -69.5zM1313 -16q-150 0 -256.5 105.5t-106.5 256.5q0 144 108.5 249t256.5 105t256 -104.5t108 -255.5q0 -147 -107 -251.5t-259 -104.5zM1315 106q97 0 167 69t70 165q0 100 -69.5 169t-167.5 69q-97 0 -167.5 -69t-70.5 -167q0 -99 70 -167.5t168 -68.5z" />
    <glyph glyph-name="ampersand" unicode="&#x26;" horiz-adv-x="1464" 
d="M1169 334l283 -334h-213l-182 213q-133 -130 -236.5 -186t-247.5 -56q-195 0 -322.5 122.5t-127.5 309.5q0 51 10 96.5t26 82t44.5 72.5t55 62.5t69 59t75.5 54.5t86 55q-104 127 -144 203.5t-40 166.5q0 140 96.5 229t262.5 89q158 0 255 -88t97 -223q0 -62 -17 -113.5
t-56 -100t-89.5 -92t-128.5 -98.5l342 -405q98 117 180 233l111 -115q-110 -143 -189 -237zM662 1430q-83 0 -138 -50t-55 -127q0 -59 34 -116t124 -164q123 81 176 142.5t53 135.5q0 79 -54.5 129t-139.5 50zM575 125q109 0 194.5 52t186.5 155l-370 438q-80 -50 -127 -85
t-90.5 -80.5t-62.5 -95.5t-19 -112q0 -115 83 -193.5t205 -78.5z" />
    <glyph glyph-name="quotesingle" unicode="'" horiz-adv-x="526" 
d="M326 940h-125l-31 604h186z" />
    <glyph glyph-name="quotesingle" unicode="&#x2032;" horiz-adv-x="526" 
d="M326 940h-125l-31 604h186z" />
    <glyph glyph-name="parenleft" unicode="(" horiz-adv-x="720" 
d="M608 -281l-133 -75q-307 477 -307 1048q0 558 307 1049l133 -76q-143 -250 -207.5 -480t-64.5 -493q0 -270 68.5 -502.5t203.5 -470.5z" />
    <glyph glyph-name="parenright" unicode=")" horiz-adv-x="720" 
d="M246 -356l-133 75q135 238 203.5 470.5t68.5 502.5q0 263 -64.5 493t-207.5 480l133 76q307 -491 307 -1049q0 -571 -307 -1048z" />
    <glyph glyph-name="asterisk" unicode="*" horiz-adv-x="872" 
d="M436 1063l-162 -244l-118 86l180 232l-273 84l48 139l264 -105l-13 289h148l-10 -289l264 105l45 -139l-274 -84l184 -232l-119 -86z" />
    <glyph glyph-name="plus" unicode="+" horiz-adv-x="1257" 
d="M696 104h-135v457h-457v135h457v457h135v-457h457v-135h-457v-457z" />
    <glyph glyph-name="comma" unicode="," horiz-adv-x="600" 
d="M434 197l-241 -537l-113 45l203 549z" />
    <glyph glyph-name="hyphen" unicode="-" horiz-adv-x="571" 
d="M504 428h-436v143h436v-143z" />
    <glyph glyph-name="period" unicode="." horiz-adv-x="600" 
d="M299 -23q-46 0 -77.5 31.5t-31.5 77.5t31.5 78.5t77.5 32.5t78.5 -32.5t32.5 -78.5t-32.5 -77.5t-78.5 -31.5z" />
    <glyph glyph-name="slash" unicode="/" horiz-adv-x="1019" 
d="M1016 1690l-877 -2024l-135 60l875 2025z" />
    <glyph glyph-name="zero" unicode="0" horiz-adv-x="1257" 
d="M629 -27q-154 0 -275.5 105t-188.5 287.5t-67 408.5q0 227 67 408.5t188.5 285t275.5 103.5t275.5 -103.5t188 -285t66.5 -408.5q0 -226 -66.5 -408.5t-188 -287.5t-275.5 -105zM629 127q110 0 194 91t127 237t43 319t-43 318t-127 235t-194 90t-194.5 -90t-127.5 -235
t-43 -318t43 -319t127.5 -237t194.5 -91z" />
    <glyph glyph-name="one" unicode="1" horiz-adv-x="692" 
d="M451 0h-170v1384h-261l93 160h338v-1544z" />
    <glyph glyph-name="two" unicode="2" horiz-adv-x="1239" 
d="M1079 0h-1001v6l545 619q168 194 228 296.5t60 213.5q0 122 -83 200t-214 78q-139 0 -227 -83t-100 -236h-168q20 228 148.5 351.5t344.5 123.5q212 0 340.5 -122.5t128.5 -313.5q0 -149 -75 -276t-265 -337l-331 -360h669v-160z" />
    <glyph glyph-name="three" unicode="3" horiz-adv-x="1230" 
d="M600 -25q-203 0 -330 108t-145 314h164q15 -125 98 -196.5t213 -71.5q132 0 216.5 84.5t84.5 222.5q0 143 -85.5 223t-250.5 80h-12v148h10q156 0 235 75.5t79 200.5q0 116 -74 185t-191 69q-124 0 -193 -65t-81 -187h-170q24 197 135 301.5t305 104.5
q189 0 311.5 -112.5t122.5 -295.5q0 -120 -59 -209t-168 -139q116 -48 185 -145t69 -236q0 -206 -133 -332.5t-336 -126.5z" />
    <glyph glyph-name="four" unicode="4" horiz-adv-x="1247" 
d="M981 463h184v-154h-184v-309h-162v309h-790v6l946 1315h6v-1167zM823 1174l-512 -711h508v543q0 58 4 168z" />
    <glyph glyph-name="five" unicode="5" horiz-adv-x="1234" 
d="M535 -23q-152 0 -275.5 70.5t-206.5 204.5l129 108q71 -120 159 -174.5t208 -54.5q164 0 270.5 112.5t106.5 282.5q0 165 -105 273t-268 108q-153 0 -260 -110h-55l227 747h614v-160h-497q-21 -66 -59.5 -189t-49.5 -157q52 19 109 19q225 0 367.5 -148.5t142.5 -382.5
q0 -240 -158 -394.5t-399 -154.5z" />
    <glyph glyph-name="six" unicode="6" horiz-adv-x="1261" 
d="M629 -23q-140 0 -260 68t-190 185t-70 255q0 100 42.5 199.5t129.5 220.5l489 684l125 -92l-344 -479q-29 -42 -59 -80q85 57 182 57q93 0 179.5 -38t152 -104t104.5 -162t39 -206q0 -137 -70 -254t-190 -185.5t-260 -68.5zM629 131q149 0 251.5 103.5t102.5 250.5
q0 152 -100.5 255.5t-251.5 103.5q-152 0 -254.5 -103.5t-102.5 -255.5q0 -148 103 -251t252 -103z" />
    <glyph glyph-name="seven" unicode="7" horiz-adv-x="1181" 
d="M1198 1540l-932 -1581l-135 86l789 1339h-824v160h1102v-4z" />
    <glyph glyph-name="eight" unicode="8" horiz-adv-x="1259" 
d="M631 -23q-199 0 -334 127.5t-135 321.5q0 131 63.5 229.5t184.5 147.5q-100 54 -154.5 144t-54.5 200q0 181 124 301.5t306 120.5t306 -121t124 -303q0 -109 -54 -197.5t-155 -142.5q122 -51 185 -147.5t63 -229.5q0 -194 -135 -322.5t-334 -128.5zM631 872
q111 0 190.5 80t79.5 193q0 115 -79 191.5t-191 76.5t-191.5 -76t-79.5 -190q0 -115 80.5 -195t190.5 -80zM631 131q123 0 213 88t90 211q0 126 -88.5 211.5t-214.5 85.5q-123 0 -212 -85.5t-89 -209.5t89.5 -212.5t211.5 -88.5z" />
    <glyph glyph-name="nine" unicode="9" horiz-adv-x="1255" 
d="M999 674l-512 -715l-127 92l332 465q8 12 30.5 41.5t33.5 46.5q-91 -51 -172 -51q-90 0 -177 40.5t-152.5 108t-105.5 163t-40 198.5q0 137 70 254t190 185.5t260 68.5t260 -68t190 -185t70 -255q0 -178 -150 -389zM627 705q146 0 251 104t105 254q0 147 -102.5 250.5
t-251.5 103.5q-150 0 -252.5 -103.5t-102.5 -250.5q0 -149 102.5 -253.5t250.5 -104.5z" />
    <glyph glyph-name="colon" unicode=":" horiz-adv-x="600" 
d="M299 745q-46 0 -77.5 32.5t-31.5 78.5t31.5 77.5t77.5 31.5t78.5 -31.5t32.5 -77.5t-32.5 -78.5t-78.5 -32.5zM299 -23q-46 0 -77.5 31.5t-31.5 77.5t31.5 78.5t77.5 32.5t78.5 -32.5t32.5 -78.5t-32.5 -77.5t-78.5 -31.5z" />
    <glyph glyph-name="semicolon" unicode=";" horiz-adv-x="600" 
d="M334 745q-46 0 -77.5 32.5t-31.5 78.5t31.5 77.5t77.5 31.5t78 -31.5t32 -77.5t-32 -78.5t-78 -32.5zM434 197l-241 -537l-113 45l203 549z" />
    <glyph glyph-name="less" unicode="&#x3c;" horiz-adv-x="1257" 
d="M129 807l999 467v-168l-815 -373l815 -371v-165l-999 467v143z" />
    <glyph glyph-name="equal" unicode="=" horiz-adv-x="1257" 
d="M1153 791h-1049v135h1049v-135zM1153 330h-1049v135h1049v-135z" />
    <glyph glyph-name="greater" unicode="&#x3e;" horiz-adv-x="1257" 
d="M129 1106v166l999 -467v-141l-999 -469v167l815 371z" />
    <glyph glyph-name="question" unicode="?" horiz-adv-x="1003" 
d="M494 354q-139 0 -229.5 88.5t-90.5 221.5q0 123 76 197.5t231 135.5q131 51 174 92.5t43 124.5q0 89 -53 142t-141 53q-91 0 -146 -52t-55 -143q0 -33 14 -98h-167q-11 51 -11 94q0 155 103.5 256t259.5 101q157 0 259.5 -102t102.5 -255q0 -77 -23.5 -136.5t-69.5 -100
t-94.5 -66t-117.5 -49.5q-119 -42 -170 -85.5t-51 -113.5q0 -64 45.5 -106.5t114.5 -42.5t111 45t46 131h166q-1 -152 -95.5 -242t-231.5 -90zM502 -23q-46 0 -78.5 31.5t-32.5 77.5t32.5 78.5t78.5 32.5q44 0 76 -32.5t32 -78.5t-32 -77.5t-76 -31.5z" />
    <glyph glyph-name="at" unicode="@" horiz-adv-x="1871" 
d="M1233 1188h137l-67 -549q-12 -93 10 -134.5t82 -41.5q95 0 162 117t67 301q0 83 -23.5 164t-75 156.5t-125.5 132.5t-184.5 91.5t-242.5 34.5q-206 0 -368 -91t-252.5 -255.5t-90.5 -374.5q0 -187 82.5 -335.5t234 -233t345.5 -84.5q240 0 411 113l43 -109
q-187 -121 -454 -121q-175 0 -324 59.5t-251 162.5t-159 244.5t-57 303.5q0 179 63 334.5t173.5 265.5t266.5 173t337 63q185 0 335 -62t242 -163t140.5 -222t48.5 -247q0 -236 -98.5 -381.5t-264.5 -145.5q-185 0 -211 174q-42 -80 -126 -128t-191 -48q-169 0 -277.5 121.5
t-91.5 308.5q17 191 140 308.5t299 117.5q100 0 183 -51.5t111 -126.5h5zM1190 782q10 132 -64.5 217.5t-197.5 85.5q-128 0 -213 -86.5t-94 -216.5q-10 -135 61.5 -221t194.5 -86q132 0 216.5 83.5t96.5 223.5z" />
    <glyph glyph-name="A" unicode="A" horiz-adv-x="1431" 
d="M1430 0h-187l-182 436h-690l-187 -436h-182l723 1626h4zM578 918l-138 -322h553l-135 324q-74 172 -135 329q-62 -145 -145 -331z" />
    <glyph glyph-name="B" unicode="B" horiz-adv-x="1245" 
d="M575 0h-354v1544h252q250 0 384 -104.5t134 -296.5q0 -113 -60 -202t-155 -128v-2q164 -32 256 -131.5t92 -245.5q0 -210 -145.5 -322t-403.5 -112zM391 1389v-531h119q151 0 231 76.5t80 202.5q0 252 -317 252h-113zM391 715v-555h199q181 0 270.5 76.5t89.5 203.5
t-93.5 201t-297.5 74h-168z" />
    <glyph glyph-name="C" unicode="C" horiz-adv-x="1505" 
d="M926 -29q-164 0 -311.5 62.5t-253 168.5t-167 253.5t-61.5 312.5t62.5 313.5t169 256.5t257 171.5t318.5 63.5q235 0 436 -131v-201q-203 172 -448 172q-129 0 -245 -50t-199 -136t-132 -205t-49 -252q0 -132 49 -250.5t132.5 -203.5t199.5 -135t246 -50
q132 0 233.5 41.5t210.5 136.5v-205q-201 -133 -448 -133z" />
    <glyph glyph-name="D" unicode="D" horiz-adv-x="1499" 
d="M473 0h-252v1544h268q266 0 463 -89t305.5 -264t108.5 -417q0 -246 -110.5 -421.5t-310.5 -264t-472 -88.5zM391 1384v-1224h94q331 0 521 160t190 454t-180 452t-518 158h-107z" />
    <glyph glyph-name="E" unicode="E" horiz-adv-x="1218" 
d="M1026 0h-805v1544h805v-160h-635v-460h615v-160h-615v-604h635v-160z" />
    <glyph glyph-name="F" unicode="F" horiz-adv-x="1062" 
d="M391 0h-170v1544h713v-160h-543v-458h524v-160h-524v-766z" />
    <glyph glyph-name="G" unicode="G" horiz-adv-x="1765" 
d="M907 -29q-160 0 -303.5 63t-246.5 169.5t-163.5 254.5t-60.5 312q0 169 63.5 318.5t171 255.5t254.5 167.5t308 61.5q191 0 343 -77.5t288 -238.5l-123 -114q-199 270 -506 270q-129 0 -245 -49.5t-200.5 -134.5t-134 -205t-49.5 -254q0 -136 50.5 -256t134 -203
t194 -131.5t229.5 -48.5q223 0 374 140t163 347v3h-444v157h628v-37q0 -228 -90.5 -403t-255 -271t-379.5 -96z" />
    <glyph glyph-name="H" unicode="H" horiz-adv-x="1546" 
d="M391 0h-170v1544h170v-626h762v626h170v-1544h-170v758h-762v-758z" />
    <glyph glyph-name="I" unicode="I" horiz-adv-x="614" 
d="M391 0h-170v1544h170v-1544z" />
    <glyph glyph-name="J" unicode="J" horiz-adv-x="815" 
d="M283 -25q-165 0 -283 121l104 123q81 -84 179 -84q83 0 122 61t39 201v1147h170v-1136q0 -223 -82.5 -328t-248.5 -105z" />
    <glyph glyph-name="K" unicode="K" horiz-adv-x="1312" 
d="M567 862l727 -862h-227l-618 752l-58 -50v-702h-170v1544h170v-653l660 653h225z" />
    <glyph glyph-name="L" unicode="L" horiz-adv-x="909" 
d="M872 0h-651v1544h170v-1384h481v-160z" />
    <glyph glyph-name="M" unicode="M" horiz-adv-x="1916" 
d="M963 -59h-7l-467 1171l-200 -1112h-176l317 1638h4l529 -1308l542 1308h6l293 -1638h-174l-188 1110z" />
    <glyph glyph-name="N" unicode="N" horiz-adv-x="1746" 
d="M1356 342v1202h170v-1618h-6l-1129 1284v-1210h-170v1626h8z" />
    <glyph glyph-name="O" unicode="O" horiz-adv-x="1865" 
d="M926 -29q-157 0 -302 61.5t-253 167.5t-173 256.5t-65 319.5q0 162 64.5 310t173 254.5t256.5 169.5t309 63q160 0 306.5 -62.5t254.5 -169t172 -256t64 -315.5q0 -164 -65 -312.5t-174 -255t-257.5 -169t-310.5 -62.5zM928 133q172 0 317.5 83.5t231.5 231t86 324.5
q0 180 -85.5 327.5t-230.5 230.5t-315 83q-168 0 -312.5 -84t-230.5 -231.5t-86 -323.5q0 -136 52 -257t138 -204t200 -131.5t235 -48.5z" />
    <glyph glyph-name="P" unicode="P" horiz-adv-x="1105" 
d="M391 0h-170v1544h236q569 0 569 -440q0 -209 -139 -327t-371 -118h-125v-659zM391 1389v-572h111q174 0 267 74t93 215q0 142 -95.5 212.5t-277.5 70.5h-98z" />
    <glyph glyph-name="Q" unicode="Q" horiz-adv-x="1865" 
d="M1733 770q0 -166 -63.5 -313t-178.5 -256l233 -230h-211l-137 138q-207 -138 -450 -138q-157 0 -302 61.5t-253 167.5t-173 256.5t-65 319.5q0 162 64.5 310t173 254.5t256.5 169.5t309 63q160 0 306.5 -62.5t254.5 -169t172 -256t64 -315.5zM303 774q0 -136 52 -257
t138 -204t200 -131.5t235 -48.5q182 0 332 92l-379 385h215l280 -293q88 88 137.5 205.5t49.5 249.5q0 180 -85.5 327.5t-230.5 230.5t-315 83q-168 0 -312.5 -84t-230.5 -231.5t-86 -323.5z" />
    <glyph glyph-name="R" unicode="R" horiz-adv-x="1185" 
d="M639 676l487 -676h-208l-461 664h-66v-664h-170v1544h225q260 0 413 -109t153 -323q0 -165 -98 -278t-275 -158zM473 1384h-82v-573h80q176 0 275.5 75.5t99.5 221.5q0 136 -97.5 206t-275.5 70z" />
    <glyph glyph-name="S" unicode="S" horiz-adv-x="1222" 
d="M629 -29q-186 0 -319.5 97.5t-190.5 259.5l157 65q48 -126 138.5 -194t214.5 -68q126 0 203 76.5t77 195.5t-69 197t-254 162q-81 36 -137.5 67t-107 69.5t-79.5 79.5t-46 93.5t-17 116.5q0 163 118 274t297 111q143 0 248.5 -67.5t169.5 -188.5l-141 -82
q-54 91 -119.5 134.5t-157.5 43.5q-106 0 -175.5 -64.5t-69.5 -160.5q0 -92 68.5 -152t254.5 -143q214 -98 301.5 -207t87.5 -285q0 -191 -129 -310.5t-323 -119.5z" />
    <glyph glyph-name="T" unicode="T" horiz-adv-x="952" 
d="M561 0h-168v1384h-375v160h916v-160h-373v-1384z" />
    <glyph glyph-name="U" unicode="U" horiz-adv-x="1492" 
d="M745 -29q-158 0 -281 68.5t-193 200t-70 307.5v997h170v-981q0 -212 100 -321t274 -109q175 0 276 109.5t101 326.5v975h170v-997q0 -266 -152 -421t-395 -155z" />
    <glyph glyph-name="V" unicode="V" horiz-adv-x="1294" 
d="M645 -82h-4l-641 1626h184l461 -1204l461 1204h188z" />
    <glyph glyph-name="W" unicode="W" horiz-adv-x="2148" 
d="M631 -70h-4l-613 1614h183l430 -1173l440 1222h4l434 -1222l447 1173h184l-633 -1614h-6l-430 1219z" />
    <glyph glyph-name="X" unicode="X" horiz-adv-x="1185" 
d="M217 0h-192l477 815l-424 729h192l330 -600l336 600h197l-439 -729l465 -815h-188l-375 682z" />
    <glyph glyph-name="Y" unicode="Y" horiz-adv-x="1181" 
d="M676 0h-170v678l-504 866h195l395 -690l393 690h197l-506 -866v-678z" />
    <glyph glyph-name="Z" unicode="Z" horiz-adv-x="1257" 
d="M1174 0h-1115v4l844 1380h-725v160h1006v-4l-846 -1380h836v-160z" />
    <glyph glyph-name="bracketleft" unicode="[" horiz-adv-x="720" 
d="M598 -317h-414v2035h414v-153h-246v-1729h246v-153z" />
    <glyph glyph-name="backslash" unicode="\" horiz-adv-x="1019" 
d="M1016 -274l-135 -60l-877 2024l137 61z" />
    <glyph glyph-name="bracketright" unicode="]" horiz-adv-x="720" 
d="M535 -317h-414v153h248v1729h-248v153h414v-2035z" />
    <glyph glyph-name="asciicircum" unicode="^" horiz-adv-x="1087" 
d="M618 1548l396 -757h-183l-286 565l-289 -568h-182l393 760h151z" />
    <glyph glyph-name="underscore" unicode="_" horiz-adv-x="819" 
d="M819 -303h-819v143h819v-143z" />
    <glyph glyph-name="grave" unicode="`" horiz-adv-x="542" 
d="M487 1198l-90 -57l-342 307l152 84z" />
    <glyph glyph-name="a" unicode="a" horiz-adv-x="1280" 
d="M586 -29q-203 0 -339 146t-136 362q0 139 62 254t170 180.5t239 65.5q225 0 352 -188h2v163h164v-954h-164v164h-2q-134 -193 -348 -193zM610 119q145 0 240.5 101t95.5 257q0 154 -95.5 255.5t-240.5 101.5q-143 0 -237 -102t-94 -253q0 -158 91.5 -259t239.5 -101z" />
    <glyph glyph-name="b" unicode="b" horiz-adv-x="1280" 
d="M700 -25q-223 0 -354 189h-2v-164h-164v1679h164v-739v-147h2q132 188 350 188q202 0 337.5 -145t135.5 -359q0 -213 -135.5 -357.5t-333.5 -144.5zM670 121q145 0 238 101.5t93 254.5q0 155 -91.5 256t-237.5 101q-147 0 -242.5 -100t-95.5 -255t95.5 -256.5
t240.5 -101.5z" />
    <glyph glyph-name="c" unicode="c" horiz-adv-x="989" 
d="M623 -29q-228 0 -370 142.5t-142 361.5q0 218 143 362t369 144q157 0 264 -72v-186q-58 57 -122.5 84t-148.5 27q-151 0 -244 -101t-93 -256q0 -157 90 -257.5t245 -100.5q152 0 273 106v-178q-111 -76 -264 -76z" />
    <glyph glyph-name="d" unicode="d" horiz-adv-x="1280" 
d="M582 -25q-200 0 -335.5 144.5t-135.5 357.5q0 214 136 359t339 145q219 0 348 -188h2v151v735h164v-1679h-164v164h-2q-131 -189 -352 -189zM610 121q145 0 240.5 101.5t95.5 256.5t-95.5 255t-240.5 100q-148 0 -239.5 -101t-91.5 -256q0 -153 93.5 -254.5t237.5 -101.5
z" />
    <glyph glyph-name="e" unicode="e" horiz-adv-x="1136" 
d="M1026 492v-46h-743q3 -145 86 -236t219 -91q171 0 274 155l131 -77q-64 -109 -162.5 -167.5t-248.5 -58.5q-211 0 -341 140.5t-130 365.5q0 222 130 363t337 141q209 0 328.5 -137t119.5 -352zM293 582h563q-9 109 -84 180.5t-192 71.5q-115 0 -191.5 -70t-95.5 -182z
" />
    <glyph glyph-name="f" unicode="f" horiz-adv-x="649" 
d="M381 0h-164v801h-176v153h176v355q0 203 83 297t222 94q79 0 140 -21v-155q-52 22 -109 22q-172 0 -172 -260v-332h250v-153h-250v-801z" />
    <glyph glyph-name="g" unicode="g" horiz-adv-x="1241" 
d="M580 -545q-198 0 -323.5 97.5t-145.5 287.5l163 15q40 -250 308 -250q156 0 235.5 94.5t79.5 275.5v189h-2q-129 -193 -352 -193q-125 0 -227.5 66.5t-161 183t-58.5 258.5q0 213 127.5 356.5t315.5 143.5q223 0 356 -188h2v163h164v-958q0 -260 -119.5 -400.5
t-361.5 -140.5zM582 119q140 0 232.5 98.5t92.5 259.5q0 159 -93 258t-232 99q-137 0 -227.5 -102.5t-90.5 -252.5q0 -158 88 -259t230 -101z" />
    <glyph glyph-name="h" unicode="h" horiz-adv-x="1140" 
d="M344 0h-164v1679h164v-702v-158h4q104 162 303 162q159 0 241.5 -98t82.5 -285v-598h-164v561q0 143 -52 208t-159 65q-121 0 -188.5 -80.5t-67.5 -247.5v-506z" />
    <glyph glyph-name="i" unicode="i" horiz-adv-x="520" 
d="M260 1251q-47 0 -80 33.5t-33 79.5q0 44 33.5 77.5t77.5 33.5q47 0 81 -32.5t34 -78.5t-33.5 -79.5t-79.5 -33.5zM342 0h-164v954h164v-954z" />
    <glyph glyph-name="j" unicode="j" horiz-adv-x="520" 
d="M260 1251q-47 0 -80 33.5t-33 79.5q0 44 33.5 77.5t77.5 33.5q47 0 81 -32.5t34 -78.5t-33.5 -79.5t-79.5 -33.5zM342 -537h-164v1491h164v-1491z" />
    <glyph glyph-name="k" unicode="k" horiz-adv-x="999" 
d="M506 547l477 -547h-203l-385 444l-51 -47v-397h-164v1679h164v-1104l397 379h207z" />
    <glyph glyph-name="l" unicode="l" horiz-adv-x="524" 
d="M344 0h-164v1679h164v-1679z" />
    <glyph glyph-name="m" unicode="m" horiz-adv-x="1671" 
d="M344 0h-164v954h164v-127h2q44 71 104 112.5t152 41.5q203 0 277 -176h2q107 176 295 176q331 0 331 -381v-600h-164v557q0 146 -48.5 211.5t-149.5 65.5q-109 0 -165 -76.5t-56 -220.5v-537h-164v571q0 263 -193 263q-110 0 -166.5 -78.5t-56.5 -225.5v-530z" />
    <glyph glyph-name="n" unicode="n" horiz-adv-x="1140" 
d="M344 0h-164v954h164v-137h4q106 164 301 164q161 0 243.5 -98t82.5 -285v-598h-164v561q0 142 -52.5 207.5t-160.5 65.5q-120 0 -187 -81t-67 -245v-508z" />
    <glyph glyph-name="o" unicode="o" horiz-adv-x="1234" 
d="M612 -29q-144 0 -259 66.5t-178.5 183t-63.5 260.5q0 136 63.5 250t180 182t261.5 68q220 0 363 -144.5t143 -359.5q0 -217 -143 -361.5t-367 -144.5zM616 119q150 0 245 99.5t95 258.5q0 154 -95.5 255.5t-244.5 101.5q-147 0 -242 -101t-95 -254q0 -161 93 -260.5
t244 -99.5z" />
    <glyph glyph-name="p" unicode="p" horiz-adv-x="1280" 
d="M344 -537h-164v1491h164v-161h2q133 190 350 190q202 0 337.5 -146t135.5 -360q0 -213 -135.5 -357.5t-333.5 -144.5q-223 0 -354 189h-2v-176v-525zM670 121q145 0 238 101.5t93 254.5q0 156 -91.5 257.5t-237.5 101.5t-242 -101t-96 -256t95.5 -256.5t240.5 -101.5z
" />
    <glyph glyph-name="q" unicode="q" horiz-adv-x="1280" 
d="M1100 -537h-164v525v176h-2q-131 -189 -352 -189q-200 0 -335.5 144.5t-135.5 357.5q0 215 136 360.5t339 145.5q217 0 348 -190h2v161h164v-1491zM610 121q145 0 240.5 101.5t95.5 256.5t-95.5 256t-240.5 101q-148 0 -239.5 -101.5t-91.5 -257.5q0 -153 93.5 -254.5
t237.5 -101.5z" />
    <glyph glyph-name="r" unicode="r" horiz-adv-x="727" 
d="M344 0h-164v954h164v-118h4q48 74 97 109.5t118 35.5q79 0 156 -47l-74 -150q-55 37 -113 37q-90 0 -139 -76t-49 -225v-520z" />
    <glyph glyph-name="s" unicode="s" horiz-adv-x="829" 
d="M426 -29q-126 0 -214 58.5t-126 150.5l125 92q67 -151 215 -151q73 0 114.5 38.5t41.5 98.5t-44 99.5t-165 93.5q-126 58 -180 122t-54 158q0 114 81.5 182t203.5 68q97 0 170 -39t111 -104l-121 -97q-25 41 -67.5 67t-94.5 26q-55 0 -90 -27.5t-35 -75.5
q0 -46 43.5 -79.5t171.5 -88.5q125 -56 176 -125t51 -174q0 -129 -86.5 -211t-226.5 -82z" />
    <glyph glyph-name="t" unicode="t" horiz-adv-x="579" 
d="M365 0h-164v801h-160v153h160v353h164v-353h174v-153h-174v-801z" />
    <glyph glyph-name="u" unicode="u" horiz-adv-x="1101" 
d="M551 -27q-186 0 -285.5 106.5t-99.5 315.5v559h164v-553q0 -141 53 -210.5t168 -69.5q223 0 223 280v553h164v-559q0 -199 -97.5 -310.5t-289.5 -111.5z" />
    <glyph glyph-name="v" unicode="v" horiz-adv-x="952" 
d="M475 -53h-4l-467 1007h182l289 -667l289 667h184z" />
    <glyph glyph-name="w" unicode="w" horiz-adv-x="1550" 
d="M487 -57h-4l-467 1011h185l282 -657l291 725h4l291 -725l283 657h182l-467 -1009h-4l-287 712z" />
    <glyph glyph-name="x" unicode="x" horiz-adv-x="1011" 
d="M608 508l387 -508h-194l-291 391l-293 -391h-203l400 510l-338 444h194l242 -321l244 321h198l-344 -444z" />
    <glyph glyph-name="y" unicode="y" horiz-adv-x="1007" 
d="M520 319l299 635h185l-725 -1491h-187l342 680l-430 811h191z" />
    <glyph glyph-name="z" unicode="z" horiz-adv-x="1073" 
d="M1006 0h-963v4l633 797h-545v153h868v-2l-632 -796h639v-156z" />
    <glyph glyph-name="braceleft" unicode="{" horiz-adv-x="718" 
d="M428 1380v-432q0 -105 -37.5 -163.5t-126.5 -79.5q88 -24 126 -89t38 -172v-421q0 -109 33 -147t125 -38h39v-153h-103q-138 0 -200 70t-62 227v462q0 89 -36.5 133.5t-129.5 47.5v143q94 3 130 47t36 133v473q0 158 62 228.5t200 70.5h103v-153h-39q-92 0 -125 -38
t-33 -149z" />
    <glyph glyph-name="bar" unicode="|" horiz-adv-x="1257" 
d="M713 -551h-166v2263h166v-2263z" />
    <glyph glyph-name="braceright" unicode="}" horiz-adv-x="718" 
d="M459 1421v-473q0 -89 36.5 -133t131.5 -47v-143q-95 -3 -131.5 -47.5t-36.5 -133.5v-462q0 -157 -62 -227t-200 -70h-103v153h39q93 0 125.5 37.5t32.5 147.5v421q0 107 39 172t127 89q-89 21 -127.5 79.5t-38.5 163.5v432q0 112 -32.5 149.5t-125.5 37.5h-39v153h103
q138 0 200 -70.5t62 -228.5z" />
    <glyph glyph-name="asciitilde" unicode="~" horiz-adv-x="1302" 
d="M864 489q-59 0 -124.5 24t-113.5 53t-106 53t-104 24q-83 0 -129 -38t-76 -109l-92 34q42 120 123.5 197.5t183.5 77.5q59 0 124.5 -24t113 -53t105.5 -53t105 -24q83 0 132.5 41t83.5 119l94 -39q-105 -283 -320 -283z" />
    <glyph glyph-name="uni00A0" unicode="&#xa0;" horiz-adv-x="614" 
 />
    <glyph glyph-name="exclamdown" unicode="&#xa1;" horiz-adv-x="600" 
d="M299 1161q46 0 78.5 -32t32.5 -78t-32.5 -77.5t-78.5 -31.5t-77.5 31.5t-31.5 77.5t31.5 78t77.5 32zM217 -408v1176h164v-1176h-164z" />
    <glyph glyph-name="cent" unicode="&#xa2;" horiz-adv-x="989" 
d="M887 1200v-186q-103 100 -238 108v-710q125 8 238 104v-178q-93 -65 -238 -74v-219h-125v227q-188 31 -300.5 166t-112.5 328q0 192 113.5 329.5t299.5 168.5v227h125v-219q144 -9 238 -72zM279 768q0 -131 65 -225t180 -123v692q-113 -29 -179 -122.5t-66 -221.5z" />
    <glyph glyph-name="sterling" unicode="&#xa3;" horiz-adv-x="1255" 
d="M1067 311l137 -82q-63 -135 -138.5 -193.5t-184.5 -58.5q-59 0 -158.5 33t-193 66t-136.5 33q-57 0 -98 -31t-80 -109l-145 78q70 119 136 167t159 54q59 106 59 189q0 78 -49 178h-252v121h188q-56 101 -87 183.5t-31 174.5q0 193 131.5 325t339.5 132q213 0 341.5 -129
t133.5 -332l-166 -33q-10 149 -85 241.5t-222 92.5q-132 0 -216.5 -88t-84.5 -223q0 -17 2 -35t5 -33t9.5 -35.5t10.5 -33.5t14 -35.5t14.5 -33t17.5 -35.5t17 -33.5t19 -35.5t18 -34h374v-121h-315q43 -105 43 -184q0 -88 -64 -197q36 -10 162.5 -61.5t186.5 -51.5
q59 0 99.5 38.5t88.5 131.5z" />
    <glyph glyph-name="currency" unicode="&#xa4;" horiz-adv-x="1077" 
d="M920 717q0 -121 -68 -217l121 -121l-94 -96l-123 123q-96 -68 -217 -68t-217 68l-121 -123l-97 96l123 121q-67 95 -67 217t67 217l-123 121l97 96l121 -123q95 70 217 70q119 0 219 -68l121 121l94 -96l-121 -121q68 -96 68 -217zM295 717q0 -100 72 -173t172 -73
q101 0 173 73t72 173t-72 173t-173 73q-100 0 -172 -73t-72 -173z" />
    <glyph glyph-name="yen" unicode="&#xa5;" horiz-adv-x="1181" 
d="M985 1544h197l-484 -829h328v-121h-350v-205h350v-121h-350v-268h-170v268h-352v121h352v205h-352v121h331l-483 829h195l395 -688z" />
    <glyph glyph-name="brokenbar" unicode="&#xa6;" horiz-adv-x="1257" 
d="M713 840h-166v872h166v-872zM713 -551h-166v840h166v-840z" />
    <glyph glyph-name="section" unicode="&#xa7;" horiz-adv-x="1181" 
d="M555 -549q-147 0 -255 71t-150 202l145 69q34 -92 103 -139t159 -47q111 0 179.5 57.5t68.5 157.5q0 98 -66 161.5t-237 131.5q-203 82 -286 175.5t-83 233.5q0 126 71.5 217.5t205.5 130.5v2q-228 110 -228 330q0 160 115.5 264.5t296.5 104.5q143 0 245 -69.5
t142 -188.5l-147 -60q-66 162 -244 162q-106 0 -175 -58t-69 -155q0 -106 71 -170.5t226 -111.5q207 -67 295 -160t88 -242q0 -120 -70 -212t-208 -138v-4q116 -63 169.5 -144.5t53.5 -193.5q0 -166 -116.5 -271.5t-299.5 -105.5zM580 256q123 0 203.5 76.5t80.5 183.5
q0 115 -81.5 189.5t-202.5 74.5q-126 0 -205.5 -75.5t-79.5 -182.5q0 -113 81.5 -189.5t203.5 -76.5z" />
    <glyph glyph-name="dieresis" unicode="&#xa8;" horiz-adv-x="757" 
d="M176 1251q-44 0 -76 32.5t-32 76.5q0 45 33 76.5t75 31.5q44 0 76.5 -31.5t32.5 -76.5q0 -46 -32.5 -77.5t-76.5 -31.5zM582 1251q-45 0 -77 31t-32 78q0 46 33 77t76 31t76.5 -32t33.5 -76q0 -46 -33 -77.5t-77 -31.5z" />
    <glyph glyph-name="copyright" unicode="&#xa9;" horiz-adv-x="1763" 
d="M883 -27q-163 0 -311.5 62.5t-256.5 169t-171.5 255.5t-63.5 314q0 219 108 403t292.5 290t402.5 106q163 0 311 -62.5t255 -169t170.5 -255t63.5 -312.5q0 -165 -63.5 -314t-171 -255.5t-255.5 -169t-310 -62.5zM883 72q191 0 352.5 92.5t256.5 254t95 355.5
q0 145 -56 275.5t-150.5 224.5t-224.5 149.5t-273 55.5t-273.5 -55.5t-225 -149.5t-150.5 -224.5t-56 -275.5q0 -194 94.5 -355.5t256.5 -254t354 -92.5zM911 299q-132 0 -243.5 61.5t-176.5 170t-65 239.5q0 132 67 242.5t180 173.5t245 63q142 0 276 -80v-145
q-72 56 -137 82.5t-146 26.5q-149 0 -252.5 -104.5t-103.5 -258.5q0 -151 105 -253.5t251 -102.5q76 0 142.5 26.5t140.5 83.5v-145q-132 -80 -283 -80z" />
    <glyph glyph-name="ordfeminine" unicode="&#xaa;" horiz-adv-x="768" 
d="M330 938q-126 0 -206.5 90t-80.5 221t82 220.5t209 89.5q146 0 219 -117h2v102h127v-590h-127v109h-2q-79 -125 -223 -125zM365 1044q80 0 136 59t56 146q0 88 -55.5 145.5t-136.5 57.5q-82 0 -136.5 -57.5t-54.5 -145.5q0 -89 54.5 -147t136.5 -58z" />
    <glyph glyph-name="guillemotleft" unicode="&#xab;" horiz-adv-x="1130" 
d="M602 86l-106 -84l-377 483l375 486l108 -80l-313 -404zM985 86l-106 -84l-377 483l375 486l108 -80l-313 -404z" />
    <glyph glyph-name="logicalnot" unicode="&#xac;" horiz-adv-x="1183" 
d="M1096 106h-168v433h-838v157h1006v-590z" />
    <glyph glyph-name="uni00AD" unicode="&#xad;" horiz-adv-x="571" 
d="M504 428h-436v143h436v-143z" />
    <glyph glyph-name="registered" unicode="&#xae;" horiz-adv-x="1052" 
d="M526 1563q201 0 341.5 -138.5t140.5 -339.5q0 -204 -140.5 -342.5t-341.5 -138.5t-341 138.5t-140 342.5q0 133 64.5 243t175 172.5t241.5 62.5zM526 668q176 0 295 117.5t119 299.5q0 178 -119.5 296t-294.5 118q-176 0 -294.5 -117.5t-118.5 -296.5q0 -182 119 -299.5
t294 -117.5zM686 1192q0 -52 -27.5 -90t-78.5 -53l133 -215h-88l-117 206h-41v-202h-80v497h121q80 0 129 -36.5t49 -106.5zM467 1268v-162h31q48 0 77 20.5t29 63.5q0 78 -108 78h-29z" />
    <glyph glyph-name="macron" unicode="&#xaf;" horiz-adv-x="794" 
d="M688 1276h-584v129h584v-129z" />
    <glyph glyph-name="degree" unicode="&#xb0;" horiz-adv-x="870" 
d="M436 868q-146 0 -249 102t-103 247q0 147 103.5 249.5t250.5 102.5q141 0 244.5 -103.5t103.5 -244.5q0 -145 -103 -249t-247 -104zM436 993q93 0 159.5 67.5t66.5 160.5q0 92 -67.5 157.5t-158.5 65.5q-95 0 -161 -65t-66 -158q0 -95 66.5 -161.5t160.5 -66.5z" />
    <glyph glyph-name="plusminus" unicode="&#xb1;" horiz-adv-x="1255" 
d="M696 401h-137v410h-455v135h455v410h137v-410h457v-135h-457v-410zM1155 113h-1049v135h1049v-135z" />
    <glyph glyph-name="two.sups" unicode="&#xb2;" horiz-adv-x="819" 
d="M535 1243l-218 -209q61 0 202 2t208 2v-116h-686v4l358 348q94 92 142.5 160.5t48.5 140.5q0 75 -49.5 123.5t-130.5 48.5q-86 0 -138.5 -54.5t-54.5 -144.5h-133q6 148 92.5 230t233.5 82q142 0 228.5 -76t86.5 -205q0 -53 -14.5 -99.5t-46 -90.5t-57.5 -72.5t-72 -73.5
z" />
    <glyph glyph-name="three.sups" unicode="&#xb3;" horiz-adv-x="837" 
d="M414 905q-134 0 -224 72.5t-96 200.5h137q4 -74 57 -120t126 -46q78 0 130 47.5t52 128.5q0 73 -55 119.5t-131 46.5h-23v102h16q68 0 117 45.5t49 112.5q0 66 -42 104.5t-105 38.5q-70 0 -113.5 -41t-46.5 -110h-135q9 125 89 191.5t210 66.5q110 0 194.5 -64t84.5 -174
q0 -74 -44.5 -132t-119.5 -83q86 -23 138 -82.5t52 -146.5q0 -90 -46.5 -154.5t-117 -93.5t-153.5 -29z" />
    <glyph glyph-name="acute" unicode="&#xb4;" horiz-adv-x="538" 
d="M485 1448l-344 -307l-88 57l279 334z" />
    <glyph glyph-name="uni00B5" unicode="&#xb5;" horiz-adv-x="1155" 
d="M344 -537h-164v1491h164v-546q0 -137 54.5 -212t164.5 -75q248 0 248 340v493h164v-954h-164v141h-2q-34 -72 -94 -120t-146 -48q-160 0 -221 156h-4v-666z" />
    <glyph glyph-name="paragraph" unicode="&#xb6;" horiz-adv-x="1232" 
d="M586 -256h-156v1087q-167 0 -260.5 97t-93.5 254q0 174 102.5 268t302.5 94h486v-1800h-156v1642h-225v-1642z" />
    <glyph glyph-name="periodcentered" unicode="&#xb7;" horiz-adv-x="600" 
d="M299 647q-46 0 -77.5 32.5t-31.5 78.5t31.5 77t77.5 31t78.5 -31.5t32.5 -76.5q0 -46 -32.5 -78.5t-78.5 -32.5z" />
    <glyph glyph-name="cedilla" unicode="&#xb8;" horiz-adv-x="473" 
d="M385 -141l-219 -293l-100 59l194 307z" />
    <glyph glyph-name="one.sups" unicode="&#xb9;" horiz-adv-x="475" 
d="M324 922h-138v807h-149l53 118h234v-925z" />
    <glyph glyph-name="ordmasculine" unicode="&#xba;" horiz-adv-x="747" 
d="M373 938q-140 0 -235 86t-95 225q0 137 96 223.5t234 86.5q141 0 236.5 -86.5t95.5 -223.5q0 -139 -95.5 -225t-236.5 -86zM373 1047q86 0 143 57t57 145q0 87 -56.5 145t-143.5 58q-85 0 -142 -58.5t-57 -144.5q0 -87 57.5 -144.5t141.5 -57.5z" />
    <glyph glyph-name="guillemotright" unicode="&#xbb;" horiz-adv-x="1130" 
d="M629 485l-377 -483l-109 84l316 401l-316 404l109 80zM1012 485l-377 -483l-109 84l316 401l-316 404l109 80z" />
    <glyph glyph-name="onequarter" unicode="&#xbc;" horiz-adv-x="1589" 
d="M213 8l909 1544l82 -47l-907 -1546zM324 1544v-926h-138v807h-149l53 119h234zM1415 956v-665h129v-103h-129v-188h-119v188l-503 -2v7l616 763h6zM999 291h297v235q0 54 7 154z" />
    <glyph glyph-name="onehalf" unicode="&#xbd;" horiz-adv-x="1767" 
d="M213 8l909 1544l80 -47l-907 -1546zM324 1544v-926h-138v807h-149l53 119h234zM1481 322l-217 -209q60 0 201 2t208 2v-117h-686v4l359 348q94 92 142 160.5t48 140.5q0 75 -49.5 123.5t-130.5 48.5q-86 0 -138.5 -54.5t-54.5 -143.5h-133q6 148 92.5 229.5t233.5 81.5
q142 0 228.5 -76t86.5 -205q0 -53 -14.5 -99t-46.5 -90.5t-57 -72t-72 -73.5z" />
    <glyph glyph-name="threequarters" unicode="&#xbe;" horiz-adv-x="1966" 
d="M731 879q0 -90 -46.5 -154.5t-117 -93.5t-153.5 -29q-134 0 -224 72t-96 200h137q4 -74 56.5 -119.5t126.5 -45.5q78 0 130 47.5t52 128.5q0 73 -55 119.5t-131 46.5h-23v102h16q68 0 117 45.5t49 112.5q0 66 -42 104.5t-105 38.5q-70 0 -113.5 -41t-46.5 -110h-135
q9 125 89 191.5t210 66.5q110 0 194.5 -64t84.5 -174q0 -74 -44.5 -132t-119.5 -83q86 -23 138 -82.5t52 -146.5zM578 8l907 1544l82 -47l-908 -1546zM1790 956v-665h129v-103h-129v-188h-117v188l-506 -2v7l617 763h6zM1374 291h299v235q0 38 4 156z" />
    <glyph glyph-name="questiondown" unicode="&#xbf;" horiz-adv-x="1005" 
d="M504 942q-45 0 -77 32t-32 77t32.5 77.5t76.5 32.5q46 0 78 -32t32 -78t-32 -77.5t-78 -31.5zM504 -428q-157 0 -260 101t-103 253q0 77 23.5 136.5t69.5 100t94.5 66.5t117.5 50q120 44 171 86t51 112q0 66 -45.5 109t-114.5 43t-111.5 -46t-46.5 -132h-166
q1 102 46.5 178.5t119 114.5t162.5 38q139 0 229 -88t90 -219q0 -64 -20.5 -115t-63 -90.5t-95.5 -69t-128 -59.5q-133 -55 -175 -95.5t-42 -123.5q0 -89 53.5 -141.5t141.5 -52.5q90 0 145 52.5t55 143.5q0 35 -14 96h168q10 -44 10 -94q0 -154 -103 -254t-259 -100z" />
    <glyph glyph-name="Agrave" unicode="&#xc0;" horiz-adv-x="1431" 
d="M629 2038l301 -314l-88 -65l-359 283zM1430 0h-187l-182 436h-690l-187 -436h-182l723 1626h4zM578 918l-138 -322h553l-135 324q-74 172 -135 329q-62 -145 -145 -331z" />
    <glyph glyph-name="Aacute" unicode="&#xc1;" horiz-adv-x="1431" 
d="M831 2036l148 -97l-361 -278l-83 63zM1430 0h-187l-182 436h-690l-187 -436h-182l723 1626h4zM578 918l-138 -322h553l-135 324q-74 172 -135 329q-62 -145 -145 -331z" />
    <glyph glyph-name="Acircumflex" unicode="&#xc2;" horiz-adv-x="1431" 
d="M944 1663l-219 170l-217 -170l-111 88l328 266l332 -266zM1430 0h-187l-182 436h-690l-187 -436h-182l723 1626h4zM578 918l-138 -322h553l-135 324q-74 172 -135 329q-62 -145 -145 -331z" />
    <glyph glyph-name="Atilde" unicode="&#xc3;" horiz-adv-x="1431" 
d="M580 1792q-63 0 -119 -106l-94 79q54 94 102 132t119 38q40 0 95 -28t105.5 -56t79.5 -28q64 0 125 112l94 -75q-80 -174 -227 -174q-50 0 -146 53t-134 53zM1430 0h-187l-182 436h-690l-187 -436h-182l723 1626h4zM578 918l-138 -322h553l-135 324q-74 172 -135 329
q-62 -145 -145 -331z" />
    <glyph glyph-name="Adieresis" unicode="&#xc4;" horiz-adv-x="1431" 
d="M524 1712q-46 0 -78 32t-32 77t33 76.5t77 31.5q42 0 75.5 -31.5t33.5 -76.5q0 -46 -33 -77.5t-76 -31.5zM928 1712q-45 0 -77 31t-32 78q0 46 33.5 77t75.5 31q44 0 77 -32t33 -76q0 -46 -33 -77.5t-77 -31.5zM1430 0h-187l-182 436h-690l-187 -436h-182l723 1626h4z
M578 918l-138 -322h553l-135 324q-74 172 -135 329q-62 -145 -145 -331z" />
    <glyph glyph-name="Aring" unicode="&#xc5;" horiz-adv-x="1431" 
d="M1430 0h-187l-182 436h-690l-187 -436h-182l713 1604q-83 5 -142 65t-59 148q0 91 62.5 151t150.5 60t149.5 -60t61.5 -151q0 -88 -58 -148t-141 -65zM604 1817q0 -55 36 -89t87 -34t87 34t36 89t-36 88.5t-87 33.5t-87 -33.5t-36 -88.5zM578 918l-138 -322h553l-135 324
q-74 172 -135 329q-62 -145 -145 -331z" />
    <glyph glyph-name="AE" unicode="&#xc6;" horiz-adv-x="2033" 
d="M1346 160h618l70 -160h-793l-182 432h-684l-187 -432h-186l705 1544h665l70 -160h-611l193 -460h612l70 -160h-612zM649 1051l-198 -459h540l-192 459q-32 74 -72 172q-14 -29 -39.5 -86t-38.5 -86z" />
    <glyph glyph-name="Ccedilla" unicode="&#xc7;" horiz-adv-x="1505" 
d="M926 -29q-164 0 -311.5 62.5t-253 168.5t-167 253.5t-61.5 312.5t62.5 313.5t169 256.5t257 171.5t318.5 63.5q235 0 436 -131v-201q-203 172 -448 172q-129 0 -245 -50t-199 -136t-132 -205t-49 -252q0 -132 49 -250.5t132.5 -203.5t199.5 -135t246 -50
q132 0 233.5 41.5t210.5 136.5v-205q-201 -133 -448 -133zM954 -141l-219 -293l-98 59l194 307z" />
    <glyph glyph-name="Egrave" unicode="&#xc8;" horiz-adv-x="1218" 
d="M846 1724l-88 -65l-359 283l146 96zM1026 0h-805v1544h805v-160h-635v-460h615v-160h-615v-604h635v-160z" />
    <glyph glyph-name="Eacute" unicode="&#xc9;" horiz-adv-x="1218" 
d="M895 1939l-360 -278l-84 63l297 312zM1026 0h-805v1544h805v-160h-635v-460h615v-160h-615v-604h635v-160z" />
    <glyph glyph-name="Ecircumflex" unicode="&#xca;" horiz-adv-x="1218" 
d="M641 1833l-217 -170l-111 88l328 266l332 -266l-113 -88zM1026 0h-805v1544h805v-160h-635v-460h615v-160h-615v-604h635v-160z" />
    <glyph glyph-name="Edieresis" unicode="&#xcb;" horiz-adv-x="1218" 
d="M440 1712q-46 0 -78 32t-32 77t33 76.5t77 31.5q42 0 75.5 -31.5t33.5 -76.5q0 -46 -33 -77.5t-76 -31.5zM844 1712q-45 0 -77 31t-32 78q0 46 33.5 77t75.5 31q44 0 77 -32t33 -76q0 -46 -33 -77.5t-77 -31.5zM1026 0h-805v1544h805v-160h-635v-460h615v-160h-615v-604
h635v-160z" />
    <glyph glyph-name="Igrave" unicode="&#xcc;" horiz-adv-x="614" 
d="M512 1724l-88 -65l-358 283l145 96zM391 0h-170v1544h170v-1544z" />
    <glyph glyph-name="Iacute" unicode="&#xcd;" horiz-adv-x="614" 
d="M561 1939l-360 -278l-84 63l297 312zM391 0h-170v1544h170v-1544z" />
    <glyph glyph-name="Icircumflex" unicode="&#xce;" horiz-adv-x="614" 
d="M307 1833l-217 -170l-110 88l327 266l332 -266l-113 -88zM391 0h-170v1544h170v-1544z" />
    <glyph glyph-name="Idieresis" unicode="&#xcf;" horiz-adv-x="614" 
d="M106 1712q-46 0 -78 32t-32 77t33 76.5t77 31.5q42 0 75.5 -31.5t33.5 -76.5q0 -46 -33 -77.5t-76 -31.5zM510 1712q-45 0 -77 31t-32 78q0 46 33.5 77t75.5 31q45 0 78 -32t33 -76q0 -46 -33.5 -77.5t-77.5 -31.5zM391 0h-170v1544h170v-1544z" />
    <glyph glyph-name="Eth" unicode="&#xd0;" horiz-adv-x="1499" 
d="M221 1544h268q266 0 463 -89t305.5 -264t108.5 -417q0 -246 -110.5 -421.5t-310.5 -264t-472 -88.5h-252v700h-186v146h186v698zM391 160h94q331 0 521 160t190 454t-180 452t-518 158h-107v-538h320v-146h-320v-540z" />
    <glyph glyph-name="Ntilde" unicode="&#xd1;" horiz-adv-x="1746" 
d="M729 1792q-63 0 -119 -106l-94 79q54 94 102 132t119 38q40 0 95.5 -28t106 -56t79.5 -28q64 0 125 112l94 -75q-80 -174 -227 -174q-50 0 -146.5 53t-134.5 53zM1356 342v1202h170v-1618h-6l-1129 1284v-1210h-170v1626h8z" />
    <glyph glyph-name="Ograve" unicode="&#xd2;" horiz-adv-x="1865" 
d="M1135 1724l-88 -65l-359 283l146 96zM926 -29q-157 0 -302 61.5t-253 167.5t-173 256.5t-65 319.5q0 162 64.5 310t173 254.5t256.5 169.5t309 63q160 0 306.5 -62.5t254.5 -169t172 -256t64 -315.5q0 -164 -65 -312.5t-174 -255t-257.5 -169t-310.5 -62.5zM928 133
q172 0 317.5 83.5t231.5 231t86 324.5q0 180 -85.5 327.5t-230.5 230.5t-315 83q-168 0 -312.5 -84t-230.5 -231.5t-86 -323.5q0 -136 52 -257t138 -204t200 -131.5t235 -48.5z" />
    <glyph glyph-name="Oacute" unicode="&#xd3;" horiz-adv-x="1865" 
d="M1184 1939l-361 -278l-84 63l297 312zM926 -29q-157 0 -302 61.5t-253 167.5t-173 256.5t-65 319.5q0 162 64.5 310t173 254.5t256.5 169.5t309 63q160 0 306.5 -62.5t254.5 -169t172 -256t64 -315.5q0 -164 -65 -312.5t-174 -255t-257.5 -169t-310.5 -62.5zM928 133
q172 0 317.5 83.5t231.5 231t86 324.5q0 180 -85.5 327.5t-230.5 230.5t-315 83q-168 0 -312.5 -84t-230.5 -231.5t-86 -323.5q0 -136 52 -257t138 -204t200 -131.5t235 -48.5z" />
    <glyph glyph-name="Ocircumflex" unicode="&#xd4;" horiz-adv-x="1865" 
d="M930 1833l-217 -170l-111 88l328 266l332 -266l-113 -88zM926 -29q-157 0 -302 61.5t-253 167.5t-173 256.5t-65 319.5q0 162 64.5 310t173 254.5t256.5 169.5t309 63q160 0 306.5 -62.5t254.5 -169t172 -256t64 -315.5q0 -164 -65 -312.5t-174 -255t-257.5 -169
t-310.5 -62.5zM928 133q172 0 317.5 83.5t231.5 231t86 324.5q0 180 -85.5 327.5t-230.5 230.5t-315 83q-168 0 -312.5 -84t-230.5 -231.5t-86 -323.5q0 -136 52 -257t138 -204t200 -131.5t235 -48.5z" />
    <glyph glyph-name="Otilde" unicode="&#xd5;" horiz-adv-x="1865" 
d="M1067 1686q-50 0 -146.5 53t-134.5 53q-35 0 -62.5 -26.5t-55.5 -79.5l-95 79q54 94 102 132t120 38q40 0 95 -28t105.5 -56t79.5 -28q64 0 125 112l94 -75q-80 -174 -227 -174zM926 -29q-157 0 -302 61.5t-253 167.5t-173 256.5t-65 319.5q0 162 64.5 310t173 254.5
t256.5 169.5t309 63q160 0 306.5 -62.5t254.5 -169t172 -256t64 -315.5q0 -164 -65 -312.5t-174 -255t-257.5 -169t-310.5 -62.5zM928 133q172 0 317.5 83.5t231.5 231t86 324.5q0 180 -85.5 327.5t-230.5 230.5t-315 83q-168 0 -312.5 -84t-230.5 -231.5t-86 -323.5
q0 -136 52 -257t138 -204t200 -131.5t235 -48.5z" />
    <glyph glyph-name="Odieresis" unicode="&#xd6;" horiz-adv-x="1865" 
d="M731 1712q-45 0 -77.5 32t-32.5 77t33 76.5t77 31.5q42 0 75.5 -31.5t33.5 -76.5q0 -46 -33 -77.5t-76 -31.5zM1135 1712q-45 0 -77 31t-32 78q0 46 33.5 77t75.5 31q44 0 77 -32t33 -76q0 -46 -33 -77.5t-77 -31.5zM926 -29q-157 0 -302 61.5t-253 167.5t-173 256.5
t-65 319.5q0 162 64.5 310t173 254.5t256.5 169.5t309 63q160 0 306.5 -62.5t254.5 -169t172 -256t64 -315.5q0 -164 -65 -312.5t-174 -255t-257.5 -169t-310.5 -62.5zM928 133q172 0 317.5 83.5t231.5 231t86 324.5q0 180 -85.5 327.5t-230.5 230.5t-315 83
q-168 0 -312.5 -84t-230.5 -231.5t-86 -323.5q0 -136 52 -257t138 -204t200 -131.5t235 -48.5z" />
    <glyph glyph-name="multiply" unicode="&#xd7;" horiz-adv-x="1261" 
d="M629 545l-342 -344l-94 92l344 344l-344 342l94 94l342 -344l344 344l92 -94l-342 -342l344 -344l-94 -92z" />
    <glyph glyph-name="Oslash" unicode="&#xd8;" horiz-adv-x="1865" 
d="M1696 1450l-156 -156q92 -107 142.5 -241t50.5 -283q0 -164 -65 -312.5t-174 -255t-257.5 -169t-310.5 -62.5q-144 0 -278.5 51.5t-241.5 145.5l-168 -166l-97 98l170 168q-178 220 -178 508q0 162 64.5 310t173 254.5t256.5 169.5t309 63q139 0 269 -47.5t235 -134.5
l157 157zM303 774q0 -222 127 -387l895 889q-174 137 -393 137q-168 0 -312.5 -84t-230.5 -231.5t-86 -323.5zM928 133q172 0 317.5 83.5t231.5 231t86 324.5q0 229 -140 406l-899 -891q84 -74 188 -114t216 -40z" />
    <glyph glyph-name="Ugrave" unicode="&#xd9;" horiz-adv-x="1492" 
d="M950 1724l-88 -65l-358 283l145 96zM745 -29q-158 0 -281 68.5t-193 200t-70 307.5v997h170v-981q0 -212 100 -321t274 -109q175 0 276 109.5t101 326.5v975h170v-997q0 -266 -152 -421t-395 -155z" />
    <glyph glyph-name="Uacute" unicode="&#xda;" horiz-adv-x="1492" 
d="M999 1939l-360 -278l-84 63l297 312zM745 -29q-158 0 -281 68.5t-193 200t-70 307.5v997h170v-981q0 -212 100 -321t274 -109q175 0 276 109.5t101 326.5v975h170v-997q0 -266 -152 -421t-395 -155z" />
    <glyph glyph-name="Ucircumflex" unicode="&#xdb;" horiz-adv-x="1492" 
d="M745 1833l-217 -170l-110 88l327 266l332 -266l-112 -88zM745 -29q-158 0 -281 68.5t-193 200t-70 307.5v997h170v-981q0 -212 100 -321t274 -109q175 0 276 109.5t101 326.5v975h170v-997q0 -266 -152 -421t-395 -155z" />
    <glyph glyph-name="Udieresis" unicode="&#xdc;" horiz-adv-x="1492" 
d="M547 1712q-46 0 -78.5 32.5t-32.5 76.5q0 45 33.5 76.5t77.5 31.5q42 0 75 -31.5t33 -76.5q0 -46 -32.5 -77.5t-75.5 -31.5zM950 1712q-45 0 -76.5 31t-31.5 78q0 46 33 77t75 31q45 0 78 -32t33 -76q0 -46 -33.5 -77.5t-77.5 -31.5zM745 -29q-158 0 -281 68.5t-193 200
t-70 307.5v997h170v-981q0 -212 100 -321t274 -109q175 0 276 109.5t101 326.5v975h170v-997q0 -266 -152 -421t-395 -155z" />
    <glyph glyph-name="Yacute" unicode="&#xdd;" horiz-adv-x="1181" 
d="M844 1939l-361 -278l-84 63l297 312zM676 0h-170v678l-504 866h195l395 -690l393 690h197l-506 -866v-678z" />
    <glyph glyph-name="Thorn" unicode="&#xde;" horiz-adv-x="1105" 
d="M391 0h-170v1544h170v-282h66q133 0 234 -23t178 -73.5t117 -136.5t40 -206q0 -209 -138 -327.5t-372 -118.5h-125v-377zM391 1106v-571h111q175 0 267.5 72.5t92.5 217.5q0 141 -96 211t-277 70h-98z" />
    <glyph glyph-name="germandbls" unicode="&#xdf;" horiz-adv-x="1314" 
d="M862 961q167 -52 253.5 -169.5t86.5 -281.5q0 -113 -39.5 -211t-111 -170t-178 -113.5t-234.5 -42.5h-8v154h8q181 4 289 111t108 272q0 159 -99 253t-298 107v150q132 1 209.5 77t77.5 197q0 116 -75.5 187t-197.5 71q-132 0 -202 -80.5t-70 -234.5v-1237h-164v801h-176
v153h176v283q0 224 119.5 343.5t316.5 119.5q190 0 312 -109.5t122 -292.5q0 -124 -59.5 -213t-165.5 -124z" />
    <glyph glyph-name="agrave" unicode="&#xe0;" horiz-adv-x="1280" 
d="M766 1198l-90 -57l-342 307l151 84zM586 -29q-203 0 -339 146t-136 362q0 139 62 254t170 180.5t239 65.5q225 0 352 -188h2v163h164v-954h-164v164h-2q-134 -193 -348 -193zM610 119q145 0 240.5 101t95.5 257q0 154 -95.5 255.5t-240.5 101.5q-143 0 -237 -102
t-94 -253q0 -158 91.5 -259t239.5 -101z" />
    <glyph glyph-name="aacute" unicode="&#xe1;" horiz-adv-x="1280" 
d="M895 1448l-344 -307l-88 57l278 334zM586 -29q-203 0 -339 146t-136 362q0 139 62 254t170 180.5t239 65.5q225 0 352 -188h2v163h164v-954h-164v164h-2q-134 -193 -348 -193zM610 119q145 0 240.5 101t95.5 257q0 154 -95.5 255.5t-240.5 101.5q-143 0 -237 -102
t-94 -253q0 -158 91.5 -259t239.5 -101z" />
    <glyph glyph-name="acircumflex" unicode="&#xe2;" horiz-adv-x="1280" 
d="M627 1339l-217 -198l-111 88l328 295l331 -295l-112 -88zM586 -29q-203 0 -339 146t-136 362q0 139 62 254t170 180.5t239 65.5q225 0 352 -188h2v163h164v-954h-164v164h-2q-134 -193 -348 -193zM610 119q145 0 240.5 101t95.5 257q0 154 -95.5 255.5t-240.5 101.5
q-143 0 -237 -102t-94 -253q0 -158 91.5 -259t239.5 -101z" />
    <glyph glyph-name="atilde" unicode="&#xe3;" horiz-adv-x="1280" 
d="M764 1178q-40 0 -94 27t-104.5 54t-84.5 27t-60.5 -26.5t-55.5 -81.5l-97 79q56 94 104.5 132t119.5 38q39 0 93.5 -28t105 -56t79.5 -28q64 0 125 112l96 -75q-80 -174 -227 -174zM586 -29q-203 0 -339 146t-136 362q0 139 62 254t170 180.5t239 65.5q225 0 352 -188h2
v163h164v-954h-164v164h-2q-134 -193 -348 -193zM610 119q145 0 240.5 101t95.5 257q0 154 -95.5 255.5t-240.5 101.5q-143 0 -237 -102t-94 -253q0 -158 91.5 -259t239.5 -101z" />
    <glyph glyph-name="adieresis" unicode="&#xe4;" horiz-adv-x="1280" 
d="M426 1208q-44 0 -76.5 32.5t-32.5 76.5q0 45 33.5 76.5t75.5 31.5q44 0 76.5 -31.5t32.5 -76.5q0 -46 -32.5 -77.5t-76.5 -31.5zM831 1208q-45 0 -76.5 31t-31.5 78q0 46 32.5 77t75.5 31t77 -32t34 -76q0 -46 -33.5 -77.5t-77.5 -31.5zM586 -29q-203 0 -339 146
t-136 362q0 139 62 254t170 180.5t239 65.5q225 0 352 -188h2v163h164v-954h-164v164h-2q-134 -193 -348 -193zM610 119q145 0 240.5 101t95.5 257q0 154 -95.5 255.5t-240.5 101.5q-143 0 -237 -102t-94 -253q0 -158 91.5 -259t239.5 -101z" />
    <glyph glyph-name="aring" unicode="&#xe5;" horiz-adv-x="1280" 
d="M631 1133q-94 0 -162 65t-68 162t68 162t162 65t160.5 -65t66.5 -162t-66.5 -162t-160.5 -65zM631 1237q51 0 86 34t35 89t-35 89t-86 34q-52 0 -87.5 -33.5t-35.5 -89.5t35.5 -89.5t87.5 -33.5zM586 -29q-203 0 -339 146t-136 362q0 139 62 254t170 180.5t239 65.5
q225 0 352 -188h2v163h164v-954h-164v164h-2q-134 -193 -348 -193zM610 119q145 0 240.5 101t95.5 257q0 154 -95.5 255.5t-240.5 101.5q-143 0 -237 -102t-94 -253q0 -158 91.5 -259t239.5 -101z" />
    <glyph glyph-name="ae" unicode="&#xe6;" horiz-adv-x="1765" 
d="M1653 492v-46h-744q5 -146 86.5 -235.5t216.5 -89.5q96 0 162 42t127 132l131 -80q-74 -122 -175.5 -181t-250.5 -59q-124 0 -221.5 54.5t-153.5 152.5q-99 -207 -374 -207q-158 0 -257.5 87t-99.5 235q0 149 101.5 233t269.5 84q175 0 274 -96v82q0 117 -60 175.5
t-169 58.5q-146 0 -280 -78l-62 135q170 90 365 90q240 0 313 -184q59 87 151 135.5t203 48.5q139 0 241.5 -64.5t154 -174t51.5 -250.5zM920 582h567q-11 109 -87 180.5t-194 71.5q-112 0 -188.5 -69t-97.5 -183zM492 102q112 0 184 55.5t72 147.5q0 88 -69 135t-181 47
q-102 0 -166 -49.5t-64 -142.5q0 -94 61 -143.5t163 -49.5z" />
    <glyph glyph-name="ccedilla" unicode="&#xe7;" horiz-adv-x="989" 
d="M623 -29q-228 0 -370 142.5t-142 361.5q0 218 143 362t369 144q157 0 264 -72v-186q-58 57 -122.5 84t-148.5 27q-151 0 -244 -101t-93 -256q0 -157 90 -257.5t245 -100.5q152 0 273 106v-178q-111 -76 -264 -76zM717 -141l-219 -293l-99 59l195 307z" />
    <glyph glyph-name="egrave" unicode="&#xe8;" horiz-adv-x="1136" 
d="M432 1532l281 -334l-90 -57l-342 307zM1026 492v-46h-743q3 -145 86 -236t219 -91q171 0 274 155l131 -77q-64 -109 -162.5 -167.5t-248.5 -58.5q-211 0 -341 140.5t-130 365.5q0 222 130 363t337 141q209 0 328.5 -137t119.5 -352zM293 582h563q-9 109 -84 180.5
t-192 71.5q-115 0 -191.5 -70t-95.5 -182z" />
    <glyph glyph-name="eacute" unicode="&#xe9;" horiz-adv-x="1136" 
d="M686 1532l154 -84l-344 -307l-88 57zM1026 492v-46h-743q3 -145 86 -236t219 -91q171 0 274 155l131 -77q-64 -109 -162.5 -167.5t-248.5 -58.5q-211 0 -341 140.5t-130 365.5q0 222 130 363t337 141q209 0 328.5 -137t119.5 -352zM293 582h563q-9 109 -84 180.5
t-192 71.5q-115 0 -191.5 -70t-95.5 -182z" />
    <glyph glyph-name="ecircumflex" unicode="&#xea;" horiz-adv-x="1136" 
d="M793 1141l-220 198l-217 -198l-110 88l327 295l332 -295zM1026 492v-46h-743q3 -145 86 -236t219 -91q171 0 274 155l131 -77q-64 -109 -162.5 -167.5t-248.5 -58.5q-211 0 -341 140.5t-130 365.5q0 222 130 363t337 141q209 0 328.5 -137t119.5 -352zM293 582h563
q-9 109 -84 180.5t-192 71.5q-115 0 -191.5 -70t-95.5 -182z" />
    <glyph glyph-name="edieresis" unicode="&#xeb;" horiz-adv-x="1136" 
d="M371 1208q-44 0 -76.5 32.5t-32.5 76.5q0 45 33.5 76.5t75.5 31.5q43 0 75.5 -31.5t32.5 -76.5q0 -46 -32 -77.5t-76 -31.5zM776 1208q-45 0 -76.5 31t-31.5 78q0 46 32.5 77t75.5 31t77 -32t34 -76q0 -46 -33.5 -77.5t-77.5 -31.5zM1026 492v-46h-743q3 -145 86 -236
t219 -91q171 0 274 155l131 -77q-64 -109 -162.5 -167.5t-248.5 -58.5q-211 0 -341 140.5t-130 365.5q0 222 130 363t337 141q209 0 328.5 -137t119.5 -352zM293 582h563q-9 109 -84 180.5t-192 71.5q-115 0 -191.5 -70t-95.5 -182z" />
    <glyph glyph-name="igrave" unicode="&#xec;" horiz-adv-x="524" 
d="M399 1198l-90 -57l-342 307l152 84zM344 0h-164v954h164v-954z" />
    <glyph glyph-name="iacute" unicode="&#xed;" horiz-adv-x="524" 
d="M526 1448l-344 -307l-88 57l279 334zM344 0h-164v954h164v-954z" />
    <glyph glyph-name="icircumflex" unicode="&#xee;" horiz-adv-x="524" 
d="M260 1339l-217 -198l-111 88l328 295l332 -295l-113 -88zM344 0h-164v954h164v-954z" />
    <glyph glyph-name="idieresis" unicode="&#xef;" horiz-adv-x="524" 
d="M59 1208q-44 0 -76 32.5t-32 76.5q0 45 33 76.5t75 31.5q44 0 76.5 -31.5t32.5 -76.5q0 -46 -32.5 -77.5t-76.5 -31.5zM465 1208q-45 0 -77 31t-32 78q0 46 33 77t76 31t76.5 -32t33.5 -76q0 -46 -33 -77.5t-77 -31.5zM344 0h-164v954h164v-954z" />
    <glyph glyph-name="eth" unicode="&#xf0;" horiz-adv-x="1239" 
d="M872 1501l-176 -92q197 -179 311.5 -408.5t114.5 -463.5q0 -270 -137.5 -418t-363.5 -148q-142 0 -258.5 64.5t-184 180.5t-67.5 259q0 216 144.5 360t360.5 144q76 0 148.5 -27t118.5 -75q-104 263 -332 456l-246 -129l-61 107l198 104q-134 90 -286 148l82 129
q179 -66 356 -197l221 117zM616 119q152 0 246 101.5t94 275.5q0 147 -95 241t-243 94q-149 0 -244 -99.5t-95 -252.5q0 -162 93.5 -261t243.5 -99z" />
    <glyph glyph-name="ntilde" unicode="&#xf1;" horiz-adv-x="1140" 
d="M705 1178q-40 0 -94 27t-104.5 54t-84.5 27t-61 -27t-56 -81l-96 79q56 94 104 132t119 38q39 0 94 -28t105.5 -56t79.5 -28q64 0 125 112l96 -75q-80 -174 -227 -174zM344 0h-164v954h164v-137h4q106 164 301 164q161 0 243.5 -98t82.5 -285v-598h-164v561
q0 142 -52.5 207.5t-160.5 65.5q-120 0 -187 -81t-67 -245v-508z" />
    <glyph glyph-name="ograve" unicode="&#xf2;" horiz-adv-x="1234" 
d="M756 1198l-90 -57l-342 307l151 84zM612 -29q-144 0 -259 66.5t-178.5 183t-63.5 260.5q0 136 63.5 250t180 182t261.5 68q220 0 363 -144.5t143 -359.5q0 -217 -143 -361.5t-367 -144.5zM616 119q150 0 245 99.5t95 258.5q0 154 -95.5 255.5t-244.5 101.5
q-147 0 -242 -101t-95 -254q0 -161 93 -260.5t244 -99.5z" />
    <glyph glyph-name="oacute" unicode="&#xf3;" horiz-adv-x="1234" 
d="M883 1448l-344 -307l-88 57l278 334zM612 -29q-144 0 -259 66.5t-178.5 183t-63.5 260.5q0 136 63.5 250t180 182t261.5 68q220 0 363 -144.5t143 -359.5q0 -217 -143 -361.5t-367 -144.5zM616 119q150 0 245 99.5t95 258.5q0 154 -95.5 255.5t-244.5 101.5
q-147 0 -242 -101t-95 -254q0 -161 93 -260.5t244 -99.5z" />
    <glyph glyph-name="ocircumflex" unicode="&#xf4;" horiz-adv-x="1234" 
d="M616 1339l-217 -198l-110 88l327 295l332 -295l-112 -88zM612 -29q-144 0 -259 66.5t-178.5 183t-63.5 260.5q0 136 63.5 250t180 182t261.5 68q220 0 363 -144.5t143 -359.5q0 -217 -143 -361.5t-367 -144.5zM616 119q150 0 245 99.5t95 258.5q0 154 -95.5 255.5
t-244.5 101.5q-147 0 -242 -101t-95 -254q0 -161 93 -260.5t244 -99.5z" />
    <glyph glyph-name="otilde" unicode="&#xf5;" horiz-adv-x="1234" 
d="M752 1178q-40 0 -94 27t-104.5 54t-84.5 27q-35 0 -61.5 -27t-55.5 -81l-96 79q56 94 104 132t119 38q39 0 94 -28t105.5 -56t79.5 -28q64 0 125 112l96 -75q-80 -174 -227 -174zM612 -29q-144 0 -259 66.5t-178.5 183t-63.5 260.5q0 136 63.5 250t180 182t261.5 68
q220 0 363 -144.5t143 -359.5q0 -217 -143 -361.5t-367 -144.5zM616 119q150 0 245 99.5t95 258.5q0 154 -95.5 255.5t-244.5 101.5q-147 0 -242 -101t-95 -254q0 -161 93 -260.5t244 -99.5z" />
    <glyph glyph-name="odieresis" unicode="&#xf6;" horiz-adv-x="1234" 
d="M414 1208q-44 0 -76.5 32.5t-32.5 76.5q0 45 33.5 76.5t75.5 31.5q43 0 75.5 -31.5t32.5 -76.5q0 -46 -32 -77.5t-76 -31.5zM819 1208q-45 0 -76.5 31t-31.5 78q0 46 32.5 77t75.5 31t77 -32t34 -76q0 -46 -33.5 -77.5t-77.5 -31.5zM612 -29q-144 0 -259 66.5t-178.5 183
t-63.5 260.5q0 136 63.5 250t180 182t261.5 68q220 0 363 -144.5t143 -359.5q0 -217 -143 -361.5t-367 -144.5zM616 119q150 0 245 99.5t95 258.5q0 154 -95.5 255.5t-244.5 101.5q-147 0 -242 -101t-95 -254q0 -161 93 -260.5t244 -99.5z" />
    <glyph glyph-name="divide" unicode="&#xf7;" horiz-adv-x="1257" 
d="M629 924q-46 0 -78.5 31.5t-32.5 76.5q0 46 32.5 78.5t78.5 32.5q44 0 76 -32.5t32 -78.5q0 -45 -31.5 -76.5t-76.5 -31.5zM1153 561h-1049v135h1049v-135zM629 117q-46 0 -78.5 32t-32.5 78t32.5 77.5t78.5 31.5q45 0 76.5 -32t31.5 -77q0 -46 -32 -78t-76 -32z" />
    <glyph glyph-name="oslash" unicode="&#xf8;" horiz-adv-x="1234" 
d="M1081 1020l78 -78l-145 -145q108 -133 108 -320q0 -217 -143 -361.5t-367 -144.5q-178 0 -315 105l-145 -148l-76 78l145 146q-110 138 -110 329q0 136 63.5 250t180 182t261.5 68q188 0 320 -107zM279 479q0 -120 55 -213l493 498q-89 70 -211 70q-148 0 -242.5 -101
t-94.5 -254zM956 477q0 115 -55 205l-493 -496q86 -67 208 -67q150 0 245 99.5t95 258.5z" />
    <glyph glyph-name="ugrave" unicode="&#xf9;" horiz-adv-x="1101" 
d="M690 1198l-90 -57l-342 307l152 84zM551 -27q-186 0 -285.5 106.5t-99.5 315.5v559h164v-553q0 -141 53 -210.5t168 -69.5q223 0 223 280v553h164v-559q0 -199 -97.5 -310.5t-289.5 -111.5z" />
    <glyph glyph-name="uacute" unicode="&#xfa;" horiz-adv-x="1101" 
d="M817 1448l-344 -307l-88 57l279 334zM551 -27q-186 0 -285.5 106.5t-99.5 315.5v559h164v-553q0 -141 53 -210.5t168 -69.5q223 0 223 280v553h164v-559q0 -199 -97.5 -310.5t-289.5 -111.5z" />
    <glyph glyph-name="ucircumflex" unicode="&#xfb;" horiz-adv-x="1101" 
d="M551 1339l-217 -198l-111 88l328 295l332 -295l-113 -88zM551 -27q-186 0 -285.5 106.5t-99.5 315.5v559h164v-553q0 -141 53 -210.5t168 -69.5q223 0 223 280v553h164v-559q0 -199 -97.5 -310.5t-289.5 -111.5z" />
    <glyph glyph-name="udieresis" unicode="&#xfc;" horiz-adv-x="1101" 
d="M348 1208q-44 0 -76 32.5t-32 76.5q0 45 33 76.5t75 31.5q44 0 76.5 -31.5t32.5 -76.5q0 -46 -32.5 -77.5t-76.5 -31.5zM754 1208q-45 0 -77 31t-32 78q0 46 33 77t76 31t76.5 -32t33.5 -76q0 -46 -33 -77.5t-77 -31.5zM551 -27q-186 0 -285.5 106.5t-99.5 315.5v559h164
v-553q0 -141 53 -210.5t168 -69.5q223 0 223 280v553h164v-559q0 -199 -97.5 -310.5t-289.5 -111.5z" />
    <glyph glyph-name="yacute" unicode="&#xfd;" horiz-adv-x="1007" 
d="M623 1532l153 -84l-344 -307l-88 57zM520 319l299 635h185l-725 -1491h-187l342 680l-430 811h191z" />
    <glyph glyph-name="thorn" unicode="&#xfe;" horiz-adv-x="1280" 
d="M344 -537h-164v2216h164v-751v-135h2q133 190 350 190q202 0 337.5 -146t135.5 -360q0 -213 -135.5 -357.5t-333.5 -144.5q-223 0 -354 189h-2v-176v-525zM670 121q145 0 238 101.5t93 254.5q0 156 -91.5 257.5t-237.5 101.5t-242 -101t-96 -256t95.5 -256.5
t240.5 -101.5z" />
    <glyph glyph-name="ydieresis" unicode="&#xff;" horiz-adv-x="1007" 
d="M309 1208q-44 0 -76 32.5t-32 76.5q0 45 33 76.5t75 31.5q44 0 76.5 -31.5t32.5 -76.5q0 -46 -32.5 -77.5t-76.5 -31.5zM715 1208q-45 0 -77 31t-32 78q0 46 33 77t76 31t76.5 -32t33.5 -76q0 -46 -33 -77.5t-77 -31.5zM520 319l299 635h185l-725 -1491h-187l342 680
l-430 811h191z" />
    <glyph glyph-name="Amacron" unicode="&#x100;" horiz-adv-x="1431" 
d="M432 1860h586v-129h-586v129zM1430 0h-187l-182 436h-690l-187 -436h-182l723 1626h4zM578 918l-138 -322h553l-135 324q-74 172 -135 329q-62 -145 -145 -331z" />
    <glyph glyph-name="amacron" unicode="&#x101;" horiz-adv-x="1280" 
d="M922 1247h-584v129h584v-129zM586 -29q-203 0 -339 146t-136 362q0 139 62 254t170 180.5t239 65.5q225 0 352 -188h2v163h164v-954h-164v164h-2q-134 -193 -348 -193zM610 119q145 0 240.5 101t95.5 257q0 154 -95.5 255.5t-240.5 101.5q-143 0 -237 -102t-94 -253
q0 -158 91.5 -259t239.5 -101z" />
    <glyph glyph-name="Abreve" unicode="&#x102;" horiz-adv-x="1431" 
d="M723 1673q-135 0 -221 79t-99 224h136q12 -84 60.5 -128t125.5 -44q80 0 128 44t60 128h136q-17 -148 -103 -225.5t-223 -77.5zM1430 0h-187l-182 436h-690l-187 -436h-182l723 1626h4zM578 918l-138 -322h553l-135 324q-74 172 -135 329q-62 -145 -145 -331z" />
    <glyph glyph-name="abreve" unicode="&#x103;" horiz-adv-x="1280" 
d="M627 1143q-134 0 -220.5 79t-101.5 224h135q13 -84 62.5 -129t126.5 -45q160 0 188 174h135q-17 -149 -102 -226t-223 -77zM586 -29q-203 0 -339 146t-136 362q0 139 62 254t170 180.5t239 65.5q225 0 352 -188h2v163h164v-954h-164v164h-2q-134 -193 -348 -193zM610 119
q145 0 240.5 101t95.5 257q0 154 -95.5 255.5t-240.5 101.5q-143 0 -237 -102t-94 -253q0 -158 91.5 -259t239.5 -101z" />
    <glyph glyph-name="Aogonek" unicode="&#x104;" horiz-adv-x="1431" 
d="M1427 -270l48 -105q-86 -53 -197 -53q-90 0 -151.5 51t-61.5 141q0 150 174 244l-178 428h-690l-187 -436h-182l723 1626h4l701 -1626h-52q-182 -102 -182 -211q0 -43 27.5 -67.5t72.5 -24.5q63 0 131 33zM578 918l-138 -322h553l-135 324q-74 172 -135 329
q-62 -145 -145 -331z" />
    <glyph glyph-name="aogonek" unicode="&#x105;" horiz-adv-x="1280" 
d="M1118 -270l47 -105q-86 -53 -194 -53q-91 0 -152 51t-61 141q0 153 178 248v152h-2q-134 -193 -348 -193q-203 0 -339 146t-136 362q0 139 62 254t170 180.5t239 65.5q225 0 352 -188h2v163h164v-954h-29q-182 -102 -182 -211q0 -42 26.5 -67t71.5 -25q63 0 131 33z
M610 119q145 0 240.5 101t95.5 257q0 154 -95.5 255.5t-240.5 101.5q-143 0 -237 -102t-94 -253q0 -158 91.5 -259t239.5 -101z" />
    <glyph glyph-name="Cacute" unicode="&#x106;" horiz-adv-x="1505" 
d="M1139 1939l-361 -278l-84 63l297 312zM926 -29q-164 0 -311.5 62.5t-253 168.5t-167 253.5t-61.5 312.5t62.5 313.5t169 256.5t257 171.5t318.5 63.5q235 0 436 -131v-201q-203 172 -448 172q-129 0 -245 -50t-199 -136t-132 -205t-49 -252q0 -132 49 -250.5
t132.5 -203.5t199.5 -135t246 -50q132 0 233.5 41.5t210.5 136.5v-205q-201 -133 -448 -133z" />
    <glyph glyph-name="cacute" unicode="&#x107;" horiz-adv-x="989" 
d="M864 1448l-344 -307l-88 57l279 334zM623 -29q-228 0 -370 142.5t-142 361.5q0 218 143 362t369 144q157 0 264 -72v-186q-58 57 -122.5 84t-148.5 27q-151 0 -244 -101t-93 -256q0 -157 90 -257.5t245 -100.5q152 0 273 106v-178q-111 -76 -264 -76z" />
    <glyph glyph-name="Ccircumflex" unicode="&#x108;" horiz-adv-x="1505" 
d="M885 1833l-217 -170l-111 88l328 266l332 -266l-113 -88zM926 -29q-164 0 -311.5 62.5t-253 168.5t-167 253.5t-61.5 312.5t62.5 313.5t169 256.5t257 171.5t318.5 63.5q235 0 436 -131v-201q-203 172 -448 172q-129 0 -245 -50t-199 -136t-132 -205t-49 -252
q0 -132 49 -250.5t132.5 -203.5t199.5 -135t246 -50q132 0 233.5 41.5t210.5 136.5v-205q-201 -133 -448 -133z" />
    <glyph glyph-name="ccircumflex" unicode="&#x109;" horiz-adv-x="989" 
d="M598 1339l-217 -198l-111 88l328 295l332 -295l-113 -88zM623 -29q-228 0 -370 142.5t-142 361.5q0 218 143 362t369 144q157 0 264 -72v-186q-58 57 -122.5 84t-148.5 27q-151 0 -244 -101t-93 -256q0 -157 90 -257.5t245 -100.5q152 0 273 106v-178q-111 -76 -264 -76z
" />
    <glyph glyph-name="Cdotaccent" unicode="&#x10a;" horiz-adv-x="1505" 
d="M887 1712q-47 0 -80 33.5t-33 79.5q0 44 33.5 77t77.5 33q47 0 80.5 -32t33.5 -78t-32.5 -79.5t-79.5 -33.5zM926 -29q-164 0 -311.5 62.5t-253 168.5t-167 253.5t-61.5 312.5t62.5 313.5t169 256.5t257 171.5t318.5 63.5q235 0 436 -131v-201q-203 172 -448 172
q-129 0 -245 -50t-199 -136t-132 -205t-49 -252q0 -132 49 -250.5t132.5 -203.5t199.5 -135t246 -50q132 0 233.5 41.5t210.5 136.5v-205q-201 -133 -448 -133z" />
    <glyph glyph-name="cdotaccent" unicode="&#x10b;" horiz-adv-x="989" 
d="M600 1251q-49 0 -81 33t-32 80q0 45 33 78t78 33q47 0 80 -32.5t33 -78.5t-32.5 -79.5t-78.5 -33.5zM623 -29q-228 0 -370 142.5t-142 361.5q0 218 143 362t369 144q157 0 264 -72v-186q-58 57 -122.5 84t-148.5 27q-151 0 -244 -101t-93 -256q0 -157 90 -257.5
t245 -100.5q152 0 273 106v-178q-111 -76 -264 -76z" />
    <glyph glyph-name="Ccaron" unicode="&#x10c;" horiz-adv-x="1505" 
d="M1217 1935l-328 -278l-332 278l113 88l219 -184l217 184zM926 -29q-164 0 -311.5 62.5t-253 168.5t-167 253.5t-61.5 312.5t62.5 313.5t169 256.5t257 171.5t318.5 63.5q235 0 436 -131v-201q-203 172 -448 172q-129 0 -245 -50t-199 -136t-132 -205t-49 -252
q0 -132 49 -250.5t132.5 -203.5t199.5 -135t246 -50q132 0 233.5 41.5t210.5 136.5v-205q-201 -133 -448 -133z" />
    <glyph glyph-name="ccaron" unicode="&#x10d;" horiz-adv-x="989" 
d="M930 1432l-328 -295l-332 295l113 86l219 -199l217 199zM623 -29q-228 0 -370 142.5t-142 361.5q0 218 143 362t369 144q157 0 264 -72v-186q-58 57 -122.5 84t-148.5 27q-151 0 -244 -101t-93 -256q0 -157 90 -257.5t245 -100.5q152 0 273 106v-178q-111 -76 -264 -76z
" />
    <glyph glyph-name="Dcaron" unicode="&#x10e;" horiz-adv-x="1499" 
d="M1067 1935l-328 -278l-331 278l112 88l219 -184l217 184zM473 0h-252v1544h268q266 0 463 -89t305.5 -264t108.5 -417q0 -246 -110.5 -421.5t-310.5 -264t-472 -88.5zM391 1384v-1224h94q331 0 521 160t190 454t-180 452t-518 158h-107z" />
    <glyph glyph-name="dcaron" unicode="&#x10f;" horiz-adv-x="1280" 
d="M582 -25q-200 0 -335.5 144.5t-135.5 357.5q0 214 136 359t339 145q219 0 348 -188h2v151v735h164v-1679h-164v164h-2q-131 -189 -352 -189zM1436 1577l-148 -338l-100 29l90 358zM610 121q145 0 240.5 101.5t95.5 256.5t-95.5 255t-240.5 100q-148 0 -239.5 -101
t-91.5 -256q0 -153 93.5 -254.5t237.5 -101.5z" />
    <glyph glyph-name="Dcroat" unicode="&#x110;" horiz-adv-x="1499" 
d="M221 1544h268q266 0 463 -89t305.5 -264t108.5 -417q0 -246 -110.5 -421.5t-310.5 -264t-472 -88.5h-252v700h-186v146h186v698zM391 160h94q331 0 521 160t190 454t-180 452t-518 158h-107v-538h320v-146h-320v-540z" />
    <glyph glyph-name="dcroat" unicode="&#x111;" horiz-adv-x="1280" 
d="M1100 1417h155v-110h-155v-1307h-164v164h-2q-131 -189 -352 -189q-200 0 -335.5 144.5t-135.5 357.5q0 214 136 359t339 145q219 0 348 -188h2v151v363h-295v110h295v262h164v-262zM610 121q145 0 240.5 101.5t95.5 256.5t-95.5 255t-240.5 100q-148 0 -239.5 -101
t-91.5 -256q0 -153 93.5 -254.5t237.5 -101.5z" />
    <glyph glyph-name="Emacron" unicode="&#x112;" horiz-adv-x="1218" 
d="M934 1731h-586v129h586v-129zM1026 0h-805v1544h805v-160h-635v-460h615v-160h-615v-604h635v-160z" />
    <glyph glyph-name="emacron" unicode="&#x113;" horiz-adv-x="1136" 
d="M283 1376h583v-129h-583v129zM1026 492v-46h-743q3 -145 86 -236t219 -91q171 0 274 155l131 -77q-64 -109 -162.5 -167.5t-248.5 -58.5q-211 0 -341 140.5t-130 365.5q0 222 130 363t337 141q209 0 328.5 -137t119.5 -352zM293 582h563q-9 109 -84 180.5t-192 71.5
q-115 0 -191.5 -70t-95.5 -182z" />
    <glyph glyph-name="Ebreve" unicode="&#x114;" horiz-adv-x="1218" 
d="M639 1673q-135 0 -221 79t-99 224h136q12 -84 60.5 -128t125.5 -44q80 0 128 44t60 128h136q-17 -148 -103 -225.5t-223 -77.5zM1026 0h-805v1544h805v-160h-635v-460h615v-160h-615v-604h635v-160z" />
    <glyph glyph-name="ebreve" unicode="&#x115;" horiz-adv-x="1136" 
d="M573 1143q-134 0 -220 79t-101 224h135q13 -84 62 -129t126 -45q161 0 189 174h135q-17 -149 -102.5 -226t-223.5 -77zM1026 492v-46h-743q3 -145 86 -236t219 -91q171 0 274 155l131 -77q-64 -109 -162.5 -167.5t-248.5 -58.5q-211 0 -341 140.5t-130 365.5
q0 222 130 363t337 141q209 0 328.5 -137t119.5 -352zM293 582h563q-9 109 -84 180.5t-192 71.5q-115 0 -191.5 -70t-95.5 -182z" />
    <glyph glyph-name="Edotaccent" unicode="&#x116;" horiz-adv-x="1218" 
d="M641 1712q-47 0 -80 33.5t-33 79.5q0 44 33.5 77t77.5 33q47 0 81 -32t34 -78t-33 -79.5t-80 -33.5zM1026 0h-805v1544h805v-160h-635v-460h615v-160h-615v-604h635v-160z" />
    <glyph glyph-name="edotaccent" unicode="&#x117;" horiz-adv-x="1136" 
d="M575 1251q-49 0 -80.5 33t-31.5 80q0 45 32.5 78t77.5 33q47 0 80 -32.5t33 -78.5t-32.5 -79.5t-78.5 -33.5zM1026 492v-46h-743q3 -145 86 -236t219 -91q171 0 274 155l131 -77q-64 -109 -162.5 -167.5t-248.5 -58.5q-211 0 -341 140.5t-130 365.5q0 222 130 363
t337 141q209 0 328.5 -137t119.5 -352zM293 582h563q-9 109 -84 180.5t-192 71.5q-115 0 -191.5 -70t-95.5 -182z" />
    <glyph glyph-name="Eogonek" unicode="&#x118;" horiz-adv-x="1218" 
d="M1026 1544v-160h-635v-460h615v-160h-615v-604h635v-160h-100q-183 -102 -183 -211q0 -42 27 -67t72 -25q63 0 131 33l47 -105q-86 -53 -195 -53q-91 0 -152 51t-61 141q0 144 156 236h-547v1544h805z" />
    <glyph glyph-name="eogonek" unicode="&#x119;" horiz-adv-x="1136" 
d="M1026 492v-46h-743q3 -145 86 -236t219 -91q171 0 274 155l131 -77q-83 -139 -215 -193q-106 -58 -148 -109.5t-42 -105.5q0 -42 26.5 -67t71.5 -25q63 0 131 33l47 -105q-86 -53 -194 -53q-91 0 -152 51t-61 141q0 121 112 207q-206 4 -332 144t-126 362t130 363
t337 141q209 0 328.5 -137t119.5 -352zM293 582h563q-9 109 -84 180.5t-192 71.5q-115 0 -191.5 -70t-95.5 -182z" />
    <glyph glyph-name="Ecaron" unicode="&#x11a;" horiz-adv-x="1218" 
d="M971 1935l-328 -278l-332 278l113 88l219 -184l217 184zM1026 0h-805v1544h805v-160h-635v-460h615v-160h-615v-604h635v-160z" />
    <glyph glyph-name="ecaron" unicode="&#x11b;" horiz-adv-x="1136" 
d="M795 1518l110 -86l-327 -295l-332 295l112 86l220 -199zM1026 492v-46h-743q3 -145 86 -236t219 -91q171 0 274 155l131 -77q-64 -109 -162.5 -167.5t-248.5 -58.5q-211 0 -341 140.5t-130 365.5q0 222 130 363t337 141q209 0 328.5 -137t119.5 -352zM293 582h563
q-9 109 -84 180.5t-192 71.5q-115 0 -191.5 -70t-95.5 -182z" />
    <glyph glyph-name="Gcircumflex" unicode="&#x11c;" horiz-adv-x="1765" 
d="M891 1833l-217 -170l-111 88l328 266l332 -266l-113 -88zM907 -29q-160 0 -303.5 63t-246.5 169.5t-163.5 254.5t-60.5 312q0 169 63.5 318.5t171 255.5t254.5 167.5t308 61.5q191 0 343 -77.5t288 -238.5l-123 -114q-199 270 -506 270q-129 0 -245 -49.5t-200.5 -134.5
t-134 -205t-49.5 -254q0 -136 50.5 -256t134 -203t194 -131.5t229.5 -48.5q223 0 374 140t163 347v3h-444v157h628v-37q0 -228 -90.5 -403t-255 -271t-379.5 -96z" />
    <glyph glyph-name="gcircumflex" unicode="&#x11d;" horiz-adv-x="1241" 
d="M592 1339l-217 -198l-111 88l328 295l332 -295l-113 -88zM580 -545q-198 0 -323.5 97.5t-145.5 287.5l163 15q40 -250 308 -250q156 0 235.5 94.5t79.5 275.5v189h-2q-129 -193 -352 -193q-125 0 -227.5 66.5t-161 183t-58.5 258.5q0 213 127.5 356.5t315.5 143.5
q223 0 356 -188h2v163h164v-958q0 -260 -119.5 -400.5t-361.5 -140.5zM582 119q140 0 232.5 98.5t92.5 259.5q0 159 -93 258t-232 99q-137 0 -227.5 -102.5t-90.5 -252.5q0 -158 88 -259t230 -101z" />
    <glyph glyph-name="Gbreve" unicode="&#x11e;" horiz-adv-x="1765" 
d="M889 1673q-135 0 -221 79t-99 224h136q12 -84 60.5 -128t125.5 -44q80 0 128 44t60 128h135q-17 -148 -102.5 -225.5t-222.5 -77.5zM907 -29q-160 0 -303.5 63t-246.5 169.5t-163.5 254.5t-60.5 312q0 169 63.5 318.5t171 255.5t254.5 167.5t308 61.5q191 0 343 -77.5
t288 -238.5l-123 -114q-199 270 -506 270q-129 0 -245 -49.5t-200.5 -134.5t-134 -205t-49.5 -254q0 -136 50.5 -256t134 -203t194 -131.5t229.5 -48.5q223 0 374 140t163 347v3h-444v157h628v-37q0 -228 -90.5 -403t-255 -271t-379.5 -96z" />
    <glyph glyph-name="gbreve" unicode="&#x11f;" horiz-adv-x="1241" 
d="M592 1143q-134 0 -220.5 79t-101.5 224h136q13 -84 62 -129t126 -45q160 0 188 174h136q-17 -149 -102.5 -226t-223.5 -77zM580 -545q-198 0 -323.5 97.5t-145.5 287.5l163 15q40 -250 308 -250q156 0 235.5 94.5t79.5 275.5v189h-2q-129 -193 -352 -193
q-125 0 -227.5 66.5t-161 183t-58.5 258.5q0 213 127.5 356.5t315.5 143.5q223 0 356 -188h2v163h164v-958q0 -260 -119.5 -400.5t-361.5 -140.5zM582 119q140 0 232.5 98.5t92.5 259.5q0 159 -93 258t-232 99q-137 0 -227.5 -102.5t-90.5 -252.5q0 -158 88 -259t230 -101z
" />
    <glyph glyph-name="Gdotaccent" unicode="&#x120;" horiz-adv-x="1765" 
d="M891 1712q-47 0 -80 33.5t-33 79.5q0 44 33.5 77t77.5 33q47 0 81 -32t34 -78t-33 -79.5t-80 -33.5zM907 -29q-160 0 -303.5 63t-246.5 169.5t-163.5 254.5t-60.5 312q0 169 63.5 318.5t171 255.5t254.5 167.5t308 61.5q191 0 343 -77.5t288 -238.5l-123 -114
q-199 270 -506 270q-129 0 -245 -49.5t-200.5 -134.5t-134 -205t-49.5 -254q0 -136 50.5 -256t134 -203t194 -131.5t229.5 -48.5q223 0 374 140t163 347v3h-444v157h628v-37q0 -228 -90.5 -403t-255 -271t-379.5 -96z" />
    <glyph glyph-name="gdotaccent" unicode="&#x121;" horiz-adv-x="1241" 
d="M596 1251q-49 0 -81 33t-32 80q0 45 33 78t78 33q47 0 80 -32.5t33 -78.5t-32.5 -79.5t-78.5 -33.5zM580 -545q-198 0 -323.5 97.5t-145.5 287.5l163 15q40 -250 308 -250q156 0 235.5 94.5t79.5 275.5v189h-2q-129 -193 -352 -193q-125 0 -227.5 66.5t-161 183
t-58.5 258.5q0 213 127.5 356.5t315.5 143.5q223 0 356 -188h2v163h164v-958q0 -260 -119.5 -400.5t-361.5 -140.5zM582 119q140 0 232.5 98.5t92.5 259.5q0 159 -93 258t-232 99q-137 0 -227.5 -102.5t-90.5 -252.5q0 -158 88 -259t230 -101z" />
    <glyph glyph-name="uni0122" unicode="&#x122;" horiz-adv-x="1765" 
d="M907 -29q-160 0 -303.5 63t-246.5 169.5t-163.5 254.5t-60.5 312q0 169 63.5 318.5t171 255.5t254.5 167.5t308 61.5q191 0 343 -77.5t288 -238.5l-123 -114q-199 270 -506 270q-129 0 -245 -49.5t-200.5 -134.5t-134 -205t-49.5 -254q0 -136 50.5 -256t134 -203
t194 -131.5t229.5 -48.5q223 0 374 140t163 347v3h-444v157h628v-37q0 -228 -90.5 -403t-255 -271t-379.5 -96zM993 -188l-172 -312l-106 54l143 321z" />
    <glyph glyph-name="uni0123" unicode="&#x123;" horiz-adv-x="1241" 
d="M776 1505l-145 -336l-154 66l191 321zM580 -545q-198 0 -323.5 97.5t-145.5 287.5l163 15q40 -250 308 -250q156 0 235.5 94.5t79.5 275.5v189h-2q-129 -193 -352 -193q-125 0 -227.5 66.5t-161 183t-58.5 258.5q0 213 127.5 356.5t315.5 143.5q223 0 356 -188h2v163h164
v-958q0 -260 -119.5 -400.5t-361.5 -140.5zM582 119q140 0 232.5 98.5t92.5 259.5q0 159 -93 258t-232 99q-137 0 -227.5 -102.5t-90.5 -252.5q0 -158 88 -259t230 -101z" />
    <glyph glyph-name="Hcircumflex" unicode="&#x124;" horiz-adv-x="1546" 
d="M772 1833l-217 -170l-111 88l328 266l332 -266l-113 -88zM391 0h-170v1544h170v-626h762v626h170v-1544h-170v758h-762v-758z" />
    <glyph glyph-name="hcircumflex" unicode="&#x125;" horiz-adv-x="1140" 
d="M563 1880l-217 -170l-110 88l327 266l332 -266l-113 -88zM344 0h-164v1679h164v-702v-158h4q104 162 303 162q159 0 241.5 -98t82.5 -285v-598h-164v561q0 143 -52 208t-159 65q-121 0 -188.5 -80.5t-67.5 -247.5v-506z" />
    <glyph glyph-name="Hbar" unicode="&#x126;" horiz-adv-x="1546" 
d="M1323 1305h139v-146h-139v-1159h-170v758h-762v-758h-170v1159h-137v146h137v239h170v-239h762v239h170v-239zM391 918h762v241h-762v-241z" />
    <glyph glyph-name="hbar" unicode="&#x127;" horiz-adv-x="1140" 
d="M651 981q159 0 241.5 -98t82.5 -285v-598h-164v561q0 143 -52 208t-159 65q-121 0 -188.5 -80.5t-67.5 -247.5v-506h-164v1307h-174v110h174v262h164v-262h293v-110h-293v-330v-158h4q104 162 303 162z" />
    <glyph glyph-name="Itilde" unicode="&#x128;" horiz-adv-x="614" 
d="M442 1686q-50 0 -146 53t-134 53q-63 0 -119 -106l-94 79q54 94 102 132t119 38q40 0 95.5 -28t106 -56t79.5 -28q63 0 124 112l95 -75q-80 -174 -228 -174zM391 0h-170v1544h170v-1544z" />
    <glyph glyph-name="itilde" unicode="&#x129;" horiz-adv-x="524" 
d="M397 1178q-40 0 -93.5 27t-104 54t-84.5 27q-35 0 -61.5 -27t-55.5 -81l-96 79q56 94 104 132t119 38q39 0 93.5 -28t105 -56t79.5 -28q64 0 125 112l97 -75q-80 -174 -228 -174zM344 0h-164v954h164v-954z" />
    <glyph glyph-name="Imacron" unicode="&#x12a;" horiz-adv-x="614" 
d="M602 1731h-586v129h586v-129zM391 0h-170v1544h170v-1544z" />
    <glyph glyph-name="imacron" unicode="&#x12b;" horiz-adv-x="524" 
d="M553 1247h-584v129h584v-129zM344 0h-164v954h164v-954z" />
    <glyph glyph-name="Ibreve" unicode="&#x12c;" horiz-adv-x="614" 
d="M305 1673q-134 0 -220 79t-99 224h135q12 -84 60.5 -128t125.5 -44q80 0 128.5 44t60.5 128h135q-17 -148 -103 -225.5t-223 -77.5zM391 0h-170v1544h170v-1544z" />
    <glyph glyph-name="ibreve" unicode="&#x12d;" horiz-adv-x="524" 
d="M260 1143q-134 0 -220 79t-101 224h135q13 -84 62 -129t126 -45q161 0 189 174h135q-17 -149 -102.5 -226t-223.5 -77zM344 0h-164v954h164v-954z" />
    <glyph glyph-name="Iogonek" unicode="&#x12e;" horiz-adv-x="614" 
d="M418 -270l47 -105q-86 -53 -197 -53q-89 0 -150 51t-61 141q0 147 164 240v1540h170v-1544h-22q-183 -104 -183 -211q0 -43 28 -67.5t73 -24.5q63 0 131 33z" />
    <glyph glyph-name="iogonek" unicode="&#x12f;" horiz-adv-x="520" 
d="M260 1251q-47 0 -80 33.5t-33 79.5q0 44 33.5 77.5t77.5 33.5q47 0 81 -32.5t34 -78.5t-33.5 -79.5t-79.5 -33.5zM360 -270l50 -105q-90 -53 -197 -53q-90 0 -151.5 51t-61.5 141q0 152 178 246v944h164v-954h-29q-182 -102 -182 -211q0 -44 26.5 -68t71.5 -24
q67 0 131 33z" />
    <glyph glyph-name="Idotaccent" unicode="&#x130;" horiz-adv-x="614" 
d="M309 1712q-47 0 -79.5 33.5t-32.5 79.5q0 44 33 77t77 33q47 0 81 -32t34 -78t-33 -79.5t-80 -33.5zM391 0h-170v1544h170v-1544z" />
    <glyph glyph-name="dotlessi" unicode="&#x131;" horiz-adv-x="524" 
d="M344 0h-164v954h164v-954z" />
    <glyph glyph-name="IJ" unicode="&#x132;" horiz-adv-x="1429" 
d="M391 0h-170v1544h170v-1544zM897 -25q-165 0 -283 121l105 123q81 -84 178 -84q83 0 122.5 61t39.5 201v1147h170v-1136q0 -223 -82.5 -328t-249.5 -105z" />
    <glyph glyph-name="ij" unicode="&#x133;" horiz-adv-x="1040" 
d="M260 1251q-47 0 -80 33.5t-33 79.5q0 44 33.5 77.5t77.5 33.5q47 0 81 -32.5t34 -78.5t-33.5 -79.5t-79.5 -33.5zM780 1251q-47 0 -79.5 33.5t-32.5 79.5q0 44 33 77.5t77 33.5q47 0 81 -32.5t34 -78.5t-33.5 -79.5t-79.5 -33.5zM342 0h-164v954h164v-954zM862 -537h-164
v1491h164v-1491z" />
    <glyph glyph-name="Jcircumflex" unicode="&#x134;" horiz-adv-x="815" 
d="M518 1833l-217 -170l-111 88l328 266l332 -266l-113 -88zM283 -25q-165 0 -283 121l104 123q81 -84 179 -84q83 0 122 61t39 201v1147h170v-1136q0 -223 -82.5 -328t-248.5 -105z" />
    <glyph glyph-name="jcircumflex" unicode="&#x135;" horiz-adv-x="524" 
d="M260 1339l-217 -198l-111 88l328 295l332 -295l-113 -88zM344 -537h-164v1491h164v-1491z" />
    <glyph glyph-name="uni0136" unicode="&#x136;" horiz-adv-x="1312" 
d="M1276 1544l-709 -682l727 -862h-227l-618 752l-58 -50v-702h-170v1544h170v-653l660 653h225zM651 -500l-106 54l143 321l135 -63z" />
    <glyph glyph-name="uni0137" unicode="&#x137;" horiz-adv-x="999" 
d="M948 954l-442 -407l477 -547h-203l-385 444l-51 -47v-397h-164v1679h164v-1104l397 379h207zM459 -500l-107 54l144 321l135 -63z" />
    <glyph glyph-name="kgreenlandic" unicode="&#x138;" horiz-adv-x="999" 
d="M494 535l489 -535h-203l-393 436l-43 -39v-397h-164v954h164v-379l408 379h196z" />
    <glyph glyph-name="Lacute" unicode="&#x139;" horiz-adv-x="909" 
d="M690 1939l-360 -278l-84 63l297 312zM872 0h-651v1544h170v-1384h481v-160z" />
    <glyph glyph-name="lacute" unicode="&#x13a;" horiz-adv-x="524" 
d="M514 2075l-360 -279l-84 64l297 311zM344 0h-164v1679h164v-1679z" />
    <glyph glyph-name="uni013B" unicode="&#x13b;" horiz-adv-x="909" 
d="M872 0h-651v1544h170v-1384h481v-160zM653 -188l-172 -312l-106 54l143 321z" />
    <glyph glyph-name="uni013C" unicode="&#x13c;" horiz-adv-x="524" 
d="M344 0h-164v1679h164v-1679zM375 -188l-172 -312l-107 54l144 321z" />
    <glyph glyph-name="Lcaron" unicode="&#x13d;" horiz-adv-x="909" 
d="M872 0h-651v1544h170v-1384h481v-160zM846 1493l-148 -338l-100 29l90 358z" />
    <glyph glyph-name="lcaron" unicode="&#x13e;" horiz-adv-x="524" 
d="M344 0h-164v1679h164v-1679zM674 1577l-148 -338l-100 29l90 358z" />
    <glyph glyph-name="Ldot" unicode="&#x13f;" horiz-adv-x="909" 
d="M872 0h-651v1544h170v-1384h481v-160zM745 684q-47 0 -77.5 33.5t-30.5 77.5q0 46 32.5 77t75.5 31q45 0 78 -31.5t33 -76.5t-32 -78t-79 -33z" />
    <glyph glyph-name="ldot" unicode="&#x140;" horiz-adv-x="645" 
d="M344 0h-164v1679h164v-1679zM578 750q-48 0 -78.5 32.5t-30.5 75.5q0 46 33 77.5t76 31.5q46 0 78 -31.5t32 -77.5q0 -45 -31.5 -76.5t-78.5 -31.5z" />
    <glyph glyph-name="Lslash" unicode="&#x141;" horiz-adv-x="909" 
d="M391 651v-491h481v-160h-651v535l-145 -99v170l145 96v842h170v-725l2 2l197 133v-168z" />
    <glyph glyph-name="lslash" unicode="&#x142;" horiz-adv-x="524" 
d="M344 938l150 104v-127l-150 -106v-809h-164v696l-149 -104v127l149 104v856h164v-741z" />
    <glyph glyph-name="Nacute" unicode="&#x143;" horiz-adv-x="1746" 
d="M981 2036l147 -97l-360 -278l-84 63zM1356 342v1202h170v-1618h-6l-1129 1284v-1210h-170v1626h8z" />
    <glyph glyph-name="nacute" unicode="&#x144;" horiz-adv-x="1140" 
d="M836 1448l-344 -307l-89 57l279 334zM344 0h-164v954h164v-137h4q106 164 301 164q161 0 243.5 -98t82.5 -285v-598h-164v561q0 142 -52.5 207.5t-160.5 65.5q-120 0 -187 -81t-67 -245v-508z" />
    <glyph glyph-name="uni0145" unicode="&#x145;" horiz-adv-x="1746" 
d="M1356 342v1202h170v-1618h-6l-1129 1284v-1210h-170v1626h8zM815 -500l-106 54l143 321l135 -63z" />
    <glyph glyph-name="uni0146" unicode="&#x146;" horiz-adv-x="1140" 
d="M344 0h-164v954h164v-137h4q106 164 301 164q161 0 243.5 -98t82.5 -285v-598h-164v561q0 142 -52.5 207.5t-160.5 65.5q-120 0 -187 -81t-67 -245v-508zM680 -188l-172 -312l-107 54l144 321z" />
    <glyph glyph-name="Ncaron" unicode="&#x147;" horiz-adv-x="1746" 
d="M1096 2023l110 -88l-327 -278l-332 278l112 88l220 -184zM1356 342v1202h170v-1618h-6l-1129 1284v-1210h-170v1626h8z" />
    <glyph glyph-name="ncaron" unicode="&#x148;" horiz-adv-x="1140" 
d="M901 1432l-328 -295l-331 295l112 86l219 -199l218 199zM344 0h-164v954h164v-137h4q106 164 301 164q161 0 243.5 -98t82.5 -285v-598h-164v561q0 142 -52.5 207.5t-160.5 65.5q-120 0 -187 -81t-67 -245v-508z" />
    <glyph glyph-name="napostrophe" unicode="&#x149;" horiz-adv-x="1183" 
d="M215 1540l-235 -512l-111 45l194 524zM387 0h-164v954h164v-137h4q106 164 301 164q161 0 243.5 -98t82.5 -285v-598h-164v561q0 142 -52.5 207.5t-160.5 65.5q-120 0 -187 -81t-67 -245v-508z" />
    <glyph glyph-name="Eng" unicode="&#x14a;" horiz-adv-x="1746" 
d="M1356 342v1202h170v-1603q0 -247 -87.5 -361.5t-267.5 -114.5q-130 0 -233 68l78 143q74 -51 155 -51q97 0 141 72.5t44 243.5v157l-965 1110v-1208h-170v1626h8z" />
    <glyph glyph-name="eng" unicode="&#x14b;" horiz-adv-x="1140" 
d="M702 -547q-70 0 -139 29v166q70 -37 119 -37q70 0 99.5 47.5t29.5 175.5v727q0 142 -52.5 207.5t-160.5 65.5q-120 0 -187 -81t-67 -245v-508h-164v954h164v-137h4q106 164 301 164q161 0 243.5 -98t82.5 -285v-801q0 -186 -72.5 -265t-200.5 -79z" />
    <glyph glyph-name="Omacron" unicode="&#x14c;" horiz-adv-x="1865" 
d="M1225 1731h-586v129h586v-129zM926 -29q-157 0 -302 61.5t-253 167.5t-173 256.5t-65 319.5q0 162 64.5 310t173 254.5t256.5 169.5t309 63q160 0 306.5 -62.5t254.5 -169t172 -256t64 -315.5q0 -164 -65 -312.5t-174 -255t-257.5 -169t-310.5 -62.5zM928 133
q172 0 317.5 83.5t231.5 231t86 324.5q0 180 -85.5 327.5t-230.5 230.5t-315 83q-168 0 -312.5 -84t-230.5 -231.5t-86 -323.5q0 -136 52 -257t138 -204t200 -131.5t235 -48.5z" />
    <glyph glyph-name="omacron" unicode="&#x14d;" horiz-adv-x="1234" 
d="M909 1247h-583v129h583v-129zM612 -29q-144 0 -259 66.5t-178.5 183t-63.5 260.5q0 136 63.5 250t180 182t261.5 68q220 0 363 -144.5t143 -359.5q0 -217 -143 -361.5t-367 -144.5zM616 119q150 0 245 99.5t95 258.5q0 154 -95.5 255.5t-244.5 101.5q-147 0 -242 -101
t-95 -254q0 -161 93 -260.5t244 -99.5z" />
    <glyph glyph-name="Obreve" unicode="&#x14e;" horiz-adv-x="1865" 
d="M930 1673q-135 0 -221 79t-99 224h135q12 -84 61 -128t126 -44q80 0 128 44t60 128h135q-17 -148 -102.5 -225.5t-222.5 -77.5zM926 -29q-157 0 -302 61.5t-253 167.5t-173 256.5t-65 319.5q0 162 64.5 310t173 254.5t256.5 169.5t309 63q160 0 306.5 -62.5t254.5 -169
t172 -256t64 -315.5q0 -164 -65 -312.5t-174 -255t-257.5 -169t-310.5 -62.5zM928 133q172 0 317.5 83.5t231.5 231t86 324.5q0 180 -85.5 327.5t-230.5 230.5t-315 83q-168 0 -312.5 -84t-230.5 -231.5t-86 -323.5q0 -136 52 -257t138 -204t200 -131.5t235 -48.5z" />
    <glyph glyph-name="obreve" unicode="&#x14f;" horiz-adv-x="1234" 
d="M616 1143q-134 0 -220 79t-101 224h135q13 -84 62 -129t126 -45q161 0 189 174h135q-17 -149 -102.5 -226t-223.5 -77zM612 -29q-144 0 -259 66.5t-178.5 183t-63.5 260.5q0 136 63.5 250t180 182t261.5 68q220 0 363 -144.5t143 -359.5q0 -217 -143 -361.5t-367 -144.5z
M616 119q150 0 245 99.5t95 258.5q0 154 -95.5 255.5t-244.5 101.5q-147 0 -242 -101t-95 -254q0 -161 93 -260.5t244 -99.5z" />
    <glyph glyph-name="Ohungarumlaut" unicode="&#x150;" horiz-adv-x="1865" 
d="M981 2034l-170 -351l-88 25l100 352zM1319 2034l-191 -351l-88 25l123 352zM926 -29q-157 0 -302 61.5t-253 167.5t-173 256.5t-65 319.5q0 162 64.5 310t173 254.5t256.5 169.5t309 63q160 0 306.5 -62.5t254.5 -169t172 -256t64 -315.5q0 -164 -65 -312.5t-174 -255
t-257.5 -169t-310.5 -62.5zM928 133q172 0 317.5 83.5t231.5 231t86 324.5q0 180 -85.5 327.5t-230.5 230.5t-315 83q-168 0 -312.5 -84t-230.5 -231.5t-86 -323.5q0 -136 52 -257t138 -204t200 -131.5t235 -48.5z" />
    <glyph glyph-name="ohungarumlaut" unicode="&#x151;" horiz-adv-x="1234" 
d="M653 1507l-170 -377l-88 27l101 379zM991 1507l-190 -377l-88 27l123 379zM612 -29q-144 0 -259 66.5t-178.5 183t-63.5 260.5q0 136 63.5 250t180 182t261.5 68q220 0 363 -144.5t143 -359.5q0 -217 -143 -361.5t-367 -144.5zM616 119q150 0 245 99.5t95 258.5
q0 154 -95.5 255.5t-244.5 101.5q-147 0 -242 -101t-95 -254q0 -161 93 -260.5t244 -99.5z" />
    <glyph glyph-name="OE" unicode="&#x152;" horiz-adv-x="2539" 
d="M2349 1544v-160h-635v-460h615v-160h-615v-604h635v-160h-805v311q-99 -157 -263.5 -248.5t-354.5 -91.5q-157 0 -302 61.5t-253 167.5t-173 256.5t-65 319.5q0 162 64.5 310t173 254.5t256.5 169.5t309 63q187 0 347.5 -92.5t260.5 -251.5v315h805zM928 133
q125 0 238.5 49t196.5 133t132 203t49 252q0 180 -83 328t-223.5 231.5t-305.5 83.5q-168 0 -312.5 -84t-230.5 -231.5t-86 -323.5q0 -136 52 -257t138 -204t200 -131.5t235 -48.5z" />
    <glyph glyph-name="oe" unicode="&#x153;" horiz-adv-x="1974" 
d="M1864 492v-46h-742q3 -146 84 -236.5t215 -90.5q94 0 160 41.5t125 130.5l133 -80q-74 -120 -176 -180t-246 -60q-131 0 -231.5 62.5t-155.5 171.5q-63 -109 -172 -171.5t-246 -62.5q-144 0 -259 66.5t-178.5 183t-63.5 260.5q0 136 63.5 250t180 182t261.5 68
q134 0 243.5 -62.5t170.5 -170.5q57 108 157.5 170.5t225.5 62.5q210 0 330.5 -137t120.5 -352zM616 119q150 0 245 99.5t95 258.5q0 155 -95 256t-245 101q-148 0 -242.5 -101t-94.5 -254q0 -161 93.5 -260.5t243.5 -99.5zM1130 582h566q-11 109 -87 180.5t-194 71.5
q-112 0 -187.5 -68.5t-97.5 -183.5z" />
    <glyph glyph-name="Racute" unicode="&#x154;" horiz-adv-x="1185" 
d="M731 2036l148 -97l-361 -278l-84 63zM639 676l487 -676h-208l-461 664h-66v-664h-170v1544h225q260 0 413 -109t153 -323q0 -165 -98 -278t-275 -158zM473 1384h-82v-573h80q176 0 275.5 75.5t99.5 221.5q0 136 -97.5 206t-275.5 70z" />
    <glyph glyph-name="racute" unicode="&#x155;" horiz-adv-x="727" 
d="M702 1448l-344 -307l-88 57l279 334zM344 0h-164v954h164v-118h4q48 74 97 109.5t118 35.5q79 0 156 -47l-74 -150q-55 37 -113 37q-90 0 -139 -76t-49 -225v-520z" />
    <glyph glyph-name="uni0156" unicode="&#x156;" horiz-adv-x="1185" 
d="M639 676l487 -676h-208l-461 664h-66v-664h-170v1544h225q260 0 413 -109t153 -323q0 -165 -98 -278t-275 -158zM473 1384h-82v-573h80q176 0 275.5 75.5t99.5 221.5q0 136 -97.5 206t-275.5 70zM561 -500l-106 54l143 321l135 -63z" />
    <glyph glyph-name="uni0157" unicode="&#x157;" horiz-adv-x="727" 
d="M344 0h-164v954h164v-118h4q48 74 97 109.5t118 35.5q79 0 156 -47l-74 -150q-55 37 -113 37q-90 0 -139 -76t-49 -225v-520zM373 -188l-172 -312l-107 54l144 321z" />
    <glyph glyph-name="Rcaron" unicode="&#x158;" horiz-adv-x="1185" 
d="M846 2023l110 -88l-327 -278l-332 278l113 88l219 -184zM639 676l487 -676h-208l-461 664h-66v-664h-170v1544h225q260 0 413 -109t153 -323q0 -165 -98 -278t-275 -158zM473 1384h-82v-573h80q176 0 275.5 75.5t99.5 221.5q0 136 -97.5 206t-275.5 70z" />
    <glyph glyph-name="rcaron" unicode="&#x159;" horiz-adv-x="727" 
d="M768 1432l-328 -295l-331 295l112 86l219 -199l217 199zM344 0h-164v954h164v-118h4q48 74 97 109.5t118 35.5q79 0 156 -47l-74 -150q-55 37 -113 37q-90 0 -139 -76t-49 -225v-520z" />
    <glyph glyph-name="Sacute" unicode="&#x15a;" horiz-adv-x="1222" 
d="M862 1939l-360 -278l-84 63l297 312zM629 -29q-186 0 -319.5 97.5t-190.5 259.5l157 65q48 -126 138.5 -194t214.5 -68q126 0 203 76.5t77 195.5t-69 197t-254 162q-81 36 -137.5 67t-107 69.5t-79.5 79.5t-46 93.5t-17 116.5q0 163 118 274t297 111q143 0 248.5 -67.5
t169.5 -188.5l-141 -82q-54 91 -119.5 134.5t-157.5 43.5q-106 0 -175.5 -64.5t-69.5 -160.5q0 -92 68.5 -152t254.5 -143q214 -98 301.5 -207t87.5 -285q0 -191 -129 -310.5t-323 -119.5z" />
    <glyph glyph-name="sacute" unicode="&#x15b;" horiz-adv-x="829" 
d="M690 1454l-344 -307l-88 57l279 334zM426 -29q-126 0 -214 58.5t-126 150.5l125 92q67 -151 215 -151q73 0 114.5 38.5t41.5 98.5t-44 99.5t-165 93.5q-126 58 -180 122t-54 158q0 114 81.5 182t203.5 68q97 0 170 -39t111 -104l-121 -97q-25 41 -67.5 67t-94.5 26
q-55 0 -90 -27.5t-35 -75.5q0 -46 43.5 -79.5t171.5 -88.5q125 -56 176 -125t51 -174q0 -129 -86.5 -211t-226.5 -82z" />
    <glyph glyph-name="Scircumflex" unicode="&#x15c;" horiz-adv-x="1222" 
d="M608 1833l-217 -170l-110 88l327 266l332 -266l-113 -88zM629 -29q-186 0 -319.5 97.5t-190.5 259.5l157 65q48 -126 138.5 -194t214.5 -68q126 0 203 76.5t77 195.5t-69 197t-254 162q-81 36 -137.5 67t-107 69.5t-79.5 79.5t-46 93.5t-17 116.5q0 163 118 274t297 111
q143 0 248.5 -67.5t169.5 -188.5l-141 -82q-54 91 -119.5 134.5t-157.5 43.5q-106 0 -175.5 -64.5t-69.5 -160.5q0 -92 68.5 -152t254.5 -143q214 -98 301.5 -207t87.5 -285q0 -191 -129 -310.5t-323 -119.5z" />
    <glyph glyph-name="scircumflex" unicode="&#x15d;" horiz-adv-x="829" 
d="M424 1346l-217 -199l-111 88l328 295l332 -295l-113 -88zM426 -29q-126 0 -214 58.5t-126 150.5l125 92q67 -151 215 -151q73 0 114.5 38.5t41.5 98.5t-44 99.5t-165 93.5q-126 58 -180 122t-54 158q0 114 81.5 182t203.5 68q97 0 170 -39t111 -104l-121 -97
q-25 41 -67.5 67t-94.5 26q-55 0 -90 -27.5t-35 -75.5q0 -46 43.5 -79.5t171.5 -88.5q125 -56 176 -125t51 -174q0 -129 -86.5 -211t-226.5 -82z" />
    <glyph glyph-name="Scedilla" unicode="&#x15e;" horiz-adv-x="1222" 
d="M629 -29q-186 0 -319.5 97.5t-190.5 259.5l157 65q48 -126 138.5 -194t214.5 -68q126 0 203 76.5t77 195.5t-69 197t-254 162q-81 36 -137.5 67t-107 69.5t-79.5 79.5t-46 93.5t-17 116.5q0 163 118 274t297 111q143 0 248.5 -67.5t169.5 -188.5l-141 -82
q-54 91 -119.5 134.5t-157.5 43.5q-106 0 -175.5 -64.5t-69.5 -160.5q0 -92 68.5 -152t254.5 -143q214 -98 301.5 -207t87.5 -285q0 -191 -129 -310.5t-323 -119.5zM719 -141l-219 -293l-99 59l195 307z" />
    <glyph glyph-name="scedilla" unicode="&#x15f;" horiz-adv-x="829" 
d="M426 -29q-126 0 -214 58.5t-126 150.5l125 92q67 -151 215 -151q73 0 114.5 38.5t41.5 98.5t-44 99.5t-165 93.5q-126 58 -180 122t-54 158q0 114 81.5 182t203.5 68q97 0 170 -39t111 -104l-121 -97q-25 41 -67.5 67t-94.5 26q-55 0 -90 -27.5t-35 -75.5
q0 -46 43.5 -79.5t171.5 -88.5q125 -56 176 -125t51 -174q0 -129 -86.5 -211t-226.5 -82zM530 -141l-219 -293l-98 59l195 307z" />
    <glyph glyph-name="Scaron" unicode="&#x160;" horiz-adv-x="1222" 
d="M940 1935l-328 -278l-331 278l112 88l219 -184l217 184zM629 -29q-186 0 -319.5 97.5t-190.5 259.5l157 65q48 -126 138.5 -194t214.5 -68q126 0 203 76.5t77 195.5t-69 197t-254 162q-81 36 -137.5 67t-107 69.5t-79.5 79.5t-46 93.5t-17 116.5q0 163 118 274t297 111
q143 0 248.5 -67.5t169.5 -188.5l-141 -82q-54 91 -119.5 134.5t-157.5 43.5q-106 0 -175.5 -64.5t-69.5 -160.5q0 -92 68.5 -152t254.5 -143q214 -98 301.5 -207t87.5 -285q0 -191 -129 -310.5t-323 -119.5z" />
    <glyph glyph-name="scaron" unicode="&#x161;" horiz-adv-x="829" 
d="M756 1438l-328 -295l-332 295l113 86l219 -199l217 199zM426 -29q-126 0 -214 58.5t-126 150.5l125 92q67 -151 215 -151q73 0 114.5 38.5t41.5 98.5t-44 99.5t-165 93.5q-126 58 -180 122t-54 158q0 114 81.5 182t203.5 68q97 0 170 -39t111 -104l-121 -97
q-25 41 -67.5 67t-94.5 26q-55 0 -90 -27.5t-35 -75.5q0 -46 43.5 -79.5t171.5 -88.5q125 -56 176 -125t51 -174q0 -129 -86.5 -211t-226.5 -82z" />
    <glyph glyph-name="uni0162" unicode="&#x162;" horiz-adv-x="952" 
d="M561 0h-168v1384h-375v160h916v-160h-373v-1384zM578 -141l-220 -293l-98 59l195 307z" />
    <glyph glyph-name="uni0163" unicode="&#x163;" horiz-adv-x="579" 
d="M365 0h-164v801h-160v153h160v353h164v-353h174v-153h-174v-801zM391 -141l-219 -293l-98 59l194 307z" />
    <glyph glyph-name="Tcaron" unicode="&#x164;" horiz-adv-x="952" 
d="M805 1935l-328 -278l-332 278l113 88l219 -184l217 184zM561 0h-168v1384h-375v160h916v-160h-373v-1384z" />
    <glyph glyph-name="tcaron" unicode="&#x165;" horiz-adv-x="579" 
d="M717 1520l-148 -338l-100 28l90 359zM365 0h-164v801h-160v153h160v353h164v-353h174v-153h-174v-801z" />
    <glyph glyph-name="Tbar" unicode="&#x166;" horiz-adv-x="952" 
d="M936 1544v-160h-373v-555h223v-147h-223v-682h-170v682h-223v147h223v555h-373v160h916z" />
    <glyph glyph-name="tbar" unicode="&#x167;" horiz-adv-x="579" 
d="M539 954v-153h-174v-289h116v-113h-116v-399h-164v399h-107v113h107v289h-160v153h160v353h164v-353h174z" />
    <glyph glyph-name="Utilde" unicode="&#x168;" horiz-adv-x="1492" 
d="M881 1686q-50 0 -146.5 53t-134.5 53q-63 0 -119 -106l-94 79q54 94 102 132t119 38q40 0 95.5 -28t106 -56t79.5 -28q64 0 125 112l94 -75q-80 -174 -227 -174zM745 -29q-158 0 -281 68.5t-193 200t-70 307.5v997h170v-981q0 -212 100 -321t274 -109q175 0 276 109.5
t101 326.5v975h170v-997q0 -266 -152 -421t-395 -155z" />
    <glyph glyph-name="utilde" unicode="&#x169;" horiz-adv-x="1101" 
d="M686 1178q-40 0 -94 27t-104.5 54t-84.5 27t-60.5 -26.5t-55.5 -81.5l-97 79q56 94 104.5 132t119.5 38q39 0 93.5 -28t105 -56t79.5 -28q64 0 125 112l96 -75q-80 -174 -227 -174zM551 -27q-186 0 -285.5 106.5t-99.5 315.5v559h164v-553q0 -141 53 -210.5t168 -69.5
q223 0 223 280v553h164v-559q0 -199 -97.5 -310.5t-289.5 -111.5z" />
    <glyph glyph-name="Umacron" unicode="&#x16a;" horiz-adv-x="1492" 
d="M1040 1731h-585v129h585v-129zM745 -29q-158 0 -281 68.5t-193 200t-70 307.5v997h170v-981q0 -212 100 -321t274 -109q175 0 276 109.5t101 326.5v975h170v-997q0 -266 -152 -421t-395 -155z" />
    <glyph glyph-name="umacron" unicode="&#x16b;" horiz-adv-x="1101" 
d="M844 1247h-584v129h584v-129zM551 -27q-186 0 -285.5 106.5t-99.5 315.5v559h164v-553q0 -141 53 -210.5t168 -69.5q223 0 223 280v553h164v-559q0 -199 -97.5 -310.5t-289.5 -111.5z" />
    <glyph glyph-name="Ubreve" unicode="&#x16c;" horiz-adv-x="1492" 
d="M745 1673q-134 0 -220 79t-99 224h135q12 -84 61 -128t126 -44q80 0 128 44t60 128h135q-17 -148 -103 -225.5t-223 -77.5zM745 -29q-158 0 -281 68.5t-193 200t-70 307.5v997h170v-981q0 -212 100 -321t274 -109q175 0 276 109.5t101 326.5v975h170v-997
q0 -266 -152 -421t-395 -155z" />
    <glyph glyph-name="ubreve" unicode="&#x16d;" horiz-adv-x="1101" 
d="M551 1143q-134 0 -220.5 79t-101.5 224h136q13 -84 62 -129t126 -45q160 0 188 174h136q-17 -149 -102.5 -226t-223.5 -77zM551 -27q-186 0 -285.5 106.5t-99.5 315.5v559h164v-553q0 -141 53 -210.5t168 -69.5q223 0 223 280v553h164v-559q0 -199 -97.5 -310.5
t-289.5 -111.5z" />
    <glyph glyph-name="Uring" unicode="&#x16e;" horiz-adv-x="1492" 
d="M748 1604q-88 0 -150.5 61t-62.5 152t62.5 151t150.5 60t149 -60t61 -151t-61.5 -152t-148.5 -61zM748 1694q51 0 86.5 34t35.5 89t-35.5 88.5t-86.5 33.5t-87 -33.5t-36 -88.5t36 -89t87 -34zM745 -29q-158 0 -281 68.5t-193 200t-70 307.5v997h170v-981
q0 -212 100 -321t274 -109q175 0 276 109.5t101 326.5v975h170v-997q0 -266 -152 -421t-395 -155z" />
    <glyph glyph-name="uring" unicode="&#x16f;" horiz-adv-x="1101" 
d="M553 1133q-94 0 -161.5 65t-67.5 162t67.5 162t161.5 65t160.5 -65t66.5 -162t-66.5 -162t-160.5 -65zM553 1237q51 0 86 34t35 89t-35 89t-86 34q-52 0 -87.5 -33.5t-35.5 -89.5t35.5 -89.5t87.5 -33.5zM551 -27q-186 0 -285.5 106.5t-99.5 315.5v559h164v-553
q0 -141 53 -210.5t168 -69.5q223 0 223 280v553h164v-559q0 -199 -97.5 -310.5t-289.5 -111.5z" />
    <glyph glyph-name="Uhungarumlaut" unicode="&#x170;" horiz-adv-x="1492" 
d="M797 2034l-170 -351l-88 25l100 352zM1135 2034l-191 -351l-88 25l123 352zM745 -29q-158 0 -281 68.5t-193 200t-70 307.5v997h170v-981q0 -212 100 -321t274 -109q175 0 276 109.5t101 326.5v975h170v-997q0 -266 -152 -421t-395 -155z" />
    <glyph glyph-name="uhungarumlaut" unicode="&#x171;" horiz-adv-x="1101" 
d="M588 1507l-170 -377l-88 27l100 379zM926 1507l-191 -377l-88 27l123 379zM551 -27q-186 0 -285.5 106.5t-99.5 315.5v559h164v-553q0 -141 53 -210.5t168 -69.5q223 0 223 280v553h164v-559q0 -199 -97.5 -310.5t-289.5 -111.5z" />
    <glyph glyph-name="Uogonek" unicode="&#x172;" horiz-adv-x="1492" 
d="M1122 569v975h170v-997q0 -201 -89 -341t-245 -198q-110 -59 -153 -111.5t-43 -107.5q0 -42 26.5 -67t71.5 -25q63 0 131 33l47 -105q-86 -53 -194 -53q-91 0 -152 51t-61 141q0 121 112 207q-240 0 -391 156t-151 420v997h170v-981q0 -212 100 -321t274 -109
q175 0 276 109.5t101 326.5z" />
    <glyph glyph-name="uogonek" unicode="&#x173;" horiz-adv-x="1101" 
d="M725 4q-168 -97 -168 -203q0 -42 26.5 -67t71.5 -25q63 0 131 33l48 -104q-88 -54 -195 -54q-90 0 -151.5 51.5t-61.5 141.5q0 116 100 196q-174 8 -267 115t-93 307v559h164v-553q0 -141 53 -210.5t168 -69.5q223 0 223 280v553h164v-559q0 -147 -53.5 -247t-159.5 -144
z" />
    <glyph glyph-name="Wcircumflex" unicode="&#x174;" horiz-adv-x="2148" 
d="M1067 1833l-217 -170l-111 88l328 266l332 -266l-113 -88zM631 -70h-4l-613 1614h183l430 -1173l440 1222h4l434 -1222l447 1173h184l-633 -1614h-6l-430 1219z" />
    <glyph glyph-name="wcircumflex" unicode="&#x175;" horiz-adv-x="1550" 
d="M774 1339l-217 -198l-111 88l328 295l332 -295l-113 -88zM487 -57h-4l-467 1011h185l282 -657l291 725h4l291 -725l283 657h182l-467 -1009h-4l-287 712z" />
    <glyph glyph-name="Ycircumflex" unicode="&#x176;" horiz-adv-x="1181" 
d="M590 1833l-217 -170l-111 88l328 266l332 -266l-113 -88zM676 0h-170v678l-504 866h195l395 -690l393 690h197l-506 -866v-678z" />
    <glyph glyph-name="ycircumflex" unicode="&#x177;" horiz-adv-x="1007" 
d="M729 1141l-219 198l-217 -198l-111 88l328 295l332 -295zM520 319l299 635h185l-725 -1491h-187l342 680l-430 811h191z" />
    <glyph glyph-name="Ydieresis" unicode="&#x178;" horiz-adv-x="1181" 
d="M389 1712q-45 0 -77.5 32t-32.5 77t33 76.5t77 31.5q42 0 75.5 -31.5t33.5 -76.5q0 -46 -33 -77.5t-76 -31.5zM793 1712q-45 0 -77 31t-32 78q0 46 33.5 77t75.5 31q44 0 77 -32t33 -76q0 -46 -33 -77.5t-77 -31.5zM676 0h-170v678l-504 866h195l395 -690l393 690h197
l-506 -866v-678z" />
    <glyph glyph-name="Zacute" unicode="&#x179;" horiz-adv-x="1257" 
d="M930 1939l-361 -278l-84 63l297 312zM1174 0h-1115v4l844 1380h-725v160h1006v-4l-846 -1380h836v-160z" />
    <glyph glyph-name="zacute" unicode="&#x17a;" horiz-adv-x="1073" 
d="M819 1448l-344 -307l-88 57l279 334zM1006 0h-963v4l633 797h-545v153h868v-2l-632 -796h639v-156z" />
    <glyph glyph-name="Zdotaccent" unicode="&#x17b;" horiz-adv-x="1257" 
d="M678 1712q-47 0 -80 33.5t-33 79.5q0 44 33.5 77t77.5 33q47 0 81 -32t34 -78t-33 -79.5t-80 -33.5zM1174 0h-1115v4l844 1380h-725v160h1006v-4l-846 -1380h836v-160z" />
    <glyph glyph-name="zdotaccent" unicode="&#x17c;" horiz-adv-x="1073" 
d="M555 1251q-49 0 -81 33t-32 80q0 45 33 78t78 33q47 0 80 -32.5t33 -78.5t-32.5 -79.5t-78.5 -33.5zM1006 0h-963v4l633 797h-545v153h868v-2l-632 -796h639v-156z" />
    <glyph glyph-name="Zcaron" unicode="&#x17d;" horiz-adv-x="1257" 
d="M1008 1935l-328 -278l-332 278l113 88l219 -184l217 184zM1174 0h-1115v4l844 1380h-725v160h1006v-4l-846 -1380h836v-160z" />
    <glyph glyph-name="zcaron" unicode="&#x17e;" horiz-adv-x="1073" 
d="M885 1432l-328 -295l-332 295l113 86l219 -199l217 199zM1006 0h-963v4l633 797h-545v153h868v-2l-632 -796h639v-156z" />
    <glyph glyph-name="uni018F" unicode="&#x18f;" horiz-adv-x="1828" 
d="M932 1573q208 0 383.5 -106t278 -291t102.5 -406q0 -164 -61.5 -312.5t-166 -255t-248 -169t-302.5 -62.5q-185 0 -334.5 66.5t-247.5 184t-150.5 278t-52.5 350.5v4h1389q-28 244 -195 401.5t-397 157.5q-164 0 -293 -54.5t-244 -160.5l-114 115q281 260 653 260z
M920 131q154 0 286 73t215.5 202t100.5 290h-1205q22 -250 184 -407.5t419 -157.5z" />
    <glyph glyph-name="florin" unicode="&#x192;" horiz-adv-x="995" 
d="M836 1546q-73 0 -108.5 -55t-63.5 -205l-64 -332h248l-19 -133h-254l-182 -966q-40 -215 -108.5 -303.5t-196.5 -88.5q-78 0 -139 21v158q52 -25 108 -25q75 0 109 54.5t63 205.5l179 944h-199l18 133h205l68 355q40 215 108.5 303t198.5 88q76 0 137 -21v-155
q-52 22 -108 22z" />
    <glyph glyph-name="uni01F4" unicode="&#x1f4;" horiz-adv-x="1765" 
d="M1145 1939l-361 -278l-84 63l297 312zM907 -29q-160 0 -303.5 63t-246.5 169.5t-163.5 254.5t-60.5 312q0 169 63.5 318.5t171 255.5t254.5 167.5t308 61.5q191 0 343 -77.5t288 -238.5l-123 -114q-199 270 -506 270q-129 0 -245 -49.5t-200.5 -134.5t-134 -205
t-49.5 -254q0 -136 50.5 -256t134 -203t194 -131.5t229.5 -48.5q223 0 374 140t163 347v3h-444v157h628v-37q0 -228 -90.5 -403t-255 -271t-379.5 -96z" />
    <glyph glyph-name="uni01F5" unicode="&#x1f5;" horiz-adv-x="1241" 
d="M860 1448l-344 -307l-88 57l279 334zM580 -545q-198 0 -323.5 97.5t-145.5 287.5l163 15q40 -250 308 -250q156 0 235.5 94.5t79.5 275.5v189h-2q-129 -193 -352 -193q-125 0 -227.5 66.5t-161 183t-58.5 258.5q0 213 127.5 356.5t315.5 143.5q223 0 356 -188h2v163h164
v-958q0 -260 -119.5 -400.5t-361.5 -140.5zM582 119q140 0 232.5 98.5t92.5 259.5q0 159 -93 258t-232 99q-137 0 -227.5 -102.5t-90.5 -252.5q0 -158 88 -259t230 -101z" />
    <glyph glyph-name="Aringacute" unicode="&#x1fa;" horiz-adv-x="1431" 
d="M848 2413l147 -97l-360 -278l-84 63zM1430 0h-187l-182 436h-690l-187 -436h-182l713 1604q-83 5 -142 65t-59 148q0 91 62.5 151t150.5 60t149.5 -60t61.5 -151q0 -88 -58 -148t-141 -65zM604 1817q0 -55 36 -89t87 -34t87 34t36 89t-36 88.5t-87 33.5t-87 -33.5
t-36 -88.5zM578 918l-138 -322h553l-135 324q-74 172 -135 329q-62 -145 -145 -331z" />
    <glyph glyph-name="aringacute" unicode="&#x1fb;" horiz-adv-x="1280" 
d="M856 1931l-344 -307l-90 57l280 334zM631 1133q-94 0 -162 65t-68 162t68 162t162 65t160.5 -65t66.5 -162t-66.5 -162t-160.5 -65zM631 1237q51 0 86 34t35 89t-35 89t-86 34q-52 0 -87.5 -33.5t-35.5 -89.5t35.5 -89.5t87.5 -33.5zM586 -29q-203 0 -339 146t-136 362
q0 139 62 254t170 180.5t239 65.5q225 0 352 -188h2v163h164v-954h-164v164h-2q-134 -193 -348 -193zM610 119q145 0 240.5 101t95.5 257q0 154 -95.5 255.5t-240.5 101.5q-143 0 -237 -102t-94 -253q0 -158 91.5 -259t239.5 -101z" />
    <glyph glyph-name="AEacute" unicode="&#x1fc;" horiz-adv-x="2033" 
d="M1143 2036l147 -97l-360 -278l-84 63zM1346 160h618l70 -160h-793l-182 432h-684l-187 -432h-186l705 1544h665l70 -160h-611l193 -460h612l70 -160h-612zM649 1051l-198 -459h540l-192 459q-32 74 -72 172q-14 -29 -39.5 -86t-38.5 -86z" />
    <glyph glyph-name="aeacute" unicode="&#x1fd;" horiz-adv-x="1765" 
d="M989 1532l154 -84l-344 -307l-88 57zM1653 492v-46h-744q5 -146 86.5 -235.5t216.5 -89.5q96 0 162 42t127 132l131 -80q-74 -122 -175.5 -181t-250.5 -59q-124 0 -221.5 54.5t-153.5 152.5q-99 -207 -374 -207q-158 0 -257.5 87t-99.5 235q0 149 101.5 233t269.5 84
q175 0 274 -96v82q0 117 -60 175.5t-169 58.5q-146 0 -280 -78l-62 135q170 90 365 90q240 0 313 -184q59 87 151 135.5t203 48.5q139 0 241.5 -64.5t154 -174t51.5 -250.5zM920 582h567q-11 109 -87 180.5t-194 71.5q-112 0 -188.5 -69t-97.5 -183zM492 102q112 0 184 55.5
t72 147.5q0 88 -69 135t-181 47q-102 0 -166 -49.5t-64 -142.5q0 -94 61 -143.5t163 -49.5z" />
    <glyph glyph-name="Oslashacute" unicode="&#x1fe;" horiz-adv-x="1865" 
d="M1038 2036l148 -97l-361 -278l-84 63zM1696 1450l-156 -156q92 -107 142.5 -241t50.5 -283q0 -164 -65 -312.5t-174 -255t-257.5 -169t-310.5 -62.5q-144 0 -278.5 51.5t-241.5 145.5l-168 -166l-97 98l170 168q-178 220 -178 508q0 162 64.5 310t173 254.5t256.5 169.5
t309 63q139 0 269 -47.5t235 -134.5l157 157zM303 774q0 -222 127 -387l895 889q-174 137 -393 137q-168 0 -312.5 -84t-230.5 -231.5t-86 -323.5zM928 133q172 0 317.5 83.5t231.5 231t86 324.5q0 229 -140 406l-899 -891q84 -74 188 -114t216 -40z" />
    <glyph glyph-name="oslashacute" unicode="&#x1ff;" horiz-adv-x="1234" 
d="M735 1532l154 -84l-344 -307l-88 57zM1081 1020l78 -78l-145 -145q108 -133 108 -320q0 -217 -143 -361.5t-367 -144.5q-178 0 -315 105l-145 -148l-76 78l145 146q-110 138 -110 329q0 136 63.5 250t180 182t261.5 68q188 0 320 -107zM279 479q0 -120 55 -213l493 498
q-89 70 -211 70q-148 0 -242.5 -101t-94.5 -254zM956 477q0 115 -55 205l-493 -496q86 -67 208 -67q150 0 245 99.5t95 258.5z" />
    <glyph glyph-name="uni0218" unicode="&#x218;" horiz-adv-x="1222" 
d="M629 -29q-186 0 -319.5 97.5t-190.5 259.5l157 65q48 -126 138.5 -194t214.5 -68q126 0 203 76.5t77 195.5t-69 197t-254 162q-81 36 -137.5 67t-107 69.5t-79.5 79.5t-46 93.5t-17 116.5q0 163 118 274t297 111q143 0 248.5 -67.5t169.5 -188.5l-141 -82
q-54 91 -119.5 134.5t-157.5 43.5q-106 0 -175.5 -64.5t-69.5 -160.5q0 -92 68.5 -152t254.5 -143q214 -98 301.5 -207t87.5 -285q0 -191 -129 -310.5t-323 -119.5zM715 -188l-172 -312l-107 54l144 321z" />
    <glyph glyph-name="uni0219" unicode="&#x219;" horiz-adv-x="829" 
d="M426 -29q-126 0 -214 58.5t-126 150.5l125 92q67 -151 215 -151q73 0 114.5 38.5t41.5 98.5t-44 99.5t-165 93.5q-126 58 -180 122t-54 158q0 114 81.5 182t203.5 68q97 0 170 -39t111 -104l-121 -97q-25 41 -67.5 67t-94.5 26q-55 0 -90 -27.5t-35 -75.5
q0 -46 43.5 -79.5t171.5 -88.5q125 -56 176 -125t51 -174q0 -129 -86.5 -211t-226.5 -82zM528 -188l-172 -312l-106 54l143 321z" />
    <glyph glyph-name="uni021A" unicode="&#x21a;" horiz-adv-x="952" 
d="M561 0h-168v1384h-375v160h916v-160h-373v-1384zM573 -188l-172 -312l-106 54l143 321z" />
    <glyph glyph-name="uni021B" unicode="&#x21b;" horiz-adv-x="579" 
d="M365 0h-164v801h-160v153h160v353h164v-353h174v-153h-174v-801zM387 -188l-172 -312l-106 54l143 321z" />
    <glyph glyph-name="uni0237" unicode="&#x237;" horiz-adv-x="524" 
d="M344 -537h-164v1491h164v-1491z" />
    <glyph glyph-name="uni0259" unicode="&#x259;" horiz-adv-x="1136" 
d="M555 983q211 0 341 -140t130 -364q0 -223 -130 -364.5t-337 -141.5q-139 0 -241.5 64.5t-154.5 174.5t-52 251v45h743q-3 145 -86 236.5t-219 91.5q-91 0 -157 -40.5t-126 -127.5l-131 75q73 121 174.5 180.5t245.5 59.5zM557 121q114 0 191 70t96 182h-563
q9 -109 84 -180.5t192 -71.5z" />
    <glyph glyph-name="uni02BC" unicode="&#x2bc;" horiz-adv-x="573" 
d="M432 1528l-192 -428l-113 45l154 440z" />
    <glyph glyph-name="circumflex" unicode="&#x2c6;" horiz-adv-x="798" 
d="M397 1339l-217 -198l-110 88l327 295l332 -295l-113 -88z" />
    <glyph glyph-name="caron" unicode="&#x2c7;" horiz-adv-x="770" 
d="M715 1432l-328 -295l-332 295l113 86l219 -199l217 199z" />
    <glyph glyph-name="uni02C9" unicode="&#x2c9;" horiz-adv-x="794" 
d="M688 1276h-584v129h584v-129z" />
    <glyph glyph-name="breve" unicode="&#x2d8;" horiz-adv-x="761" 
d="M379 1143q-134 0 -220.5 79t-101.5 224h136q13 -84 62 -129t126 -45q160 0 188 174h136q-17 -149 -102.5 -226t-223.5 -77z" />
    <glyph glyph-name="dotaccent" unicode="&#x2d9;" horiz-adv-x="452" 
d="M227 1251q-49 0 -80.5 33t-31.5 80q0 45 32.5 78t77.5 33q47 0 80 -32.5t33 -78.5t-32.5 -79.5t-78.5 -33.5z" />
    <glyph glyph-name="ring" unicode="&#x2da;" horiz-adv-x="563" 
d="M283 1147q-88 0 -150.5 61t-62.5 152t62.5 151t150.5 60q87 0 149 -60t62 -151t-62.5 -152t-148.5 -61zM283 1237q51 0 85.5 33.5t34.5 89.5t-34.5 89.5t-85.5 33.5q-52 0 -87.5 -33.5t-35.5 -89.5t35.5 -89.5t87.5 -33.5z" />
    <glyph glyph-name="ogonek" unicode="&#x2db;" horiz-adv-x="821" 
d="M420 -428q-91 0 -152 51t-61 141q0 184 254 283l82 -35q-114 -61 -159.5 -114t-45.5 -109q0 -42 26.5 -67t71.5 -25q63 0 131 33l47 -105q-86 -53 -194 -53z" />
    <glyph glyph-name="tilde" unicode="&#x2dc;" horiz-adv-x="874" 
d="M571 1178q-40 0 -93 27t-103 54t-84 27q-35 0 -63 -27t-56 -81l-94 79q54 94 102 132t119 38q40 0 95.5 -28t106 -56t79.5 -28q64 0 125 112l94 -75q-80 -174 -228 -174z" />
    <glyph glyph-name="hungarumlaut" unicode="&#x2dd;" horiz-adv-x="692" 
d="M313 1507l-170 -377l-88 27l101 379zM651 1507l-190 -377l-88 27l123 379z" />
    <glyph glyph-name="gravecomb" unicode="&#x300;" 
d="M-55 1198l-90 -57l-342 307l151 84z" />
    <glyph glyph-name="acutecomb" unicode="&#x301;" 
d="M-53 1448l-344 -307l-88 57l278 334z" />
    <glyph glyph-name="uni0302" unicode="&#x302;" 
d="M-401 1339l-217 -198l-111 88l328 295l331 -295l-112 -88z" />
    <glyph glyph-name="tildecomb" unicode="&#x303;" 
d="M-319 1178q-40 0 -94 27t-104.5 54t-84.5 27t-61 -27t-56 -81l-96 79q56 94 104 132t119 38q39 0 94 -28t105.5 -56t79.5 -28q64 0 125 112l96 -75q-80 -174 -227 -174z" />
    <glyph glyph-name="uni0304" unicode="&#x304;" 
d="M-106 1247h-584v129h584v-129z" />
    <glyph glyph-name="uni0306" unicode="&#x306;" 
d="M-383 1143q-134 0 -220.5 79t-101.5 224h136q13 -84 62 -129t126 -45q160 0 188 174h136q-17 -149 -102.5 -226t-223.5 -77z" />
    <glyph glyph-name="uni0307" unicode="&#x307;" 
d="M-225 1251q-49 0 -81 33t-32 80q0 45 33 78t78 33q47 0 79.5 -32.5t32.5 -78.5t-32.5 -79.5t-77.5 -33.5z" />
    <glyph glyph-name="uni0308" unicode="&#x308;" 
d="M-582 1208q-44 0 -76 32.5t-32 76.5q0 45 33 76.5t75 31.5q44 0 76.5 -31.5t32.5 -76.5q0 -46 -32.5 -77.5t-76.5 -31.5zM-176 1208q-45 0 -77 31t-32 78q0 46 33 77t76 31t76.5 -32t33.5 -76q0 -46 -33 -77.5t-77 -31.5z" />
    <glyph glyph-name="uni030A" unicode="&#x30a;" 
d="M-281 1133q-94 0 -161.5 65t-67.5 162t67.5 162t161.5 65t161 -65t67 -162t-67 -162t-161 -65zM-281 1237q51 0 86 34t35 89t-35 89t-86 34q-52 0 -87 -33.5t-35 -89.5t35 -89.5t87 -33.5z" />
    <glyph glyph-name="uni030B" unicode="&#x30b;" 
d="M-379 1507l-170 -377l-88 27l100 379zM-41 1507l-190 -377l-88 27l122 379z" />
    <glyph glyph-name="uni030C" unicode="&#x30c;" 
d="M-53 1432l-328 -295l-332 295l113 86l219 -199l217 199z" />
    <glyph glyph-name="uni0312" unicode="&#x312;" 
d="M-82 1505l-145 -336l-154 66l191 321z" />
    <glyph glyph-name="uni0313" unicode="&#x313;" 
d="M-184 1540l-236 -512l-110 45l194 524z" />
    <glyph glyph-name="dotbelowcomb" unicode="&#x323;" 
d="M-225 -383q-47 0 -80 33.5t-33 79.5q0 44 33 77t78 33q47 0 80.5 -32t33.5 -78t-32.5 -79.5t-79.5 -33.5z" />
    <glyph glyph-name="uni0324" unicode="&#x324;" 
d="M-582 -383q-46 0 -78 32.5t-32 76.5q0 45 33 76.5t77 31.5q42 0 75.5 -31.5t33.5 -76.5q0 -46 -33 -77.5t-76 -31.5zM-178 -383q-45 0 -77 31t-32 78q0 46 33.5 77t75.5 31q44 0 77 -32t33 -76q0 -46 -33 -77.5t-77 -31.5z" />
    <glyph glyph-name="uni0325" unicode="&#x325;" 
d="M-281 -598q-88 0 -150.5 60.5t-62.5 150.5q0 91 62.5 152t150.5 61q87 0 149 -61t62 -152q0 -90 -62 -150.5t-149 -60.5zM-281 -508q51 0 87 33.5t36 87.5q0 55 -36 90t-87 35t-86.5 -34.5t-35.5 -90.5q0 -54 35.5 -87.5t86.5 -33.5z" />
    <glyph glyph-name="uni0326" unicode="&#x326;" 
d="M-84 -188l-172 -312l-106 54l143 321z" />
    <glyph glyph-name="uni0327" unicode="&#x327;" 
d="M-82 -141l-219 -293l-98 59l194 307z" />
    <glyph glyph-name="uni0328" unicode="&#x328;" 
d="M-401 -428q-91 0 -152 51t-61 141q0 184 254 283l81 -35q-114 -61 -159 -114t-45 -109q0 -42 26.5 -67t71.5 -25q63 0 131 33l47 -105q-86 -53 -194 -53z" />
    <glyph glyph-name="uni032E" unicode="&#x32e;" 
d="M-385 -494q-134 0 -220.5 78.5t-99.5 222.5l136 3q12 -84 60.5 -129.5t125.5 -45.5q79 0 127.5 45t60.5 130l136 -3q-17 -148 -102.5 -224.5t-223.5 -76.5z" />
    <glyph glyph-name="uni0331" unicode="&#x331;" 
d="M-102 -330h-586v129h586v-129z" />
    <glyph glyph-name="uni0335" unicode="&#x335;" 
d="M-731 582h665v-111h-665v111z" />
    <glyph glyph-name="uni0336" unicode="&#x336;" 
d="M-954 553h886v-53h-886v53z" />
    <glyph glyph-name="uni0374" unicode="&#x374;" horiz-adv-x="600" 
d="M475 1522l-242 -539l-112 45l203 549z" />
    <glyph glyph-name="uni0375" unicode="&#x375;" horiz-adv-x="600" 
d="M434 197l-241 -537l-113 45l203 549z" />
    <glyph glyph-name="uni037E" unicode="&#x37e;" horiz-adv-x="600" 
d="M334 748q-46 0 -77.5 31t-31.5 77t31.5 78.5t77.5 32.5t78 -32.5t32 -78.5t-32 -77t-78 -31zM434 197l-241 -537l-113 45l203 549z" />
    <glyph glyph-name="tonos" unicode="&#x384;" horiz-adv-x="720" 
d="M336 1180h-105l91 403h176z" />
    <glyph glyph-name="dieresistonos" unicode="&#x385;" horiz-adv-x="780" 
d="M401 1198h-86l50 381h149zM160 1221q-41 0 -72 28.5t-31 71.5q0 42 30.5 71t72.5 29t72 -29t30 -71q0 -43 -30 -71.5t-72 -28.5zM621 1221q-44 0 -73.5 30t-29.5 70q0 42 30.5 71t72.5 29t72 -29t30 -71q0 -43 -30 -71.5t-72 -28.5z" />
    <glyph glyph-name="Alphatonos" unicode="&#x386;" horiz-adv-x="1431" 
d="M1430 0h-187l-182 436h-690l-187 -436h-182l723 1626h4zM209 1544h176l-162 -403h-104zM578 918l-138 -322h553l-135 324q-74 172 -135 329q-62 -145 -145 -331z" />
    <glyph glyph-name="anoteleia" unicode="&#x387;" horiz-adv-x="600" 
d="M299 745q-46 0 -77.5 32.5t-31.5 78.5t31.5 77.5t77.5 31.5t78.5 -31.5t32.5 -77.5t-32.5 -78.5t-78.5 -32.5z" />
    <glyph glyph-name="Epsilontonos" unicode="&#x388;" horiz-adv-x="1218" 
d="M-49 1141h-105l91 403h176zM1026 0h-805v1544h805v-160h-635v-460h615v-160h-615v-604h635v-160z" />
    <glyph glyph-name="Etatonos" unicode="&#x389;" horiz-adv-x="1546" 
d="M-49 1141h-105l91 403h176zM391 0h-170v1544h170v-626h762v626h170v-1544h-170v758h-762v-758z" />
    <glyph glyph-name="Iotatonos" unicode="&#x38a;" horiz-adv-x="614" 
d="M-49 1141h-105l91 403h176zM391 0h-170v1544h170v-1544z" />
    <glyph glyph-name="Omicrontonos" unicode="&#x38c;" horiz-adv-x="1865" 
d="M926 -29q-157 0 -302 61.5t-253 167.5t-173 256.5t-65 319.5q0 162 64.5 310t173 254.5t256.5 169.5t309 63q160 0 306.5 -62.5t254.5 -169t172 -256t64 -315.5q0 -164 -65 -312.5t-174 -255t-257.5 -169t-310.5 -62.5zM41 1141h-104l90 403h176zM928 133
q172 0 317.5 83.5t231.5 231t86 324.5q0 180 -85.5 327.5t-230.5 230.5t-315 83q-168 0 -312.5 -84t-230.5 -231.5t-86 -323.5q0 -136 52 -257t138 -204t200 -131.5t235 -48.5z" />
    <glyph glyph-name="Upsilontonos" unicode="&#x38e;" horiz-adv-x="1181" 
d="M592 854l393 690h197l-506 -866v-678h-170v678l-488 838l-149 -375h-105l91 403h342z" />
    <glyph glyph-name="Omegatonos" unicode="&#x38f;" horiz-adv-x="1888" 
d="M1389 145h348v-145h-584v137q206 116 302.5 277.5t96.5 382.5q0 165 -80.5 306.5t-220.5 225.5t-307 84t-308 -84t-221.5 -225.5t-80.5 -306.5q0 -219 96.5 -379t300.5 -277v-141h-579v145h348q-163 112 -249.5 277t-86.5 375q0 160 62 304t166.5 247.5t248.5 164
t303 60.5q157 0 300.5 -61t248 -164t167 -247t62.5 -304q0 -212 -86 -376.5t-247 -275.5zM-51 1141l90 403h176l-162 -403h-104z" />
    <glyph glyph-name="iotadieresistonos" unicode="&#x390;" horiz-adv-x="544" 
d="M293 1165h-86l49 381h150zM51 1188q-41 0 -71.5 28.5t-30.5 71.5t29.5 72t72.5 29q42 0 72.5 -29.5t30.5 -71.5q0 -43 -30.5 -71.5t-72.5 -28.5zM512 1188q-44 0 -73 30t-29 70q0 42 30 71.5t72 29.5t72 -29.5t30 -71.5q0 -43 -30 -71.5t-72 -28.5zM360 -18
q-88 0 -134 55.5t-46 159.5v757h162v-725q0 -102 78 -102q43 0 84 20v-141q-63 -24 -144 -24z" />
    <glyph glyph-name="Alpha" unicode="&#x391;" horiz-adv-x="1431" 
d="M1430 0h-187l-182 436h-690l-187 -436h-182l723 1626h4zM578 918l-138 -322h553l-135 324q-74 172 -135 329q-62 -145 -145 -331z" />
    <glyph glyph-name="Beta" unicode="&#x392;" horiz-adv-x="1245" 
d="M575 0h-354v1544h252q250 0 384 -104.5t134 -296.5q0 -113 -60 -202t-155 -128v-2q164 -32 256 -131.5t92 -245.5q0 -210 -145.5 -322t-403.5 -112zM391 1389v-531h119q151 0 231 76.5t80 202.5q0 252 -317 252h-113zM391 715v-555h199q181 0 270.5 76.5t89.5 203.5
t-93.5 201t-297.5 74h-168z" />
    <glyph glyph-name="Gamma" unicode="&#x393;" horiz-adv-x="956" 
d="M393 0h-172v1544h715v-153h-543v-1391z" />
    <glyph glyph-name="uni0394" unicode="&#x394;" horiz-adv-x="1431" 
d="M1430 0h-1428l723 1626h4zM627 1022l-371 -862h918l-361 868q-10 22 -92 221q-55 -134 -94 -227z" />
    <glyph glyph-name="Epsilon" unicode="&#x395;" horiz-adv-x="1218" 
d="M1026 0h-805v1544h805v-160h-635v-460h615v-160h-615v-604h635v-160z" />
    <glyph glyph-name="Zeta" unicode="&#x396;" horiz-adv-x="1257" 
d="M1174 0h-1115v4l844 1380h-725v160h1006v-4l-846 -1380h836v-160z" />
    <glyph glyph-name="Eta" unicode="&#x397;" horiz-adv-x="1546" 
d="M391 0h-170v1544h170v-626h762v626h170v-1544h-170v758h-762v-758z" />
    <glyph glyph-name="Theta" unicode="&#x398;" horiz-adv-x="1865" 
d="M926 -29q-157 0 -302 61.5t-253 167.5t-173 256.5t-65 319.5q0 162 64.5 310t173 254.5t256.5 169.5t309 63q160 0 306.5 -62.5t254.5 -169t172 -256t64 -315.5q0 -164 -65 -312.5t-174 -255t-257.5 -169t-310.5 -62.5zM928 133q172 0 317.5 83.5t231.5 231t86 324.5
q0 180 -85.5 327.5t-230.5 230.5t-315 83q-168 0 -312.5 -84t-230.5 -231.5t-86 -323.5q0 -136 52 -257t138 -204t200 -131.5t235 -48.5zM1294 698h-723v150h723v-150z" />
    <glyph glyph-name="Iota" unicode="&#x399;" horiz-adv-x="614" 
d="M391 0h-170v1544h170v-1544z" />
    <glyph glyph-name="Kappa" unicode="&#x39a;" horiz-adv-x="1312" 
d="M567 862l727 -862h-227l-618 752l-58 -50v-702h-170v1544h170v-653l660 653h225z" />
    <glyph glyph-name="Lambda" unicode="&#x39b;" horiz-adv-x="1398" 
d="M186 0h-184l700 1626h5l690 -1626h-185l-512 1251z" />
    <glyph glyph-name="Mu" unicode="&#x39c;" horiz-adv-x="1916" 
d="M963 -59h-7l-467 1171l-200 -1112h-176l317 1638h4l529 -1308l542 1308h6l293 -1638h-174l-188 1110z" />
    <glyph glyph-name="Nu" unicode="&#x39d;" horiz-adv-x="1746" 
d="M1356 342v1202h170v-1618h-6l-1129 1284v-1210h-170v1626h8z" />
    <glyph glyph-name="Xi" unicode="&#x39e;" horiz-adv-x="1413" 
d="M1202 1389h-989v155h989v-155zM1143 702h-858v152h858v-152zM1223 0h-1030v156h1030v-156z" />
    <glyph glyph-name="Omicron" unicode="&#x39f;" horiz-adv-x="1865" 
d="M926 -29q-157 0 -302 61.5t-253 167.5t-173 256.5t-65 319.5q0 162 64.5 310t173 254.5t256.5 169.5t309 63q160 0 306.5 -62.5t254.5 -169t172 -256t64 -315.5q0 -164 -65 -312.5t-174 -255t-257.5 -169t-310.5 -62.5zM928 133q172 0 317.5 83.5t231.5 231t86 324.5
q0 180 -85.5 327.5t-230.5 230.5t-315 83q-168 0 -312.5 -84t-230.5 -231.5t-86 -323.5q0 -136 52 -257t138 -204t200 -131.5t235 -48.5z" />
    <glyph glyph-name="Pi" unicode="&#x3a0;" horiz-adv-x="1536" 
d="M391 0h-170v1544h1094v-1544h-170v1393h-754v-1393z" />
    <glyph glyph-name="Rho" unicode="&#x3a1;" horiz-adv-x="1105" 
d="M391 0h-170v1544h236q569 0 569 -440q0 -209 -139 -327t-371 -118h-125v-659zM391 1389v-572h111q174 0 267 74t93 215q0 142 -95.5 212.5t-277.5 70.5h-98z" />
    <glyph glyph-name="Sigma" unicode="&#x3a3;" horiz-adv-x="1157" 
d="M1081 0h-1022l494 774l-487 770h1017v-153h-733l389 -617l-395 -620h737v-154z" />
    <glyph glyph-name="Tau" unicode="&#x3a4;" horiz-adv-x="952" 
d="M561 0h-168v1384h-375v160h916v-160h-373v-1384z" />
    <glyph glyph-name="Upsilon" unicode="&#x3a5;" horiz-adv-x="1181" 
d="M676 0h-170v678l-504 866h195l395 -690l393 690h197l-506 -866v-678z" />
    <glyph glyph-name="Phi" unicode="&#x3a6;" horiz-adv-x="1847" 
d="M1729 778q0 -287 -199.5 -470.5t-523.5 -207.5v-137h-164v135q-211 15 -373.5 100.5t-255 237t-92.5 348.5q0 189 91 337t254 235t376 102v125h164v-125q213 -14 376 -101t255 -237t92 -342zM1006 1307v-1059q254 22 402 166t148 366q0 224 -148 365.5t-402 161.5z
M291 780q0 -224 150 -368t401 -164v1059q-253 -22 -402 -164.5t-149 -362.5z" />
    <glyph glyph-name="Chi" unicode="&#x3a7;" horiz-adv-x="1185" 
d="M217 0h-192l477 815l-424 729h192l330 -600l336 600h197l-439 -729l465 -815h-188l-375 682z" />
    <glyph glyph-name="Psi" unicode="&#x3a8;" horiz-adv-x="1892" 
d="M1030 0h-168v381q-661 9 -661 606v557h166v-553q0 -227 118 -338.5t377 -115.5v1007h168v-1007q258 4 377 115.5t119 338.5v553h166v-557q0 -597 -662 -606v-381z" />
    <glyph glyph-name="uni03A9" unicode="&#x3a9;" horiz-adv-x="1888" 
d="M1389 145h348v-145h-584v137q206 116 302.5 277.5t96.5 382.5q0 165 -80.5 306.5t-220.5 225.5t-307 84t-308 -84t-221.5 -225.5t-80.5 -306.5q0 -219 96.5 -379t300.5 -277v-141h-579v145h348q-163 112 -249.5 277t-86.5 375q0 160 62 304t166.5 247.5t248.5 164
t303 60.5q157 0 300.5 -61t248 -164t167 -247t62.5 -304q0 -212 -86 -376.5t-247 -275.5z" />
    <glyph glyph-name="Iotadieresis" unicode="&#x3aa;" horiz-adv-x="614" 
d="M104 1712q-46 0 -78 32t-32 77t33 76.5t77 31.5q42 0 75.5 -31.5t33.5 -76.5q0 -46 -33 -77.5t-76 -31.5zM508 1712q-45 0 -77 31t-32 78q0 46 33.5 77t75.5 31q44 0 77 -32t33 -76q0 -46 -33 -77.5t-77 -31.5zM391 0h-170v1544h170v-1544z" />
    <glyph glyph-name="Upsilondieresis" unicode="&#x3ab;" horiz-adv-x="1181" 
d="M389 1712q-45 0 -77.5 32t-32.5 77t33 76.5t77 31.5q42 0 75.5 -31.5t33.5 -76.5q0 -46 -33 -77.5t-76 -31.5zM793 1712q-45 0 -77 31t-32 78q0 46 33.5 77t75.5 31q44 0 77 -32t33 -76q0 -46 -33 -77.5t-77 -31.5zM676 0h-170v678l-504 866h195l395 -690l393 690h197
l-506 -866v-678z" />
    <glyph glyph-name="alphatonos" unicode="&#x3ac;" horiz-adv-x="1280" 
d="M668 1147h-105l90 403h176zM586 -29q-203 0 -339 146t-136 362q0 139 62 254t170 180.5t239 65.5q225 0 352 -188h2v163h164v-954h-164v164h-2q-134 -193 -348 -193zM610 119q145 0 240.5 101t95.5 257q0 154 -95.5 255.5t-240.5 101.5q-143 0 -237 -102t-94 -253
q0 -158 91.5 -259t239.5 -101z" />
    <glyph glyph-name="epsilontonos" unicode="&#x3ad;" horiz-adv-x="942" 
d="M539 1550h176l-162 -403h-104zM539 106q180 0 301 95v-162q-131 -70 -328 -70q-183 0 -292 75t-109 214q0 97 62.5 161.5t166.5 90.5q-76 16 -128 75t-52 142q0 122 104 188t266 66q160 0 271 -47v-152q-106 66 -273 66q-101 0 -155 -35.5t-54 -103.5q0 -49 35.5 -83
t87 -48.5t113.5 -14.5h119v-127h-133q-119 0 -193 -41t-74 -119q0 -83 70.5 -126.5t194.5 -43.5z" />
    <glyph glyph-name="etatonos" unicode="&#x3ae;" horiz-adv-x="1132" 
d="M594 1147h-105l91 403h176zM969 -485h-164v1063q0 268 -207 268q-124 0 -190 -80.5t-66 -243.5v-522h-162v954h164v-143h4q91 174 301 174q155 0 237.5 -99t82.5 -284v-1087z" />
    <glyph glyph-name="iotatonos" unicode="&#x3af;" horiz-adv-x="544" 
d="M299 1147h-104l90 403h176zM360 -18q-88 0 -134 55.5t-46 159.5v757h162v-725q0 -102 78 -102q43 0 84 20v-141q-63 -24 -144 -24z" />
    <glyph glyph-name="upsilondieresistonos" unicode="&#x3b0;" horiz-adv-x="1101" 
d="M571 1165h-86l50 381h149zM330 1188q-41 0 -72 28.5t-31 71.5q0 42 30.5 71.5t72.5 29.5t72 -29.5t30 -71.5q0 -43 -30 -71.5t-72 -28.5zM791 1188q-44 0 -73.5 30t-29.5 70q0 42 30.5 71.5t72.5 29.5t72 -29.5t30 -71.5q0 -43 -30 -71.5t-72 -28.5zM551 -27
q-186 0 -285.5 106.5t-99.5 315.5v559h164v-553q0 -141 53 -210.5t168 -69.5q223 0 223 280v553h164v-559q0 -199 -97.5 -310.5t-289.5 -111.5z" />
    <glyph glyph-name="alpha" unicode="&#x3b1;" horiz-adv-x="1280" 
d="M586 -29q-203 0 -339 146t-136 362q0 139 62 254t170 180.5t239 65.5q225 0 352 -188h2v163h164v-954h-164v164h-2q-134 -193 -348 -193zM610 119q145 0 240.5 101t95.5 257q0 154 -95.5 255.5t-240.5 101.5q-143 0 -237 -102t-94 -253q0 -158 91.5 -259t239.5 -101z" />
    <glyph glyph-name="beta" unicode="&#x3b2;" horiz-adv-x="1292" 
d="M342 -492h-162v1698q0 232 130 363t339 131q207 0 335 -115t128 -291q0 -146 -77 -246t-214 -137v-4q164 -30 262.5 -146t98.5 -296q0 -148 -66 -261.5t-173.5 -172t-235.5 -58.5q-125 0 -221 58.5t-140 140.5h-4v-664zM682 117q145 0 240.5 94.5t95.5 255.5
q0 78 -22 140t-60 103.5t-90.5 69t-111 39.5t-124.5 12h-84v136h88q152 0 244 81t92 228q0 127 -81.5 205t-219.5 78q-139 0 -223 -89.5t-84 -263.5v-772q0 -135 99 -226t241 -91z" />
    <glyph glyph-name="gamma" unicode="&#x3b3;" horiz-adv-x="960" 
d="M563 -492h-162v551l-397 895h178l297 -706l297 706h180l-393 -884v-562z" />
    <glyph glyph-name="delta" unicode="&#x3b4;" horiz-adv-x="1243" 
d="M465 1528l346 -408q75 -85 125.5 -151t98.5 -148t71.5 -167t23.5 -175q0 -146 -67 -262.5t-183 -181t-257 -64.5q-222 0 -367 143.5t-145 364.5q0 145 66.5 260t178 176.5t246.5 61.5q95 0 168 -43q-20 28 -64 77.5t-67 78.5l-403 471v118h872v-151h-643zM623 119
q151 0 247.5 101t96.5 259q0 154 -97.5 254.5t-246.5 100.5q-153 0 -250 -101t-97 -254q0 -159 96 -259.5t251 -100.5z" />
    <glyph glyph-name="epsilon" unicode="&#x3b5;" horiz-adv-x="942" 
d="M539 106q180 0 301 95v-162q-131 -70 -328 -70q-183 0 -292 75t-109 214q0 97 62.5 161.5t166.5 90.5q-76 16 -128 75t-52 142q0 122 104 188t266 66q160 0 271 -47v-152q-106 66 -273 66q-101 0 -155 -35.5t-54 -103.5q0 -49 35.5 -83t87 -48.5t113.5 -14.5h119v-127
h-133q-119 0 -193 -41t-74 -119q0 -83 70.5 -126.5t194.5 -43.5z" />
    <glyph glyph-name="zeta" unicode="&#x3b6;" horiz-adv-x="950" 
d="M950 1679v-96l-405 -526q-68 -88 -107.5 -144.5t-80.5 -129t-59.5 -140t-18.5 -137.5q0 -40 6.5 -75.5t15.5 -63t27 -53.5t32.5 -44t42 -37.5t44.5 -31t51 -27.5t51.5 -23.5t54.5 -23.5q136 -58 182 -88q104 -69 121 -184q4 -27 4 -56q0 -154 -102 -276h-168
q40 53 59 82.5t35.5 78t16.5 101.5q0 36 -13.5 65t-34 49t-54 39t-65 31.5t-75.5 29.5q-9 3 -14 5q-46 18 -79 32.5t-76.5 39t-73 49.5t-61.5 63.5t-51 82t-31.5 103t-12.5 128.5q0 60 9 114.5t32.5 110.5t45 99t66 105.5t74.5 102t90 115.5l299 379h-522v151h745z" />
    <glyph glyph-name="eta" unicode="&#x3b7;" horiz-adv-x="1132" 
d="M969 -485h-164v1063q0 268 -207 268q-124 0 -190 -80.5t-66 -243.5v-522h-162v954h164v-143h4q91 174 301 174q155 0 237.5 -99t82.5 -284v-1087z" />
    <glyph glyph-name="theta" unicode="&#x3b8;" horiz-adv-x="1269" 
d="M635 1700q92 0 169.5 -30.5t142 -96.5t109 -165.5t69 -243t24.5 -322.5q0 -222 -37.5 -390.5t-106.5 -272t-161.5 -155t-208.5 -51.5q-238 0 -375 215.5t-137 653.5q0 179 24.5 322t68.5 243t108 166t141.5 96.5t169.5 30.5zM635 1552q-153 0 -244.5 -154t-101.5 -474
h694q-10 319 -103 473.5t-245 154.5zM635 121q154 0 247.5 163.5t102.5 495.5h-698q9 -333 101 -496t247 -163z" />
    <glyph glyph-name="iota" unicode="&#x3b9;" horiz-adv-x="544" 
d="M360 -18q-88 0 -134 55.5t-46 159.5v757h162v-725q0 -102 78 -102q43 0 84 20v-141q-63 -24 -144 -24z" />
    <glyph glyph-name="kappa" unicode="&#x3ba;" horiz-adv-x="999" 
d="M494 535l489 -535h-203l-393 436l-43 -39v-397h-164v954h164v-379l408 379h196z" />
    <glyph glyph-name="lambda" unicode="&#x3bb;" horiz-adv-x="1021" 
d="M326 1679l692 -1679h-180l-293 735l-346 -735h-187l453 913l-320 766h181z" />
    <glyph glyph-name="uni03BC" unicode="&#x3bc;" horiz-adv-x="1155" 
d="M344 -537h-164v1491h164v-546q0 -137 54.5 -212t164.5 -75q248 0 248 340v493h164v-954h-164v141h-2q-34 -72 -94 -120t-146 -48q-160 0 -221 156h-4v-666z" />
    <glyph glyph-name="nu" unicode="&#x3bd;" horiz-adv-x="952" 
d="M475 -53h-4l-467 1007h182l289 -667l289 667h184z" />
    <glyph glyph-name="xi" unicode="&#x3be;" horiz-adv-x="948" 
d="M659 1556q-133 0 -213.5 -78.5t-80.5 -207.5q0 -127 94 -211t243 -84h140v-150h-160q-112 0 -202 -36t-147 -115t-57 -191q0 -59 18.5 -107t45 -79.5t71.5 -60.5t83 -46t95 -41q17 -7 25 -10q70 -29 115.5 -55t89.5 -65.5t65 -93.5t21 -124q0 -151 -102 -278h-168
q55 71 80.5 130t25.5 130q0 46 -18 82t-57.5 64.5t-79.5 48t-105 45.5q-42 17 -71.5 29.5t-71.5 36t-70.5 46.5t-60.5 58.5t-51.5 75.5t-32 94t-12.5 116q0 161 102.5 284.5t267.5 158.5q-126 36 -204 135.5t-78 232.5q0 177 128 293.5t330 116.5q150 0 271 -53v-164
q-120 73 -269 73z" />
    <glyph glyph-name="omicron" unicode="&#x3bf;" horiz-adv-x="1234" 
d="M612 -29q-144 0 -259 66.5t-178.5 183t-63.5 260.5q0 136 63.5 250t180 182t261.5 68q220 0 363 -144.5t143 -359.5q0 -217 -143 -361.5t-367 -144.5zM616 119q150 0 245 99.5t95 258.5q0 154 -95.5 255.5t-244.5 101.5q-147 0 -242 -101t-95 -254q0 -161 93 -260.5
t244 -99.5z" />
    <glyph glyph-name="pi" unicode="&#x3c0;" horiz-adv-x="1177" 
d="M958 -18q-89 0 -134.5 58.5t-45.5 168.5v592h-401v-801h-164v801h-172v153h1096v-153h-197v-559q0 -115 80 -115q41 0 82 20v-141q-63 -24 -144 -24z" />
    <glyph glyph-name="rho" unicode="&#x3c1;" horiz-adv-x="1267" 
d="M328 -492h-162v969q0 225 134.5 365.5t350.5 140.5q218 0 362 -140.5t144 -363.5q0 -218 -135 -362t-340 -144q-125 0 -216 56t-138 147v-668zM657 123q147 0 241.5 101.5t94.5 254.5q0 158 -95.5 256.5t-246.5 98.5q-143 0 -236 -99t-93 -258q0 -153 92.5 -253.5
t242.5 -100.5z" />
    <glyph glyph-name="uni03C2" unicode="&#x3c2;" horiz-adv-x="940" 
d="M809 -477h-166q52 65 79.5 124t27.5 134q0 81 -62 128t-194 89q-62 20 -112.5 44t-103 64.5t-87.5 90.5t-57.5 123.5t-22.5 162.5q0 223 138 358.5t353 135.5q180 0 295 -74v-172q-65 51 -133.5 77t-159.5 26q-145 0 -237.5 -97.5t-92.5 -253.5q0 -47 8.5 -86.5
t22.5 -69.5t38.5 -56.5t49 -45t62 -38t69 -32.5t78.5 -30q62 -23 102 -40.5t83.5 -46t67.5 -60t40 -78t16 -105.5q0 -146 -102 -272z" />
    <glyph glyph-name="sigma" unicode="&#x3c3;" horiz-adv-x="1294" 
d="M625 -29q-223 0 -368.5 141.5t-145.5 356.5q0 144 69.5 256t188.5 171.5t266 59.5h618v-153h-262v-4q72 -83 102.5 -160t30.5 -180q0 -208 -141.5 -348t-357.5 -140zM625 121q146 0 241 96.5t95 243.5q0 99 -32 179.5t-98 162.5h-194q-157 0 -259 -91.5t-102 -242.5
q0 -153 97 -250.5t252 -97.5z" />
    <glyph glyph-name="tau" unicode="&#x3c4;" horiz-adv-x="835" 
d="M518 -16q-205 0 -205 235v584h-272v153h752v-153h-320v-553q0 -127 107 -127q50 0 100 18v-133q-70 -24 -162 -24z" />
    <glyph glyph-name="upsilon" unicode="&#x3c5;" horiz-adv-x="1101" 
d="M551 -27q-186 0 -285.5 106.5t-99.5 315.5v559h164v-553q0 -141 53 -210.5t168 -69.5q223 0 223 280v553h164v-559q0 -199 -97.5 -310.5t-289.5 -111.5z" />
    <glyph glyph-name="phi" unicode="&#x3c6;" horiz-adv-x="1562" 
d="M866 -489h-157v464q-278 15 -432 148t-154 362q0 184 104.5 311.5t300.5 174.5l21 -144q-264 -88 -264 -342q0 -343 424 -366v835h217q103 0 195.5 -28.5t167.5 -84t119 -148t44 -210.5q0 -224 -158.5 -357t-427.5 -151v-464zM866 813v-694q211 13 316.5 108t105.5 256
q0 162 -98.5 246t-261.5 84h-62z" />
    <glyph glyph-name="chi" unicode="&#x3c7;" horiz-adv-x="1005" 
d="M598 279l393 -768h-180l-313 651l-301 -651h-183l385 770l-338 675h181l260 -565l272 565h178z" />
    <glyph glyph-name="psi" unicode="&#x3c8;" horiz-adv-x="1564" 
d="M1237 569v387h162v-407q0 -256 -135.5 -407t-405.5 -171v-460h-151v460q-268 20 -404.5 169.5t-136.5 408.5v407h162v-387q0 -415 379 -450v1306h151v-1306q379 37 379 450z" />
    <glyph glyph-name="omega" unicode="&#x3c9;" horiz-adv-x="1599" 
d="M1047 829l63 146q182 -78 279.5 -226t97.5 -331q0 -114 -31.5 -202.5t-85 -140.5t-118 -78t-136.5 -26q-116 0 -199 61.5t-116 164.5q-36 -104 -119 -165t-199 -61q-72 0 -137 26t-118.5 78t-85 140.5t-31.5 202.5q0 183 97 331t279 226l56 -146q-134 -64 -201.5 -170
t-67.5 -235q0 -149 66.5 -226t165.5 -77q103 0 159 77.5t56 194.5v207h156v-207q0 -116 57 -194t160 -78q98 0 164.5 77.5t66.5 225.5q0 130 -69 235.5t-209 169.5z" />
    <glyph glyph-name="iotadieresis" unicode="&#x3ca;" horiz-adv-x="544" 
d="M70 1208q-44 0 -76.5 32.5t-32.5 76.5q0 45 33.5 76.5t75.5 31.5q43 0 75.5 -31.5t32.5 -76.5q0 -46 -32 -77.5t-76 -31.5zM475 1208q-45 0 -76.5 31t-31.5 78q0 46 32.5 77t75.5 31t77 -32t34 -76q0 -46 -33.5 -77.5t-77.5 -31.5zM360 -18q-88 0 -134 55.5t-46 159.5
v757h162v-725q0 -102 78 -102q43 0 84 20v-141q-63 -24 -144 -24z" />
    <glyph glyph-name="upsilondieresis" unicode="&#x3cb;" horiz-adv-x="1101" 
d="M348 1208q-44 0 -76 32.5t-32 76.5q0 45 33 76.5t75 31.5q44 0 76.5 -31.5t32.5 -76.5q0 -46 -32.5 -77.5t-76.5 -31.5zM754 1208q-45 0 -77 31t-32 78q0 46 33 77t76 31t76.5 -32t33.5 -76q0 -46 -33 -77.5t-77 -31.5zM551 -27q-186 0 -285.5 106.5t-99.5 315.5v559h164
v-553q0 -141 53 -210.5t168 -69.5q223 0 223 280v553h164v-559q0 -199 -97.5 -310.5t-289.5 -111.5z" />
    <glyph glyph-name="omicrontonos" unicode="&#x3cc;" horiz-adv-x="1234" 
d="M645 1147h-104l90 403h176zM612 -29q-144 0 -259 66.5t-178.5 183t-63.5 260.5q0 136 63.5 250t180 182t261.5 68q220 0 363 -144.5t143 -359.5q0 -217 -143 -361.5t-367 -144.5zM616 119q150 0 245 99.5t95 258.5q0 154 -95.5 255.5t-244.5 101.5q-147 0 -242 -101
t-95 -254q0 -161 93 -260.5t244 -99.5z" />
    <glyph glyph-name="upsilontonos" unicode="&#x3cd;" horiz-adv-x="1101" 
d="M580 1147h-105l90 403h176zM551 -27q-186 0 -285.5 106.5t-99.5 315.5v559h164v-553q0 -141 53 -210.5t168 -69.5q223 0 223 280v553h164v-559q0 -199 -97.5 -310.5t-289.5 -111.5z" />
    <glyph glyph-name="omegatonos" unicode="&#x3ce;" horiz-adv-x="1599" 
d="M811 1550h176l-162 -403h-104zM1047 829l63 146q182 -78 279.5 -226t97.5 -331q0 -114 -31.5 -202.5t-85 -140.5t-118 -78t-136.5 -26q-116 0 -199 61.5t-116 164.5q-36 -104 -119 -165t-199 -61q-72 0 -137 26t-118.5 78t-85 140.5t-31.5 202.5q0 183 97 331t279 226
l56 -146q-134 -64 -201.5 -170t-67.5 -235q0 -149 66.5 -226t165.5 -77q103 0 159 77.5t56 194.5v207h156v-207q0 -116 57 -194t160 -78q98 0 164.5 77.5t66.5 225.5q0 130 -69 235.5t-209 169.5z" />
    <glyph glyph-name="uni0400" unicode="&#x400;" horiz-adv-x="1218" 
d="M846 1724l-88 -65l-359 283l146 96zM1026 0h-805v1544h805v-160h-635v-460h615v-160h-615v-604h635v-160z" />
    <glyph glyph-name="uni0401" unicode="&#x401;" horiz-adv-x="1218" 
d="M440 1712q-46 0 -78 32t-32 77t33 76.5t77 31.5q42 0 75.5 -31.5t33.5 -76.5q0 -46 -33 -77.5t-76 -31.5zM844 1712q-45 0 -77 31t-32 78q0 46 33.5 77t75.5 31q44 0 77 -32t33 -76q0 -46 -33 -77.5t-77 -31.5zM1026 0h-805v1544h805v-160h-635v-460h615v-160h-615v-604
h635v-160z" />
    <glyph glyph-name="uni0402" unicode="&#x402;" horiz-adv-x="1400" 
d="M877 -12q-109 0 -162 30l4 148q61 -31 137 -31q132 0 212.5 86t80.5 240q0 153 -82.5 235t-232.5 82q-84 0 -170.5 -18t-145.5 -45v-715h-170v1393h-330v151h893v-151h-393v-529q63 27 154.5 44.5t175.5 17.5q228 0 350.5 -127t122.5 -336q0 -212 -118 -343.5
t-326 -131.5z" />
    <glyph glyph-name="uni0403" unicode="&#x403;" horiz-adv-x="956" 
d="M846 1939l-361 -278l-84 63l297 312zM393 0h-172v1544h715v-153h-543v-1391z" />
    <glyph glyph-name="uni0404" unicode="&#x404;" horiz-adv-x="1454" 
d="M924 133q117 0 208 34t193 114v-205q-187 -105 -405 -105q-163 0 -309 62.5t-250.5 168.5t-166 253.5t-61.5 312.5t62 313.5t168 256.5t255 171.5t316 63.5q200 0 389 -103v-200q-188 143 -401 143q-155 0 -289 -73t-219.5 -200t-104.5 -284h752v-149h-756
q11 -121 64 -227t134.5 -182.5t191 -120.5t229.5 -44z" />
    <glyph glyph-name="uni0405" unicode="&#x405;" horiz-adv-x="1222" 
d="M629 -29q-186 0 -319.5 97.5t-190.5 259.5l157 65q48 -126 138.5 -194t214.5 -68q126 0 203 76.5t77 195.5t-69 197t-254 162q-81 36 -137.5 67t-107 69.5t-79.5 79.5t-46 93.5t-17 116.5q0 163 118 274t297 111q143 0 248.5 -67.5t169.5 -188.5l-141 -82
q-54 91 -119.5 134.5t-157.5 43.5q-106 0 -175.5 -64.5t-69.5 -160.5q0 -92 68.5 -152t254.5 -143q214 -98 301.5 -207t87.5 -285q0 -191 -129 -310.5t-323 -119.5z" />
    <glyph glyph-name="uni0406" unicode="&#x406;" horiz-adv-x="614" 
d="M391 0h-170v1544h170v-1544z" />
    <glyph glyph-name="uni0407" unicode="&#x407;" horiz-adv-x="614" 
d="M106 1712q-46 0 -78 32t-32 77t33 76.5t77 31.5q42 0 75.5 -31.5t33.5 -76.5q0 -46 -33 -77.5t-76 -31.5zM510 1712q-45 0 -77 31t-32 78q0 46 33.5 77t75.5 31q45 0 78 -32t33 -76q0 -46 -33.5 -77.5t-77.5 -31.5zM391 0h-170v1544h170v-1544z" />
    <glyph glyph-name="uni0408" unicode="&#x408;" horiz-adv-x="815" 
d="M283 -25q-165 0 -283 121l104 123q81 -84 179 -84q83 0 122 61t39 201v1147h170v-1136q0 -223 -82.5 -328t-248.5 -105z" />
    <glyph glyph-name="uni0409" unicode="&#x409;" horiz-adv-x="1976" 
d="M113 -12q-67 0 -113 18l29 152q42 -11 77 -11q89 0 134 61.5t63 217.5l135 1118h787v-639h153q242 0 380 -115t138 -339q0 -220 -138 -335.5t-394 -115.5h-309v1393h-459l-125 -981q-26 -229 -112 -326.5t-246 -97.5zM1225 758v-611h123q84 0 150 16t118 51t80 95t28 142
q0 307 -378 307h-121z" />
    <glyph glyph-name="uni040A" unicode="&#x40a;" horiz-adv-x="2021" 
d="M393 0h-172v1544h172v-645h699v645h172v-645h155q248 0 385.5 -113t137.5 -335t-134 -336.5t-399 -114.5h-317v752h-699v-752zM1262 752v-602h133q374 0 374 296q0 159 -96.5 232.5t-281.5 73.5h-129z" />
    <glyph glyph-name="uni040B" unicode="&#x40b;" horiz-adv-x="1484" 
d="M518 0h-170v1393h-330v151h893v-151h-393v-521q139 52 328 52q96 0 173.5 -22.5t138 -70t93.5 -129.5t33 -194v-508h-172v494q0 146 -69.5 212t-225.5 66q-171 0 -299 -51v-721z" />
    <glyph glyph-name="uni040C" unicode="&#x40c;" horiz-adv-x="1312" 
d="M819 2036l148 -97l-361 -278l-84 63zM567 862l727 -862h-227l-618 752l-58 -50v-702h-170v1544h170v-653l660 653h225z" />
    <glyph glyph-name="uni040D" unicode="&#x40d;" horiz-adv-x="1746" 
d="M772 2038l301 -314l-86 -65l-360 283zM391 340l1129 1286h6v-1626h-170v1208l-1127 -1282h-8v1618h170v-1204z" />
    <glyph glyph-name="uni040E" unicode="&#x40e;" horiz-adv-x="1267" 
d="M676 1696q-140 0 -235.5 72.5t-131.5 197.5l131 43q21 -82 83 -134t153 -52q92 0 153 51.5t82 134.5l131 -43q-34 -124 -130 -197t-236 -73zM700 600l402 944h176l-530 -1235q-81 -188 -162.5 -258.5t-210.5 -70.5q-164 0 -289 118l98 127q85 -88 191 -88
q69 0 119.5 49.5t109.5 190.5l19 41l-584 1126h186z" />
    <glyph glyph-name="uni040F" unicode="&#x40f;" horiz-adv-x="1525" 
d="M844 -383h-160v383h-463v1544h170v-1392h744v1392h170v-1544h-461v-383z" />
    <glyph glyph-name="uni0410" unicode="&#x410;" horiz-adv-x="1431" 
d="M1430 0h-187l-182 436h-690l-187 -436h-182l723 1626h4zM578 918l-138 -322h553l-135 324q-74 172 -135 329q-62 -145 -145 -331z" />
    <glyph glyph-name="uni0411" unicode="&#x411;" horiz-adv-x="1191" 
d="M549 0h-328v1544h721v-151h-551v-510h166q250 0 388 -111.5t138 -329.5q0 -222 -140 -332t-394 -110zM391 737v-590h144q175 0 275.5 70t100.5 223q0 297 -376 297h-144z" />
    <glyph glyph-name="uni0412" unicode="&#x412;" horiz-adv-x="1245" 
d="M575 0h-354v1544h252q250 0 384 -104.5t134 -296.5q0 -113 -60 -202t-155 -128v-2q164 -32 256 -131.5t92 -245.5q0 -210 -145.5 -322t-403.5 -112zM391 1389v-531h119q151 0 231 76.5t80 202.5q0 252 -317 252h-113zM391 715v-555h199q181 0 270.5 76.5t89.5 203.5
t-93.5 201t-297.5 74h-168z" />
    <glyph glyph-name="uni0413" unicode="&#x413;" horiz-adv-x="956" 
d="M393 0h-172v1544h715v-153h-543v-1391z" />
    <glyph glyph-name="uni0414" unicode="&#x414;" horiz-adv-x="1544" 
d="M180 -383h-162v535h35q51 0 91 16t70.5 53t52.5 81.5t40 117t30.5 143.5t27.5 176l116 805h797v-1392h199v-535h-160v383h-1137v-383zM328 152h780v1241h-481l-99 -676q-27 -194 -57.5 -311.5t-63 -172t-79.5 -81.5z" />
    <glyph glyph-name="uni0415" unicode="&#x415;" horiz-adv-x="1218" 
d="M1026 0h-805v1544h805v-160h-635v-460h615v-160h-615v-604h635v-160z" />
    <glyph glyph-name="uni0416" unicode="&#x416;" horiz-adv-x="1929" 
d="M238 0h-213l680 846l-662 698h211l625 -665v665h170v-665l624 665h213l-661 -698l680 -846h-213l-588 739l-55 -49v-690h-170v690l-56 49z" />
    <glyph glyph-name="uni0417" unicode="&#x417;" horiz-adv-x="1230" 
d="M600 -31q-107 0 -198 29t-155.5 79.5t-109 111.5t-69.5 130l137 93q46 -130 146 -209.5t249 -79.5q151 0 246.5 87t95.5 226q0 65 -21.5 116t-57 84t-85.5 55t-104 31t-115 9h-94v156h88q152 0 241 79t89 197q0 116 -72 188t-197 72q-230 0 -342 -202l-108 110
q68 112 184 179t266 67q200 0 318.5 -108t118.5 -291q0 -127 -69 -221t-191 -132q154 -30 237.5 -132t83.5 -253q0 -221 -143 -346t-369 -125z" />
    <glyph glyph-name="uni0418" unicode="&#x418;" horiz-adv-x="1746" 
d="M391 340l1129 1286h6v-1626h-170v1208l-1127 -1282h-8v1618h170v-1204z" />
    <glyph glyph-name="uni0419" unicode="&#x419;" horiz-adv-x="1746" 
d="M872 1696q-142 0 -237 72t-129 198l131 43q21 -84 81.5 -135t153.5 -51t153.5 51.5t80.5 134.5l133 -43q-36 -124 -131.5 -197t-235.5 -73zM391 340l1129 1286h6v-1626h-170v1208l-1127 -1282h-8v1618h170v-1204z" />
    <glyph glyph-name="uni041A" unicode="&#x41a;" horiz-adv-x="1312" 
d="M567 862l727 -862h-227l-618 752l-58 -50v-702h-170v1544h170v-653l660 653h225z" />
    <glyph glyph-name="uni041B" unicode="&#x41b;" horiz-adv-x="1495" 
d="M113 -12q-67 0 -113 18l29 152q42 -11 77 -11q89 0 134 61.5t63 217.5l135 1118h834v-1544h-170v1393h-506l-125 -981q-26 -229 -112 -326.5t-246 -97.5z" />
    <glyph glyph-name="uni041C" unicode="&#x41c;" horiz-adv-x="1916" 
d="M963 -59h-7l-467 1171l-200 -1112h-176l317 1638h4l529 -1308l542 1308h6l293 -1638h-174l-188 1110z" />
    <glyph glyph-name="uni041D" unicode="&#x41d;" horiz-adv-x="1546" 
d="M391 0h-170v1544h170v-626h762v626h170v-1544h-170v758h-762v-758z" />
    <glyph glyph-name="uni041E" unicode="&#x41e;" horiz-adv-x="1865" 
d="M926 -29q-157 0 -302 61.5t-253 167.5t-173 256.5t-65 319.5q0 162 64.5 310t173 254.5t256.5 169.5t309 63q160 0 306.5 -62.5t254.5 -169t172 -256t64 -315.5q0 -164 -65 -312.5t-174 -255t-257.5 -169t-310.5 -62.5zM928 133q172 0 317.5 83.5t231.5 231t86 324.5
q0 180 -85.5 327.5t-230.5 230.5t-315 83q-168 0 -312.5 -84t-230.5 -231.5t-86 -323.5q0 -136 52 -257t138 -204t200 -131.5t235 -48.5z" />
    <glyph glyph-name="uni041F" unicode="&#x41f;" horiz-adv-x="1519" 
d="M391 0h-170v1544h1077v-1544h-170v1393h-737v-1393z" />
    <glyph glyph-name="uni0420" unicode="&#x420;" horiz-adv-x="1105" 
d="M391 0h-170v1544h236q569 0 569 -440q0 -209 -139 -327t-371 -118h-125v-659zM391 1389v-572h111q174 0 267 74t93 215q0 142 -95.5 212.5t-277.5 70.5h-98z" />
    <glyph glyph-name="uni0421" unicode="&#x421;" horiz-adv-x="1505" 
d="M926 -29q-164 0 -311.5 62.5t-253 168.5t-167 253.5t-61.5 312.5t62.5 313.5t169 256.5t257 171.5t318.5 63.5q235 0 436 -131v-201q-203 172 -448 172q-129 0 -245 -50t-199 -136t-132 -205t-49 -252q0 -132 49 -250.5t132.5 -203.5t199.5 -135t246 -50
q132 0 233.5 41.5t210.5 136.5v-205q-201 -133 -448 -133z" />
    <glyph glyph-name="uni0422" unicode="&#x422;" horiz-adv-x="952" 
d="M561 0h-168v1384h-375v160h916v-160h-373v-1384z" />
    <glyph glyph-name="uni0423" unicode="&#x423;" horiz-adv-x="1267" 
d="M700 600l402 944h176l-530 -1235q-81 -188 -162.5 -258.5t-210.5 -70.5q-164 0 -289 118l98 127q85 -88 191 -88q69 0 119.5 49.5t109.5 190.5l19 41l-584 1126h186z" />
    <glyph glyph-name="uni0424" unicode="&#x424;" horiz-adv-x="1847" 
d="M1729 778q0 -287 -199.5 -470.5t-523.5 -207.5v-137h-164v135q-211 15 -373.5 100.5t-255 237t-92.5 348.5q0 189 91 337t254 235t376 102v125h164v-125q213 -14 376 -101t255 -237t92 -342zM1006 1307v-1059q254 22 402 166t148 366q0 224 -148 365.5t-402 161.5z
M291 780q0 -224 150 -368t401 -164v1059q-253 -22 -402 -164.5t-149 -362.5z" />
    <glyph glyph-name="uni0425" unicode="&#x425;" horiz-adv-x="1185" 
d="M217 0h-192l477 815l-424 729h192l330 -600l336 600h197l-439 -729l465 -815h-188l-375 682z" />
    <glyph glyph-name="uni0426" unicode="&#x426;" horiz-adv-x="1576" 
d="M1509 -383h-159v383h-1129v1544h170v-1392h742v1392h170v-1392h206v-535z" />
    <glyph glyph-name="uni0427" unicode="&#x427;" horiz-adv-x="1419" 
d="M1198 0h-170v659q-72 -27 -183.5 -47t-226.5 -20q-417 0 -417 461v491h172v-475q0 -165 62.5 -244.5t211.5 -79.5q201 0 381 62v737h170v-1544z" />
    <glyph glyph-name="uni0428" unicode="&#x428;" horiz-adv-x="2179" 
d="M1958 0h-1737v1544h170v-1392h613v1392h170v-1392h614v1392h170v-1544z" />
    <glyph glyph-name="uni0429" unicode="&#x429;" horiz-adv-x="2234" 
d="M2167 -383h-160v383h-1786v1544h170v-1392h613v1392h170v-1392h614v1392h170v-1392h209v-535z" />
    <glyph glyph-name="uni042A" unicode="&#x42a;" horiz-adv-x="1327" 
d="M715 0h-322v1393h-375v151h545v-639h168q240 0 378 -115t138 -339q0 -220 -137 -335.5t-395 -115.5zM563 758v-608h135q377 0 377 301q0 307 -379 307h-133z" />
    <glyph glyph-name="uni042B" unicode="&#x42b;" horiz-adv-x="1662" 
d="M530 0h-309v1544h170v-639h154q242 0 380 -115t138 -339q0 -220 -138 -335.5t-395 -115.5zM1440 0h-170v1544h170v-1544zM391 758v-611h123q84 0 150.5 16t118.5 51t80 95t28 142q0 307 -379 307h-121z" />
    <glyph glyph-name="uni042C" unicode="&#x42c;" horiz-adv-x="1155" 
d="M547 0h-326v1544h170v-639h166q242 0 380 -115t138 -339q0 -221 -135.5 -336t-392.5 -115zM391 758v-608h135q377 0 377 301q0 307 -379 307h-133z" />
    <glyph glyph-name="uni042D" unicode="&#x42d;" horiz-adv-x="1454" 
d="M522 1573q167 0 316 -63.5t254.5 -171.5t167 -256.5t61.5 -313.5q0 -164 -61.5 -312t-166 -254t-250.5 -168.5t-308 -62.5q-218 0 -402 105v205q102 -79 192 -113.5t205 -34.5q120 0 229.5 44t191 120.5t134.5 182.5t64 227h-756v149h752q-19 157 -104.5 284t-219.5 200
t-289 73q-216 0 -403 -143v200q189 103 393 103z" />
    <glyph glyph-name="uni042E" unicode="&#x42e;" horiz-adv-x="2328" 
d="M1417 1575q220 0 399 -107.5t279 -291t100 -404.5q0 -166 -58 -313.5t-159.5 -255.5t-247.5 -171t-313 -63q-157 0 -296.5 57t-242.5 156t-166.5 239.5t-72.5 301.5h-248v-723h-170v1544h170v-674h250q21 199 126 359.5t275.5 253t374.5 92.5zM1417 133q132 0 246 52.5
t191.5 140.5t122 205t44.5 245q0 171 -76.5 316.5t-216.5 233t-313 87.5q-171 0 -310.5 -87.5t-216.5 -233t-77 -316.5q0 -172 75.5 -318.5t215.5 -235.5t315 -89z" />
    <glyph glyph-name="uni042F" unicode="&#x42f;" horiz-adv-x="1169" 
d="M692 1544h256v-1544h-170v659h-114l-398 -659h-207l433 674q-160 38 -250 155t-90 275q0 215 145.5 327.5t394.5 112.5zM692 799h86v596h-69q-394 0 -394 -293q0 -152 96.5 -227.5t280.5 -75.5z" />
    <glyph glyph-name="uni0430" unicode="&#x430;" horiz-adv-x="1280" 
d="M586 -29q-203 0 -339 146t-136 362q0 139 62 254t170 180.5t239 65.5q225 0 352 -188h2v163h164v-954h-164v164h-2q-134 -193 -348 -193zM610 119q145 0 240.5 101t95.5 257q0 154 -95.5 255.5t-240.5 101.5q-143 0 -237 -102t-94 -253q0 -158 91.5 -259t239.5 -101z" />
    <glyph glyph-name="uni0431" unicode="&#x431;" horiz-adv-x="1288" 
d="M672 -29q-256 0 -397.5 178.5t-141.5 505.5q0 176 18.5 314.5t60 256.5t115.5 201t179 127q86 35 190 63.5t217.5 53.5t163.5 39l35 -158q-46 -14 -249 -56.5t-294 -84.5q-93 -42 -150.5 -111.5t-93.5 -202.5t-44 -341h2q51 104 156.5 165.5t250.5 61.5q212 0 349 -143.5
t137 -362.5q0 -105 -38 -198.5t-104.5 -161t-160.5 -107t-201 -39.5zM668 117q152 0 249 100t97 262q0 163 -94.5 262t-245.5 99q-166 0 -270.5 -93.5t-104.5 -252.5q0 -169 102.5 -273t266.5 -104z" />
    <glyph glyph-name="uni0432" unicode="&#x432;" horiz-adv-x="1034" 
d="M582 0h-402v956h352q153 0 237.5 -60.5t84.5 -178.5q0 -73 -33.5 -126t-87.5 -81q86 -19 143.5 -76.5t57.5 -150.5q0 -78 -28 -134.5t-78.5 -88t-111 -46t-134.5 -14.5zM344 825v-272h193q71 0 116 36t45 103q0 133 -180 133h-174zM344 434v-305h217q92 0 147.5 41.5
t55.5 118.5q0 145 -205 145h-215z" />
    <glyph glyph-name="uni0433" unicode="&#x433;" horiz-adv-x="778" 
d="M342 0h-162v956h557v-147h-395v-809z" />
    <glyph glyph-name="uni0434" unicode="&#x434;" horiz-adv-x="1083" 
d="M156 -301h-148v444h35q29 1 52 6.5t41 20.5t30.5 28.5t23 42.5t16.5 49t12 62t9 67.5t9 78.5l51 458h600v-811h141v-446h-145v301h-727v-301zM262 145h463v668h-295l-37 -338q-15 -145 -43 -215.5t-88 -114.5z" />
    <glyph glyph-name="uni0435" unicode="&#x435;" horiz-adv-x="1136" 
d="M1026 492v-46h-743q3 -145 86 -236t219 -91q171 0 274 155l131 -77q-64 -109 -162.5 -167.5t-248.5 -58.5q-211 0 -341 140.5t-130 365.5q0 222 130 363t337 141q209 0 328.5 -137t119.5 -352zM293 582h563q-9 109 -84 180.5t-192 71.5q-115 0 -191.5 -70t-95.5 -182z
" />
    <glyph glyph-name="uni0436" unicode="&#x436;" horiz-adv-x="1439" 
d="M211 0h-197l475 526l-440 428h193l399 -393v393h158v-393l399 393h193l-439 -428l473 -526h-194l-383 430l-49 -47v-383h-158v383l-49 47z" />
    <glyph glyph-name="uni0437" unicode="&#x437;" horiz-adv-x="952" 
d="M471 -31q-262 0 -401 187l112 100q47 -68 121 -107.5t166 -39.5q97 0 153 44.5t56 122.5q0 83 -60 120.5t-155 37.5h-127v127h123q75 0 124.5 39.5t49.5 110.5q0 66 -46 101.5t-124 35.5q-144 0 -238 -111l-102 92q133 156 344 156q89 0 161 -27.5t117.5 -86t45.5 -140.5
q0 -77 -44 -136.5t-108 -82.5q91 -24 147 -86.5t56 -149.5q0 -147 -103 -227t-268 -80z" />
    <glyph glyph-name="uni0438" unicode="&#x438;" horiz-adv-x="1189" 
d="M342 315l651 674h17v-989h-160v641l-653 -674h-17v989h162v-641z" />
    <glyph glyph-name="uni0439" unicode="&#x439;" horiz-adv-x="1189" 
d="M616 1194q-139 0 -234.5 72.5t-131.5 197.5l131 43q21 -83 82 -134.5t153 -51.5q93 0 154.5 51.5t81.5 134.5l131 -43q-34 -124 -130.5 -197t-236.5 -73zM342 315l651 674h17v-989h-160v641l-653 -674h-17v989h162v-641z" />
    <glyph glyph-name="uni043A" unicode="&#x43a;" horiz-adv-x="999" 
d="M494 535l489 -535h-203l-393 436l-43 -39v-397h-164v954h164v-379l408 379h196z" />
    <glyph glyph-name="uni043B" unicode="&#x43b;" horiz-adv-x="1093" 
d="M113 -6q-62 0 -111 18l25 140q34 -17 69 -17q42 0 65.5 20t39.5 73.5t28 156.5l64 571h635v-956h-162v809h-328l-47 -442q-23 -212 -82.5 -292.5t-195.5 -80.5z" />
    <glyph glyph-name="uni043C" unicode="&#x43c;" horiz-adv-x="1320" 
d="M1065 997l188 -997h-161l-97 612l-327 -649h-13l-329 649l-95 -612h-163l190 997h12l389 -761l392 761h14z" />
    <glyph glyph-name="uni043D" unicode="&#x43d;" horiz-adv-x="1161" 
d="M342 0h-162v956h162v-387h477v387h162v-956h-162v424h-477v-424z" />
    <glyph glyph-name="uni043E" unicode="&#x43e;" horiz-adv-x="1234" 
d="M612 -29q-144 0 -259 66.5t-178.5 183t-63.5 260.5q0 136 63.5 250t180 182t261.5 68q220 0 363 -144.5t143 -359.5q0 -217 -143 -361.5t-367 -144.5zM616 119q150 0 245 99.5t95 258.5q0 154 -95.5 255.5t-244.5 101.5q-147 0 -242 -101t-95 -254q0 -161 93 -260.5
t244 -99.5z" />
    <glyph glyph-name="uni043F" unicode="&#x43f;" horiz-adv-x="1148" 
d="M342 0h-162v956h789v-956h-162v811h-465v-811z" />
    <glyph glyph-name="uni0440" unicode="&#x440;" horiz-adv-x="1280" 
d="M344 -537h-164v1491h164v-161h2q133 190 350 190q202 0 337.5 -146t135.5 -360q0 -213 -135.5 -357.5t-333.5 -144.5q-223 0 -354 189h-2v-176v-525zM670 121q145 0 238 101.5t93 254.5q0 156 -91.5 257.5t-237.5 101.5t-242 -101t-96 -256t95.5 -256.5t240.5 -101.5z
" />
    <glyph glyph-name="uni0441" unicode="&#x441;" horiz-adv-x="989" 
d="M623 -29q-228 0 -370 142.5t-142 361.5q0 218 143 362t369 144q157 0 264 -72v-186q-58 57 -122.5 84t-148.5 27q-151 0 -244 -101t-93 -256q0 -157 90 -257.5t245 -100.5q152 0 273 106v-178q-111 -76 -264 -76z" />
    <glyph glyph-name="uni0442" unicode="&#x442;" horiz-adv-x="829" 
d="M496 0h-162v811h-293v145h747v-145h-292v-811z" />
    <glyph glyph-name="uni0443" unicode="&#x443;" horiz-adv-x="1007" 
d="M520 319l299 635h185l-725 -1491h-187l342 680l-430 811h191z" />
    <glyph glyph-name="uni0444" unicode="&#x444;" horiz-adv-x="1460" 
d="M811 -537h-162v510q-149 1 -270 60t-194.5 175t-73.5 269q0 115 42.5 210.5t116 159t171 98t208.5 34.5v702h162v-702q112 -1 209.5 -36t170.5 -98t115 -158t42 -210t-42 -210.5t-115 -159t-170.5 -98.5t-209.5 -36v-510zM651 115v725q-162 -2 -268.5 -96t-106.5 -267
t106.5 -267.5t268.5 -94.5zM809 840v-725q162 2 267.5 96.5t105.5 265.5q0 173 -105.5 267t-267.5 96z" />
    <glyph glyph-name="uni0445" unicode="&#x445;" horiz-adv-x="1011" 
d="M608 508l387 -508h-194l-291 391l-293 -391h-203l400 510l-338 444h194l242 -321l244 321h198l-344 -444z" />
    <glyph glyph-name="uni0446" unicode="&#x446;" horiz-adv-x="1169" 
d="M1114 -303h-143v303h-791v956h162v-811h463v811h162v-811h147v-448z" />
    <glyph glyph-name="uni0447" unicode="&#x447;" horiz-adv-x="1110" 
d="M930 0h-164v393q-148 -63 -266 -63q-177 0 -261.5 71.5t-84.5 235.5v319h159v-299q0 -107 50.5 -148.5t164.5 -41.5q127 0 238 59v430h164v-956z" />
    <glyph glyph-name="uni0448" unicode="&#x448;" horiz-adv-x="1630" 
d="M1450 0h-1270v956h162v-811h393v811h162v-811h391v811h162v-956z" />
    <glyph glyph-name="uni0449" unicode="&#x449;" horiz-adv-x="1654" 
d="M1599 -303h-143v303h-1276v956h162v-811h393v811h162v-811h391v811h162v-811h149v-448z" />
    <glyph glyph-name="uni044A" unicode="&#x44a;" horiz-adv-x="1130" 
d="M653 0h-338v809h-274v147h436v-358h176q367 0 367 -299q0 -146 -97 -222.5t-270 -76.5zM477 467v-336h168q97 0 155 40.5t58 125.5q0 170 -215 170h-166z" />
    <glyph glyph-name="uni044B" unicode="&#x44b;" horiz-adv-x="1382" 
d="M518 0h-338v956h162v-358h176q365 0 365 -299q0 -146 -96 -222.5t-269 -76.5zM1202 0h-162v956h162v-956zM342 467v-336h170q96 0 153.5 40.5t57.5 125.5q0 170 -215 170h-166z" />
    <glyph glyph-name="uni044C" unicode="&#x44c;" horiz-adv-x="995" 
d="M518 0h-338v956h162v-358h176q365 0 365 -299q0 -146 -96 -222.5t-269 -76.5zM342 467v-336h170q96 0 153.5 40.5t57.5 125.5q0 170 -215 170h-166z" />
    <glyph glyph-name="uni044D" unicode="&#x44d;" horiz-adv-x="991" 
d="M367 981q227 0 369.5 -144t142.5 -364q0 -216 -142.5 -359t-367.5 -143q-150 0 -267 74v178q65 -54 128.5 -79t146.5 -25q141 0 230 84.5t104 218.5h-469v131h465q-24 126 -113.5 203.5t-220.5 77.5q-154 0 -271 -111v186q47 31 118 51.5t147 20.5z" />
    <glyph glyph-name="uni044E" unicode="&#x44e;" horiz-adv-x="1636" 
d="M1020 983q216 0 361 -145t145 -361q0 -143 -66.5 -259.5t-182 -182.5t-257.5 -66q-200 0 -340 125.5t-160 321.5h-178v-416h-162v956h162v-397h180q28 188 166.5 306t331.5 118zM1020 119q144 0 243 104.5t99 253.5q0 150 -99 253.5t-243 103.5q-142 0 -242 -103.5
t-100 -253.5q0 -149 99 -253.5t243 -104.5z" />
    <glyph glyph-name="uni044F" unicode="&#x44f;" horiz-adv-x="1011" 
d="M487 956h344v-956h-161v379h-123l-275 -379h-192l301 387q-117 19 -184.5 90.5t-67.5 190.5q0 140 94.5 214t263.5 74zM477 508h193v317h-189q-192 0 -192 -157q0 -77 49.5 -118.5t138.5 -41.5z" />
    <glyph glyph-name="uni0450" unicode="&#x450;" horiz-adv-x="1136" 
d="M432 1532l281 -334l-90 -57l-342 307zM1026 492v-46h-743q3 -145 86 -236t219 -91q171 0 274 155l131 -77q-64 -109 -162.5 -167.5t-248.5 -58.5q-211 0 -341 140.5t-130 365.5q0 222 130 363t337 141q209 0 328.5 -137t119.5 -352zM293 582h563q-9 109 -84 180.5
t-192 71.5q-115 0 -191.5 -70t-95.5 -182z" />
    <glyph glyph-name="uni0451" unicode="&#x451;" horiz-adv-x="1136" 
d="M371 1208q-44 0 -76.5 32.5t-32.5 76.5q0 45 33.5 76.5t75.5 31.5q43 0 75.5 -31.5t32.5 -76.5q0 -46 -32 -77.5t-76 -31.5zM776 1208q-45 0 -76.5 31t-31.5 78q0 46 32.5 77t75.5 31t77 -32t34 -76q0 -46 -33.5 -77.5t-77.5 -31.5zM1026 492v-46h-743q3 -145 86 -236
t219 -91q171 0 274 155l131 -77q-64 -109 -162.5 -167.5t-248.5 -58.5q-211 0 -341 140.5t-130 365.5q0 222 130 363t337 141q209 0 328.5 -137t119.5 -352zM293 582h563q-9 109 -84 180.5t-192 71.5q-115 0 -191.5 -70t-95.5 -182z" />
    <glyph glyph-name="uni0452" unicode="&#x452;" horiz-adv-x="1140" 
d="M766 -532q-75 0 -139 22v141q41 -18 78 -18q108 0 108 151v797q0 143 -53 208t-160 65q-121 0 -188.5 -80.5t-67.5 -247.5v-506h-164v1307h-174v110h174v262h164v-262h293v-110h-293v-336v-152h4q104 162 303 162q159 0 241.5 -98t82.5 -285v-868q0 -127 -53.5 -194.5
t-155.5 -67.5z" />
    <glyph glyph-name="uni0453" unicode="&#x453;" horiz-adv-x="778" 
d="M737 1450l-344 -307l-88 57l279 334zM342 0h-162v956h557v-147h-395v-809z" />
    <glyph glyph-name="uni0454" unicode="&#x454;" horiz-adv-x="989" 
d="M616 834q-131 0 -220 -77.5t-111 -203.5h463v-131h-465q15 -134 103.5 -218.5t227.5 -84.5q151 0 275 106v-178q-115 -76 -266 -76q-227 0 -369.5 142.5t-142.5 361.5q0 217 143.5 361.5t368.5 144.5q77 0 147.5 -20t118.5 -52v-186q-60 57 -124.5 84t-148.5 27z" />
    <glyph glyph-name="uni0455" unicode="&#x455;" horiz-adv-x="829" 
d="M426 -29q-126 0 -214 58.5t-126 150.5l125 92q67 -151 215 -151q73 0 114.5 38.5t41.5 98.5t-44 99.5t-165 93.5q-126 58 -180 122t-54 158q0 114 81.5 182t203.5 68q97 0 170 -39t111 -104l-121 -97q-25 41 -67.5 67t-94.5 26q-55 0 -90 -27.5t-35 -75.5
q0 -46 43.5 -79.5t171.5 -88.5q125 -56 176 -125t51 -174q0 -129 -86.5 -211t-226.5 -82z" />
    <glyph glyph-name="uni0456" unicode="&#x456;" horiz-adv-x="520" 
d="M260 1251q-47 0 -80 33.5t-33 79.5q0 44 33.5 77.5t77.5 33.5q47 0 81 -32.5t34 -78.5t-33.5 -79.5t-79.5 -33.5zM342 0h-164v954h164v-954z" />
    <glyph glyph-name="uni0457" unicode="&#x457;" horiz-adv-x="524" 
d="M59 1208q-44 0 -76 32.5t-32 76.5q0 45 33 76.5t75 31.5q44 0 76.5 -31.5t32.5 -76.5q0 -46 -32.5 -77.5t-76.5 -31.5zM465 1208q-45 0 -77 31t-32 78q0 46 33 77t76 31t76.5 -32t33.5 -76q0 -46 -33 -77.5t-77 -31.5zM344 0h-164v954h164v-954z" />
    <glyph glyph-name="uni0458" unicode="&#x458;" horiz-adv-x="520" 
d="M260 1251q-47 0 -80 33.5t-33 79.5q0 44 33.5 77.5t77.5 33.5q47 0 81 -32.5t34 -78.5t-33.5 -79.5t-79.5 -33.5zM342 -537h-164v1491h164v-1491z" />
    <glyph glyph-name="uni0459" unicode="&#x459;" horiz-adv-x="1509" 
d="M113 -6q-62 0 -111 18l25 140q34 -17 69 -17q42 0 65.5 20t39.5 73.5t28 156.5l64 571h594v-358h143q367 0 367 -299q0 -146 -97 -222.5t-270 -76.5h-305v809h-287l-47 -442q-23 -212 -82.5 -292.5t-195.5 -80.5zM887 467v-336h137q96 0 153.5 40.5t57.5 125.5
q0 170 -215 170h-133z" />
    <glyph glyph-name="uni045A" unicode="&#x45a;" horiz-adv-x="1607" 
d="M342 0h-162v956h162v-370h465v370h162v-370h168q360 0 360 -291q0 -145 -94 -220t-266 -75h-330v442h-465v-442zM969 453v-322h164q92 0 147 39t55 121q0 162 -205 162h-161z" />
    <glyph glyph-name="uni045B" unicode="&#x45b;" horiz-adv-x="1140" 
d="M651 981q159 0 241.5 -98t82.5 -285v-598h-164v561q0 143 -52 208t-159 65q-121 0 -188.5 -80.5t-67.5 -247.5v-506h-164v1307h-174v110h174v262h164v-262h293v-110h-293v-330v-158h4q104 162 303 162z" />
    <glyph glyph-name="uni045C" unicode="&#x45c;" horiz-adv-x="999" 
d="M643 1532l154 -84l-344 -307l-88 57zM494 535l489 -535h-203l-393 436l-43 -39v-397h-164v954h164v-379l408 379h196z" />
    <glyph glyph-name="uni045D" unicode="&#x45d;" horiz-adv-x="1189" 
d="M473 1534l281 -334l-90 -57l-342 307zM342 315l651 674h17v-989h-160v641l-653 -674h-17v989h162v-641z" />
    <glyph glyph-name="uni045E" unicode="&#x45e;" horiz-adv-x="1007" 
d="M504 1192q-139 0 -235 73t-132 197l131 43q21 -83 82.5 -134.5t153.5 -51.5q93 0 154 51.5t81 134.5l131 -43q-34 -124 -130 -197t-236 -73zM520 319l299 635h185l-725 -1491h-187l342 680l-430 811h191z" />
    <glyph glyph-name="uni045F" unicode="&#x45f;" horiz-adv-x="1148" 
d="M647 -301h-145v301h-322v956h162v-811h465v811h162v-956h-322v-301z" />
    <glyph glyph-name="uni0490" unicode="&#x490;" horiz-adv-x="962" 
d="M393 0h-172v1544h567v318h156v-471h-551v-1391z" />
    <glyph glyph-name="uni0491" unicode="&#x491;" horiz-adv-x="776" 
d="M342 0h-162v956h410v301h145v-448h-393v-809z" />
    <glyph glyph-name="uni0492" unicode="&#x492;" horiz-adv-x="976" 
d="M958 1544v-153h-544v-527h370v-131h-370v-733h-170v733h-219v131h219v680h714z" />
    <glyph glyph-name="uni0493" unicode="&#x493;" horiz-adv-x="831" 
d="M770 956v-147h-399v-274h278v-121h-278v-414h-162v414h-180v121h180v421h561z" />
    <glyph glyph-name="uni0496" unicode="&#x496;" horiz-adv-x="1994" 
d="M1970 -383h-160v383h-118l-588 752l-55 -50v-702h-170v702l-56 50l-585 -752h-213l680 858l-662 686h211l625 -653v653h170v-653l624 653h213l-661 -686l563 -706h182v-535z" />
    <glyph glyph-name="uni0497" unicode="&#x497;" horiz-adv-x="1421" 
d="M1415 -303h-145v303h-82l-361 403l-51 -49v-354h-160v356l-49 50l-364 -406h-189l453 500l-418 456h182l385 -419v419h160v-419l383 419h184l-413 -456l330 -355h155v-448z" />
    <glyph glyph-name="uni049A" unicode="&#x49a;" horiz-adv-x="1368" 
d="M1343 -383h-159v383h-117l-621 752l-55 -50v-702h-170v1544h170v-653l660 653h225l-709 -682l600 -710h176v-535z" />
    <glyph glyph-name="uni049B" unicode="&#x49b;" horiz-adv-x="1028" 
d="M1020 -303h-146v303h-96l-436 459v-459h-162v954h162v-438l416 438h192l-444 -454l352 -355h162v-448z" />
    <glyph glyph-name="uni049C" unicode="&#x49c;" horiz-adv-x="1376" 
d="M1325 1544l-524 -713l557 -831h-205l-489 745h-25v-305h-121v305h-127v-745h-170v1544h170v-647h127v305h121v-305h14l467 647h205z" />
    <glyph glyph-name="uni049D" unicode="&#x49d;" horiz-adv-x="1132" 
d="M1077 956l-391 -452l432 -504h-200l-361 424h-31v-205h-106v205h-78v-424h-162v956h162v-387h78v203h106v-203h23l330 387h198z" />
    <glyph glyph-name="uni04A2" unicode="&#x4a2;" horiz-adv-x="1587" 
d="M1520 -383h-160v383h-205v760h-764v-760h-170v1544h170v-635h764v635h170v-1392h195v-535z" />
    <glyph glyph-name="uni04A3" unicode="&#x4a3;" horiz-adv-x="1187" 
d="M1133 -303h-146v303h-168v424h-477v-424h-162v956h162v-387h477v387h162v-811h152v-448z" />
    <glyph glyph-name="uni04AE" unicode="&#x4ae;" horiz-adv-x="1181" 
d="M676 0h-170v678l-504 866h195l395 -690l393 690h197l-506 -866v-678z" />
    <glyph glyph-name="uni04AF" unicode="&#x4af;" horiz-adv-x="950" 
d="M555 -537h-160v529l-391 962h182l289 -766l291 766h180l-391 -962v-529z" />
    <glyph glyph-name="uni04B0" unicode="&#x4b0;" horiz-adv-x="1181" 
d="M1182 1544l-506 -866v-82h295v-131h-295v-465h-170v465h-293v131h293v82l-504 866h195l395 -690l393 690h197z" />
    <glyph glyph-name="uni04B1" unicode="&#x4b1;" horiz-adv-x="950" 
d="M946 954l-391 -962v-33h231v-121h-231v-375h-160v375h-229v121h229v33l-391 962h182l289 -766l291 766h180z" />
    <glyph glyph-name="uni04B2" unicode="&#x4b2;" horiz-adv-x="1269" 
d="M1257 -383h-159v383h-127l-375 666l-379 -666h-192l479 815l-422 729h197l325 -583l326 583h196l-430 -729l379 -663h182v-535z" />
    <glyph glyph-name="uni04B3" unicode="&#x4b3;" horiz-adv-x="1077" 
d="M1069 -303h-145v303h-86l-318 406l-305 -406h-201l418 518l-342 438h197l241 -323l246 323h199l-348 -436l295 -375h149v-448z" />
    <glyph glyph-name="uni04B8" unicode="&#x4b8;" horiz-adv-x="1456" 
d="M1063 811v733h172v-1544h-172v657q-135 -40 -283 -47v-309h-121v305q-212 3 -335 116t-123 333v489h172v-475q0 -143 67 -220t219 -87v303h121v-303q173 9 283 49z" />
    <glyph glyph-name="uni04B9" unicode="&#x4b9;" horiz-adv-x="1110" 
d="M766 526v430h164v-956h-164v393q-86 -38 -168 -53v-219h-109v209q-172 2 -253.5 74t-81.5 233v319h159v-299q0 -98 41.5 -140.5t134.5 -47.5v209h109v-207q96 15 168 55z" />
    <glyph glyph-name="uni04BA" unicode="&#x4ba;" horiz-adv-x="1419" 
d="M391 0h-170v1544h170v-643q154 47 383 47q211 0 329 -107.5t118 -336.5v-504h-170v487q0 157 -70.5 233.5t-235.5 76.5q-215 0 -354 -47v-750z" />
    <glyph glyph-name="uni04BB" unicode="&#x4bb;" horiz-adv-x="1140" 
d="M344 0h-164v1679h164v-702v-158h4q104 162 303 162q159 0 241.5 -98t82.5 -285v-598h-164v561q0 143 -52 208t-159 65q-121 0 -188.5 -80.5t-67.5 -247.5v-506z" />
    <glyph glyph-name="uni04C0" unicode="&#x4c0;" horiz-adv-x="614" 
d="M391 0h-170v1544h170v-1544z" />
    <glyph glyph-name="uni04CF" unicode="&#x4cf;" horiz-adv-x="524" 
d="M344 0h-164v1679h164v-1679z" />
    <glyph glyph-name="uni04D8" unicode="&#x4d8;" horiz-adv-x="1828" 
d="M932 1573q208 0 383.5 -106t278 -291t102.5 -406q0 -164 -61.5 -312.5t-166 -255t-248 -169t-302.5 -62.5q-185 0 -334.5 66.5t-247.5 184t-150.5 278t-52.5 350.5v4h1389q-28 244 -195 401.5t-397 157.5q-164 0 -293 -54.5t-244 -160.5l-114 115q281 260 653 260z
M920 131q154 0 286 73t215.5 202t100.5 290h-1205q22 -250 184 -407.5t419 -157.5z" />
    <glyph glyph-name="uni04D9" unicode="&#x4d9;" horiz-adv-x="1136" 
d="M555 983q211 0 341 -140t130 -364q0 -223 -130 -364.5t-337 -141.5q-139 0 -241.5 64.5t-154.5 174.5t-52 251v45h743q-3 145 -86 236.5t-219 91.5q-91 0 -157 -40.5t-126 -127.5l-131 75q73 121 174.5 180.5t245.5 59.5zM557 121q114 0 191 70t96 182h-563
q9 -109 84 -180.5t192 -71.5z" />
    <glyph glyph-name="uni04E8" unicode="&#x4e8;" horiz-adv-x="1865" 
d="M936 1573q160 0 306.5 -62.5t254.5 -169t172 -256t64 -315.5q0 -164 -65 -312.5t-174 -255t-257.5 -169t-310.5 -62.5q-157 0 -302 61.5t-253 167.5t-173 256.5t-65 319.5q0 162 64.5 310t173 254.5t256.5 169.5t309 63zM932 1413q-237 0 -416.5 -159.5t-208.5 -399.5
h1252q-19 160 -108 288.5t-225.5 199.5t-293.5 71zM928 133q245 0 425.5 162.5t205.5 409.5h-1252q17 -164 107.5 -296t226 -204t287.5 -72z" />
    <glyph glyph-name="uni04E9" unicode="&#x4e9;" horiz-adv-x="1234" 
d="M616 981q220 0 363 -144.5t143 -359.5q0 -217 -143 -361.5t-367 -144.5q-144 0 -259 66.5t-178.5 183t-63.5 260.5q0 136 63.5 250t180 182t261.5 68zM616 834q-131 0 -222.5 -82.5t-110.5 -212.5h669q-21 131 -112.5 213t-223.5 82zM616 119q135 0 226 82t110 217h-669
q17 -135 107.5 -217t225.5 -82z" />
    <glyph glyph-name="Wgrave" unicode="&#x1e80;" horiz-adv-x="2148" 
d="M1272 1724l-88 -65l-359 283l146 96zM631 -70h-4l-613 1614h183l430 -1173l440 1222h4l434 -1222l447 1173h184l-633 -1614h-6l-430 1219z" />
    <glyph glyph-name="wgrave" unicode="&#x1e81;" horiz-adv-x="1550" 
d="M913 1198l-90 -57l-342 307l152 84zM487 -57h-4l-467 1011h185l282 -657l291 725h4l291 -725l283 657h182l-467 -1009h-4l-287 712z" />
    <glyph glyph-name="Wacute" unicode="&#x1e82;" horiz-adv-x="2148" 
d="M1321 1939l-360 -278l-84 63l297 312zM631 -70h-4l-613 1614h183l430 -1173l440 1222h4l434 -1222l447 1173h184l-633 -1614h-6l-430 1219z" />
    <glyph glyph-name="wacute" unicode="&#x1e83;" horiz-adv-x="1550" 
d="M1040 1448l-344 -307l-88 57l279 334zM487 -57h-4l-467 1011h185l282 -657l291 725h4l291 -725l283 657h182l-467 -1009h-4l-287 712z" />
    <glyph glyph-name="Wdieresis" unicode="&#x1e84;" horiz-adv-x="2148" 
d="M866 1712q-46 0 -78 32t-32 77t33 76.5t77 31.5q42 0 75.5 -31.5t33.5 -76.5q0 -46 -33 -77.5t-76 -31.5zM1270 1712q-45 0 -77 31t-32 78q0 46 33.5 77t75.5 31q44 0 77 -32t33 -76q0 -46 -33 -77.5t-77 -31.5zM631 -70h-4l-613 1614h183l430 -1173l440 1222h4
l434 -1222l447 1173h184l-633 -1614h-6l-430 1219z" />
    <glyph glyph-name="wdieresis" unicode="&#x1e85;" horiz-adv-x="1550" 
d="M571 1208q-44 0 -76 32.5t-32 76.5q0 45 33 76.5t75 31.5q44 0 76.5 -31.5t32.5 -76.5q0 -46 -32.5 -77.5t-76.5 -31.5zM977 1208q-45 0 -77 31t-32 78q0 46 33 77t76 31t76.5 -32t33.5 -76q0 -46 -33 -77.5t-77 -31.5zM487 -57h-4l-467 1011h185l282 -657l291 725h4
l291 -725l283 657h182l-467 -1009h-4l-287 712z" />
    <glyph glyph-name="uni1E9E" unicode="&#x1e9e;" horiz-adv-x="1595" 
d="M987 938l172 -111q153 -98 224 -200t71 -260q0 -179 -113 -286.5t-294 -107.5q-163 0 -277.5 72.5t-175.5 206.5l154 80q45 -98 122 -148.5t177 -50.5q104 0 169.5 67.5t65.5 170.5q0 107 -57 185.5t-209 172.5l-230 143v15l310 502h-303q-424 0 -424 -357v-1032h-168
v1030q0 254 157.5 384t434.5 130h555v-10z" />
    <glyph glyph-name="Ygrave" unicode="&#x1ef2;" horiz-adv-x="1181" 
d="M795 1724l-88 -65l-359 283l146 96zM676 0h-170v678l-504 866h195l395 -690l393 690h197l-506 -866v-678z" />
    <glyph glyph-name="ygrave" unicode="&#x1ef3;" horiz-adv-x="1007" 
d="M369 1532l280 -334l-90 -57l-342 307zM520 319l299 635h185l-725 -1491h-187l342 680l-430 811h191z" />
    <glyph glyph-name="thinspace" unicode="&#x2009;" horiz-adv-x="368" 
 />
    <glyph glyph-name="uni2010" unicode="&#x2010;" horiz-adv-x="571" 
d="M504 428h-436v143h436v-143z" />
    <glyph glyph-name="uni2011" unicode="&#x2011;" horiz-adv-x="571" 
d="M504 428h-436v143h436v-143z" />
    <glyph glyph-name="endash" unicode="&#x2013;" horiz-adv-x="1024" 
d="M1028 524h-1032v144h1032v-144z" />
    <glyph glyph-name="emdash" unicode="&#x2014;" horiz-adv-x="2048" 
d="M2050 524h-2052v144h2052v-144z" />
    <glyph glyph-name="uni2015" unicode="&#x2015;" horiz-adv-x="2048" 
d="M2050 524h-2052v144h2052v-144z" />
    <glyph glyph-name="underscoredbl" unicode="&#x2017;" horiz-adv-x="819" 
d="M819 -303h-819v143h819v-143zM819 -559h-819v145h819v-145z" />
    <glyph glyph-name="quoteleft" unicode="&#x2018;" horiz-adv-x="614" 
d="M487 1546l-194 -524l-152 57l236 514z" />
    <glyph glyph-name="quoteright" unicode="&#x2019;" horiz-adv-x="614" 
d="M475 1540l-235 -512l-113 45l197 524z" />
    <glyph glyph-name="quotesinglbase" unicode="&#x201a;" horiz-adv-x="661" 
d="M498 186l-236 -514l-110 47l194 525z" />
    <glyph glyph-name="quotereversed" unicode="&#x201b;" horiz-adv-x="614" 
d="M487 1073l-110 -45l-236 512l152 57z" />
    <glyph glyph-name="quotedblleft" unicode="&#x201c;" horiz-adv-x="972" 
d="M487 1546l-194 -524l-152 57l236 514zM844 1546l-195 -524l-151 57l235 514z" />
    <glyph glyph-name="quotedblright" unicode="&#x201d;" horiz-adv-x="972" 
d="M475 1540l-235 -512l-113 45l197 524zM834 1540l-236 -512l-113 45l197 524z" />
    <glyph glyph-name="quotedblbase" unicode="&#x201e;" horiz-adv-x="1019" 
d="M498 186l-236 -514l-110 47l194 525zM856 186l-235 -514l-111 47l195 525z" />
    <glyph glyph-name="dagger" unicode="&#x2020;" horiz-adv-x="1204" 
d="M686 -358h-164v1319h-385v159h385v424h164v-424h383v-159h-383v-1319z" />
    <glyph glyph-name="daggerdbl" unicode="&#x2021;" horiz-adv-x="1204" 
d="M686 -358h-164v520h-385v157h385v642h-385v159h385v424h164v-424h383v-159h-383v-642h383v-157h-383v-520z" />
    <glyph glyph-name="bullet" unicode="&#x2022;" horiz-adv-x="901" 
d="M449 510q-107 0 -183 76t-76 184t76 184t183 76q109 0 185.5 -75.5t76.5 -184.5t-76.5 -184.5t-185.5 -75.5z" />
    <glyph glyph-name="ellipsis" unicode="&#x2026;" horiz-adv-x="1775" 
d="M299 -23q-46 0 -77.5 31.5t-31.5 77.5t31.5 78.5t77.5 32.5t78.5 -32.5t32.5 -78.5t-32.5 -77.5t-78.5 -31.5zM889 -23q-46 0 -77.5 31.5t-31.5 77.5t31.5 78.5t77.5 32.5t78 -32.5t32 -78.5t-32 -77.5t-78 -31.5zM1475 -23q-46 0 -77.5 31.5t-31.5 77.5t31.5 78.5
t77.5 32.5t78 -32.5t32 -78.5t-32 -77.5t-78 -31.5z" />
    <glyph glyph-name="perthousand" unicode="&#x2030;" horiz-adv-x="2650" 
d="M461 844q-151 0 -257 105.5t-106 256.5q0 147 109 252t256 105q150 0 257 -106.5t107 -252.5q0 -148 -107 -254t-259 -106zM1493 1427l-1159 -1366l-74 64l1159 1362zM463 967q96 0 166.5 69.5t70.5 167.5q0 97 -70 166.5t-167 69.5t-166.5 -69t-69.5 -167t69.5 -167.5
t166.5 -69.5zM1313 -16q-150 0 -256.5 105.5t-106.5 256.5q0 144 108.5 249t256.5 105t256 -104.5t108 -255.5q0 -147 -107 -251.5t-259 -104.5zM2185 -16q-150 0 -256 105t-106 257q0 145 108 249.5t256 104.5t256.5 -105t108.5 -255q0 -147 -107.5 -251.5t-259.5 -104.5z
M1315 106q97 0 167 69t70 165q0 100 -69.5 169t-167.5 69q-97 0 -167.5 -69t-70.5 -167q0 -99 70 -167.5t168 -68.5zM2187 106q97 0 167.5 69t70.5 165q0 100 -70 169t-168 69q-97 0 -166 -69t-69 -167q0 -99 69 -167.5t166 -68.5z" />
    <glyph glyph-name="guilsinglleft" unicode="&#x2039;" horiz-adv-x="747" 
d="M602 86l-106 -84l-377 483l375 486l108 -80l-313 -404z" />
    <glyph glyph-name="guilsinglright" unicode="&#x203a;" horiz-adv-x="747" 
d="M629 485l-377 -483l-109 84l316 401l-316 404l109 80z" />
    <glyph glyph-name="exclamdbl" unicode="&#x203c;" horiz-adv-x="1114" 
d="M381 371h-164v1173h164v-1173zM897 371h-164v1173h164v-1173zM299 -23q-46 0 -77.5 31.5t-31.5 77.5t31.5 78.5t77.5 32.5t78.5 -32.5t32.5 -78.5t-32.5 -77.5t-78.5 -31.5zM815 -23q-46 0 -77 31.5t-31 77.5t31.5 78.5t76.5 32.5q46 0 78.5 -32.5t32.5 -78.5
t-32.5 -77.5t-78.5 -31.5z" />
    <glyph glyph-name="uni203D" unicode="&#x203d;" horiz-adv-x="1062" 
d="M532 1567q176 0 287 -104t111 -285q0 -151 -85 -248t-235 -142v-401h-164v727h97v-217q110 34 165.5 99t55.5 175q0 111 -64 174.5t-168 63.5q-106 0 -170.5 -61t-64.5 -166q0 -36 14 -97h-168q-10 58 -10 105q0 169 113 273t286 104zM532 197q44 0 76.5 -32.5
t32.5 -78.5q0 -45 -32 -77t-77 -32q-46 0 -78 31.5t-32 77.5t32 78.5t78 32.5z" />
    <glyph glyph-name="uni203E" unicode="&#x203e;" horiz-adv-x="819" 
d="M819 1477h-819v143h819v-143z" />
    <glyph glyph-name="fraction" unicode="&#x2044;" horiz-adv-x="471" 
d="M727 1505l-907 -1546l-82 49l909 1544z" />
    <glyph glyph-name="zero.sups" unicode="&#x2070;" horiz-adv-x="839" 
d="M418 905q-114 0 -196.5 68.5t-120.5 176t-38 239.5q0 129 38.5 235t120.5 173t196 67q86 0 155.5 -39t113 -105t66.5 -151t23 -180q0 -132 -38.5 -239.5t-121.5 -176t-198 -68.5zM418 1018q109 0 167 106t58 262q0 153 -58 257t-167 104q-74 0 -125.5 -52t-74.5 -131.5
t-23 -177.5q0 -99 23 -180t74.5 -134.5t125.5 -53.5z" />
    <glyph glyph-name="four.sups" unicode="&#x2074;" horiz-adv-x="808" 
d="M633 1878v-666h129v-102h-129v-188h-117v188l-506 -2v6l617 764h6zM217 1212h299v236q0 40 4 154z" />
    <glyph glyph-name="five.sups" unicode="&#x2075;" horiz-adv-x="837" 
d="M373 909q-92 0 -173.5 34.5t-136.5 90.5l68 103q113 -113 244 -113q102 0 164.5 61t62.5 154q0 90 -65 145.5t-170 55.5q-95 0 -181 -39l-4 2l111 444h428v-110h-334q-32 -123 -59 -213q30 12 88 12q146 0 233.5 -83t87.5 -214q0 -150 -103 -240t-261 -90z" />
    <glyph glyph-name="six.sups" unicode="&#x2076;" horiz-adv-x="837" 
d="M422 909q-150 0 -256.5 94.5t-106.5 241.5q0 136 107 275l297 383l104 -86l-200 -246q-13 -17 -35 -43q67 31 127 31q138 0 228.5 -92.5t90.5 -225.5q0 -144 -105 -238t-251 -94zM418 1018q93 0 160 66t67 157q0 92 -64 158.5t-159 66.5t-162 -65.5t-67 -159.5
q0 -92 65.5 -157.5t159.5 -65.5z" />
    <glyph glyph-name="seven.sups" unicode="&#x2077;" horiz-adv-x="757" 
d="M41 1726v121h715v-4l-570 -946l-110 68l469 761h-504z" />
    <glyph glyph-name="eight.sups" unicode="&#x2078;" horiz-adv-x="839" 
d="M420 909q-132 0 -226 69.5t-94 188.5q0 81 45 145t127 93q-66 20 -106.5 77.5t-40.5 131.5q0 113 85 179.5t210 66.5q124 0 209.5 -67t85.5 -181q0 -69 -41 -127.5t-107 -79.5q81 -29 126.5 -92.5t45.5 -145.5q0 -119 -93.5 -188.5t-225.5 -69.5zM420 1442q64 0 113 47
t49 115q0 69 -47.5 112t-114.5 43t-114.5 -43t-47.5 -110q0 -70 48.5 -117t113.5 -47zM420 1008q77 0 130.5 50t53.5 124q0 78 -54.5 129t-129.5 51q-73 0 -128.5 -52.5t-55.5 -127.5q0 -74 54 -124t130 -50z" />
    <glyph glyph-name="nine.sups" unicode="&#x2079;" horiz-adv-x="837" 
d="M672 1253l-297 -383l-105 84l203 250q5 5 11 12t13 15.5t11 13.5q-67 -31 -129 -31q-138 0 -229 93t-91 225q0 143 105.5 237.5t253.5 94.5q149 0 254.5 -95.5t105.5 -242.5q0 -77 -27 -141t-79 -132zM418 1305q94 0 160.5 66.5t66.5 158.5t-65.5 157.5t-159.5 65.5
t-160.5 -65.5t-66.5 -157.5q0 -91 64.5 -158t160.5 -67z" />
    <glyph glyph-name="plus.sups" unicode="&#x207a;" horiz-adv-x="782" 
d="M442 973h-104v276h-275v105h275v276h104v-276h277v-105h-277v-276z" />
    <glyph glyph-name="minus.sups" unicode="&#x207b;" horiz-adv-x="782" 
d="M719 1245h-656v105h656v-105z" />
    <glyph glyph-name="equal.sups" unicode="&#x207c;" horiz-adv-x="782" 
d="M719 1397h-656v106h656v-106zM719 1096h-656v104h656v-104z" />
    <glyph glyph-name="n.sups" unicode="&#x207f;" horiz-adv-x="692" 
d="M217 954h-131v590h129v-92h4q66 109 191 109q97 0 149.5 -61.5t52.5 -170.5v-375h-133v344q0 152 -119 152q-71 0 -107 -50.5t-36 -129.5v-316z" />
    <glyph glyph-name="zero.subs" unicode="&#x2080;" horiz-adv-x="839" 
d="M418 -324q-114 0 -196.5 68.5t-120.5 176t-38 239.5q0 129 38.5 235t120.5 173t196 67q86 0 155.5 -39t113 -105t66.5 -151t23 -180q0 -132 -38.5 -239.5t-121.5 -176t-198 -68.5zM418 -211q109 0 167 106.5t58 262.5q0 99 -23.5 178t-75.5 130.5t-126 51.5t-125.5 -52
t-74.5 -131t-23 -177q0 -99 23 -180.5t74.5 -135t125.5 -53.5z" />
    <glyph glyph-name="one.subs" unicode="&#x2081;" horiz-adv-x="475" 
d="M324 -307h-138v807h-149l53 118h234v-925z" />
    <glyph glyph-name="two.subs" unicode="&#x2082;" horiz-adv-x="819" 
d="M535 14l-220 -211q5 0 169.5 3.5t242.5 3.5v-117h-686v4l358 348q94 92 142.5 160.5t48.5 140.5q0 75 -49.5 123.5t-130.5 48.5q-86 0 -138.5 -54.5t-54.5 -144.5h-133q6 148 92.5 230t233.5 82q142 0 228.5 -76t86.5 -205q0 -53 -14.5 -99.5t-46 -90.5t-57.5 -72.5
t-72 -73.5z" />
    <glyph glyph-name="three.subs" unicode="&#x2083;" horiz-adv-x="837" 
d="M414 -324q-134 0 -224 72.5t-96 200.5h137q4 -74 57 -120t126 -46q78 0 130 47.5t52 128.5q0 73 -55 119.5t-131 46.5h-23v102h16q68 0 117 45.5t49 112.5q0 66 -42 104.5t-105 38.5q-70 0 -113.5 -41t-46.5 -110h-135q9 125 89 191.5t210 66.5q110 0 194.5 -64
t84.5 -174q0 -74 -44.5 -132t-119.5 -83q86 -23 138 -82.5t52 -146.5q0 -90 -46.5 -154.5t-117 -93.5t-153.5 -29z" />
    <glyph glyph-name="four.subs" unicode="&#x2084;" horiz-adv-x="808" 
d="M633 649v-665h129v-103h-129v-188h-117v188l-506 -2v6l617 764h6zM217 -16h299v235q0 40 4 154z" />
    <glyph glyph-name="five.subs" unicode="&#x2085;" horiz-adv-x="837" 
d="M373 -319q-93 0 -174.5 33.5t-135.5 90.5l68 103q113 -113 244 -113q102 0 164.5 61t62.5 154q0 90 -65 145.5t-170 55.5q-95 0 -181 -39l-4 2l111 444h428v-110h-334q-32 -123 -59 -213q30 12 88 12q146 0 233.5 -83t87.5 -214q0 -150 -103 -239.5t-261 -89.5z" />
    <glyph glyph-name="six.subs" unicode="&#x2086;" horiz-adv-x="837" 
d="M422 -319q-150 0 -256.5 94t-106.5 241q0 136 107 275l297 383l104 -86l-200 -246q-13 -17 -35 -43q67 31 127 31q138 0 228.5 -92.5t90.5 -225.5q0 -144 -105 -237.5t-251 -93.5zM418 -211q94 0 160.5 65.5t66.5 157.5t-64 159t-159 67t-162 -66t-67 -160
q0 -92 65.5 -157.5t159.5 -65.5z" />
    <glyph glyph-name="seven.subs" unicode="&#x2087;" horiz-adv-x="757" 
d="M41 498v120h715v-4l-570 -946l-110 66l469 764h-504z" />
    <glyph glyph-name="eight.subs" unicode="&#x2088;" horiz-adv-x="839" 
d="M420 -319q-132 0 -226 68.5t-94 187.5q0 83 45 146.5t127 92.5q-66 20 -106.5 77.5t-40.5 131.5q0 113 85 179.5t210 66.5q124 0 209.5 -67t85.5 -181q0 -69 -41 -127.5t-107 -79.5q81 -29 126.5 -92t45.5 -147q0 -119 -93.5 -187.5t-225.5 -68.5zM420 213q64 0 113 47
t49 115q0 69 -47.5 112t-114.5 43t-114.5 -43t-47.5 -110q0 -70 48.5 -117t113.5 -47zM420 -221q77 0 130.5 49t53.5 123q0 80 -54 131t-130 51q-74 0 -129 -53t-55 -129q0 -74 54 -123t130 -49z" />
    <glyph glyph-name="nine.subs" unicode="&#x2089;" horiz-adv-x="837" 
d="M672 25l-297 -383l-105 84l203 247l35 43q-65 -30 -129 -30q-138 0 -229 92.5t-91 224.5q0 143 105.5 237.5t253.5 94.5q149 0 254.5 -95.5t105.5 -242.5q0 -77 -27 -140.5t-79 -131.5zM418 76q94 0 160.5 66.5t66.5 158.5t-65.5 157.5t-159.5 65.5t-160.5 -65.5
t-66.5 -157.5q0 -91 64.5 -158t160.5 -67z" />
    <glyph glyph-name="plus.subs" unicode="&#x208a;" horiz-adv-x="782" 
d="M442 -256h-104v276h-275v105h275v276h104v-276h277v-105h-277v-276z" />
    <glyph glyph-name="minus.subs" unicode="&#x208b;" horiz-adv-x="782" 
d="M719 16h-656v105h656v-105z" />
    <glyph glyph-name="equal.subs" unicode="&#x208c;" horiz-adv-x="782" 
d="M719 168h-656v106h656v-106zM719 -133h-656v104h656v-104z" />
    <glyph glyph-name="uni208D" unicode="&#x208d;" horiz-adv-x="460" 
d="M389 -475l-96 -57q-193 310 -193 641t193 641l96 -58q-166 -279 -166 -583q0 -307 166 -584z" />
    <glyph glyph-name="uni208E" unicode="&#x208e;" horiz-adv-x="460" 
d="M168 -532l-96 57q166 272 166 584q0 306 -166 583l96 58q192 -309 192 -641t-192 -641z" />
    <glyph glyph-name="n.subs" unicode="&#x2099;" horiz-adv-x="692" 
d="M217 -205h-131v590h129v-92h4q66 108 191 108q97 0 149.5 -62t52.5 -169v-375h-133v344q0 152 -119 152q-71 0 -107 -51t-36 -131v-314z" />
    <glyph glyph-name="franc" unicode="&#x20a3;" horiz-adv-x="1062" 
d="M971 1544v-160h-541v-458h522v-160h-522v-240h348v-123h-348v-403h-170v403h-203v123h203v1018h711z" />
    <glyph glyph-name="lira" unicode="&#x20a4;" horiz-adv-x="1255" 
d="M1067 311l137 -82q-63 -135 -138.5 -193.5t-184.5 -58.5q-59 0 -158.5 33t-193 66t-136.5 33q-57 0 -98 -31t-80 -109l-145 78q70 119 136 167t159 54q59 106 59 189q0 31 -6 61h-295v107h258q-13 27 -76 141h-182v106h127q-57 128 -57 242q0 193 131.5 325t339.5 132
q213 0 341.5 -129t133.5 -332l-166 -33q-10 149 -85 241.5t-222 92.5q-132 0 -216.5 -88t-84.5 -223q0 -94 65 -228h436v-106h-381q48 -84 70 -141h311v-107h-278q6 -34 6 -67q0 -96 -64 -197q36 -10 162.5 -61.5t186.5 -51.5q59 0 99.5 38.5t88.5 131.5z" />
    <glyph glyph-name="peseta" unicode="&#x20a7;" horiz-adv-x="1148" 
d="M1010 1167h139v-123h-139q-20 -183 -155.5 -284t-350.5 -101h-125v-659h-170v1044h-197v123h197v377h235q526 0 566 -377zM477 1389h-98v-222h465q-40 222 -367 222zM379 817h110q154 0 245.5 57.5t111.5 169.5h-467v-227z" />
    <glyph glyph-name="Euro" unicode="&#x20ac;" horiz-adv-x="1304" 
d="M1212 209l48 -150q-150 -88 -342 -88q-266 0 -442 152t-232 403h-168l20 117h129q-4 66 -4 102q0 35 4 101h-149l20 117h146q55 277 232 443.5t429 166.5q187 0 340 -90l-47 -154q-124 88 -293 88q-184 0 -314.5 -123t-176.5 -331h612l-18 -117h-613q-4 -66 -4 -101
q0 -53 6 -102h563l-18 -117h-522q49 -183 177.5 -291t319.5 -108q154 0 297 82z" />
    <glyph glyph-name="uni20B8" unicode="&#x20b8;" horiz-adv-x="952" 
d="M934 1384h-916v160h916v-160zM561 0h-168v1079h-375v160h916v-160h-373v-1079z" />
    <glyph glyph-name="uni20B9" unicode="&#x20b9;" horiz-adv-x="1146" 
d="M106 1544h981v-131h-362q69 -39 110 -100t52 -135h200v-131h-198q-10 -81 -46 -149t-97 -121t-154 -83t-209 -30h-64l689 -664h-224l-678 664v133h234q165 0 264 63t119 187h-617v131h615q-21 117 -115.5 176t-249.5 59h-250v131z" />
    <glyph glyph-name="uni20BA" unicode="&#x20ba;" horiz-adv-x="1261" 
d="M1010 539h166q-17 -261 -174 -404t-431 -143q-151 0 -282 20v582l-209 -92v137l209 92v211l-209 -92v137l209 92v465h172v-389l407 180v-139l-407 -178v-211l407 180v-139l-407 -178v-508q49 -8 141 -8q182 0 289 99.5t119 285.5z" />
    <glyph glyph-name="uni20BC" unicode="&#x20bc;" horiz-adv-x="1325" 
d="M748 1544v-268q249 -23 355.5 -188.5t106.5 -491.5v-596h-166v594q0 252 -69.5 375.5t-226.5 146.5v-993h-170v991q-297 -55 -297 -522v-592h-168v594q0 110 15.5 205t50.5 178.5t88 145t132 102t179 51.5v268h170z" />
    <glyph glyph-name="uni20BD" unicode="&#x20bd;" horiz-adv-x="1126" 
d="M547 688h-105v-180h508v-129h-508v-379h-170v379h-209v129h209v180h-209v129h209v727h215q132 0 233 -23t178.5 -73.5t118 -137t40.5 -206.5q0 -195 -139 -305.5t-371 -110.5zM520 1389h-78v-572h90q175 0 268 73t93 216q0 142 -95.5 212.5t-277.5 70.5z" />
    <glyph glyph-name="uni2105" unicode="&#x2105;" horiz-adv-x="1804" 
d="M471 844q-157 0 -258.5 103t-101.5 259q0 153 103.5 255t256.5 102q98 0 184 -47v-142q-72 66 -178 66q-100 0 -167.5 -68t-67.5 -168t68 -169.5t169 -69.5q102 0 176 67v-141q-80 -47 -184 -47zM1507 1425l-1159 -1364l-74 64l1160 1362zM1327 -16q-150 0 -257 105.5
t-107 256.5q0 144 108.5 249t255.5 105q149 0 258 -104.5t109 -255.5q0 -147 -107.5 -251.5t-259.5 -104.5zM1329 106q97 0 166.5 68.5t69.5 165.5q0 101 -69.5 169.5t-168.5 68.5q-96 0 -165.5 -69t-69.5 -167q0 -99 69.5 -167.5t167.5 -68.5z" />
    <glyph glyph-name="uni2113" unicode="&#x2113;" horiz-adv-x="929" 
d="M522 102q109 0 213 113l70 -102q-134 -142 -287 -142q-157 0 -224 80.5t-67 224.5v310q-89 -38 -153 -62l-25 140q133 49 178 69v477q0 173 90 268t228 95q58 0 109.5 -17.5t95.5 -53.5t70 -101.5t26 -153.5q0 -174 -119.5 -326t-349.5 -276v-346q0 -103 33.5 -150
t111.5 -47zM555 1442q-83 0 -130.5 -63t-47.5 -173v-411q160 92 246 206.5t86 243.5q0 102 -45 149.5t-109 47.5z" />
    <glyph glyph-name="uni2116" unicode="&#x2116;" horiz-adv-x="2428" 
d="M229 1626l922 -1247v1165h170v-1618h-8l-922 1245v-1171h-170v1626h8zM1921 1149q168 0 282.5 -106.5t114.5 -276.5q0 -173 -113.5 -280t-283.5 -107t-283.5 107t-113.5 280q0 170 114.5 276.5t282.5 106.5zM1921 510q103 0 171.5 72t68.5 184q0 108 -68 181t-172 73
t-172 -73t-68 -181q0 -111 69 -183.5t171 -72.5zM1921 219q44 0 76.5 -32t32.5 -76q0 -46 -32.5 -78.5t-76.5 -32.5q-46 0 -78.5 32.5t-32.5 78.5q0 44 32.5 76t78.5 32z" />
    <glyph glyph-name="uni2117" unicode="&#x2117;" horiz-adv-x="1773" 
d="M887 -27q-163 0 -311 62.5t-255.5 169t-171 255.5t-63.5 314q0 219 107.5 403t291.5 290t402 106t402 -106t291.5 -290t107.5 -403q0 -165 -63.5 -314t-171 -255.5t-255.5 -169t-311 -62.5zM887 72q143 0 273 55t224.5 148.5t150.5 223.5t56 275t-56 275.5t-150.5 224
t-224.5 148.5t-273 55q-191 0 -352.5 -93t-256 -255t-94.5 -355q0 -145 56 -275t150 -223.5t224 -148.5t273 -55zM813 330h-119v901h170q160 0 249 -64t89 -194q0 -121 -83.5 -200t-233.5 -79h-72v-364zM813 1120v-319h68q96 0 150 43.5t54 126.5q0 74 -53 111.5t-151 37.5
h-68z" />
    <glyph glyph-name="trademark" unicode="&#x2122;" horiz-adv-x="1613" 
d="M711 711h-125l149 841h109l237 -649l238 647h111l149 -839h-125l-102 639l-238 -643h-65l-234 641zM336 711h-125v723l-203 -4v114h535v-114l-207 4v-723z" />
    <glyph glyph-name="uni2126" unicode="&#x2126;" horiz-adv-x="1888" 
d="M1389 145h348v-145h-584v137q206 116 302.5 277.5t96.5 382.5q0 165 -80.5 306.5t-220.5 225.5t-307 84t-308 -84t-221.5 -225.5t-80.5 -306.5q0 -219 96.5 -379t300.5 -277v-141h-579v145h348q-163 112 -249.5 277t-86.5 375q0 160 62 304t166.5 247.5t248.5 164
t303 60.5q157 0 300.5 -61t248 -164t167 -247t62.5 -304q0 -212 -86 -376.5t-247 -275.5z" />
    <glyph glyph-name="estimated" unicode="&#x212e;" horiz-adv-x="2017" 
d="M1010 0q-151 0 -284 37t-235.5 106t-176 163.5t-112 213t-38.5 250.5q0 163 59 304.5t166 246t267.5 164t353.5 59.5q157 0 292.5 -41.5t235.5 -115t171.5 -173t107.5 -217.5t36 -247h-1347q-12 0 -20.5 -8.5t-8.5 -20.5v-367q0 -65 33 -96q207 -201 500 -201
q158 0 297.5 66t228.5 174h152q-40 -55 -98.5 -104.5t-141.5 -94.5t-196.5 -71.5t-241.5 -26.5zM506 797h1003q12 0 20.5 7.5t8.5 20.5v367q0 32 -7 52t-26 38q-208 205 -495 205q-292 0 -500 -205q-19 -18 -26 -38t-7 -52v-367q0 -13 8.5 -20.5t20.5 -7.5z" />
    <glyph glyph-name="oneeighth" unicode="&#x215b;" horiz-adv-x="1785" 
d="M1202 1505l-907 -1546l-82 49l909 1544zM324 618h-138v807h-149l53 119h234v-926zM1366 -12q-132 0 -225.5 69.5t-93.5 188.5q0 81 45 144.5t127 92.5q-66 20 -107 78t-41 131q0 113 85 179.5t210 66.5q124 0 209.5 -67t85.5 -181q0 -69 -41 -127.5t-107 -79.5
q82 -29 127.5 -92t45.5 -145q0 -119 -94 -188.5t-226 -69.5zM1366 520q64 0 113 47t49 115q0 69 -47.5 112.5t-114.5 43.5q-66 0 -114 -43.5t-48 -110.5q0 -70 48.5 -117t113.5 -47zM1366 86q77 0 130.5 50t53.5 124q0 78 -54.5 129t-129.5 51q-73 0 -128.5 -52.5
t-55.5 -127.5q0 -74 54 -124t130 -50z" />
    <glyph glyph-name="threeeighths" unicode="&#x215c;" horiz-adv-x="2148" 
d="M414 602q-134 0 -224 72t-96 200h137q4 -74 56.5 -119.5t126.5 -45.5q78 0 130 47.5t52 128.5q0 73 -55 119.5t-131 46.5h-23v102h16q68 0 117 45.5t49 112.5q0 66 -42 104.5t-105 38.5q-70 0 -113.5 -41t-46.5 -110h-135q9 125 89 191.5t210 66.5q110 0 194.5 -64
t84.5 -174q0 -74 -44.5 -132t-119.5 -83q86 -23 138 -82.5t52 -146.5q0 -90 -46.5 -154.5t-117 -93.5t-153.5 -29zM1565 1505l-908 -1546l-82 49l910 1544zM1729 -12q-132 0 -226 69.5t-94 188.5q0 81 45 144.5t127 92.5q-66 20 -106.5 77.5t-40.5 131.5q0 113 85 179.5
t210 66.5q124 0 209 -67t85 -181q0 -69 -40.5 -127.5t-106.5 -79.5q81 -29 126.5 -92t45.5 -145q0 -119 -93.5 -188.5t-225.5 -69.5zM1729 520q64 0 112.5 47t48.5 115q0 69 -47.5 112.5t-113.5 43.5t-114 -43.5t-48 -110.5q0 -70 48.5 -117t113.5 -47zM1729 86
q77 0 130.5 50t53.5 124q0 78 -54.5 129t-129.5 51q-74 0 -129.5 -52.5t-55.5 -127.5q0 -74 54.5 -124t130.5 -50z" />
    <glyph glyph-name="fiveeighths" unicode="&#x215d;" horiz-adv-x="2148" 
d="M1565 1505l-908 -1546l-82 49l910 1544zM373 606q-92 0 -173.5 34.5t-136.5 90.5l68 103q113 -113 244 -113q102 0 164.5 61t62.5 154q0 90 -65 145.5t-170 55.5q-95 0 -181 -39l-4 2l111 444h428v-110h-334q-32 -123 -59 -213q30 12 88 12q146 0 233.5 -83t87.5 -214
q0 -150 -103 -240t-261 -90zM1729 -12q-132 0 -226 69.5t-94 188.5q0 81 45 144.5t127 92.5q-66 20 -106.5 77.5t-40.5 131.5q0 113 85 179.5t210 66.5q124 0 209 -67t85 -181q0 -69 -40.5 -127.5t-106.5 -79.5q81 -29 126.5 -92t45.5 -145q0 -119 -93.5 -188.5
t-225.5 -69.5zM1729 520q64 0 112.5 47t48.5 115q0 69 -47.5 112.5t-113.5 43.5t-114 -43.5t-48 -110.5q0 -70 48.5 -117t113.5 -47zM1729 86q77 0 130.5 50t53.5 124q0 78 -54.5 129t-129.5 51q-74 0 -129.5 -52.5t-55.5 -127.5q0 -74 54.5 -124t130.5 -50z" />
    <glyph glyph-name="seveneighths" unicode="&#x215e;" horiz-adv-x="1894" 
d="M319 8l908 1544l82 -47l-908 -1546zM41 1544h715v-4l-570 -946l-110 68l469 761h-504v121zM1622 483q82 -29 127 -91.5t45 -145.5q0 -119 -93 -188.5t-226 -69.5q-132 0 -226 69.5t-94 188.5q0 81 45 144.5t127 92.5q-66 20 -106.5 77.5t-40.5 131.5q0 113 85.5 179.5
t209.5 66.5t209 -67t85 -181q0 -69 -40.5 -127.5t-106.5 -79.5zM1313 684q0 -70 48.5 -117t113.5 -47q64 0 113.5 47t49.5 115q0 69 -48 112.5t-115 43.5q-66 0 -114 -43.5t-48 -110.5zM1475 86q77 0 130.5 50t53.5 124q0 78 -54.5 129t-129.5 51q-73 0 -128 -52.5
t-55 -127.5q0 -74 53.5 -124t129.5 -50z" />
    <glyph glyph-name="uni2166" unicode="&#x2166;" horiz-adv-x="2521" 
d="M645 -82h-4l-641 1626h184l461 -1204l461 1204h188zM1686 0h-170v1544h170v-1544zM2298 0h-170v1544h170v-1544z" />
    <glyph glyph-name="arrowleft" unicode="&#x2190;" horiz-adv-x="2048" 
d="M926 874h872v-169h-872v-455l-699 536l699 545v-457z" />
    <glyph glyph-name="arrowup" unicode="&#x2191;" horiz-adv-x="2048" 
d="M1028 1571l537 -699h-455v-872h-170v872h-457z" />
    <glyph glyph-name="arrowright" unicode="&#x2192;" horiz-adv-x="2048" 
d="M1126 1329l699 -536l-699 -545v457h-872v169h872v455z" />
    <glyph glyph-name="arrowdown" unicode="&#x2193;" horiz-adv-x="2048" 
d="M1110 1544v-872h455l-537 -699l-545 699h457v872h170z" />
    <glyph glyph-name="arrowboth" unicode="&#x2194;" horiz-adv-x="2048" 
d="M1253 1315l568 -547l-568 -535v453h-458v-453l-566 535l566 547v-459h458v459z" />
    <glyph glyph-name="arrowupdn" unicode="&#x2195;" horiz-adv-x="2048" 
d="M1565 1004h-453v-459h453l-535 -568l-547 568h459v459h-459l547 567z" />
    <glyph glyph-name="uni2196" unicode="&#x2196;" horiz-adv-x="2048" 
d="M1010 911l618 -616l-121 -121l-616 619l-322 -322l-114 872l878 -108z" />
    <glyph glyph-name="uni2197" unicode="&#x2197;" horiz-adv-x="2048" 
d="M692 1247l873 113l-109 -879l-323 324l-617 -617l-121 119l619 619z" />
    <glyph glyph-name="uni2198" unicode="&#x2198;" horiz-adv-x="2048" 
d="M1468 1079l113 -872l-879 108l324 322l-616 618l118 119l619 -616z" />
    <glyph glyph-name="uni2199" unicode="&#x2199;" horiz-adv-x="2048" 
d="M1520 1374l118 -121l-616 -616l321 -322l-872 -114l109 878l323 -321z" />
    <glyph glyph-name="partialdiff" unicode="&#x2202;" horiz-adv-x="1073" 
d="M469 1462q123 0 220.5 -55.5t160 -153t95 -227t32.5 -281.5q0 -128 -17.5 -240.5t-55.5 -210.5t-95 -168.5t-140.5 -110.5t-187.5 -40q-120 0 -213.5 61t-142.5 164t-49 228q0 203 116 327t304 124q183 0 313 -136v15q0 154 -35 274.5t-113 196.5t-190 76q-67 0 -122 -26
t-120 -85l-90 129q146 139 330 139zM498 137q123 0 202.5 113t100.5 338q-125 137 -301 137q-122 0 -191 -80.5t-69 -204.5q0 -128 71 -215.5t187 -87.5z" />
    <glyph glyph-name="uni2206" unicode="&#x2206;" horiz-adv-x="1431" 
d="M1430 0h-1428l723 1626h4zM627 1022l-371 -862h918l-361 868q-10 22 -92 221q-55 -134 -94 -227z" />
    <glyph glyph-name="product" unicode="&#x220f;" horiz-adv-x="1304" 
d="M307 -537h-137v2081h965v-2081h-138v1952h-690v-1952z" />
    <glyph glyph-name="summation" unicode="&#x2211;" horiz-adv-x="1003" 
d="M41 1544h922v-129h-760l579 -911l-573 -910h752v-131h-920v117l582 922l-582 915v127z" />
    <glyph glyph-name="minus" unicode="&#x2212;" horiz-adv-x="1257" 
d="M1153 561h-1049v135h1049v-135z" />
    <glyph glyph-name="uni2215" unicode="&#x2215;" horiz-adv-x="1257" 
d="M1122 1505l-907 -1546l-82 49l907 1544z" />
    <glyph glyph-name="uni2219" unicode="&#x2219;" horiz-adv-x="1257" 
d="M629 520q-46 0 -78.5 32.5t-32.5 78.5q0 45 32.5 76.5t78.5 31.5q45 0 76.5 -31.5t31.5 -76.5q0 -46 -32 -78.5t-76 -32.5z" />
    <glyph glyph-name="radical" unicode="&#x221a;" horiz-adv-x="1292" 
d="M1292 1544v-143h-213l-604 -1733h-4l-467 1008h182l275 -621l483 1489h348z" />
    <glyph glyph-name="infinity" unicode="&#x221e;" horiz-adv-x="1576" 
d="M1163 1024q158 0 255.5 -113.5t97.5 -296.5q0 -181 -98.5 -294t-256.5 -113q-118 0 -206 62.5t-167 191.5q-81 -130 -168.5 -192t-205.5 -62q-157 0 -254 112t-97 295t97.5 296.5t255.5 113.5q117 0 206 -63t166 -191q81 129 169 191.5t206 62.5zM414 350q89 0 154 62
t137 202q-70 139 -135.5 202t-153.5 63q-94 0 -148.5 -70.5t-54.5 -194.5t54 -194t147 -70zM1161 350q95 0 149 70t54 194t-53.5 194.5t-147.5 70.5q-89 0 -153.5 -62.5t-137.5 -202.5q70 -139 135.5 -201.5t153.5 -62.5z" />
    <glyph glyph-name="integral" unicode="&#x222b;" horiz-adv-x="880" 
d="M166 -537q-78 0 -139 21v158q52 -25 108 -25q78 0 120 59t52 201l103 1432q14 206 92 298.5t213 92.5q78 0 139 -21v-155q-52 22 -109 22q-78 0 -120 -59t-52 -201l-102 -1431q-14 -206 -92 -299t-213 -93z" />
    <glyph glyph-name="approxequal" unicode="&#x2248;" horiz-adv-x="1302" 
d="M866 700q-59 0 -124.5 24t-113.5 53t-106 53t-104 24q-83 0 -129 -38t-76 -109l-92 34q42 120 123.5 197.5t183.5 77.5q59 0 124.5 -24t113.5 -53t106 -53t105 -24q83 0 132 41t83 119l94 -39q-105 -283 -320 -283zM866 309q-59 0 -124.5 24t-113.5 53t-106 53t-104 24
q-83 0 -129 -38.5t-76 -109.5l-92 35q42 120 123.5 197.5t183.5 77.5q59 0 124.5 -24t113.5 -53t106 -53t105 -24q83 0 132 41t83 119l94 -39q-105 -283 -320 -283z" />
    <glyph glyph-name="notequal" unicode="&#x2260;" horiz-adv-x="1236" 
d="M1159 926v-135h-354l-244 -326h598v-135h-700l-172 -230h-127l172 230h-221v135h321l244 326h-565v135h667l176 235h129l-176 -235h252z" />
    <glyph glyph-name="lessequal" unicode="&#x2264;" horiz-adv-x="1257" 
d="M317 874l805 -313v-168l-999 412v141l999 410v-166zM98 117v135h1049v-135h-1049z" />
    <glyph glyph-name="greaterequal" unicode="&#x2265;" horiz-adv-x="1257" 
d="M127 1356l1001 -410v-141l-1001 -412v168l807 313l-807 316v166zM104 117v135h1049v-135h-1049z" />
    <glyph glyph-name="lozenge" unicode="&#x25ca;" horiz-adv-x="1067" 
d="M424 1544h219l361 -772l-361 -772h-219l-361 772zM246 772l286 -614l287 614l-287 614z" />
    <glyph glyph-name="fi" unicode="&#xfb01;" horiz-adv-x="1150" 
d="M381 0h-164v801h-176v153h176v334q0 197 104 304.5t275 107.5q169 0 272 -107.5t103 -304.5v-69h-164v69q0 128 -57 191t-154 63q-99 0 -157 -63t-58 -191v-334h240v-153h-240v-801zM971 0h-164v954h164v-954z" />
    <glyph glyph-name="fl" unicode="&#xfb02;" horiz-adv-x="1150" 
d="M381 0h-164v801h-176v153h176v334q0 197 104 304.5t275 107.5q169 0 272 -107.5t103 -304.5v-1288h-164v1288q0 128 -57 191t-154 63q-99 0 -157 -63t-58 -191v-334h240v-153h-240v-801z" />
    <glyph glyph-name="f_j" unicode="&#xfb0b;" horiz-adv-x="1150" 
d="M381 0h-164v801h-176v153h176v334q0 197 104 304.5t275 107.5q169 0 272 -107.5t103 -304.5v-69h-164v69q0 128 -57 191t-154 63q-99 0 -157 -63t-58 -191v-334h240v-153h-240v-801zM971 -537h-164v1491h164v-1491z" />
    <glyph glyph-name="f_f_j" unicode="&#xfb0c;" horiz-adv-x="1740" 
d="M1186 1700q169 0 272 -104.5t103 -295.5v-69h-164v69q0 122 -58 182t-155 60t-155 -60t-58 -182v-346h239v-153h-239v-801h-164v801h-426v-801h-164v801h-176v153h176v328q0 194 104 299t275 105q190 0 276 -142q47 77 128.5 116.5t185.5 39.5zM381 954h426v342
q0 118 -57 175t-154 57q-99 0 -157 -60.5t-58 -185.5v-328zM1561 -537h-164v1491h164v-1491z" />
    <glyph glyph-name="uniFEFF" unicode="&#xfeff;" 
 />
    <glyph glyph-name="a.ss02" horiz-adv-x="1081" 
d="M537 981q186 0 282 -93t96 -276v-612h-163v115q-96 -140 -301 -140q-154 0 -252.5 85t-98.5 235t100.5 234.5t258.5 84.5q96 0 173.5 -29t119.5 -83v104q0 113 -61.5 170.5t-168.5 57.5q-143 0 -278 -80l-66 131q157 96 359 96zM494 102q118 0 189 55t71 148
q0 88 -70 135t-186 47q-103 0 -166.5 -49.5t-63.5 -142.5q0 -94 61.5 -143.5t164.5 -49.5z" />
    <glyph glyph-name="aacute.ss02" horiz-adv-x="1081" 
d="M645 1532l154 -84l-344 -307l-88 57zM537 981q186 0 282 -93t96 -276v-612h-163v115q-96 -140 -301 -140q-154 0 -252.5 85t-98.5 235t100.5 234.5t258.5 84.5q96 0 173.5 -29t119.5 -83v104q0 113 -61.5 170.5t-168.5 57.5q-143 0 -278 -80l-66 131q157 96 359 96z
M494 102q118 0 189 55t71 148q0 88 -70 135t-186 47q-103 0 -166.5 -49.5t-63.5 -142.5q0 -94 61.5 -143.5t164.5 -49.5z" />
    <glyph glyph-name="abreve.ss02" horiz-adv-x="1081" 
d="M532 1143q-134 0 -220 79t-101 224h135q13 -84 62.5 -129t126.5 -45q160 0 188 174h135q-17 -149 -102.5 -226t-223.5 -77zM537 981q186 0 282 -93t96 -276v-612h-163v115q-96 -140 -301 -140q-154 0 -252.5 85t-98.5 235t100.5 234.5t258.5 84.5q96 0 173.5 -29
t119.5 -83v104q0 113 -61.5 170.5t-168.5 57.5q-143 0 -278 -80l-66 131q157 96 359 96zM494 102q118 0 189 55t71 148q0 88 -70 135t-186 47q-103 0 -166.5 -49.5t-63.5 -142.5q0 -94 61.5 -143.5t164.5 -49.5z" />
    <glyph glyph-name="acircumflex.ss02" horiz-adv-x="1081" 
d="M752 1141l-220 198l-217 -198l-110 88l327 295l332 -295zM537 981q186 0 282 -93t96 -276v-612h-163v115q-96 -140 -301 -140q-154 0 -252.5 85t-98.5 235t100.5 234.5t258.5 84.5q96 0 173.5 -29t119.5 -83v104q0 113 -61.5 170.5t-168.5 57.5q-143 0 -278 -80l-66 131
q157 96 359 96zM494 102q118 0 189 55t71 148q0 88 -70 135t-186 47q-103 0 -166.5 -49.5t-63.5 -142.5q0 -94 61.5 -143.5t164.5 -49.5z" />
    <glyph glyph-name="adieresis.ss02" horiz-adv-x="1081" 
d="M332 1208q-44 0 -76.5 32.5t-32.5 76.5q0 45 33.5 76.5t75.5 31.5q43 0 75.5 -31.5t32.5 -76.5q0 -46 -32 -77.5t-76 -31.5zM737 1208q-45 0 -76.5 31t-31.5 78q0 46 32.5 77t75.5 31t77 -32t34 -76q0 -46 -33.5 -77.5t-77.5 -31.5zM537 981q186 0 282 -93t96 -276v-612
h-163v115q-96 -140 -301 -140q-154 0 -252.5 85t-98.5 235t100.5 234.5t258.5 84.5q96 0 173.5 -29t119.5 -83v104q0 113 -61.5 170.5t-168.5 57.5q-143 0 -278 -80l-66 131q157 96 359 96zM494 102q118 0 189 55t71 148q0 88 -70 135t-186 47q-103 0 -166.5 -49.5
t-63.5 -142.5q0 -94 61.5 -143.5t164.5 -49.5z" />
    <glyph glyph-name="agrave.ss02" horiz-adv-x="1081" 
d="M391 1532l281 -334l-90 -57l-342 307zM537 981q186 0 282 -93t96 -276v-612h-163v115q-96 -140 -301 -140q-154 0 -252.5 85t-98.5 235t100.5 234.5t258.5 84.5q96 0 173.5 -29t119.5 -83v104q0 113 -61.5 170.5t-168.5 57.5q-143 0 -278 -80l-66 131q157 96 359 96z
M494 102q118 0 189 55t71 148q0 88 -70 135t-186 47q-103 0 -166.5 -49.5t-63.5 -142.5q0 -94 61.5 -143.5t164.5 -49.5z" />
    <glyph glyph-name="amacron.ss02" horiz-adv-x="1081" 
d="M242 1376h583v-129h-583v129zM537 981q186 0 282 -93t96 -276v-612h-163v115q-96 -140 -301 -140q-154 0 -252.5 85t-98.5 235t100.5 234.5t258.5 84.5q96 0 173.5 -29t119.5 -83v104q0 113 -61.5 170.5t-168.5 57.5q-143 0 -278 -80l-66 131q157 96 359 96zM494 102
q118 0 189 55t71 148q0 88 -70 135t-186 47q-103 0 -166.5 -49.5t-63.5 -142.5q0 -94 61.5 -143.5t164.5 -49.5z" />
    <glyph glyph-name="aogonek.ss02" horiz-adv-x="1081" 
d="M940 -270l47 -105q-86 -53 -194 -53q-91 0 -152 51t-61 141q0 148 172 246v105q-96 -140 -301 -140q-154 0 -252.5 85t-98.5 235t100.5 234.5t258.5 84.5q96 0 173.5 -29t119.5 -83v104q0 113 -61.5 170.5t-168.5 57.5q-143 0 -278 -80l-66 131q157 96 359 96
q186 0 282 -93t96 -276v-612h-22q-182 -102 -182 -211q0 -42 26.5 -67t71.5 -25q63 0 131 33zM494 102q118 0 189 55t71 148q0 88 -70 135t-186 47q-103 0 -166.5 -49.5t-63.5 -142.5q0 -94 61.5 -143.5t164.5 -49.5z" />
    <glyph glyph-name="aring.ss02" horiz-adv-x="1081" 
d="M535 1133q-94 0 -162 65t-68 162t68 162t162 65t160.5 -65t66.5 -162t-66.5 -162t-160.5 -65zM535 1483q-52 0 -87.5 -33.5t-35.5 -89.5t35.5 -89.5t87.5 -33.5q51 0 85.5 33.5t34.5 89.5t-34.5 89.5t-85.5 33.5zM537 981q186 0 282 -93t96 -276v-612h-163v115
q-96 -140 -301 -140q-154 0 -252.5 85t-98.5 235t100.5 234.5t258.5 84.5q96 0 173.5 -29t119.5 -83v104q0 113 -61.5 170.5t-168.5 57.5q-143 0 -278 -80l-66 131q157 96 359 96zM494 102q118 0 189 55t71 148q0 88 -70 135t-186 47q-103 0 -166.5 -49.5t-63.5 -142.5
q0 -94 61.5 -143.5t164.5 -49.5z" />
    <glyph glyph-name="aringacute.ss02" horiz-adv-x="1081" 
d="M674 2021l153 -82l-344 -309l-88 58zM535 1133q-94 0 -162 65t-68 162t68 162t162 65t160.5 -65t66.5 -162t-66.5 -162t-160.5 -65zM535 1483q-52 0 -87.5 -33.5t-35.5 -89.5t35.5 -89.5t87.5 -33.5q51 0 85.5 33.5t34.5 89.5t-34.5 89.5t-85.5 33.5zM537 981
q186 0 282 -93t96 -276v-612h-163v115q-96 -140 -301 -140q-154 0 -252.5 85t-98.5 235t100.5 234.5t258.5 84.5q96 0 173.5 -29t119.5 -83v104q0 113 -61.5 170.5t-168.5 57.5q-143 0 -278 -80l-66 131q157 96 359 96zM494 102q118 0 189 55t71 148q0 88 -70 135t-186 47
q-103 0 -166.5 -49.5t-63.5 -142.5q0 -94 61.5 -143.5t164.5 -49.5z" />
    <glyph glyph-name="atilde.ss02" horiz-adv-x="1081" 
d="M387 1286q-35 0 -61.5 -27t-55.5 -81l-96 79q56 94 104 132t119 38q39 0 94 -28t105.5 -56t79.5 -28q64 0 125 112l96 -75q-80 -174 -227 -174q-40 0 -94 27t-104.5 54t-84.5 27zM537 981q186 0 282 -93t96 -276v-612h-163v115q-96 -140 -301 -140q-154 0 -252.5 85
t-98.5 235t100.5 234.5t258.5 84.5q96 0 173.5 -29t119.5 -83v104q0 113 -61.5 170.5t-168.5 57.5q-143 0 -278 -80l-66 131q157 96 359 96zM494 102q118 0 189 55t71 148q0 88 -70 135t-186 47q-103 0 -166.5 -49.5t-63.5 -142.5q0 -94 61.5 -143.5t164.5 -49.5z" />
    <glyph glyph-name="f_t" horiz-adv-x="1185" 
d="M381 0h-164v801h-176v153h176v344q0 188 105 295t274 107q168 0 271.5 -107t103.5 -295v-344h174v-153h-174v-801h-164v801h-426v-801zM381 1294v-340h426v340q0 123 -57.5 185.5t-153.5 62.5q-98 0 -156.5 -62.5t-58.5 -185.5z" />
    <glyph glyph-name="uni0414.loclBGR" horiz-adv-x="1529" 
d="M197 -383h-160v535h151l574 1452h4l575 -1450h152v-537h-160v383h-1136v-383zM764 1237l-395 -1083h790z" />
    <glyph glyph-name="uni041B.loclBGR" horiz-adv-x="1398" 
d="M186 0h-184l700 1626h5l690 -1626h-185l-512 1251z" />
    <glyph glyph-name="uni0424.loclBGR" horiz-adv-x="1847" 
d="M1729 778q0 -219 -91.5 -391t-255 -273t-376.5 -118v-135h-164v133q-212 17 -374 115.5t-254.5 273t-92.5 401.5q0 163 52.5 302t147 238.5t228.5 161t293 73.5v127h164v-125q159 -13 292.5 -74t229 -161t148.5 -241t53 -307zM1006 1409v-1264q254 26 402 198t148 437
q0 267 -148 435.5t-402 193.5zM291 780q0 -267 150.5 -438.5t400.5 -196.5v1264q-253 -26 -402 -196t-149 -433z" />
    <glyph glyph-name="uni0431.loclSRB" horiz-adv-x="1251" 
d="M760 1032q192 -103 286.5 -236.5t94.5 -312.5q0 -158 -67.5 -275t-183.5 -177t-265 -60q-222 0 -368 143t-146 363q0 184 126 317.5t330 172.5q-305 178 -305 391q0 152 103.5 247t285.5 95q233 0 373 -137l-113 -115q-49 46 -117.5 73t-142.5 27q-110 0 -170.5 -50
t-60.5 -140q0 -79 76.5 -152.5t263.5 -173.5zM625 117q155 0 253.5 97t98.5 265q0 264 -279 420q-200 -35 -311 -147t-111 -277q0 -155 97.5 -256.5t251.5 -101.5z" />
    <glyph glyph-name="uni0432.loclBGR" horiz-adv-x="1277" 
d="M807 911v-4q164 -30 262 -146t98 -296q0 -148 -65 -261.5t-171 -172t-233 -58.5q-122 0 -216 58.5t-136 140.5h-4v-172h-162v1221q0 224 129.5 351.5t339.5 127.5q198 0 323.5 -116t125.5 -290q0 -146 -77 -246t-214 -137zM649 1559q-140 0 -223.5 -87t-83.5 -251v-254
h272q145 0 233.5 81t88.5 228q0 125 -78.5 204t-208.5 79zM680 117q142 0 233 94t91 256q0 77 -21.5 139.5t-58 104t-87.5 69t-107.5 39.5t-119.5 12h-268v-397q0 -135 99 -226t239 -91z" />
    <glyph glyph-name="uni0433.loclBGR" horiz-adv-x="829" 
d="M412 -29q-147 0 -238.5 75t-91.5 198q0 104 61.5 172t218.5 135q121 50 164 87t43 93q0 50 -36 76.5t-97 26.5q-132 0 -205 -105l-114 94q44 73 127 115.5t192 42.5q131 0 211 -67t80 -183q0 -109 -62 -175.5t-198 -121.5q-129 -52 -178 -90.5t-49 -97.5
q0 -56 46.5 -90.5t129.5 -34.5q160 0 239 147l117 -94q-115 -203 -360 -203z" />
    <glyph glyph-name="uni0434.loclBGR" horiz-adv-x="1241" 
d="M580 -545q-198 0 -323.5 97.5t-145.5 287.5l163 15q40 -250 308 -250q156 0 235.5 94.5t79.5 275.5v189h-2q-129 -193 -352 -193q-125 0 -227.5 66.5t-161 183t-58.5 258.5q0 213 127.5 356.5t315.5 143.5q223 0 356 -188h2v163h164v-958q0 -260 -119.5 -400.5
t-361.5 -140.5zM582 119q140 0 232.5 98.5t92.5 259.5q0 159 -93 258t-232 99q-137 0 -227.5 -102.5t-90.5 -252.5q0 -158 88 -259t230 -101z" />
    <glyph glyph-name="uni0436.loclBGR" horiz-adv-x="1439" 
d="M211 0h-197l475 526l-440 428h193l399 -393v1118h158v-1118l399 393h193l-439 -428l473 -526h-194l-383 430l-49 -47v-383h-158v383l-49 47z" />
    <glyph glyph-name="uni0437.loclBGR" horiz-adv-x="1030" 
d="M457 -559q-292 0 -447 172l101 125q129 -150 346 -150q136 0 224.5 80t88.5 228q0 147 -99.5 225t-267.5 78h-69v147h63q145 0 227.5 75t82.5 193q0 106 -65 169t-175 63q-77 0 -147 -35t-123 -96l-111 100q147 172 381 172q182 0 292.5 -97t110.5 -265q0 -136 -79 -226
t-189 -114v-2q152 -29 243 -129.5t91 -257.5q0 -211 -133 -333t-346 -122z" />
    <glyph glyph-name="uni0438.loclBGR" horiz-adv-x="1140" 
d="M489 -27q-159 0 -241 98t-82 285v598h164v-561q0 -142 52.5 -207t158.5 -65q121 0 188.5 80.5t67.5 244.5v508h164v-954h-164v137h-4q-106 -164 -304 -164z" />
    <glyph glyph-name="uni0439.loclBGR" horiz-adv-x="1140" 
d="M569 1192q-139 0 -234.5 72.5t-131.5 197.5l131 43q21 -83 82 -134.5t153 -51.5q93 0 154.5 51.5t81.5 134.5l131 -43q-34 -124 -130.5 -197t-236.5 -73zM489 -27q-159 0 -241 98t-82 285v598h164v-561q0 -142 52.5 -207t158.5 -65q121 0 188.5 80.5t67.5 244.5v508h164
v-954h-164v137h-4q-106 -164 -304 -164z" />
    <glyph glyph-name="uni045D.loclBGR" horiz-adv-x="1140" 
d="M707 1198l-91 -57l-342 307l152 84zM489 -27q-159 0 -241 98t-82 285v598h164v-561q0 -142 52.5 -207t158.5 -65q121 0 188.5 80.5t67.5 244.5v508h164v-954h-164v137h-4q-106 -164 -304 -164z" />
    <glyph glyph-name="uni043A.loclBGR" horiz-adv-x="999" 
d="M506 547l477 -547h-203l-385 444l-51 -47v-397h-164v1679h164v-1104l397 379h207z" />
    <glyph glyph-name="uni043B.loclBGR" horiz-adv-x="952" 
d="M188 0h-184l473 1008h4l467 -1008h-182l-289 668z" />
    <glyph glyph-name="uni043F.loclBGR" horiz-adv-x="1140" 
d="M344 0h-164v954h164v-137h4q106 164 301 164q161 0 243.5 -98t82.5 -285v-598h-164v561q0 142 -52.5 207.5t-160.5 65.5q-120 0 -187 -81t-67 -245v-508z" />
    <glyph glyph-name="uni0442.loclBGR" horiz-adv-x="1671" 
d="M344 0h-164v954h164v-127h2q44 71 104 112.5t152 41.5q203 0 277 -176h2q107 176 295 176q331 0 331 -381v-600h-164v557q0 146 -48.5 211.5t-149.5 65.5q-109 0 -165 -76.5t-56 -220.5v-537h-164v571q0 263 -193 263q-110 0 -166.5 -78.5t-56.5 -225.5v-530z" />
    <glyph glyph-name="uni0446.loclBGR" horiz-adv-x="1165" 
d="M1110 -301h-143v301h-170v137h-4q-106 -164 -304 -164q-159 0 -241 98t-82 285v598h164v-561q0 -142 52.5 -207t158.5 -65q121 0 188.5 80.5t67.5 244.5v508h164v-809h149v-446z" />
    <glyph glyph-name="uni0448.loclBGR" horiz-adv-x="1656" 
d="M496 -27q-330 0 -330 381v600h164v-557q0 -145 48 -209.5t150 -64.5q108 0 164 76t56 219v536h163v-569q0 -262 195 -262q108 0 164.5 77t56.5 224v530h164v-954h-164v127h-2q-92 -154 -256 -154q-103 0 -169.5 43t-104.5 134h-2q-112 -177 -297 -177z" />
    <glyph glyph-name="uni0449.loclBGR" horiz-adv-x="1695" 
d="M1640 -301h-145v301h-168v129h-2q-93 -156 -256 -156q-102 0 -168.5 43.5t-105.5 133.5h-2q-114 -177 -297 -177q-162 0 -246 96t-84 287v598h164v-555q0 -146 48 -211t150 -65q108 0 164 76.5t56 218.5v536h163v-569q0 -262 195 -262q108 0 164.5 78t56.5 225v528h164
v-809h149v-446z" />
    <glyph glyph-name="uni044C.loclBGR" horiz-adv-x="995" 
d="M518 0h-338v956h162v-358h176q365 0 365 -299q0 -146 -96 -222.5t-269 -76.5zM342 467v-336h170q96 0 153.5 40.5t57.5 125.5q0 170 -215 170h-166z" />
    <glyph glyph-name="uni044A.loclBGR" horiz-adv-x="1130" 
d="M653 0h-338v809h-274v147h436v-358h176q367 0 367 -299q0 -146 -97 -222.5t-270 -76.5zM477 467v-336h168q97 0 155 40.5t58 125.5q0 170 -215 170h-166z" />
    <glyph glyph-name="uni044E.loclBGR" horiz-adv-x="1636" 
d="M1020 981q220 0 363 -144.5t143 -359.5q0 -217 -143 -361.5t-367 -144.5q-202 0 -339 124.5t-159 320.5h-176v-416h-162v1679h162v-1120h178q27 183 164.5 302.5t335.5 119.5zM1020 119q148 0 243 99.5t95 258.5q0 155 -95 256t-243 101q-147 0 -242.5 -101t-95.5 -254
q0 -161 93.5 -260.5t244.5 -99.5z" />
    <glyph glyph-name="zero.dnom" horiz-adv-x="839" 
d="M418 -16q-86 0 -155 39t-112 106.5t-65.5 153.5t-22.5 184q0 129 38.5 235t120.5 173t196 67q86 0 155.5 -39t113 -105t66.5 -151t23 -180q0 -98 -22.5 -184t-66 -153.5t-113 -106.5t-156.5 -39zM418 96q109 0 167 106.5t58 262.5q0 99 -23.5 178t-75.5 130.5t-126 51.5
t-125.5 -52t-74.5 -131t-23 -177q0 -99 23 -180.5t74.5 -135t125.5 -53.5z" />
    <glyph glyph-name="one.dnom" horiz-adv-x="475" 
d="M324 0h-138v807h-149l53 119h234v-926z" />
    <glyph glyph-name="two.dnom" horiz-adv-x="819" 
d="M535 322l-218 -209q61 0 202 2t208 2v-117h-686v4l358 348q94 92 142.5 160.5t48.5 140.5q0 75 -49.5 123.5t-130.5 48.5q-86 0 -138.5 -54.5t-54.5 -143.5h-133q6 148 92.5 229.5t233.5 81.5q142 0 228.5 -76t86.5 -205q0 -53 -14.5 -99t-46.5 -90.5t-57 -72t-72 -73.5z
" />
    <glyph glyph-name="three.dnom" horiz-adv-x="837" 
d="M414 -16q-134 0 -224 72t-96 200h137q4 -74 57 -120t126 -46q78 0 130 47.5t52 128.5q0 73 -55 119.5t-131 46.5h-23v103h16q68 0 117 45t49 112q0 66 -42 105t-105 39q-70 0 -113.5 -41.5t-46.5 -110.5h-135q9 125 89 191.5t210 66.5q110 0 194.5 -63.5t84.5 -173.5
q0 -74 -44.5 -132.5t-119.5 -83.5q86 -23 138 -82.5t52 -146.5q0 -68 -27 -122t-72 -87t-100.5 -50t-117.5 -17z" />
    <glyph glyph-name="four.dnom" horiz-adv-x="808" 
d="M633 956v-665h129v-103h-129v-188h-117v188l-506 -2v7l617 763h6zM217 291h299v235q0 40 4 154z" />
    <glyph glyph-name="five.dnom" horiz-adv-x="837" 
d="M373 -12q-92 0 -173.5 34.5t-136.5 90.5l68 102q113 -113 244 -113q102 0 164.5 61t62.5 154q0 90 -65 145.5t-170 55.5q-95 0 -181 -39l-4 2l111 445h428v-111h-334q-32 -123 -59 -213q30 12 88 12q146 0 233.5 -83t87.5 -214q0 -150 -103 -239.5t-261 -89.5z" />
    </font>
</defs>
</svg>
